<svg width="12" height="8" viewBox="0 0 12 8" fill="none" xmlns="http://www.w3.org/2000/svg">
<path d="M8.76665 3.33335L6.86665 1.43335C6.73332 1.30001 6.66932 1.14446 6.67465 0.966681C6.67998 0.788903 6.74398 0.633347 6.86665 0.500014C6.99998 0.366681 7.15821 0.297125 7.34132 0.291348C7.52443 0.28557 7.68287 0.34957 7.81665 0.483347L10.8667 3.53335C11 3.66668 11.0667 3.82224 11.0667 4.00001C11.0667 4.17779 11 4.33335 10.8667 4.46668L7.81665 7.51668C7.68332 7.65001 7.52487 7.71379 7.34132 7.70801C7.15776 7.70224 6.99954 7.6329 6.86665 7.50001C6.74443 7.36668 6.68043 7.21113 6.67465 7.03335C6.66887 6.85557 6.73287 6.70001 6.86665 6.56668L8.76665 4.66668L1.33332 4.66668C1.14443 4.66668 0.985984 4.60268 0.857984 4.47468C0.729983 4.34668 0.666205 4.18846 0.66665 4.00001C0.667094 3.81157 0.731094 3.65313 0.85865 3.52468C0.986205 3.39624 1.14443 3.33246 1.33332 3.33335L8.76665 3.33335Z" fill="#A7B5CA"/>
</svg>
