<svg width="92" height="118" viewBox="0 0 92 118" fill="none" xmlns="http://www.w3.org/2000/svg">
<g filter="url(#filter0_d_486_2176)">
<path d="M47.7361 1.73529C21.8516 1.73529 0.868164 22.712 0.868164 48.5882C0.868164 74.4644 21.8516 95.4412 47.7361 95.4412V1.73529Z" stroke="#F5CE5B" stroke-linejoin="round"/>
<path fill-rule="evenodd" clip-rule="evenodd" d="M47.7363 81.5588C64.9926 81.5588 78.9816 67.5743 78.9816 50.3236C78.9816 33.0728 64.9926 19.0883 47.7363 19.0883V20.8236C64.0339 20.8236 77.2458 34.0312 77.2458 50.3236C77.2458 66.6159 64.0339 79.8236 47.7363 79.8236V81.5588Z" fill="#18F3FF"/>
<path fill-rule="evenodd" clip-rule="evenodd" d="M47.7363 71.1471C59.2405 71.1471 68.5665 61.824 68.5665 50.3235C68.5665 38.823 59.2405 29.5 47.7363 29.5V31.2353C58.2818 31.2353 66.8307 39.7814 66.8307 50.3235C66.8307 60.8656 58.2818 69.4118 47.7363 69.4118V71.1471Z" fill="#18F3FF"/>
<path fill-rule="evenodd" clip-rule="evenodd" d="M53.0035 12.0382L48.1914 19.7936L49.6665 20.7083L53.902 13.8823H66.8306V12.147H53.179L53.0035 12.0382Z" fill="#18F3FF"/>
<path d="M71.1699 18.2206C74.046 18.2206 76.3775 15.8898 76.3775 13.0147C76.3775 10.1396 74.046 7.80884 71.1699 7.80884C68.2939 7.80884 65.9624 10.1396 65.9624 13.0147C65.9624 15.8898 68.2939 18.2206 71.1699 18.2206Z" stroke="#18F3FF" stroke-linejoin="round"/>
<path fill-rule="evenodd" clip-rule="evenodd" d="M52.5484 88.4936L47.7363 80.7382L49.2115 79.8235L53.4469 86.6495H66.3755V88.3848H52.7239L52.5484 88.4936Z" fill="#18F3FF"/>
<path d="M70.7149 82.3113C73.5909 82.3113 75.9224 84.642 75.9224 87.5171C75.9224 90.3923 73.5909 92.723 70.7149 92.723C67.8388 92.723 65.5073 90.3923 65.5073 87.5171C65.5073 84.642 67.8388 82.3113 70.7149 82.3113Z" stroke="#18F3FF" stroke-linejoin="round"/>
</g>
<mask id="mask0_486_2176" style="mask-type:luminance" maskUnits="userSpaceOnUse" x="16" y="19" width="33" height="64">
<path fill-rule="evenodd" clip-rule="evenodd" d="M48.3146 19.0883L28.7618 38.6351L35.9541 45.825L48.3146 33.469V19.0883ZM48.3146 43.6028L41.0132 50.9018L41.0233 50.9122L48.3146 58.2011V43.6028ZM48.3146 68.3347L35.9544 55.979L28.7517 63.1593L48.3146 82.7154V68.3347ZM30.8752 50.9009L23.6832 43.7112L16.4907 50.9012L23.6827 58.0911L30.8752 50.9009Z" fill="white"/>
</mask>
<g mask="url(#mask0_486_2176)">
<path d="M28.7618 38.6351L27.5344 37.4081C26.8565 38.0857 26.8565 39.1845 27.5344 39.8622L28.7618 38.6351ZM48.3146 19.0883H50.0504C50.0504 18.3863 49.6274 17.7536 48.9787 17.485C48.3302 17.2165 47.5834 17.3649 47.087 17.8612L48.3146 19.0883ZM35.9541 45.825L34.7267 47.052C35.4045 47.7298 36.5035 47.7298 37.1814 47.0522L35.9541 45.825ZM48.3146 33.469L49.542 34.696C49.8675 34.3706 50.0504 33.9292 50.0504 33.469H48.3146ZM41.0132 50.9018L39.7858 49.6747C39.1196 50.3407 39.1064 51.4163 39.7561 52.0984L41.0132 50.9018ZM48.3146 43.6028H50.0504C50.0504 42.9008 49.6274 42.2681 48.9787 41.9995C48.3302 41.7309 47.5834 41.8794 47.087 42.3757L48.3146 43.6028ZM41.0233 50.9122L39.7662 52.109C39.7759 52.1192 39.7858 52.1293 39.7959 52.1394L41.0233 50.9122ZM48.3146 58.2011L47.087 59.4281C47.5834 59.9244 48.3302 60.073 48.9787 59.8043C49.6274 59.5357 50.0504 58.903 50.0504 58.2011H48.3146ZM48.3146 68.3347H50.0504C50.0504 67.8743 49.8675 67.433 49.5418 67.1077L48.3146 68.3347ZM35.9545 55.979L37.1819 54.752C36.5046 54.0749 35.4068 54.0742 34.7288 54.7503L35.9545 55.979ZM28.7517 63.1593L27.526 61.9306C27.1997 62.256 27.0162 62.6976 27.0159 63.1581C27.0155 63.6189 27.1985 64.0607 27.5243 64.3864L28.7517 63.1593ZM48.3146 82.7154L47.0872 83.9424C47.5836 84.4387 48.3302 84.5873 48.9787 84.3187C49.6274 84.05 50.0504 83.4173 50.0504 82.7154H48.3146ZM23.6832 43.7112L24.9106 42.484C24.585 42.1586 24.1436 41.9759 23.6832 41.9759C23.2227 41.9759 22.7813 42.1586 22.4556 42.484L23.6832 43.7112ZM30.8752 50.9009L32.1026 52.1279C32.7805 51.4503 32.7805 50.3515 32.1026 49.6739L30.8752 50.9009ZM16.4907 50.9012L15.2633 49.6742C14.5854 50.3518 14.5854 51.4506 15.2633 52.1283L16.4907 50.9012ZM23.6827 58.0911L22.4553 59.3181C23.1333 59.9957 24.2323 59.9957 24.9103 59.3181L23.6827 58.0911ZM29.9894 39.8622L49.542 20.3153L47.087 17.8612L27.5344 37.4081L29.9894 39.8622ZM37.1815 44.5979L29.9892 37.4081L27.5344 39.8622L34.7267 47.052L37.1815 44.5979ZM47.0872 32.242L34.7267 44.5979L37.1814 47.0522L49.542 34.696L47.0872 32.242ZM50.0504 33.469V19.0883H46.5787V33.469H50.0504ZM42.2407 52.1288L49.542 44.8298L47.087 42.3757L39.7858 49.6747L42.2407 52.1288ZM42.2802 49.7155L42.2703 49.7049L39.7561 52.0984L39.7662 52.109L42.2802 49.7155ZM49.542 56.9741L42.2507 49.6851L39.7959 52.1394L47.087 59.4281L49.542 56.9741ZM50.0504 58.2011V43.6028H46.5787V58.2011H50.0504ZM49.5418 67.1077L37.1819 54.752L34.727 57.2061L47.0872 69.5617L49.5418 67.1077ZM34.7288 54.7503L27.526 61.9306L29.9774 64.3881L37.1801 57.2078L34.7288 54.7503ZM27.5243 64.3864L47.0872 83.9424L49.5418 81.4884L29.9791 61.9323L27.5243 64.3864ZM50.0504 82.7154V68.3347H46.5787V82.7154H50.0504ZM22.4556 44.9382L29.6478 52.1279L32.1026 49.6739L24.9106 42.484L22.4556 44.9382ZM17.7182 52.1283L24.9106 44.9382L22.4556 42.484L15.2633 49.6742L17.7182 52.1283ZM24.9103 56.864L17.7182 49.6742L15.2633 52.1283L22.4553 59.3181L24.9103 56.864ZM29.6478 49.6739L22.4553 56.864L24.9103 59.3181L32.1026 52.1279L29.6478 49.6739Z" fill="#F5CE5B"/>
</g>
<defs>
<filter id="filter0_d_486_2176" x="0.368164" y="1.23529" width="85.6133" height="106.706" filterUnits="userSpaceOnUse" color-interpolation-filters="sRGB">
<feFlood flood-opacity="0" result="BackgroundImageFix"/>
<feColorMatrix in="SourceAlpha" type="matrix" values="0 0 0 0 0 0 0 0 0 0 0 0 0 0 0 0 0 0 127 0" result="hardAlpha"/>
<feOffset dx="5" dy="10"/>
<feGaussianBlur stdDeviation="1"/>
<feComposite in2="hardAlpha" operator="out"/>
<feColorMatrix type="matrix" values="0 0 0 0 0 0 0 0 0 0 0 0 0 0 0 0 0 0 0.75 0"/>
<feBlend mode="normal" in2="BackgroundImageFix" result="effect1_dropShadow_486_2176"/>
<feBlend mode="normal" in="SourceGraphic" in2="effect1_dropShadow_486_2176" result="shape"/>
</filter>
</defs>
</svg>
