<svg width="134" height="40" viewBox="0 0 134 40" fill="none" xmlns="http://www.w3.org/2000/svg">
<g opacity="0.2">
<path d="M23.2265 16.3506L22.5967 18.8653C23.3109 19.0413 25.5139 19.7653 25.8703 18.3426C26.2428 16.8586 23.942 16.5333 23.2265 16.3506Z" fill="#557086"/>
<path d="M22.2785 20.1333L21.583 22.9066C22.4406 23.1186 25.0871 23.964 25.4784 22.4C25.8871 20.7693 23.1361 20.3466 22.2785 20.1333Z" fill="#557086"/>
<path d="M26.074 8.86381C23.8604 8.31471 21.5329 8.43106 19.3858 9.19817C17.2387 9.96527 15.3684 11.3487 14.0114 13.1734C12.6544 14.9982 11.8717 17.1823 11.7623 19.4497C11.6529 21.7171 12.2216 23.9658 13.3966 25.9116C14.5715 27.8573 16.3 29.4127 18.3633 30.381C20.4267 31.3493 22.7323 31.6871 24.9886 31.3516C27.2448 31.0161 29.3505 30.0224 31.0392 28.4961C32.7279 26.9699 33.9238 24.9797 34.4758 22.7771C34.8423 21.3147 34.9157 19.7947 34.6918 18.3039C34.4679 16.8132 33.9511 15.381 33.1709 14.089C32.3907 12.797 31.3624 11.6706 30.1447 10.7741C28.927 9.87752 27.5438 9.22842 26.074 8.86381ZM28.3721 18.3651C28.2059 19.4825 27.5828 20.0238 26.756 20.2145C27.891 20.8025 28.4686 21.7051 27.9192 23.2691C27.2358 25.2105 25.613 25.3745 23.4543 24.9691L22.9303 27.0571L21.664 26.7438L22.1813 24.6825C21.853 24.6011 21.518 24.5158 21.1723 24.4158L20.6537 26.4865L19.3901 26.1718L19.914 24.0798C19.6179 24.0038 19.3177 23.9238 19.0108 23.8478L17.364 23.4398L17.9924 21.9998C17.9924 21.9998 18.9304 22.2465 18.9117 22.2278C18.9696 22.2464 19.0306 22.2535 19.0912 22.2485C19.1519 22.2436 19.2109 22.2268 19.265 22.199C19.319 22.1712 19.367 22.1331 19.4062 22.0868C19.4454 22.0405 19.475 21.9869 19.4932 21.9291L20.32 18.6265L20.454 18.6598C20.4104 18.6427 20.3657 18.6289 20.32 18.6185L20.9136 16.2665C20.9284 15.9998 20.8359 15.6611 20.3227 15.5331C20.3428 15.5211 19.4035 15.3065 19.4035 15.3065L19.7411 13.9611L21.4831 14.3945C21.7511 14.4598 22.0191 14.5278 22.2871 14.5838L22.8044 12.5158L24.0707 12.8291L23.5615 14.8571C23.9009 14.9336 24.2391 15.0127 24.5759 15.0945L25.081 13.0798L26.346 13.3931L25.8341 15.4665C27.4327 16.0158 28.6012 16.8371 28.3721 18.3651Z" fill="#557086"/>
<path d="M45.5605 15.4666C46.3951 15.4466 47.2235 15.6153 47.9832 15.96C48.6423 16.2723 49.2225 16.728 49.681 17.2933C50.1396 17.8802 50.4767 18.5518 50.6726 19.2693C50.8906 20.0643 50.9979 20.8853 50.9915 21.7093C50.9988 24.2799 50.0051 26.7534 48.219 28.6106C47.3526 29.497 46.3207 30.2067 45.1812 30.7C43.9853 31.2197 42.6926 31.4823 41.3877 31.4706C41.2122 31.4706 40.9026 31.4706 40.4658 31.456C39.9634 31.4395 39.4623 31.395 38.965 31.3226C38.3603 31.2361 37.7606 31.1186 37.168 30.9706C36.548 30.8222 35.9457 30.6085 35.3711 30.3333L40.4229 9.21198L44.9481 8.51465L43.1391 16.0093C43.5156 15.8423 43.9062 15.7084 44.3062 15.6093C44.7169 15.5112 45.1381 15.4633 45.5605 15.4666ZM41.7656 27.9027C42.4395 27.9032 43.1025 27.7334 43.6925 27.4093C44.2988 27.079 44.831 26.6289 45.2563 26.0866C45.701 25.5215 46.0508 24.8884 46.2921 24.212C46.5452 23.5128 46.674 22.7751 46.6727 22.032C46.6727 21.0986 46.5159 20.3773 46.205 19.8533C45.8941 19.3293 45.3152 19.0666 44.4791 19.0666C44.1208 19.0801 43.7648 19.1292 43.4165 19.2133C42.9757 19.3138 42.5681 19.5245 42.2319 19.8253L40.305 27.784C40.4216 27.8053 40.5247 27.824 40.6118 27.8426C40.7024 27.8627 40.7941 27.8769 40.8865 27.8853C41.0036 27.898 41.1212 27.9038 41.239 27.9027H41.7656ZM55.6815 31.0667H51.36L55.0088 15.7866H59.3625L55.6815 31.0667ZM57.7839 13.924C57.1949 13.9298 56.6204 13.7424 56.1491 13.3906C55.66 13.0346 55.4175 12.4866 55.4175 11.748C55.4151 11.3529 55.4992 10.9621 55.6641 10.6026C55.8232 10.2532 56.0468 9.93666 56.3233 9.66931C56.5995 9.40674 56.9202 9.19502 57.2707 9.04398C57.6356 8.89046 58.0283 8.81287 58.4245 8.81598C59.0135 8.81016 59.588 8.9976 60.0593 9.34932C60.5443 9.70487 60.7873 10.252 60.7882 10.9906C60.7904 11.3873 60.7053 11.7795 60.539 12.14C60.382 12.4896 60.1596 12.8064 59.8837 13.0733C59.6076 13.3362 59.2863 13.5476 58.935 13.6973C58.5713 13.8535 58.1787 13.9321 57.7826 13.928L57.7839 13.924ZM63.1439 11.9786L67.6705 11.2853L66.5583 15.7893H71.4064L70.534 19.3333H65.7167L64.433 24.6773C64.3215 25.0855 64.2532 25.5043 64.2293 25.9266C64.2003 26.2688 64.2498 26.613 64.3741 26.9333C64.4947 27.2205 64.7182 27.4528 65.0012 27.5853C65.3027 27.7413 65.7342 27.82 66.2996 27.82C66.7563 27.8206 67.2119 27.7759 67.6597 27.6866C68.1102 27.5979 68.5535 27.4767 68.9863 27.324L69.3093 30.6373C68.6889 30.86 68.0552 31.0439 67.4118 31.188C66.6157 31.353 65.8036 31.4295 64.9905 31.416C63.6505 31.416 62.6088 31.2186 61.8656 30.824C61.1703 30.4745 60.6133 29.9025 60.2844 29.2C59.9662 28.4532 59.8285 27.6426 59.8824 26.8333C59.9276 25.8833 60.0622 24.9397 60.2844 24.0146L63.148 11.988L63.1439 11.9786ZM71.2161 24.9653C71.2077 23.6973 71.425 22.4379 71.858 21.2453C72.2662 20.1193 72.8921 19.0838 73.7005 18.1973C74.5147 17.3153 75.5051 16.6123 76.6083 16.1333C77.8099 15.6168 79.1077 15.3592 80.4165 15.3773C81.2071 15.3678 81.996 15.4511 82.7669 15.6253C83.4167 15.7766 84.0486 15.9956 84.6523 16.2786L83.1622 19.6533C82.7638 19.4951 82.3595 19.3546 81.9495 19.232C81.4512 19.0938 80.9351 19.0296 80.4179 19.0413C78.9747 19.0413 77.8344 19.5373 76.9861 20.5226C76.1379 21.508 75.7105 22.8386 75.7105 24.504C75.7105 25.4915 75.9253 26.2915 76.355 26.904C76.7825 27.5146 77.5731 27.8186 78.7188 27.8186C79.2688 27.82 79.8174 27.7619 80.3549 27.6453C80.8345 27.543 81.3037 27.3971 81.7565 27.2093L82.0835 30.6666C81.4925 30.8918 80.8884 31.0815 80.2745 31.2346C79.4982 31.4093 78.7038 31.4916 77.9081 31.48C76.7012 31.48 75.6792 31.3058 74.8421 30.9573C74.0567 30.6432 73.3497 30.1622 72.7705 29.548C72.2215 28.9532 71.8168 28.2412 71.5873 27.4667C71.3414 26.6569 71.2176 25.8153 71.2201 24.9693L71.2161 24.9653ZM90.4129 31.472C89.4977 31.4905 88.5875 31.3321 87.7329 31.0053C87.0114 30.722 86.3666 30.2745 85.8502 29.6987C85.3436 29.1184 84.9611 28.4415 84.726 27.7093C84.4654 26.8903 84.3383 26.035 84.3494 25.176C84.3521 23.9908 84.5434 22.8136 84.9163 21.688C85.2817 20.55 85.851 19.4871 86.5966 18.5506C87.3383 17.6173 88.26 16.8407 89.3074 16.2666C90.3794 15.6773 91.6042 15.3813 92.9844 15.3813C93.8995 15.3634 94.8095 15.5214 95.6644 15.8466C96.3873 16.1303 97.0337 16.5776 97.5525 17.1533C98.058 17.7344 98.4396 18.4117 98.674 19.144C98.9365 19.9654 99.0646 20.8235 99.0533 21.6853C99.0492 22.8692 98.863 24.0455 98.5012 25.1733C98.1457 26.3064 97.5918 27.3681 96.865 28.3093C96.1346 29.2483 95.2149 30.0249 94.1649 30.5893C93.0867 31.1804 91.836 31.476 90.4129 31.476V31.472ZM92.573 19.0386C91.9631 19.0287 91.3673 19.2221 90.8806 19.588C90.3846 19.9692 89.9685 20.4435 89.6558 20.984C89.3191 21.5601 89.0677 22.1817 88.9095 22.8293C88.7502 23.4508 88.6674 24.0893 88.6629 24.7306C88.6629 25.7013 88.8183 26.4569 89.1292 26.9973C89.4414 27.5373 90.0042 27.8093 90.823 27.8093C91.434 27.8195 92.0307 27.6246 92.5167 27.256C93.0139 26.8775 93.4314 26.4054 93.7455 25.8666C94.0828 25.2906 94.3347 24.6691 94.4932 24.0213C94.6501 23.3998 94.7324 22.7621 94.7385 22.1213C94.7385 21.1546 94.5817 20.3973 94.2695 19.8546C93.9572 19.312 93.3931 19.0413 92.5757 19.0413L92.573 19.0386ZM103.767 31.0667H99.4419L103.092 15.7866H107.444L103.767 31.0667ZM105.867 13.924C105.278 13.9304 104.704 13.7429 104.234 13.3906C103.746 13.0351 103.502 12.4875 103.501 11.748C103.499 11.3527 103.584 10.9619 103.75 10.6026C103.908 10.2528 104.131 9.936 104.408 9.66931C104.684 9.40641 105.006 9.19465 105.357 9.04398C105.72 8.8889 106.112 8.80993 106.508 8.81198C107.097 8.80586 107.672 8.99332 108.144 9.34531C108.63 9.70531 108.875 10.252 108.875 10.9866C108.876 11.3832 108.791 11.7753 108.625 12.136C108.468 12.4856 108.246 12.8023 107.971 13.0693C107.694 13.3317 107.373 13.543 107.022 13.6933C106.658 13.8496 106.264 13.9282 105.867 13.924ZM110.557 16.4813C110.885 16.3853 111.253 16.2706 111.651 16.1453C112.093 16.0093 112.539 15.8942 112.991 15.8C113.54 15.6817 114.095 15.5927 114.654 15.5333C115.346 15.4599 116.042 15.4252 116.739 15.4293C119.017 15.4293 120.59 16.0884 121.457 17.4066C122.323 18.7249 122.475 20.5262 121.911 22.8106L119.93 31.0667H115.579L117.506 22.9893C117.624 22.4853 117.715 21.9973 117.785 21.5226C117.855 21.1086 117.85 20.6854 117.769 20.2733C117.699 19.9289 117.509 19.62 117.233 19.4013C116.949 19.1786 116.517 19.068 115.933 19.068C115.355 19.0699 114.778 19.1288 114.211 19.244L111.376 31.0667H107.025L110.558 16.484L110.557 16.4813Z" fill="#557086"/>
</g>
</svg>
