<svg width="20" height="20" viewBox="0 0 20 20" fill="none" xmlns="http://www.w3.org/2000/svg">
<path d="M9.16655 18.833C7.50232 18.8359 5.88862 18.2614 4.60052 17.2076C3.31243 16.1538 2.42969 14.6859 2.10277 13.0541C1.77586 11.4223 2.02501 9.72757 2.80775 8.2589C3.5905 6.79023 4.85838 5.63849 6.39527 5.00001C7.93216 4.36154 9.64292 4.27585 11.2359 4.75755C12.8289 5.23925 14.2055 6.25853 15.1311 7.64164C16.0567 9.02474 16.474 10.686 16.3117 12.3424C16.1495 13.9987 15.4179 15.5475 14.2416 16.7247C13.5771 17.3942 12.7864 17.9253 11.9152 18.2872C11.0441 18.6491 10.1099 18.8346 9.16655 18.833ZM9.16655 5.70803C7.79254 5.70239 6.45916 6.17379 5.39401 7.04178C4.32886 7.90977 3.59798 9.12053 3.32613 10.4674C3.05428 11.8143 3.2583 13.2137 3.90338 14.4269C4.54846 15.6401 5.5946 16.5918 6.86323 17.1195C8.13187 17.6473 9.54434 17.7184 10.8595 17.3207C12.1748 16.923 13.3112 16.0811 14.0748 14.9388C14.8384 13.7966 15.1819 12.4246 15.0467 11.0573C14.9114 9.68994 14.3058 8.41192 13.3332 7.44137C12.2284 6.33503 10.7301 5.71173 9.16655 5.70803Z" fill="#2283F6"/>
<path d="M15.3082 9.99986C15.1433 9.99627 14.9856 9.93083 14.8666 9.81652C14.751 9.69689 14.6864 9.53704 14.6864 9.37069C14.6864 9.20434 14.751 9.04449 14.8666 8.92486L16.5332 7.25819L13.5916 4.34152L11.9749 5.95819C11.8577 6.07523 11.6989 6.14097 11.5332 6.14097C11.3676 6.14097 11.2088 6.07523 11.0916 5.95819C11.0326 5.90074 10.9858 5.83206 10.9538 5.7562C10.9218 5.68035 10.9053 5.59885 10.9053 5.51652C10.9053 5.4342 10.9218 5.3527 10.9538 5.27685C10.9858 5.20099 11.0326 5.13231 11.0916 5.07486L13.1499 3.01652C13.2691 2.9034 13.4272 2.84033 13.5916 2.84033C13.7559 2.84033 13.914 2.9034 14.0332 3.01652L17.8416 6.82486C17.9586 6.94204 18.0244 7.1009 18.0244 7.26652C18.0244 7.43215 17.9586 7.591 17.8416 7.70819L15.7499 9.79986C15.6933 9.86093 15.6251 9.91008 15.5493 9.94443C15.4734 9.97877 15.3915 9.99762 15.3082 9.99986Z" fill="#2283F6"/>
<path d="M15.4332 5.92478C15.2857 5.92902 15.1415 5.88092 15.026 5.78901C14.9106 5.69711 14.8314 5.56731 14.8024 5.42261C14.7735 5.2779 14.7967 5.12762 14.8679 4.99838C14.9391 4.86914 15.0538 4.76926 15.1916 4.71644C15.1916 4.71644 15.8082 4.44978 15.9082 3.96644C16.0082 3.48311 15.6666 2.91644 14.9999 2.23311C14.9409 2.17565 14.8941 2.10697 14.8621 2.03112C14.8301 1.95526 14.8136 1.87377 14.8136 1.79144C14.8136 1.70911 14.8301 1.62762 14.8621 1.55177C14.8941 1.47591 14.9409 1.40723 14.9999 1.34978C15.1171 1.23273 15.276 1.16699 15.4416 1.16699C15.6072 1.16699 15.7661 1.23273 15.8832 1.34978C16.8999 2.36644 17.3166 3.33311 17.1332 4.22478C17.0337 4.59678 16.8495 4.94074 16.5951 5.22985C16.3407 5.51895 16.0229 5.74537 15.6666 5.89144C15.5921 5.91928 15.5125 5.93066 15.4332 5.92478Z" fill="#2283F6"/>
</svg>
