<svg width="20" height="20" viewBox="0 0 20 20" fill="none" xmlns="http://www.w3.org/2000/svg">
<g clip-path="url(#clip0_197_1923)">
<path d="M5.74173 10.1332C5.6174 10.1345 5.49548 10.0988 5.39157 10.0305C5.28766 9.96224 5.20647 9.86451 5.1584 9.74983C5.12517 9.67361 5.10814 9.59132 5.1084 9.50817C5.10855 9.34246 5.17449 9.1836 5.29173 9.0665C5.35116 9.00807 5.42212 8.96266 5.50007 8.93317C5.61309 8.88581 5.73767 8.8732 5.85789 8.89694C5.97812 8.92069 6.08854 8.97972 6.17507 9.0665C6.29211 9.18369 6.35785 9.34254 6.35785 9.50817C6.35785 9.67379 6.29211 9.83265 6.17507 9.94983C6.11863 10.0076 6.05124 10.0536 5.97684 10.0851C5.90244 10.1166 5.82252 10.1329 5.74173 10.1332Z" fill="#2283F6"/>
<path d="M8.10842 12.4999C8.02872 12.5166 7.94645 12.5166 7.86675 12.4999C7.79238 12.4683 7.72455 12.4231 7.66675 12.3666C7.5894 12.3001 7.53175 12.2136 7.50009 12.1166C7.4837 12.0369 7.4837 11.9547 7.50009 11.8749C7.50201 11.7096 7.56768 11.5514 7.68342 11.4333C7.74329 11.3794 7.81066 11.3345 7.88342 11.2999C7.96945 11.2634 8.06257 11.2467 8.15593 11.2509C8.2493 11.2551 8.34052 11.2802 8.4229 11.3244C8.50527 11.3685 8.5767 11.4306 8.63192 11.506C8.68714 11.5814 8.72474 11.6682 8.74197 11.7601C8.75919 11.8519 8.75559 11.9465 8.73144 12.0368C8.70729 12.127 8.6632 12.2108 8.60241 12.2818C8.54162 12.3527 8.46569 12.4092 8.3802 12.447C8.29471 12.4847 8.20183 12.5028 8.10842 12.4999Z" fill="#2283F6"/>
<path d="M11.8667 8.74157C11.7862 8.74191 11.7066 8.72485 11.6334 8.69157C11.5554 8.66207 11.4845 8.61666 11.425 8.55823C11.3078 8.44113 11.2418 8.28227 11.2417 8.11657C11.2414 8.03342 11.2585 7.95112 11.2917 7.8749C11.3233 7.80052 11.3685 7.7327 11.425 7.6749C11.4915 7.60866 11.5752 7.56246 11.6667 7.54157C11.7797 7.49421 11.9043 7.48159 12.0245 7.50534C12.1448 7.52909 12.2552 7.58812 12.3417 7.6749C12.429 7.7623 12.4884 7.87362 12.5125 7.99479C12.5366 8.11595 12.5242 8.24153 12.4769 8.35567C12.4297 8.4698 12.3497 8.56738 12.247 8.63606C12.1443 8.70474 12.0236 8.74146 11.9 8.74157H11.8667Z" fill="#2283F6"/>
<path d="M9.50003 6.37494C9.33433 6.37479 9.17546 6.30885 9.05837 6.19161C8.99891 6.133 8.95334 6.06181 8.92503 5.98327C8.89269 5.9097 8.87568 5.83031 8.87503 5.74994C8.87417 5.66775 8.88997 5.58625 8.92148 5.51034C8.95299 5.43443 8.99956 5.36569 9.05837 5.30827C9.17759 5.19515 9.33568 5.13208 9.50003 5.13208C9.66439 5.13208 9.82248 5.19515 9.9417 5.30827C10.0589 5.42537 10.1249 5.58423 10.125 5.74994C10.1231 5.91528 10.0574 6.0735 9.9417 6.19161C9.8246 6.30885 9.66574 6.37479 9.50003 6.37494Z" fill="#2283F6"/>
<path d="M10.4502 14.85C10.2819 14.8502 10.1203 14.7844 10.0002 14.6666C9.88312 14.5494 9.81738 14.3906 9.81738 14.225C9.81738 14.0593 9.88312 13.9005 10.0002 13.7833C10.0573 13.7221 10.129 13.6763 10.2085 13.65C10.3215 13.6026 10.4461 13.59 10.5663 13.6137C10.6865 13.6375 10.797 13.6965 10.8835 13.7833C10.9708 13.8707 11.0302 13.982 11.0543 14.1032C11.0784 14.2244 11.066 14.3499 11.0187 14.4641C10.9715 14.5782 10.8915 14.6758 10.7888 14.7445C10.6861 14.8131 10.5654 14.8499 10.4418 14.85H10.4502Z" fill="#2283F6"/>
<path d="M14.2167 11.0833C14.051 11.0831 13.8922 11.0172 13.7751 10.8999C13.716 10.8425 13.668 10.7747 13.6334 10.6999C13.6028 10.6232 13.5886 10.5408 13.5917 10.4583C13.5917 10.2925 13.6576 10.1335 13.7748 10.0163C13.892 9.8991 14.051 9.83325 14.2167 9.83325C14.3825 9.83325 14.5415 9.8991 14.6587 10.0163C14.7759 10.1335 14.8417 10.2925 14.8417 10.4583C14.842 10.5414 14.825 10.6237 14.7917 10.6999C14.7601 10.7743 14.7149 10.8421 14.6584 10.8999C14.5403 11.0157 14.3821 11.0813 14.2167 11.0833Z" fill="#2283F6"/>
<path d="M10.0001 19.0332C9.58979 19.0333 9.18349 18.9524 8.80453 18.7951C8.42557 18.6378 8.0814 18.4072 7.79177 18.1166L1.8751 12.1999C1.28989 11.6139 0.961182 10.8197 0.961182 9.99155C0.961182 9.16343 1.28989 8.36916 1.8751 7.78322L7.79177 1.86655C8.37771 1.28134 9.17197 0.952637 10.0001 0.952637C10.8282 0.952637 11.6225 1.28134 12.2084 1.86655L18.1251 7.78322C18.4159 8.07279 18.6466 8.41694 18.804 8.7959C18.9614 9.17487 19.0425 9.58119 19.0425 9.99155C19.0425 10.4019 18.9614 10.8082 18.804 11.1872C18.6466 11.5662 18.4159 11.9103 18.1251 12.1999L12.2084 18.1166C11.9188 18.4072 11.5746 18.6378 11.1957 18.7951C10.8167 18.9524 10.4104 19.0333 10.0001 19.0332ZM10.0001 2.19989C9.75382 2.19919 9.50985 2.24745 9.28238 2.34187C9.05492 2.43629 8.84849 2.57498 8.6751 2.74989L2.75843 8.66655C2.40731 9.01812 2.21008 9.49468 2.21008 9.99155C2.21008 10.4884 2.40731 10.965 2.75843 11.3166L8.6751 17.2332C9.02666 17.5843 9.50322 17.7816 10.0001 17.7816C10.497 17.7816 10.9735 17.5843 11.3251 17.2332L17.2418 11.3166C17.5929 10.965 17.7901 10.4884 17.7901 9.99155C17.7901 9.49468 17.5929 9.01812 17.2418 8.66655L11.3251 2.74989C11.1517 2.57498 10.9453 2.43629 10.7178 2.34187C10.4903 2.24745 10.2464 2.19919 10.0001 2.19989Z" fill="#2283F6"/>
</g>
<defs>
<clipPath id="clip0_197_1923">
<rect width="20" height="20" fill="white"/>
</clipPath>
</defs>
</svg>
