<svg width="20" height="20" viewBox="0 0 20 20" fill="none" xmlns="http://www.w3.org/2000/svg">
<path d="M15.8729 3.33958C14.5541 3.39192 11.8329 3.72967 9.74436 5.51189C9.62594 5.61294 9.56673 5.66347 9.50731 5.69178C9.48628 5.7018 9.46872 5.7088 9.44656 5.71599C9.38395 5.73631 9.31336 5.73998 9.17219 5.74733L5.90309 5.91748C4.73939 5.97804 3.8269 6.93926 3.8269 8.10453C3.8269 9.27773 4.75141 10.2425 5.92353 10.2926L6.72942 10.327L6.72946 10.327C6.74906 10.3278 6.75887 10.3282 6.76835 10.329C6.88013 10.338 6.98562 10.3844 7.06788 10.4606C7.07486 10.4671 7.0818 10.474 7.09568 10.4879L7.0957 10.4879L9.50998 12.9022C9.52387 12.9161 9.53081 12.923 9.53728 12.93C9.61351 13.0123 9.65986 13.1178 9.66891 13.2295C9.66967 13.239 9.67009 13.2488 9.67093 13.2685L9.70533 14.0744C9.75536 15.2465 10.7202 16.171 11.8934 16.171C13.0586 16.171 14.0198 15.2585 14.0804 14.0948L14.2506 10.8257V10.8257C14.2579 10.6845 14.2616 10.6139 14.2819 10.5513C14.2891 10.5292 14.2961 10.5116 14.3061 10.4906C14.3344 10.4312 14.385 10.3719 14.486 10.2535L14.486 10.2535C16.2682 8.16502 16.606 5.44383 16.6583 4.12494C16.6702 3.82623 16.6761 3.67688 16.5765 3.53752C16.5486 3.49847 16.4994 3.44926 16.4604 3.42136C16.321 3.32179 16.1717 3.32772 15.8729 3.33958Z" stroke="#2283F6" stroke-width="1.5" stroke-linejoin="round"/>
<path d="M3.33425 15.9591C3.32965 16.2022 3.32734 16.3238 3.42479 16.459C3.4499 16.4938 3.50321 16.5471 3.53805 16.5722C3.67325 16.6697 3.79482 16.6674 4.03797 16.6628C4.75568 16.6492 5.89535 16.4889 6.68228 15.7019C6.72424 15.66 6.76536 15.6161 6.80551 15.5705C7.35003 14.9531 7.11594 14.0454 6.53381 13.4632V13.4632C5.95167 12.8811 5.04398 12.647 4.42651 13.1915C4.38098 13.2317 4.33708 13.2728 4.29511 13.3148C3.50819 14.1017 3.34784 15.2414 3.33425 15.9591Z" stroke="#2283F6" stroke-width="1.5" stroke-linejoin="round"/>
<path d="M10.0656 9.93105C10.472 10.3374 11.1308 10.3374 11.5372 9.93105V9.93105C11.9436 9.52467 11.9436 8.86581 11.5372 8.45944V8.45944C11.1308 8.05306 10.472 8.05306 10.0656 8.45944V8.45944C9.65922 8.86581 9.65922 9.52467 10.0656 9.93105V9.93105Z" stroke="#2283F6" stroke-width="1.5" stroke-linejoin="round"/>
</svg>
