<svg width="20" height="20" viewBox="0 0 20 20" fill="none" xmlns="http://www.w3.org/2000/svg">
<path d="M9.99992 17.9163C8.43415 17.9163 6.90355 17.452 5.60166 16.5821C4.29977 15.7123 3.28507 14.4758 2.68588 13.0293C2.08668 11.5827 1.92991 9.9909 2.23537 8.45521C2.54084 6.91953 3.29483 5.50891 4.40199 4.40175C5.50916 3.29458 6.91977 2.54059 8.45546 2.23513C9.99114 1.92966 11.5829 2.08644 13.0295 2.68563C14.4761 3.28483 15.7125 4.29952 16.5824 5.60141C17.4523 6.9033 17.9166 8.43391 17.9166 9.99968C17.9144 12.0986 17.0796 14.111 15.5954 15.5952C14.1112 17.0794 12.0989 17.9141 9.99992 17.9163ZM9.99992 2.91634C8.59897 2.91634 7.22948 3.33178 6.06463 4.1101C4.89979 4.88843 3.9919 5.99469 3.45578 7.289C2.91965 8.58331 2.77938 10.0075 3.05269 11.3816C3.326 12.7556 4.00063 14.0177 4.99125 15.0084C5.98187 15.999 7.244 16.6736 8.61803 16.9469C9.99206 17.2202 11.4163 17.0799 12.7106 16.5438C14.0049 16.0077 15.1112 15.0998 15.8895 13.935C16.6678 12.7701 17.0833 11.4006 17.0833 9.99968C17.081 8.12174 16.3341 6.32135 15.0062 4.99344C13.6783 3.66554 11.8779 2.91855 9.99992 2.91634Z" fill="#2283F6"/>
<path d="M12.4998 14.2749C12.4301 14.2743 12.3616 14.2571 12.2998 14.2249L9.99983 13.0082L7.69149 14.2249C7.62237 14.2624 7.54407 14.2795 7.46562 14.2744C7.38717 14.2692 7.31178 14.2419 7.24816 14.1958C7.18454 14.1496 7.13529 14.0863 7.10609 14.0133C7.07689 13.9403 7.06894 13.8606 7.08316 13.7832L7.49983 11.2082L5.65816 9.39158C5.60166 9.33652 5.56161 9.26682 5.54247 9.19029C5.52334 9.11376 5.52589 9.03341 5.54983 8.95824C5.57448 8.88523 5.61852 8.8203 5.67724 8.77039C5.73595 8.72049 5.80713 8.68748 5.88316 8.67491L8.47483 8.33324L9.62483 5.99158C9.6629 5.92583 9.71758 5.87125 9.7834 5.83331C9.84922 5.79536 9.92385 5.77539 9.99983 5.77539C10.0758 5.77539 10.1504 5.79536 10.2163 5.83331C10.2821 5.87125 10.3368 5.92583 10.3748 5.99158L11.5248 8.33324L14.1165 8.70824C14.1925 8.72081 14.2637 8.75382 14.3224 8.80373C14.3811 8.85363 14.4252 8.91857 14.4498 8.99158C14.4738 9.06674 14.4763 9.14709 14.4572 9.22362C14.438 9.30016 14.398 9.36985 14.3415 9.42491L12.4998 11.2082L12.9415 13.7832C12.9537 13.86 12.9447 13.9387 12.9153 14.0107C12.8859 14.0827 12.8373 14.1453 12.7748 14.1916C12.695 14.2492 12.5982 14.2786 12.4998 14.2749ZM9.99983 12.1166C10.067 12.1162 10.1331 12.1334 10.1915 12.1666L11.9498 13.0916L11.6165 11.1332C11.6043 11.0672 11.6086 10.9993 11.6289 10.9353C11.6493 10.8714 11.6851 10.8134 11.7332 10.7666L13.1582 9.38324L11.1915 9.09158C11.1244 9.08261 11.0605 9.05744 11.0053 9.01824C10.9502 8.97904 10.9054 8.92698 10.8748 8.86658L9.99983 7.08324L9.16649 8.86658C9.13595 8.92698 9.09116 8.97904 9.03598 9.01824C8.98081 9.05744 8.91691 9.08261 8.84983 9.09158L6.88316 9.38324L8.30816 10.7666C8.35624 10.8134 8.39204 10.8714 8.41239 10.9353C8.43274 10.9993 8.43701 11.0672 8.42483 11.1332L8.09149 13.0916L9.84983 12.1666C9.89581 12.1397 9.94689 12.1226 9.99983 12.1166Z" fill="#2283F6"/>
</svg>
