<svg width="20" height="20" viewBox="0 0 20 20" fill="none" xmlns="http://www.w3.org/2000/svg">
<path d="M9.1668 18.8333C7.50256 18.8361 5.88886 18.2617 4.60077 17.2079C3.31268 16.1541 2.42993 14.6861 2.10302 13.0543C1.7761 11.4225 2.02525 9.72782 2.808 8.25915C3.59074 6.79048 4.85862 5.63874 6.39551 5.00026C7.9324 4.36178 9.64316 4.27609 11.2362 4.75779C12.8292 5.2395 14.2058 6.25878 15.1314 7.64188C16.057 9.02498 16.4742 10.6863 16.312 12.3426C16.1498 13.9989 15.4181 15.5477 14.2418 16.7249C13.5773 17.3945 12.7866 17.9255 11.9155 18.2874C11.0444 18.6493 10.1101 18.8349 9.1668 18.8333ZM9.1668 5.70828C7.79278 5.70263 6.4594 6.17404 5.39426 7.04202C4.32911 7.91001 3.59823 9.12078 3.32638 10.4676C3.05452 11.8145 3.25855 13.214 3.90363 14.4272C4.54871 15.6403 5.59485 16.592 6.86348 17.1198C8.13211 17.6475 9.54458 17.7186 10.8598 17.3209C12.175 16.9232 13.3114 16.0814 14.075 14.9391C14.8387 13.7968 15.1822 12.4249 15.0469 11.0575C14.9117 9.69019 14.3061 8.41216 13.3335 7.44161C12.2286 6.33528 10.7303 5.71198 9.1668 5.70828Z" fill="#A7B5CA"/>
<path d="M15.3082 10.0001C15.1433 9.99651 14.9856 9.93108 14.8666 9.81677C14.751 9.69713 14.6864 9.53728 14.6864 9.37093C14.6864 9.20459 14.751 9.04474 14.8666 8.9251L16.5332 7.25843L13.5916 4.34177L11.9749 5.95843C11.8577 6.07548 11.6989 6.14122 11.5332 6.14122C11.3676 6.14122 11.2088 6.07548 11.0916 5.95843C11.0326 5.90098 10.9858 5.8323 10.9538 5.75644C10.9218 5.68059 10.9053 5.5991 10.9053 5.51677C10.9053 5.43444 10.9218 5.35295 10.9538 5.27709C10.9858 5.20124 11.0326 5.13256 11.0916 5.0751L13.1499 3.01677C13.2691 2.90364 13.4272 2.84058 13.5916 2.84058C13.7559 2.84058 13.914 2.90364 14.0332 3.01677L17.8416 6.8251C17.9586 6.94229 18.0244 7.10114 18.0244 7.26677C18.0244 7.43239 17.9586 7.59125 17.8416 7.70843L15.7499 9.8001C15.6933 9.86118 15.6251 9.91033 15.5493 9.94467C15.4734 9.97902 15.3915 9.99786 15.3082 10.0001Z" fill="#A7B5CA"/>
<path d="M15.4335 5.92502C15.286 5.92926 15.1417 5.88117 15.0263 5.78926C14.9108 5.69735 14.8316 5.56755 14.8027 5.42285C14.7737 5.27815 14.7969 5.12787 14.8681 4.99862C14.9394 4.86938 15.054 4.76951 15.1918 4.71669C15.1918 4.71669 15.8085 4.45002 15.9085 3.96669C16.0085 3.48335 15.6668 2.91669 15.0002 2.23335C14.9412 2.1759 14.8943 2.10722 14.8623 2.03136C14.8303 1.95551 14.8138 1.87401 14.8138 1.79169C14.8138 1.70936 14.8303 1.62786 14.8623 1.55201C14.8943 1.47615 14.9412 1.40747 15.0002 1.35002C15.1173 1.23298 15.2762 1.16724 15.4418 1.16724C15.6074 1.16724 15.7663 1.23298 15.8835 1.35002C16.9002 2.36669 17.3168 3.33335 17.1335 4.22502C17.0339 4.59702 16.8497 4.94099 16.5953 5.23009C16.3409 5.51919 16.0231 5.74561 15.6668 5.89169C15.5924 5.91953 15.5128 5.9309 15.4335 5.92502Z" fill="#A7B5CA"/>
</svg>
