<svg width="30" height="30" viewBox="0 0 30 30" fill="none" xmlns="http://www.w3.org/2000/svg">
<g clip-path="url(#clip0_486_2371)">
<path d="M15 30C23.2843 30 30 23.2843 30 15C30 6.71573 23.2843 0 15 0C6.71573 0 0 6.71573 0 15C0 23.2843 6.71573 30 15 30Z" fill="#2573C2"/>
<path d="M24.7891 11.052C24.7689 10.7159 24.6703 10.3892 24.5011 10.098C24.3511 9.79802 24.0841 9.56402 23.7721 9.44402C23.4539 9.28546 23.1014 9.20815 22.7461 9.21902H9.43207L8.47807 12.078H20.5411L18.6361 17.922H6.57607L5.62207 20.781H18.9991C19.3977 20.7695 19.7918 20.6935 20.1661 20.556C20.5411 20.343 20.9701 20.127 21.3331 19.827C21.6875 19.5476 22.0077 19.2274 22.2871 18.873C22.518 18.5258 22.7149 18.1571 22.8751 17.772L24.6421 12.216C24.8028 11.8505 24.8539 11.4461 24.7891 11.052Z" fill="white"/>
<path d="M13.2332 13.6741H6.13515L5.18115 16.3171H12.3512L13.2332 13.6741Z" fill="white"/>
</g>
<defs>
<clipPath id="clip0_486_2371">
<rect width="30" height="30" fill="white"/>
</clipPath>
</defs>
</svg>
