<svg width="30" height="30" viewBox="0 0 30 30" fill="none" xmlns="http://www.w3.org/2000/svg">
<g clip-path="url(#clip0_486_2362)">
<g clip-path="url(#clip1_486_2362)">
<path d="M14.988 29.916C23.2192 29.916 29.892 23.2433 29.892 15.012C29.892 6.78078 23.2192 0.108032 14.988 0.108032C6.75673 0.108032 0.0839844 6.78078 0.0839844 15.012C0.0839844 23.2433 6.75673 29.916 14.988 29.916Z" fill="#335E9F"/>
<path d="M8.36401 24.156L10.584 16.944L8.16602 17.682L8.80802 15.906L11.028 15.216L14.13 5.01004C14.196 4.79404 14.4 4.64404 14.628 4.64404H17.796C18.144 4.64404 18.39 4.98004 18.294 5.31004L15.774 13.734L18.048 13.092L17.634 14.808L15.288 15.516L13.65 20.748H21.99C22.242 20.748 22.422 20.988 22.356 21.228L21.63 23.88C21.582 24.042 21.438 24.156 21.264 24.156H8.36401Z" fill="white"/>
</g>
<circle cx="15" cy="15" r="15" fill="black" fill-opacity="0.7"/>
</g>
<defs>
<clipPath id="clip0_486_2362">
<rect width="30" height="30" fill="white"/>
</clipPath>
<clipPath id="clip1_486_2362">
<rect width="30" height="30" fill="white"/>
</clipPath>
</defs>
</svg>
