<svg width="35" height="35" viewBox="0 0 35 35" fill="none" xmlns="http://www.w3.org/2000/svg">
<g clip-path="url(#clip0_486_2328)">
<g clip-path="url(#clip1_486_2328)">
<path d="M12.4078 17.3299C12.5938 17.3419 12.8038 17.3179 13.0198 17.2999C13.2418 17.2819 13.4638 17.2399 13.6738 17.1619C13.8058 17.1139 13.9258 17.0359 13.9738 16.9039C14.0698 16.6519 14.0878 16.3879 14.0158 16.1299C13.9018 15.7339 13.6078 15.4639 13.2898 15.2179C13.0138 15.0019 12.7018 14.9179 12.3658 14.9779C11.7778 15.0739 11.1838 15.5959 11.1118 16.2079C11.0818 16.4779 11.0638 16.7359 11.2198 16.9759C11.3218 17.1379 11.4298 17.2759 11.6458 17.2939C11.8918 17.3119 12.1378 17.3299 12.4078 17.3299ZM23.4658 17.3299C23.5978 17.3419 23.8078 17.3119 24.0178 17.2999C24.2038 17.2879 24.3778 17.2459 24.4918 17.0719C24.6478 16.8259 24.7138 16.5559 24.6778 16.2679C24.6058 15.7639 24.3118 15.4099 23.8858 15.1579C23.5438 14.9599 23.1838 14.8939 22.7998 15.0319C22.5778 15.1099 22.3978 15.2599 22.2298 15.4219C21.9298 15.7039 21.7018 16.0219 21.6718 16.4479C21.6418 16.8379 21.7978 17.0779 22.1698 17.1859C22.5658 17.3059 22.9738 17.3239 23.4658 17.3299ZM25.4818 19.0399C25.4818 18.7939 25.4818 18.5419 25.4038 18.3079C25.3078 18.0079 25.3318 18.0019 25.0378 18.0319C24.6358 18.0679 24.2698 18.2359 23.9158 18.4159C23.4058 18.6679 22.9258 18.9679 22.4578 19.2799C22.0738 19.5319 21.6778 19.7659 21.3478 20.0899C21.0838 20.3479 20.8558 20.6179 20.7958 21.0019C20.7778 21.1219 20.8138 21.1879 20.9458 21.2179C21.0658 21.2479 21.1858 21.2719 21.3118 21.2719C21.7798 21.2719 22.2418 21.1879 22.6978 21.0739C23.2798 20.9299 23.8498 20.7379 24.3838 20.4619C24.7378 20.2759 25.0738 20.0659 25.3498 19.7659C25.4218 19.6879 25.4758 19.6039 25.4698 19.4899C25.4578 19.3339 25.4758 19.1839 25.4818 19.0399ZM10.5718 18.9979C10.5778 19.1059 10.5958 19.2859 10.5958 19.4599C10.5898 19.6279 10.6738 19.7419 10.7818 19.8439C11.2378 20.2879 11.8018 20.5459 12.3898 20.7679C12.7678 20.9119 13.1578 21.0199 13.5598 21.1099C13.9558 21.1999 14.3578 21.2599 14.7658 21.2719C14.9098 21.2779 15.0538 21.2599 15.1978 21.2119C15.3178 21.1699 15.3538 21.1159 15.3358 20.9959C15.3178 20.8939 15.2878 20.7919 15.2398 20.7019C15.0598 20.3359 14.7778 20.0599 14.4478 19.8379C13.6018 19.2559 12.7498 18.6919 11.8018 18.2779C11.5138 18.1519 11.2198 18.0499 10.8958 18.0559C10.7878 18.0559 10.7398 18.1039 10.6978 18.1939C10.6018 18.4339 10.5958 18.6799 10.5718 18.9979ZM7.60179 6.88394C7.52979 6.87194 7.51779 6.89594 7.45779 7.03394C7.22979 7.54994 7.16379 8.10194 7.13379 8.65394C7.10979 8.99594 7.13979 9.33794 7.16979 9.67994C7.18779 9.91994 7.21779 10.1539 7.25379 10.3879C7.29579 10.6459 7.33779 10.9099 7.39179 11.1679C7.45779 11.5099 7.53579 11.8519 7.61979 12.1879C7.72779 12.6079 7.84179 13.0279 7.96179 13.4479C8.06379 13.7959 8.17179 14.1379 8.27979 14.4799C8.28579 14.5039 8.29779 14.5339 8.32779 14.5339C8.35779 14.5339 8.36379 14.5099 8.37579 14.4919C8.60979 14.1259 8.84379 13.7539 9.10779 13.4059C9.43779 12.9739 9.77379 12.5479 10.1518 12.1519C10.4578 11.8339 10.7698 11.5219 11.1118 11.2399C11.4298 10.9759 11.7478 10.7239 12.0898 10.4959C12.1498 10.4539 12.1498 10.4239 12.1018 10.3699C11.8738 10.1299 11.6518 9.87794 11.4178 9.64394C11.0218 9.24794 10.6198 8.85794 10.1878 8.49794C9.87579 8.23394 9.56379 7.98194 9.22779 7.74794C8.87979 7.50794 8.51379 7.28594 8.13579 7.09994C7.96179 7.01594 7.78179 6.93794 7.60179 6.88394ZM24.7318 11.3719C24.7858 11.4679 24.8878 11.5099 24.9598 11.5879C25.2838 11.9179 25.6198 12.2359 25.9198 12.5899C26.1598 12.8719 26.3878 13.1599 26.6038 13.4599C26.8318 13.7719 27.0538 14.0959 27.2578 14.4199C27.2878 14.4679 27.2938 14.5459 27.3598 14.5459C27.3778 14.5459 27.4078 14.4559 27.4198 14.4019C27.5458 13.9759 27.6838 13.5499 27.8098 13.1179C27.9478 12.6319 28.0798 12.1399 28.1878 11.6479C28.3078 11.1079 28.4098 10.5619 28.4698 10.0099C28.5118 9.64394 28.5358 9.27794 28.5478 8.90594C28.5598 8.57594 28.5178 8.25194 28.4818 7.92794C28.4758 7.90394 28.4638 7.88594 28.4638 7.86194C28.4278 7.55594 28.3318 7.26794 28.2058 6.98594C28.1458 6.84794 28.1278 6.84794 27.9838 6.90194C27.4798 7.09994 27.0058 7.35794 26.5558 7.66394C25.8598 8.14394 25.2178 8.70194 24.6118 9.28994C24.2578 9.63194 23.9158 9.99194 23.5858 10.3579C23.5378 10.4119 23.5258 10.4419 23.5978 10.4959C23.8678 10.6939 24.1378 10.8919 24.4018 11.1019C24.5098 11.1979 24.6058 11.3119 24.7318 11.3719ZM24.5758 7.63394C24.8878 7.33394 25.1878 7.02194 25.5178 6.73994C26.1118 6.22394 26.7478 5.77394 27.4738 5.44994C27.9418 5.23994 28.4278 5.08394 28.9438 5.04794C29.0158 5.04194 29.0638 5.05394 29.1058 5.12594C29.2978 5.43194 29.4178 5.76194 29.5078 6.10394C29.6998 6.81194 29.7238 7.53794 29.6998 8.26394C29.6758 8.85794 29.6158 9.44594 29.5318 10.0339C29.4658 10.5019 29.3818 10.9639 29.2978 11.4259C29.2678 11.5999 29.2198 11.7739 29.1958 11.9539C29.1838 11.9899 29.1718 12.0259 29.1658 12.0619C29.0338 12.6619 28.8838 13.2619 28.7278 13.8559C28.5418 14.5579 28.3498 15.2539 28.1218 15.9439C28.0558 16.1479 28.0978 16.2979 28.1758 16.4719C28.3978 16.9699 28.6858 17.4379 28.8718 17.9479C29.0098 18.3139 29.1418 18.6799 29.2498 19.0519C29.4298 19.6579 29.5678 20.2819 29.6698 20.9059C29.7298 21.2899 29.7778 21.6739 29.8138 22.0639C29.8438 22.3999 29.8618 22.7359 29.8738 23.0719C29.8798 23.1979 29.9278 23.3299 29.8798 23.4619C29.7058 23.4379 29.5318 23.4019 29.3578 23.3839C28.7878 23.3239 28.2178 23.2939 27.6418 23.3539C26.9758 23.4199 26.3398 23.5699 25.7278 23.8279C24.9298 24.1579 24.2278 24.6379 23.5978 25.2319C23.4298 25.3939 23.2678 25.5619 23.0938 25.7299C23.0278 25.5319 22.9618 25.3399 22.9018 25.1479C22.7158 24.6019 22.4398 24.0979 22.1938 23.5819C22.1158 23.4259 22.0258 23.2819 21.9118 23.1499C21.5098 22.6879 21.0598 22.2859 20.5438 21.9619C19.7398 21.4699 18.8578 21.2539 17.9278 21.2479C17.4418 21.2479 16.9678 21.3439 16.5058 21.4879C15.5938 21.7759 14.8558 22.3219 14.2318 23.0299C14.0038 23.2879 13.8538 23.5939 13.6738 23.8819C13.4338 24.2719 13.2178 24.6799 13.0378 25.0999C12.9478 25.3039 12.8638 25.5079 12.7678 25.7239C12.7258 25.6759 12.6898 25.6399 12.6538 25.5979C11.5798 24.4099 10.2898 23.5879 8.67579 23.3419C8.07579 23.2519 7.47579 23.2459 6.87579 23.2939C6.57579 23.3179 6.28179 23.3719 5.98779 23.4199C5.99379 23.0839 6.02379 22.7479 6.04779 22.4119C6.08379 21.9739 6.14379 21.5359 6.22179 21.1039C6.28179 20.7379 6.36579 20.3719 6.44979 20.0059C6.58779 19.4239 6.75579 18.8539 6.95979 18.2899C6.99579 18.1819 7.05579 18.0739 6.95379 17.9719C6.94779 17.9659 6.95979 17.9539 6.96579 17.9359C7.03179 18.0199 7.06779 18.0079 7.09779 17.9119C7.30179 17.3659 7.53579 16.8319 7.78179 16.2979C7.80579 16.2439 7.82379 16.1959 7.79979 16.1359C7.57779 15.5779 7.38579 15.0079 7.22379 14.4259C7.09779 13.9879 6.98379 13.5439 6.88779 13.0939C6.81579 12.7699 6.74379 12.4459 6.67179 12.1219C6.65379 11.8519 6.58779 11.5939 6.55179 11.3239C6.49179 10.9159 6.43779 10.5019 6.38979 10.0939C6.34779 9.66794 6.31779 9.24794 6.29379 8.82194C6.27579 8.40794 6.26979 7.99394 6.28179 7.57994C6.29979 7.06994 6.33579 6.55994 6.46779 6.06194C6.53979 5.79194 6.62979 5.52794 6.77979 5.28794C6.95379 5.01194 7.09179 4.96394 7.41579 5.01194C7.97979 5.10194 8.47179 5.34194 8.94579 5.64794C9.57579 6.04994 10.1338 6.54194 10.6618 7.06394C10.8718 7.27394 11.0878 7.48394 11.2978 7.69394C11.3098 7.71194 11.3218 7.72994 11.3398 7.74794C11.6158 8.05394 11.8978 8.34794 12.1738 8.65994C12.5638 9.09794 12.9478 9.53594 13.3258 9.97994C13.4038 10.0699 13.4638 10.0819 13.5718 10.0399C14.2378 9.76394 14.9278 9.57194 15.6358 9.43994C16.2478 9.32594 16.8658 9.28394 17.4838 9.26594C18.3718 9.23594 19.2538 9.27794 20.1358 9.42194C20.9218 9.55394 21.6898 9.75194 22.4398 10.0339C22.6078 10.0999 22.6078 10.0999 22.7158 9.94994C23.0458 9.48794 23.3998 9.04394 23.7598 8.59994C24.0058 8.26994 24.2938 7.95194 24.5758 7.63394Z" fill="#F4A817"/>
<path d="M29.8798 23.456C29.9278 23.324 29.8738 23.198 29.8738 23.066C29.8618 22.73 29.8438 22.394 29.8138 22.058C29.7778 21.674 29.7298 21.284 29.6698 20.9C29.5678 20.27 29.4298 19.652 29.2498 19.046C29.1358 18.674 29.0038 18.308 28.8718 17.942C28.6798 17.432 28.3978 16.958 28.1758 16.466C28.0978 16.292 28.0558 16.136 28.1218 15.938C28.3498 15.248 28.5418 14.552 28.7278 13.85C28.8838 13.256 29.0338 12.656 29.1658 12.056C29.1718 12.02 29.1838 11.984 29.1958 11.948C29.5498 12.458 29.8558 12.992 30.1378 13.544C30.5038 14.258 30.8038 14.996 31.0498 15.758C31.2598 16.412 31.4218 17.078 31.5418 17.756C31.7098 18.728 31.7878 19.712 31.7698 20.696C31.7578 21.446 31.6918 22.19 31.5718 22.934C31.2598 24.8 30.6298 26.558 29.6578 28.184C28.6678 29.84 27.4078 31.25 25.8538 32.39C24.9958 33.026 24.0718 33.548 23.0878 33.962C22.5118 34.208 21.9238 34.406 21.3178 34.568C20.6638 34.742 19.9978 34.856 19.3198 34.928C18.4918 35.012 17.6638 35.018 16.8418 34.946C16.1518 34.886 15.4738 34.766 14.7958 34.598C13.8718 34.37 12.9898 34.04 12.1438 33.62C10.1218 32.612 8.45384 31.178 7.10984 29.36C6.40184 28.406 5.82584 27.374 5.36984 26.276C5.10584 25.646 4.88984 25.004 4.71584 24.35C4.53584 23.666 4.40384 22.976 4.31984 22.268C4.19384 21.242 4.18184 20.216 4.25984 19.184C4.32584 18.35 4.45784 17.522 4.66184 16.706C5.07584 15.074 5.72984 13.55 6.65384 12.14C6.65984 12.134 6.66584 12.128 6.66584 12.122C6.73784 12.446 6.80984 12.77 6.88184 13.094C6.97784 13.544 7.09184 13.988 7.21784 14.426C7.37984 15.002 7.57184 15.578 7.79384 16.136C7.81784 16.196 7.79984 16.244 7.77584 16.298C7.52984 16.826 7.29584 17.36 7.09184 17.912C7.05584 18.008 7.02584 18.02 6.95984 17.936C6.95384 17.954 6.94784 17.972 6.94784 17.972C7.04984 18.08 6.98984 18.182 6.95384 18.29C6.75584 18.854 6.58784 19.424 6.44384 20.006C6.35384 20.372 6.27584 20.732 6.21584 21.104C6.14384 21.536 6.07784 21.974 6.04184 22.412C6.01784 22.748 5.98784 23.084 5.98184 23.42C5.95184 23.84 5.99384 24.248 6.10184 24.656C6.26384 25.256 6.52784 25.808 6.85184 26.336C7.50584 27.392 8.35184 28.286 9.28784 29.096C10.5838 30.224 12.0178 31.136 13.5778 31.856C13.8838 32 14.1898 32.144 14.5078 32.258C14.7418 32.342 14.9758 32.426 15.2098 32.51C15.3538 32.558 15.5038 32.612 15.6538 32.66C16.2058 32.828 16.7698 32.942 17.3458 33.002C17.9998 33.068 18.6538 33.026 19.3018 32.918C19.8838 32.822 20.4538 32.678 21.0118 32.498C21.5878 32.312 22.1518 32.09 22.7038 31.832C23.4838 31.472 24.2278 31.058 24.9478 30.584C25.6258 30.14 26.2618 29.648 26.8618 29.096C27.1138 28.862 27.3718 28.628 27.5878 28.358C27.6178 28.352 27.6298 28.328 27.6418 28.304H27.6478V28.298C27.6598 28.286 27.6718 28.28 27.6838 28.268C28.0918 27.812 28.4698 27.332 28.7878 26.804C28.9618 26.51 29.1478 26.222 29.2918 25.91C29.5558 25.346 29.7418 24.758 29.8318 24.134C29.8738 23.912 29.8918 23.684 29.8798 23.456Z" fill="#F00500"/>
<path d="M24.5759 7.63406C24.2939 7.95206 24.0059 8.26406 23.7359 8.59406C23.3759 9.03206 23.0219 9.47606 22.6919 9.94406C22.5839 10.1001 22.5839 10.0941 22.4159 10.0281C21.6719 9.74606 20.8979 9.54806 20.1119 9.41606C19.2359 9.27206 18.3479 9.23006 17.4599 9.26006C16.8419 9.28406 16.2179 9.32006 15.6119 9.43406C14.9039 9.56606 14.2139 9.75806 13.5479 10.0341C13.4399 10.0761 13.3799 10.0641 13.3019 9.97406C12.9239 9.53006 12.5399 9.09206 12.1499 8.65406C11.8739 8.34806 11.5919 8.04806 11.3159 7.74206C11.3039 7.72406 11.2919 7.70606 11.2739 7.68806C12.0839 7.21406 12.9359 6.81806 13.8299 6.52406C14.5739 6.27806 15.3359 6.09806 16.1159 5.98406C17.1119 5.84006 18.1079 5.82206 19.1099 5.90006C19.7939 5.95406 20.4719 6.07406 21.1439 6.23606C22.3259 6.53006 23.4419 6.98606 24.5039 7.58006C24.5339 7.60406 24.5579 7.62206 24.5759 7.63406Z" fill="#F00500"/>
<path d="M27.3059 28.5799L27.2999 28.5859H27.3059V28.5799ZM27.1019 28.7779C27.0959 28.7779 27.0959 28.7719 27.0899 28.7779C27.0779 28.7839 27.0779 28.7839 27.0899 28.7899C27.0899 28.7899 27.0959 28.7899 27.1019 28.7899C27.1019 28.7899 27.1019 28.7839 27.1019 28.7779ZM19.6979 32.7619H19.5959C19.6319 32.7859 19.6619 32.7739 19.6979 32.7619ZM19.3619 32.8099C19.4399 32.8339 19.4939 32.8159 19.5539 32.7859C19.4819 32.7619 19.4339 32.7979 19.3619 32.8099ZM18.1799 28.5319C17.8619 28.5259 17.5439 28.5259 17.2259 28.5259C17.0339 28.5259 17.0399 28.5259 17.0459 28.7179C17.0459 28.7659 17.0699 28.7899 17.1059 28.8139C17.2019 28.8739 17.3039 28.9099 17.4059 28.9519C17.4779 28.9819 17.5139 28.9759 17.5439 28.8919C17.5979 28.7239 17.6039 28.7299 17.7779 28.7419C17.8379 28.7479 17.8679 28.7719 17.8919 28.8139C17.9519 28.9099 18.0119 29.0119 18.0719 29.1079C18.1619 29.2579 18.3119 29.2699 18.4319 29.1319C18.4799 29.0719 18.5339 29.0119 18.5819 28.9519C18.7499 28.7539 18.7499 28.7539 18.9479 28.9219C18.9779 28.9459 18.9959 28.9819 19.0439 28.9699C19.2059 28.9339 19.3259 28.7779 19.3319 28.6159C19.3319 28.5319 19.3019 28.5199 19.2299 28.5199C18.8759 28.5319 18.5279 28.5319 18.1799 28.5319ZM21.4259 27.5599C21.1079 27.5599 20.7899 27.5599 20.4779 27.5599C20.4299 27.5599 20.4059 27.5899 20.3939 27.6199C20.3639 27.7039 20.3039 27.7219 20.2199 27.7159C19.9739 27.7099 19.7279 27.7099 19.4759 27.7099C19.3499 27.7099 19.1999 27.7459 19.1039 27.6919C19.0019 27.6319 18.9479 27.4879 18.8939 27.3739C18.8519 27.2959 18.8039 27.2539 18.7139 27.2659C18.6599 27.2779 18.6359 27.2539 18.6359 27.1939C18.6419 26.9119 18.6359 26.6299 18.6359 26.3479C18.6359 26.2999 18.6479 26.2759 18.6959 26.2579C18.9119 26.1859 19.1099 26.0719 19.2899 25.9339C19.6439 25.6639 19.8959 25.3219 19.9799 24.8719C20.0399 24.5659 20.0099 24.2539 20.0159 23.9419C20.0279 23.5699 19.6499 23.1859 19.2779 23.1859C18.5819 23.1859 17.8919 23.1859 17.1959 23.1859C16.7759 23.1859 16.4939 23.4679 16.4939 23.8879C16.4939 24.0859 16.5059 24.2839 16.4939 24.4819C16.4699 24.8899 16.6379 25.2139 16.9079 25.4959C17.2379 25.8379 17.6399 26.0599 18.0719 26.2459C18.1139 26.2639 18.1559 26.2699 18.1559 26.3359C18.1559 26.6179 18.1559 26.9059 18.1559 27.1879C18.1559 27.2299 18.1439 27.2659 18.0959 27.2539C17.9819 27.2239 17.9399 27.3019 17.8979 27.3799C17.8499 27.4699 17.7899 27.5599 17.7419 27.6499C17.7179 27.6919 17.6939 27.7039 17.6459 27.7039C17.2019 27.7039 16.7639 27.7039 16.3199 27.6799C16.2839 27.6799 16.2539 27.6799 16.2479 27.6319C16.2479 27.5599 16.1999 27.5539 16.1399 27.5539C15.8339 27.5539 15.5279 27.5479 15.2159 27.5479C15.1919 27.5479 15.1559 27.5299 15.1499 27.5719C15.1439 27.6079 15.1379 27.6439 15.1679 27.6799C15.2219 27.7339 15.2699 27.7879 15.3299 27.8359C15.4019 27.8959 15.4319 27.9619 15.4379 28.0579C15.4439 28.1899 15.4679 28.3159 15.4919 28.4419C15.5159 28.5499 15.5459 28.5799 15.6479 28.5499C15.7199 28.5259 15.7979 28.5199 15.8099 28.6339C15.8279 28.7899 15.8759 28.9399 15.9299 29.0899C15.9959 29.2879 16.0739 29.4859 16.1999 29.6539C16.3439 29.5039 16.3559 29.3299 16.3499 29.1439C16.3379 28.7899 16.3439 28.4419 16.3439 28.0879C16.3919 28.0939 16.4519 28.0939 16.5059 28.1059C16.9739 28.2019 17.4479 28.2379 17.9219 28.2559C18.6899 28.2859 19.4459 28.2199 20.2019 28.0879C20.2859 28.0759 20.3039 28.0939 20.2979 28.1719C20.2919 28.5319 20.2919 28.8919 20.2859 29.2519C20.2859 29.4199 20.3999 29.5219 20.4779 29.6599C20.5979 29.3419 20.7179 29.0419 20.8319 28.7419C20.8979 28.5679 20.8979 28.5679 21.0779 28.5679C21.1319 28.5679 21.1739 28.5679 21.1859 28.5079C21.2759 28.1959 21.3479 27.8839 21.4259 27.5599ZM27.5039 28.3939C27.5099 28.3879 27.5159 28.3819 27.5219 28.3699C27.5159 28.3699 27.5159 28.3639 27.5099 28.3639C27.5039 28.3699 27.4979 28.3819 27.5039 28.3939C27.4919 28.3999 27.4859 28.4059 27.4799 28.4119C27.4499 28.4119 27.4319 28.4239 27.4319 28.4539C27.4199 28.4539 27.4139 28.4599 27.4019 28.4599C27.4019 28.4659 27.4079 28.4659 27.4079 28.4719C27.4139 28.4659 27.4199 28.4599 27.4259 28.4539C27.4499 28.4479 27.4619 28.4299 27.4739 28.4059C27.4859 28.4059 27.4919 28.3999 27.5039 28.3939ZM27.3659 28.5259C27.3719 28.5199 27.3839 28.5199 27.3719 28.5079C27.3719 28.5139 27.3659 28.5199 27.3659 28.5259C27.3599 28.5259 27.3539 28.5319 27.3539 28.5319C27.3599 28.5319 27.3599 28.5319 27.3659 28.5259ZM27.2519 28.6399C27.2579 28.6339 27.2639 28.6279 27.2639 28.6279C27.2519 28.6159 27.2519 28.6279 27.2459 28.6339C27.2459 28.6399 27.2399 28.6459 27.2399 28.6459C27.2459 28.6459 27.2519 28.6459 27.2519 28.6399ZM27.5939 28.3519C27.3719 28.6219 27.1199 28.8559 26.8679 29.0899C26.2739 29.6419 25.6319 30.1339 24.9539 30.5779C24.2399 31.0519 23.4899 31.4659 22.7099 31.8259C22.1579 32.0779 21.5939 32.3059 21.0179 32.4919C20.4599 32.6719 19.8899 32.8159 19.3079 32.9119C18.6599 33.0199 18.0059 33.0619 17.3519 32.9959C16.7759 32.9419 16.2119 32.8279 15.6599 32.6539C15.5099 32.6059 15.3599 32.5519 15.2159 32.5039C14.9819 32.4199 14.7479 32.3419 14.5139 32.2519C14.1959 32.1319 13.8899 31.9879 13.5839 31.8499C12.0239 31.1299 10.5899 30.2119 9.29395 29.0899C8.35795 28.2799 7.51795 27.3919 6.85795 26.3299C6.53395 25.8019 6.26995 25.2499 6.10795 24.6499C5.99995 24.2479 5.95795 23.8339 5.98795 23.4139C6.28195 23.3659 6.57595 23.3119 6.87595 23.2879C7.47595 23.2399 8.07595 23.2459 8.67595 23.3359C10.2899 23.5819 11.5739 24.3979 12.6539 25.5919C12.6899 25.6279 12.7259 25.6699 12.7679 25.7179C12.8579 25.5019 12.9479 25.2979 13.0379 25.0939C13.2179 24.6739 13.4399 24.2719 13.6739 23.8759C13.8479 23.5879 14.0039 23.2819 14.2319 23.0239C14.8559 22.3099 15.5939 21.7639 16.5059 21.4819C16.9679 21.3379 17.4419 21.2419 17.9279 21.2419C18.8639 21.2419 19.7459 21.4579 20.5439 21.9559C21.0659 22.2739 21.5159 22.6819 21.9119 23.1379C22.0259 23.2699 22.1219 23.4139 22.1939 23.5699C22.4459 24.0859 22.7219 24.5899 22.9019 25.1359C22.9679 25.3279 23.0279 25.5199 23.0939 25.7179C23.2679 25.5499 23.4299 25.3819 23.5979 25.2199C24.2219 24.6259 24.9299 24.1459 25.7279 23.8159C26.3399 23.5639 26.9819 23.4139 27.6419 23.3419C28.2179 23.2819 28.7879 23.3119 29.3579 23.3719C29.5319 23.3899 29.7059 23.4259 29.8799 23.4499C29.8859 23.6779 29.8679 23.9059 29.8379 24.1279C29.7479 24.7459 29.5619 25.3339 29.2979 25.9039C29.1539 26.2159 28.9679 26.5039 28.7939 26.7979C28.4819 27.3259 28.0979 27.8059 27.6899 28.2619C27.6779 28.2739 27.6659 28.2799 27.6539 28.2919C27.6359 28.2439 27.6959 28.2199 27.6899 28.1659C27.6419 28.2079 27.5939 28.2319 27.5879 28.2979C27.5759 28.3039 27.5519 28.3039 27.5519 28.3159C27.5459 28.3459 27.5699 28.3399 27.5879 28.3459L27.5939 28.3519Z" fill="#FFFEFE"/>
<path d="M7.60185 6.88402C7.78185 6.93802 7.96785 7.01602 8.14185 7.10602C8.51985 7.29202 8.88585 7.51402 9.23385 7.75402C9.56985 7.98802 9.88185 8.24002 10.1939 8.50402C10.6199 8.86402 11.0279 9.25402 11.4239 9.65002C11.6579 9.88402 11.8799 10.136 12.1079 10.376C12.1559 10.424 12.1559 10.46 12.0959 10.502C11.7539 10.73 11.4359 10.988 11.1179 11.246C10.7759 11.528 10.4699 11.84 10.1579 12.158C9.77985 12.548 9.43785 12.974 9.11385 13.412C8.84985 13.76 8.61585 14.126 8.38185 14.498C8.36985 14.516 8.36385 14.54 8.33385 14.54C8.29785 14.54 8.29185 14.51 8.28585 14.486C8.17785 14.144 8.06385 13.796 7.96785 13.454C7.84785 13.034 7.72785 12.614 7.62585 12.194C7.54185 11.858 7.46385 11.516 7.39785 11.174C7.34985 10.916 7.30185 10.658 7.25985 10.394C7.22385 10.16 7.19385 9.92002 7.17585 9.68602C7.14585 9.34402 7.11585 9.00202 7.13385 8.66002C7.16385 8.10202 7.22985 7.55602 7.45785 7.04002C7.51785 6.89002 7.52985 6.87202 7.60185 6.88402Z" fill="#F28F1F"/>
<path d="M28.4878 7.92798C28.5238 8.25198 28.5658 8.58198 28.5538 8.90598C28.5418 9.27198 28.5178 9.64398 28.4758 10.01C28.4158 10.562 28.3138 11.108 28.1938 11.648C28.0858 12.14 27.9598 12.632 27.8158 13.118C27.6958 13.55 27.5578 13.97 27.4258 14.402C27.4078 14.456 27.3838 14.546 27.3658 14.546C27.2998 14.54 27.2938 14.468 27.2638 14.42C27.0538 14.09 26.8378 13.772 26.6098 13.46C26.3878 13.166 26.1598 12.872 25.9258 12.59C25.6258 12.236 25.2898 11.918 24.9658 11.588C24.8938 11.516 24.7918 11.468 24.7378 11.372C24.7558 11.348 24.7858 11.324 24.7978 11.294C24.9418 10.994 25.0978 10.706 25.2718 10.424C25.5298 9.99798 25.8178 9.58398 26.1538 9.21198C26.5078 8.82198 26.9038 8.48598 27.3778 8.24598C27.7198 8.06598 28.0918 7.94598 28.4878 7.92798Z" fill="#F28B20"/>
<path d="M10.5718 18.998C10.5898 18.68 10.6018 18.434 10.6978 18.2C10.7398 18.104 10.7878 18.062 10.8958 18.062C11.2198 18.056 11.5138 18.158 11.8018 18.284C12.7498 18.692 13.6018 19.256 14.4478 19.844C14.7718 20.072 15.0538 20.348 15.2398 20.708C15.2878 20.804 15.3178 20.9 15.3358 21.002C15.3538 21.122 15.3178 21.176 15.1978 21.218C15.0598 21.266 14.9098 21.284 14.7658 21.278C14.3578 21.266 13.9558 21.2 13.5598 21.116C13.1638 21.026 12.7738 20.918 12.3898 20.774C11.8018 20.552 11.2438 20.294 10.7818 19.85C10.6738 19.742 10.5898 19.634 10.5958 19.466C10.6018 19.286 10.5778 19.106 10.5718 18.998Z" fill="#1F1712"/>
<path d="M25.4821 19.04C25.4761 19.19 25.4581 19.34 25.4641 19.49C25.4641 19.604 25.4101 19.688 25.3441 19.766C25.0741 20.066 24.7381 20.276 24.3781 20.462C23.8441 20.738 23.2741 20.936 22.6921 21.074C22.2361 21.182 21.7801 21.266 21.3061 21.272C21.1801 21.272 21.0601 21.248 20.9401 21.218C20.8141 21.188 20.7721 21.116 20.7901 21.002C20.8501 20.624 21.0841 20.348 21.3421 20.09C21.6721 19.766 22.0681 19.532 22.4521 19.28C22.9261 18.968 23.4061 18.668 23.9101 18.416C24.2701 18.236 24.6301 18.068 25.0321 18.032C25.3261 18.008 25.3021 18.008 25.3981 18.308C25.4881 18.542 25.4821 18.788 25.4821 19.04Z" fill="#1F1713"/>
<path d="M28.488 7.92803C28.092 7.94003 27.72 8.06603 27.366 8.24003C26.892 8.48003 26.496 8.81603 26.142 9.20603C25.806 9.57803 25.518 9.98603 25.26 10.418C25.092 10.7 24.93 10.988 24.786 11.288C24.774 11.318 24.744 11.342 24.726 11.366C24.594 11.306 24.504 11.192 24.396 11.102C24.138 10.892 23.862 10.694 23.592 10.496C23.52 10.442 23.532 10.412 23.58 10.358C23.91 9.99203 24.252 9.63203 24.606 9.29003C25.218 8.70203 25.854 8.14403 26.55 7.66403C26.994 7.35803 27.474 7.10003 27.978 6.90203C28.122 6.84203 28.14 6.84803 28.2 6.98603C28.326 7.26203 28.422 7.55603 28.458 7.86203C28.47 7.88603 28.482 7.91003 28.488 7.92803Z" fill="#F2991D"/>
<path d="M23.466 17.3299C22.974 17.3239 22.566 17.3059 22.164 17.1859C21.792 17.0779 21.63 16.8379 21.666 16.4479C21.702 16.0219 21.93 15.6979 22.224 15.4219C22.392 15.2659 22.572 15.1159 22.794 15.0319C23.178 14.8939 23.538 14.9599 23.88 15.1579C24.306 15.4099 24.6 15.7639 24.672 16.2679C24.714 16.5559 24.648 16.8259 24.486 17.0719C24.372 17.2459 24.198 17.2879 24.012 17.2999C23.808 17.3119 23.598 17.3419 23.466 17.3299Z" fill="#FFFEFE"/>
<path d="M12.4078 17.33C12.1378 17.33 11.8918 17.312 11.6518 17.294C11.4358 17.276 11.3278 17.138 11.2258 16.976C11.0698 16.736 11.0878 16.478 11.1178 16.208C11.1898 15.596 11.7838 15.08 12.3718 14.978C12.7138 14.918 13.0198 15.008 13.2958 15.218C13.6138 15.464 13.9018 15.734 14.0218 16.13C14.0938 16.388 14.0758 16.652 13.9798 16.904C13.9258 17.042 13.8058 17.114 13.6798 17.162C13.4698 17.24 13.2478 17.282 13.0258 17.3C12.8038 17.318 12.5938 17.342 12.4078 17.33Z" fill="#FFFEFE"/>
<path d="M27.5879 28.304C27.5939 28.238 27.6479 28.214 27.6899 28.172C27.6959 28.226 27.6359 28.25 27.6539 28.298V28.304H27.6479C27.6299 28.304 27.6059 28.304 27.5879 28.304Z" fill="#F6D9A7"/>
<path d="M27.5879 28.304C27.6059 28.304 27.6239 28.304 27.6479 28.304C27.6359 28.328 27.6239 28.352 27.5939 28.358L27.5879 28.352C27.5879 28.334 27.5879 28.316 27.5879 28.304Z" fill="#FFFEFE"/>
<path d="M21.4261 27.56C21.3481 27.884 21.2701 28.196 21.1981 28.514C21.1861 28.574 21.1441 28.574 21.0901 28.574C20.9101 28.574 20.9101 28.574 20.8441 28.748C20.7301 29.048 20.6161 29.342 20.4901 29.666C20.4121 29.522 20.2981 29.42 20.2981 29.258C20.3041 28.898 20.3041 28.538 20.3101 28.178C20.3101 28.094 20.2981 28.076 20.2141 28.094C19.4581 28.226 18.7021 28.292 17.9341 28.262C17.4601 28.244 16.9861 28.208 16.5181 28.112C16.4641 28.1 16.4101 28.1 16.3561 28.094C16.3561 28.448 16.3501 28.802 16.3621 29.15C16.3681 29.342 16.3561 29.516 16.2121 29.66C16.0861 29.492 16.0081 29.294 15.9421 29.096C15.8941 28.946 15.8401 28.802 15.8221 28.64C15.8101 28.526 15.7321 28.538 15.6601 28.556C15.5521 28.586 15.5221 28.556 15.5041 28.448C15.4801 28.322 15.4561 28.19 15.4501 28.064C15.4441 27.968 15.4141 27.902 15.3421 27.842C15.2821 27.794 15.2341 27.74 15.1801 27.686C15.1501 27.656 15.1561 27.614 15.1621 27.578C15.1681 27.536 15.2041 27.554 15.2281 27.554C15.5341 27.554 15.8401 27.56 16.1521 27.56C16.2121 27.56 16.2541 27.572 16.2601 27.638C16.2601 27.686 16.2961 27.686 16.3321 27.686C16.7761 27.71 17.2141 27.71 17.6581 27.71C17.7061 27.71 17.7361 27.698 17.7541 27.656C17.8021 27.566 17.8621 27.476 17.9101 27.386C17.9521 27.308 17.9941 27.23 18.1081 27.26C18.1621 27.272 18.1681 27.236 18.1681 27.194C18.1681 26.912 18.1681 26.624 18.1681 26.342C18.1681 26.282 18.1261 26.27 18.0841 26.252C17.6521 26.066 17.2501 25.838 16.9201 25.502C16.6501 25.22 16.4821 24.896 16.5061 24.488C16.5181 24.29 16.5061 24.092 16.5061 23.894C16.5061 23.474 16.7881 23.192 17.2081 23.192C17.9041 23.192 18.5941 23.192 19.2901 23.192C19.6621 23.192 20.0401 23.576 20.0281 23.948C20.0161 24.26 20.0461 24.572 19.9921 24.878C19.9081 25.328 19.6621 25.67 19.3021 25.94C19.1221 26.078 18.9241 26.192 18.7081 26.264C18.6601 26.282 18.6481 26.306 18.6481 26.354C18.6481 26.636 18.6481 26.918 18.6481 27.194C18.6481 27.254 18.6661 27.278 18.7261 27.266C18.8161 27.248 18.8641 27.29 18.9061 27.374C18.9661 27.488 19.0201 27.638 19.1161 27.692C19.2121 27.746 19.3621 27.71 19.4881 27.71C19.7341 27.71 19.9801 27.71 20.2321 27.716C20.3161 27.716 20.3761 27.704 20.4061 27.62C20.4181 27.584 20.4421 27.56 20.4901 27.56C20.7961 27.56 21.1081 27.56 21.4261 27.56Z" fill="#1D1919"/>
<path d="M18.1798 28.532C18.5278 28.532 18.8758 28.532 19.2238 28.532C19.2958 28.532 19.3318 28.544 19.3258 28.628C19.3198 28.79 19.1998 28.94 19.0378 28.982C18.9898 28.994 18.9718 28.958 18.9418 28.934C18.7438 28.766 18.7438 28.766 18.5758 28.964C18.5278 29.024 18.4738 29.084 18.4258 29.144C18.3118 29.282 18.1618 29.276 18.0658 29.12C18.0058 29.024 17.9458 28.922 17.8858 28.826C17.8618 28.784 17.8318 28.76 17.7718 28.754C17.5978 28.742 17.5918 28.736 17.5378 28.904C17.5078 28.988 17.4718 28.994 17.3998 28.964C17.2978 28.922 17.1898 28.886 17.0938 28.826C17.0578 28.802 17.0338 28.778 17.0338 28.73C17.0278 28.538 17.0218 28.538 17.2138 28.538C17.5438 28.526 17.8618 28.526 18.1798 28.532Z" fill="#171413"/>
<path d="M19.3618 32.81C19.4338 32.798 19.4878 32.762 19.5538 32.786C19.4938 32.816 19.4398 32.834 19.3618 32.81Z" fill="#F6D9A7"/>
<path d="M19.6982 32.762C19.6622 32.78 19.6322 32.786 19.5962 32.762H19.6982Z" fill="#F6D9A7"/>
<path d="M27.5881 28.304C27.5881 28.322 27.5881 28.334 27.5881 28.352C27.5761 28.346 27.5461 28.352 27.5521 28.322C27.5581 28.31 27.5761 28.304 27.5881 28.304Z" fill="#F6D9A7"/>
<path d="M27.4321 28.46C27.4321 28.43 27.4441 28.412 27.4801 28.418C27.4681 28.436 27.4561 28.454 27.4321 28.46Z" fill="#F6D9A7"/>
<path d="M27.4322 28.46C27.4262 28.466 27.4202 28.472 27.4142 28.478C27.4142 28.472 27.4082 28.472 27.4082 28.466C27.4142 28.466 27.4202 28.46 27.4322 28.46Z" fill="#F7DDB0"/>
<path d="M27.1021 28.778V28.784C27.1021 28.784 27.0961 28.79 27.0901 28.784C27.0781 28.778 27.0781 28.772 27.0901 28.772C27.0961 28.778 27.1021 28.778 27.1021 28.778Z" fill="#F7DDB0"/>
<path d="M27.498 28.388C27.504 28.376 27.504 28.37 27.51 28.358C27.516 28.358 27.516 28.364 27.522 28.364C27.516 28.376 27.51 28.388 27.498 28.388Z" fill="#F6D9A7"/>
<path d="M27.48 28.4119C27.486 28.4059 27.492 28.3939 27.504 28.3879L27.51 28.3939C27.492 28.3999 27.486 28.4059 27.48 28.4119Z" fill="#F6D9A7"/>
<path d="M27.3599 28.526C27.3659 28.52 27.3659 28.514 27.3719 28.514C27.3899 28.52 27.3719 28.526 27.3599 28.526Z" fill="#F7DDB0"/>
<path d="M27.366 28.526C27.36 28.532 27.354 28.532 27.354 28.538C27.354 28.532 27.36 28.526 27.366 28.526Z" fill="#F7DDB0"/>
<path d="M27.3058 28.58V28.586H27.2998L27.3058 28.58Z" fill="#F7DDB0"/>
<path d="M27.2461 28.6341C27.2521 28.6281 27.2521 28.6161 27.2641 28.6281C27.2641 28.6281 27.2581 28.6341 27.2521 28.6401L27.2461 28.6341Z" fill="#F7DDB0"/>
<path d="M27.2581 28.64C27.2521 28.64 27.2461 28.646 27.2461 28.646C27.2461 28.64 27.2521 28.634 27.2521 28.634C27.2461 28.634 27.2581 28.64 27.2581 28.64Z" fill="#F7DDB0"/>
</g>
</g>
<circle cx="17.5" cy="17.5" r="17.5" fill="#0D131C" fill-opacity="0.8"/>
<defs>
<clipPath id="clip0_486_2328">
<rect width="30" height="30" fill="white" transform="translate(3 5)"/>
</clipPath>
<clipPath id="clip1_486_2328">
<rect width="30" height="30" fill="white" transform="translate(3 5)"/>
</clipPath>
</defs>
</svg>
