<svg width="30" height="30" viewBox="0 0 30 30" fill="none" xmlns="http://www.w3.org/2000/svg">
<g clip-path="url(#clip0_486_2367)">
<path d="M15 0C23.28 0 30 6.714 30 15C30 23.286 23.28 30 15 30C6.72 30 0 23.28 0 15C0 6.72 6.714 0 15 0Z" fill="black"/>
<path fill-rule="evenodd" clip-rule="evenodd" d="M6.93624 13.566H20.8202C20.9942 13.566 21.1562 13.632 21.2762 13.758L23.4722 15.966C23.8802 16.374 23.5922 17.07 23.0162 17.07H9.13224C8.95824 17.07 8.79624 17.004 8.67624 16.878L6.48024 14.67C6.07224 14.268 6.36024 13.566 6.93624 13.566ZM6.47424 10.638L8.67024 8.43004C8.79624 8.30404 8.95824 8.23804 9.12624 8.23804H23.0042C23.5802 8.23804 23.8742 8.93404 23.4602 9.34204L21.2702 11.55C21.1502 11.676 20.9822 11.742 20.8142 11.742H6.93624C6.36024 11.742 6.07224 11.046 6.47424 10.638ZM23.4662 20.01L21.2702 22.224C21.1502 22.344 20.9822 22.416 20.8142 22.416H6.93624C6.36024 22.416 6.07224 21.72 6.47424 21.312L8.67024 19.098C8.79624 18.978 8.95824 18.906 9.12624 18.906H23.0042C23.5862 18.9 23.8802 19.596 23.4662 20.01Z" fill="url(#paint0_linear_486_2367)"/>
<circle cx="15" cy="15" r="15" fill="black" fill-opacity="0.5"/>
</g>
<defs>
<linearGradient id="paint0_linear_486_2367" x1="7.27583" y1="23.0199" x2="22.6706" y2="7.62513" gradientUnits="userSpaceOnUse">
<stop stop-color="#CB4EE8"/>
<stop offset="1" stop-color="#10F4B1"/>
</linearGradient>
<clipPath id="clip0_486_2367">
<rect width="30" height="30" fill="white"/>
</clipPath>
</defs>
</svg>
