<svg width="42" height="42" viewBox="0 0 42 42" fill="none" xmlns="http://www.w3.org/2000/svg">
<path d="M20.9886 0.000191324C32.4148 -0.048397 41.7084 9.16395 41.9926 20.3636C42.3138 33.0937 32.1578 41.9854 21.2357 42C9.18686 42.0242 0.231768 33.0111 0.00443095 21.3353C-0.235261 9.49435 9.28076 -0.00709693 20.9886 0.000191324ZM19.8371 18.5536C20.2745 18.5949 20.5784 18.2864 20.9244 18.0945C22.8592 17.0134 22.8469 14.5305 20.9021 13.3887C19.3824 12.4971 17.843 11.6395 16.3332 10.7382C16.009 10.521 15.6258 10.4048 15.2335 10.4048C14.8412 10.4048 14.4581 10.521 14.1339 10.7382C12.4709 11.71 10.8079 12.6817 9.12015 13.6049C8.3393 14.0349 8.04771 14.635 8.06006 15.4902C8.08971 17.3106 8.08971 19.131 8.06006 20.9515C8.0275 21.355 8.11802 21.7589 8.32005 22.1115C8.52207 22.4642 8.82644 22.7497 9.19428 22.9315C10.6522 23.7405 12.1299 24.5276 13.5359 25.4192C14.6331 26.1164 15.5721 26.148 16.7162 25.4532C19.6221 23.6943 22.6072 22.069 25.5477 20.366C26.289 19.9384 27.0303 19.7708 27.7519 20.2615C31.5474 22.878 31.3028 21.3086 31.2682 25.8152C31.2682 25.8953 31.2682 25.9755 31.2682 26.0581C31.2336 27.5522 27.873 30.0302 26.4002 29.6488C26.3602 29.6378 26.3213 29.6232 26.2841 29.6051C24.3245 28.4997 21.7003 27.9263 22.2662 24.7827C22.2662 24.7292 22.1871 24.6588 22.0784 24.5009C21.337 24.909 20.5957 25.3196 19.8668 25.7447C19.7193 25.8124 19.5986 25.926 19.5233 26.0678C19.0538 27.5498 19.5653 28.8957 21.0702 29.7994C22.7777 30.8246 24.5593 31.726 26.2742 32.739C26.7239 33.0063 27.0155 32.8994 27.3862 32.6856C29.2378 31.6312 31.0911 30.5849 32.946 29.5468C33.261 29.3883 33.5222 29.1431 33.6978 28.8411C33.8733 28.5391 33.9555 28.1934 33.9345 27.8462C33.9345 25.867 33.9345 23.8854 33.9345 21.9014C33.9471 21.5356 33.8515 21.1741 33.6595 20.8607C33.4674 20.5472 33.1869 20.2952 32.8521 20.1352C31.241 19.2412 29.6398 18.3229 28.041 17.4118C27.144 16.8992 26.3113 16.9259 25.4019 17.4847C22.3724 19.2825 19.3256 21.0001 16.2986 22.7784C15.493 23.2643 14.7764 23.2643 13.998 22.7784C10.0839 20.3223 10.6769 21.5078 10.625 16.9308C10.6225 16.8903 10.6225 16.8498 10.625 16.8093C10.6967 15.3663 14.2426 12.9611 15.6536 13.4081C15.7326 13.4307 15.8095 13.46 15.8834 13.4956C17.9097 14.5961 20.2695 15.4391 19.7506 18.4638C19.7481 18.4783 19.7976 18.5099 19.8371 18.5536Z" fill="#472687"/>
</svg>
