<svg width="42" height="42" viewBox="0 0 42 42" fill="none" xmlns="http://www.w3.org/2000/svg">
<path d="M41.9891 20.5006C42.2635 30.8349 35.414 39.0641 26.3398 41.2979C19.7573 42.9131 13.6691 41.749 8.24588 37.7278C0.335963 31.8803 -1.75769 21.7787 1.42606 13.2876C4.67407 4.61943 13.4244 -0.675091 22.9312 0.0694887C31.4541 0.738883 39.0501 6.94776 41.2402 15.1066C41.7296 16.928 42.0657 18.7907 41.9891 20.5006ZM20.9586 37.6792C20.9604 37.7195 20.967 37.7594 20.9784 37.7981C20.9784 37.8272 21.0105 37.8733 21.0352 37.8757C21.4233 37.9363 21.4851 37.5822 21.6334 37.3906C23.8359 34.3396 26.058 31.3006 28.2036 28.2107C28.9031 27.2042 29.8375 26.3359 30.1168 24.9365L21.0476 30.1825C17.9603 28.6133 15.1152 26.5979 11.9018 25.2567C14.6603 29.3215 17.4931 33.2603 20.3332 37.2136C20.4791 37.4294 20.5829 37.7423 20.9586 37.6792ZM11.3777 22.7901C14.3439 24.5193 17.3102 26.2268 20.2591 27.9973C20.8944 28.3829 21.3294 28.2908 21.9053 27.9488C24.5774 26.3675 27.2519 24.7958 29.966 23.2848C30.757 22.8459 30.8633 22.5378 30.3665 21.7472C27.4497 17.0978 24.5996 12.4096 21.715 7.73357C21.5667 7.49103 21.4678 7.18786 21.2552 7.02537C20.7806 6.66157 20.8869 7.16361 20.8029 7.36976C20.3901 7.48618 20.3085 7.88151 20.1132 8.1774C17.7452 12.0046 15.3747 15.8342 13.0413 19.6832C12.5469 20.503 11.8449 21.2257 11.6669 22.2128L11.4197 22.4554C11.18 22.5354 11.1083 22.6397 11.3777 22.7901Z" fill="#29252D"/>
<path d="M20.813 7.36955C20.897 7.1634 20.7907 6.66136 21.2653 7.02516C21.4779 7.18765 21.5768 7.49325 21.7251 7.73336C24.5999 12.4094 27.4499 17.0976 30.3766 21.747C30.871 22.5376 30.7671 22.8457 29.9761 23.2846C27.2571 24.7932 24.5875 26.3672 21.9154 27.9486C21.3395 28.2905 20.9044 28.3827 20.2692 27.9971C17.3203 26.2266 14.3417 24.5288 11.3779 22.7899C11.3952 22.6783 11.4076 22.5643 11.4224 22.4503C11.5065 22.3703 11.593 22.2927 11.6696 22.2078C11.7883 22.2223 11.9292 22.2854 12.0256 22.2417C14.8336 21.0072 17.6391 19.7582 20.4471 18.5188C20.6389 18.4457 20.8014 18.3134 20.9101 18.142C21.0188 17.9706 21.068 17.7693 21.0503 17.5681C21.0354 14.3036 21.0354 11.0391 21.0181 7.77459C21.0206 7.64362 20.8847 7.5078 20.813 7.36955Z" fill="white"/>
<path d="M20.8113 7.36975C20.883 7.508 21.0189 7.64382 21.0214 7.77963C21.0387 11.0441 21.0387 14.3087 21.0535 17.5732C21.0713 17.7743 21.0221 17.9757 20.9133 18.1471C20.8046 18.3185 20.6422 18.4507 20.4504 18.5239C17.6424 19.7632 14.8368 21.0123 12.0288 22.2468C11.9324 22.2904 11.7816 22.2274 11.6729 22.2128C11.8533 21.2257 12.5528 20.5151 13.0497 19.6832C15.3831 15.8342 17.7462 12.0046 20.1216 8.17739C20.3046 7.8815 20.4059 7.48617 20.8113 7.36975Z" fill="#D1D1D1"/>
<path d="M20.953 37.6792C20.5773 37.7422 20.4734 37.4367 20.3177 37.2135C17.4776 33.2602 14.6448 29.3215 11.8862 25.2566C15.0996 26.5978 17.9546 28.6133 21.0444 30.1825C21.0098 32.6806 21.168 35.1811 20.953 37.6792Z" fill="#D1D1D1"/>
<path d="M20.959 37.6793C21.174 35.1812 21.0158 32.6807 21.0504 30.1826L30.1172 24.9244C29.8379 26.3239 28.9035 27.1921 28.204 28.1986C26.0584 31.2885 23.8362 34.3275 21.6437 37.3834C21.4954 37.5871 21.4336 37.9412 21.0455 37.8806C21.0208 37.8806 20.9985 37.8321 20.9886 37.803C20.9735 37.7631 20.9635 37.7216 20.959 37.6793Z" fill="white"/>
</svg>
