<svg width="168" height="149" viewBox="0 0 168 149" fill="none" xmlns="http://www.w3.org/2000/svg">
<path d="M124.5 44.2195H40.5C37.1863 44.2195 34.5 46.9058 34.5 50.2195V132.219C34.5 135.533 37.1863 138.219 40.5 138.219H124.5C127.814 138.219 130.5 135.533 130.5 132.219V50.2195C130.5 46.9058 127.814 44.2195 124.5 44.2195Z" fill="#13001D" stroke="#220046" stroke-width="4"/>
<path d="M99.6064 16.3587L84.3101 27.6184L87.168 20.9524L99.6064 16.3587Z" fill="#E17726" stroke="#E17726" stroke-width="0.712817" stroke-linecap="round" stroke-linejoin="round"/>
<path d="M64.4292 16.2272L79.5017 27.7076L76.8329 20.9138L64.4292 16.2272Z" fill="#E27625" stroke="#E27625" stroke-width="0.712817" stroke-linecap="round" stroke-linejoin="round"/>
<path d="M94.0245 42.5715L89.9434 48.7743L98.6174 51.1948L101.13 42.7353L94.0245 42.5715Z" fill="#E27625" stroke="#E27625" stroke-width="0.712817" stroke-linecap="round" stroke-linejoin="round"/>
<path d="M62.7227 42.5913L65.1574 51.0692L73.8493 48.7137L69.8298 42.4806L62.7227 42.5913Z" fill="#E27625" stroke="#E27625" stroke-width="0.712817" stroke-linecap="round" stroke-linejoin="round"/>
<path d="M73.4361 31.9876L71.0029 35.6395L79.6085 36.0548L79.352 26.7875L73.4361 31.9876Z" fill="#E27625" stroke="#E27625" stroke-width="0.712817" stroke-linecap="round" stroke-linejoin="round"/>
<path d="M90.481 32.0515L84.5125 26.6998L84.2783 36.0724L92.8868 35.7215L90.481 32.0515Z" fill="#E27625" stroke="#E27625" stroke-width="0.712817" stroke-linecap="round" stroke-linejoin="round"/>
<path d="M73.8486 48.7143L79.0508 46.2052L74.5907 42.6974L73.8486 48.7143Z" fill="#E27625" stroke="#E27625" stroke-width="0.712817" stroke-linecap="round" stroke-linejoin="round"/>
<path d="M84.7607 46.2266L89.944 48.7746L89.2469 42.7523L84.7607 46.2266Z" fill="#E27625" stroke="#E27625" stroke-width="0.712817" stroke-linecap="round" stroke-linejoin="round"/>
<path d="M89.9435 48.7734L84.7612 46.226L85.1618 49.6123L85.1112 51.036L89.9435 48.7734Z" fill="#D5BFB2" stroke="#D5BFB2" stroke-width="0.712817" stroke-linecap="round" stroke-linejoin="round"/>
<path d="M73.8486 48.7132L78.6638 51.0119L78.6389 49.5879L79.0498 46.2046L73.8486 48.7132Z" fill="#D5BFB2" stroke="#D5BFB2" stroke-width="0.712817" stroke-linecap="round" stroke-linejoin="round"/>
<path d="M78.7952 40.4761L74.4814 39.1899L77.5335 37.8075L78.7952 40.4761Z" fill="#233447" stroke="#233447" stroke-width="0.712817" stroke-linecap="round" stroke-linejoin="round"/>
<path d="M85.0586 40.4995L86.3401 37.8405L89.3969 39.2456L85.0586 40.4995Z" fill="#233447" stroke="#233447" stroke-width="0.712817" stroke-linecap="round" stroke-linejoin="round"/>
<path d="M73.8491 48.7143L74.6222 42.4984L69.8286 42.6178L73.8491 48.7143Z" fill="#CC6228" stroke="#CC6228" stroke-width="0.712817" stroke-linecap="round" stroke-linejoin="round"/>
<path d="M89.2168 42.5529L89.9434 48.7744L94.0244 42.7081L89.2168 42.5529Z" fill="#CC6228" stroke="#CC6228" stroke-width="0.712817" stroke-linecap="round" stroke-linejoin="round"/>
<path d="M92.8873 35.7214L84.2788 36.0723L85.0587 40.4995L86.3403 37.8404L89.3971 39.2457L92.8873 35.7214Z" fill="#CC6228" stroke="#CC6228" stroke-width="0.712817" stroke-linecap="round" stroke-linejoin="round"/>
<path d="M74.4817 39.1898L77.5339 37.8075L78.7956 40.4761L79.6086 36.0549L71.0029 35.6395L74.4817 39.1898Z" fill="#CC6228" stroke="#CC6228" stroke-width="0.712817" stroke-linecap="round" stroke-linejoin="round"/>
<path d="M71.0029 35.6395L74.5908 42.6974L74.4817 39.1898L71.0029 35.6395Z" fill="#E27525" stroke="#E27525" stroke-width="0.712817" stroke-linecap="round" stroke-linejoin="round"/>
<path d="M89.397 39.2454L89.2466 42.752L92.8871 35.7212L89.397 39.2454Z" fill="#E27525" stroke="#E27525" stroke-width="0.712817" stroke-linecap="round" stroke-linejoin="round"/>
<path d="M79.6084 36.055L78.7954 40.4762L79.7865 45.7022L80.0264 38.8276L79.6084 36.055Z" fill="#E27525" stroke="#E27525" stroke-width="0.712817" stroke-linecap="round" stroke-linejoin="round"/>
<path d="M84.2786 36.072L83.855 38.8263L84.0284 45.7176L85.0585 40.4992L84.2786 36.072Z" fill="#E27525" stroke="#E27525" stroke-width="0.712817" stroke-linecap="round" stroke-linejoin="round"/>
<path d="M85.0585 40.4997L84.0283 45.7181L84.761 46.2262L89.2466 42.7524L89.3969 39.2458L85.0585 40.4997Z" fill="#F5841F" stroke="#F5841F" stroke-width="0.712817" stroke-linecap="round" stroke-linejoin="round"/>
<path d="M74.4819 39.1901L74.591 42.6976L79.0504 46.2048L79.7869 45.7023L78.7958 40.4763L74.4819 39.1901Z" fill="#F5841F" stroke="#F5841F" stroke-width="0.712817" stroke-linecap="round" stroke-linejoin="round"/>
<path d="M85.1116 51.0364L85.1622 49.6125L84.7818 49.2747L79.0073 49.2531L78.6394 49.5881L78.6643 51.0123L73.8486 48.7134L75.5285 50.0969L78.9499 52.4842L84.815 52.5061L88.2542 50.1446L89.9444 48.7736L85.1116 51.0364Z" fill="#C0AC9D" stroke="#C0AC9D" stroke-width="0.712817" stroke-linecap="round" stroke-linejoin="round"/>
<path d="M84.7609 46.2263L84.0282 45.7182L79.7865 45.7024L79.05 46.2049L78.6392 49.5883L79.007 49.2533L84.7812 49.2749L85.1616 49.6127L84.7609 46.2263Z" fill="#161616" stroke="#161616" stroke-width="0.712817" stroke-linecap="round" stroke-linejoin="round"/>
<path d="M100.204 28.4138L101.514 22.1704L99.6065 16.3585L84.832 27.2385L90.4815 32.0522L98.4814 34.4264L100.251 32.3648L99.4868 31.8113L100.716 30.6966L99.7849 29.9585L101.013 29.0293L100.204 28.4138Z" fill="#763E1A" stroke="#763E1A" stroke-width="0.712817" stroke-linecap="round" stroke-linejoin="round"/>
<path d="M62.4785 22.0244L63.7569 28.2775L62.928 28.8869L64.1494 29.8252L63.2129 30.5564L64.4336 31.6803L63.6652 32.228L65.4194 34.3028L73.4368 31.9885L79.1222 27.2172L64.4296 16.2269L62.4785 22.0244Z" fill="#763E1A" stroke="#763E1A" stroke-width="0.712817" stroke-linecap="round" stroke-linejoin="round"/>
<path d="M98.4812 34.4259L90.4814 32.0517L92.8873 35.7219L89.2466 42.7531L94.0242 42.7091L101.131 42.7357L98.4812 34.4259Z" fill="#F5841F" stroke="#F5841F" stroke-width="0.712817" stroke-linecap="round" stroke-linejoin="round"/>
<path d="M73.4367 31.9879L65.4193 34.3022L62.7227 42.592L69.8293 42.6186L74.5914 42.6982L71.0034 35.64L73.4367 31.9879Z" fill="#F5841F" stroke="#F5841F" stroke-width="0.712817" stroke-linecap="round" stroke-linejoin="round"/>
<path d="M84.2783 36.0724L84.8318 27.238L87.1678 20.952L76.832 20.9133L79.1209 27.2166L79.6082 36.0549L79.7969 38.8417L79.7864 45.7021L84.028 45.718L84.0688 38.8577L84.2783 36.0724Z" fill="#F5841F" stroke="#F5841F" stroke-width="0.712817" stroke-linecap="round" stroke-linejoin="round"/>
<path d="M55.5399 67.3495C54.4799 67.3495 53.6032 66.9995 52.9099 66.2995C52.2232 65.5995 51.8799 64.7395 51.8799 63.7195C51.8799 62.6995 52.2232 61.8395 52.9099 61.1395C53.6032 60.4395 54.4799 60.0895 55.5399 60.0895C56.1799 60.0895 56.7666 60.2428 57.2999 60.5495C57.8399 60.8561 58.2599 61.2695 58.5599 61.7895L57.7499 62.2595C57.5499 61.8728 57.2499 61.5661 56.8499 61.3395C56.4566 61.1061 56.0199 60.9895 55.5399 60.9895C54.7332 60.9895 54.0732 61.2495 53.5599 61.7695C53.0532 62.2895 52.7999 62.9395 52.7999 63.7195C52.7999 64.4928 53.0532 65.1395 53.5599 65.6595C54.0732 66.1795 54.7332 66.4395 55.5399 66.4395C56.0199 66.4395 56.4566 66.3261 56.8499 66.0995C57.2499 65.8661 57.5499 65.5595 57.7499 65.1795L58.5599 65.6395C58.2666 66.1595 57.8499 66.5761 57.3099 66.8895C56.7699 67.1961 56.1799 67.3495 55.5399 67.3495ZM63.7237 66.5895C63.2103 67.0961 62.587 67.3495 61.8537 67.3495C61.1203 67.3495 60.497 67.0961 59.9837 66.5895C59.477 66.0828 59.2237 65.4595 59.2237 64.7195C59.2237 63.9795 59.477 63.3561 59.9837 62.8495C60.497 62.3428 61.1203 62.0895 61.8537 62.0895C62.587 62.0895 63.2103 62.3428 63.7237 62.8495C64.237 63.3561 64.4936 63.9795 64.4936 64.7195C64.4936 65.4595 64.237 66.0828 63.7237 66.5895ZM61.8537 66.4995C62.3537 66.4995 62.7737 66.3295 63.1137 65.9895C63.4537 65.6495 63.6237 65.2261 63.6237 64.7195C63.6237 64.2128 63.4537 63.7895 63.1137 63.4495C62.7737 63.1095 62.3537 62.9395 61.8537 62.9395C61.3603 62.9395 60.9437 63.1095 60.6037 63.4495C60.2637 63.7895 60.0937 64.2128 60.0937 64.7195C60.0937 65.2261 60.2637 65.6495 60.6037 65.9895C60.9437 66.3295 61.3603 66.4995 61.8537 66.4995ZM68.0093 62.0895C68.5959 62.0895 69.0659 62.2761 69.4193 62.6495C69.7726 63.0161 69.9493 63.5161 69.9493 64.1495V67.2195H69.0793V64.1995C69.0793 63.7928 68.9693 63.4795 68.7493 63.2595C68.5293 63.0328 68.2259 62.9195 67.8393 62.9195C67.4059 62.9195 67.0559 63.0561 66.7893 63.3295C66.5226 63.5961 66.3893 64.0095 66.3893 64.5695V67.2195H65.5193V62.2195H66.3893V62.9395C66.7426 62.3728 67.2826 62.0895 68.0093 62.0895ZM73.6538 62.0895C74.2405 62.0895 74.7105 62.2761 75.0638 62.6495C75.4171 63.0161 75.5938 63.5161 75.5938 64.1495V67.2195H74.7238V64.1995C74.7238 63.7928 74.6138 63.4795 74.3938 63.2595C74.1738 63.0328 73.8705 62.9195 73.4838 62.9195C73.0505 62.9195 72.7005 63.0561 72.4338 63.3295C72.1671 63.5961 72.0338 64.0095 72.0338 64.5695V67.2195H71.1638V62.2195H72.0338V62.9395C72.3871 62.3728 72.9271 62.0895 73.6538 62.0895ZM77.4183 65.1195C77.505 65.5661 77.7083 65.9128 78.0283 66.1595C78.355 66.4061 78.755 66.5295 79.2283 66.5295C79.8883 66.5295 80.3683 66.2861 80.6683 65.7995L81.4083 66.2195C80.9217 66.9728 80.1883 67.3495 79.2083 67.3495C78.415 67.3495 77.7683 67.1028 77.2683 66.6095C76.775 66.1095 76.5283 65.4795 76.5283 64.7195C76.5283 63.9661 76.7717 63.3395 77.2583 62.8395C77.745 62.3395 78.375 62.0895 79.1483 62.0895C79.8817 62.0895 80.4783 62.3495 80.9383 62.8695C81.405 63.3828 81.6383 64.0028 81.6383 64.7295C81.6383 64.8561 81.6283 64.9861 81.6083 65.1195H77.4183ZM79.1483 62.9095C78.6817 62.9095 78.295 63.0428 77.9883 63.3095C77.6817 63.5695 77.4917 63.9195 77.4183 64.3595H80.7583C80.685 63.8861 80.4983 63.5261 80.1983 63.2795C79.8983 63.0328 79.5483 62.9095 79.1483 62.9095ZM84.9787 67.3495C84.2253 67.3495 83.5987 67.0995 83.0987 66.5995C82.5987 66.0928 82.3487 65.4661 82.3487 64.7195C82.3487 63.9728 82.5987 63.3495 83.0987 62.8495C83.5987 62.3428 84.2253 62.0895 84.9787 62.0895C85.472 62.0895 85.9153 62.2095 86.3087 62.4495C86.702 62.6828 86.9953 62.9995 87.1887 63.3995L86.4587 63.8195C86.332 63.5528 86.1353 63.3395 85.8687 63.1795C85.6087 63.0195 85.312 62.9395 84.9787 62.9395C84.4787 62.9395 84.0587 63.1095 83.7187 63.4495C83.3853 63.7895 83.2187 64.2128 83.2187 64.7195C83.2187 65.2195 83.3853 65.6395 83.7187 65.9795C84.0587 66.3195 84.4787 66.4895 84.9787 66.4895C85.312 66.4895 85.612 66.4128 85.8787 66.2595C86.1453 66.0995 86.3487 65.8861 86.4887 65.6195L87.2287 66.0495C87.0153 66.4428 86.7087 66.7595 86.3087 66.9995C85.9087 67.2328 85.4653 67.3495 84.9787 67.3495ZM90.8076 63.0595H89.4776V65.7695C89.4776 66.0161 89.5243 66.1928 89.6176 66.2995C89.7176 66.3995 89.8676 66.4528 90.0676 66.4595C90.2676 66.4595 90.5143 66.4528 90.8076 66.4395V67.2195C90.0476 67.3195 89.491 67.2595 89.1376 67.0395C88.7843 66.8128 88.6076 66.3895 88.6076 65.7695V63.0595H87.6176V62.2195H88.6076V61.0795L89.4776 60.8195V62.2195H90.8076V63.0595ZM92.2776 61.3095C92.111 61.3095 91.971 61.2528 91.8576 61.1395C91.7443 61.0261 91.6876 60.8895 91.6876 60.7295C91.6876 60.5695 91.7443 60.4328 91.8576 60.3195C91.971 60.1995 92.111 60.1395 92.2776 60.1395C92.4376 60.1395 92.5743 60.1995 92.6876 60.3195C92.801 60.4328 92.8576 60.5695 92.8576 60.7295C92.8576 60.8895 92.801 61.0261 92.6876 61.1395C92.5743 61.2528 92.4376 61.3095 92.2776 61.3095ZM91.8376 67.2195V62.2195H92.7076V67.2195H91.8376ZM96.5249 62.0895C97.1116 62.0895 97.5816 62.2761 97.9349 62.6495C98.2882 63.0161 98.4649 63.5161 98.4649 64.1495V67.2195H97.5949V64.1995C97.5949 63.7928 97.4849 63.4795 97.2649 63.2595C97.0449 63.0328 96.7416 62.9195 96.3549 62.9195C95.9216 62.9195 95.5716 63.0561 95.3049 63.3295C95.0382 63.5961 94.9049 64.0095 94.9049 64.5695V67.2195H94.0349V62.2195H94.9049V62.9395C95.2582 62.3728 95.7982 62.0895 96.5249 62.0895ZM103.83 62.2195H104.69V67.0095C104.69 67.7495 104.44 68.3228 103.94 68.7295C103.44 69.1428 102.84 69.3495 102.14 69.3495C101.58 69.3495 101.096 69.2428 100.69 69.0295C100.283 68.8228 99.9761 68.5228 99.7694 68.1295L100.53 67.6995C100.803 68.2595 101.346 68.5395 102.16 68.5395C102.68 68.5395 103.086 68.4028 103.38 68.1295C103.68 67.8561 103.83 67.4828 103.83 67.0095V66.2995C103.39 66.9661 102.763 67.2995 101.95 67.2995C101.236 67.2995 100.633 67.0461 100.14 66.5395C99.6461 66.0328 99.3994 65.4161 99.3994 64.6895C99.3994 63.9628 99.6461 63.3495 100.14 62.8495C100.633 62.3428 101.236 62.0895 101.95 62.0895C102.77 62.0895 103.396 62.4195 103.83 63.0795V62.2195ZM100.78 65.9595C101.12 66.2995 101.543 66.4695 102.05 66.4695C102.556 66.4695 102.98 66.2995 103.32 65.9595C103.66 65.6195 103.83 65.1961 103.83 64.6895C103.83 64.1895 103.66 63.7695 103.32 63.4295C102.98 63.0895 102.556 62.9195 102.05 62.9195C101.543 62.9195 101.12 63.0895 100.78 63.4295C100.44 63.7695 100.27 64.1895 100.27 64.6895C100.27 65.1961 100.44 65.6195 100.78 65.9595ZM106.558 67.3295C106.378 67.3295 106.224 67.2661 106.098 67.1395C105.971 67.0128 105.908 66.8595 105.908 66.6795C105.908 66.4995 105.971 66.3461 106.098 66.2195C106.224 66.0928 106.378 66.0295 106.558 66.0295C106.744 66.0295 106.898 66.0928 107.018 66.2195C107.144 66.3461 107.208 66.4995 107.208 66.6795C107.208 66.8595 107.144 67.0128 107.018 67.1395C106.898 67.2661 106.744 67.3295 106.558 67.3295ZM108.989 67.3295C108.809 67.3295 108.656 67.2661 108.529 67.1395C108.403 67.0128 108.339 66.8595 108.339 66.6795C108.339 66.4995 108.403 66.3461 108.529 66.2195C108.656 66.0928 108.809 66.0295 108.989 66.0295C109.176 66.0295 109.329 66.0928 109.449 66.2195C109.576 66.3461 109.639 66.4995 109.639 66.6795C109.639 66.8595 109.576 67.0128 109.449 67.1395C109.329 67.2661 109.176 67.3295 108.989 67.3295ZM111.421 67.3295C111.241 67.3295 111.088 67.2661 110.961 67.1395C110.834 67.0128 110.771 66.8595 110.771 66.6795C110.771 66.4995 110.834 66.3461 110.961 66.2195C111.088 66.0928 111.241 66.0295 111.421 66.0295C111.608 66.0295 111.761 66.0928 111.881 66.2195C112.008 66.3461 112.071 66.4995 112.071 66.6795C112.071 66.8595 112.008 67.0128 111.881 67.1395C111.761 67.2661 111.608 67.3295 111.421 67.3295Z" fill="white" fill-opacity="0.45"/>
<path d="M22.5 96.2195H142.5" stroke="white" stroke-dasharray="2 2"/>
<path d="M166.16 84.0001L156.047 91.5025L157.925 87.0763L166.16 84.0001Z" fill="#E17726" stroke="#E17726" stroke-width="0.712817" stroke-linecap="round" stroke-linejoin="round"/>
<path d="M142.84 84.0002L152.86 91.5736L151.074 87.0764L142.84 84.0002Z" fill="#E27625" stroke="#E27625" stroke-width="0.712817" stroke-linecap="round" stroke-linejoin="round"/>
<path d="M162.525 101.391L159.834 105.513L165.591 107.097L167.236 101.482L162.525 101.391Z" fill="#E27625" stroke="#E27625" stroke-width="0.712817" stroke-linecap="round" stroke-linejoin="round"/>
<path d="M141.773 101.482L143.409 107.096L149.165 105.513L146.485 101.391L141.773 101.482Z" fill="#E27625" stroke="#E27625" stroke-width="0.712817" stroke-linecap="round" stroke-linejoin="round"/>
<path d="M148.85 94.4261L147.246 96.8531L152.952 97.1071L152.759 90.9641L148.85 94.4261Z" fill="#E27625" stroke="#E27625" stroke-width="0.712817" stroke-linecap="round" stroke-linejoin="round"/>
<path d="M160.149 94.4261L156.179 90.8931L156.047 97.107L161.753 96.853L160.149 94.4261Z" fill="#E27625" stroke="#E27625" stroke-width="0.712817" stroke-linecap="round" stroke-linejoin="round"/>
<path d="M149.165 105.514L152.607 103.837L149.642 101.523L149.165 105.514Z" fill="#E27625" stroke="#E27625" stroke-width="0.712817" stroke-linecap="round" stroke-linejoin="round"/>
<path d="M156.392 103.837L159.835 105.514L159.358 101.523L156.392 103.837Z" fill="#E27625" stroke="#E27625" stroke-width="0.712817" stroke-linecap="round" stroke-linejoin="round"/>
<path d="M159.835 105.513L156.393 103.837L156.667 106.081L156.637 107.026L159.835 105.513Z" fill="#D5BFB2" stroke="#D5BFB2" stroke-width="0.712817" stroke-linecap="round" stroke-linejoin="round"/>
<path d="M149.165 105.513L152.363 107.025L152.343 106.081L152.607 103.837L149.165 105.513Z" fill="#D5BFB2" stroke="#D5BFB2" stroke-width="0.712817" stroke-linecap="round" stroke-linejoin="round"/>
<path d="M152.424 100.04L149.561 99.1983L151.581 98.2742L152.424 100.04Z" fill="#233447" stroke="#233447" stroke-width="0.712817" stroke-linecap="round" stroke-linejoin="round"/>
<path d="M156.575 100.04L157.419 98.2739L159.449 99.1981L156.575 100.04Z" fill="#233447" stroke="#233447" stroke-width="0.712817" stroke-linecap="round" stroke-linejoin="round"/>
<path d="M149.165 105.514L149.662 101.391L146.485 101.482L149.165 105.514Z" fill="#CC6228" stroke="#CC6228" stroke-width="0.712817" stroke-linecap="round" stroke-linejoin="round"/>
<path d="M159.337 101.391L159.834 105.514L162.525 101.482L159.337 101.391Z" fill="#CC6228" stroke="#CC6228" stroke-width="0.712817" stroke-linecap="round" stroke-linejoin="round"/>
<path d="M161.754 96.8531L156.048 97.1071L156.576 100.04L157.419 98.2741L159.449 99.1981L161.754 96.8531Z" fill="#CC6228" stroke="#CC6228" stroke-width="0.712817" stroke-linecap="round" stroke-linejoin="round"/>
<path d="M149.561 99.198L151.581 98.274L152.424 100.04L152.952 97.107L147.246 96.853L149.561 99.198Z" fill="#CC6228" stroke="#CC6228" stroke-width="0.712817" stroke-linecap="round" stroke-linejoin="round"/>
<path d="M147.246 96.853L149.642 101.523L149.561 99.198L147.246 96.853Z" fill="#E27525" stroke="#E27525" stroke-width="0.712817" stroke-linecap="round" stroke-linejoin="round"/>
<path d="M159.448 99.1979L159.357 101.523L161.753 96.8529L159.448 99.1979Z" fill="#E27525" stroke="#E27525" stroke-width="0.712817" stroke-linecap="round" stroke-linejoin="round"/>
<path d="M152.952 97.1071L152.424 100.04L153.094 103.502L153.236 98.944L152.952 97.1071Z" fill="#E27525" stroke="#E27525" stroke-width="0.712817" stroke-linecap="round" stroke-linejoin="round"/>
<path d="M156.047 97.1068L155.773 98.9338L155.905 103.502L156.575 100.04L156.047 97.1068Z" fill="#E27525" stroke="#E27525" stroke-width="0.712817" stroke-linecap="round" stroke-linejoin="round"/>
<path d="M156.576 100.04L155.906 103.502L156.393 103.837L159.358 101.523L159.449 99.198L156.576 100.04Z" fill="#F5841F" stroke="#F5841F" stroke-width="0.712817" stroke-linecap="round" stroke-linejoin="round"/>
<path d="M149.561 99.1981L149.642 101.523L152.607 103.837L153.094 103.502L152.424 100.04L149.561 99.1981Z" fill="#F5841F" stroke="#F5841F" stroke-width="0.712817" stroke-linecap="round" stroke-linejoin="round"/>
<path d="M156.637 107.025L156.667 106.081L156.414 105.858H152.586L152.343 106.081L152.363 107.025L149.165 105.513L150.282 106.426L152.556 108H156.444L158.718 106.426L159.835 105.513L156.637 107.025Z" fill="#C0AC9D" stroke="#C0AC9D" stroke-width="0.712817" stroke-linecap="round" stroke-linejoin="round"/>
<path d="M156.393 103.837L155.906 103.502H153.094L152.607 103.837L152.343 106.081L152.586 105.858H156.414L156.667 106.081L156.393 103.837Z" fill="#161616" stroke="#161616" stroke-width="0.712817" stroke-linecap="round" stroke-linejoin="round"/>
<path d="M166.586 91.9903L167.439 87.8481L166.16 83.9999L156.392 91.2492L160.15 94.4264L165.459 95.9805L166.627 94.6094L166.119 94.2444L166.931 93.5023L166.312 93.0153L167.124 92.3963L166.586 91.9903Z" fill="#763E1A" stroke="#763E1A" stroke-width="0.712817" stroke-linecap="round" stroke-linejoin="round"/>
<path d="M141.561 87.8484L142.424 91.9906L141.876 92.3967L142.688 93.0157L142.069 93.5027L142.881 94.2447L142.373 94.6098L143.541 95.9808L148.85 94.4268L152.607 91.2496L142.84 84.0002L141.561 87.8484Z" fill="#763E1A" stroke="#763E1A" stroke-width="0.712817" stroke-linecap="round" stroke-linejoin="round"/>
<path d="M165.459 95.9802L160.149 94.4261L161.754 96.8533L159.357 101.523L162.525 101.482H167.236L165.459 95.9802Z" fill="#F5841F" stroke="#F5841F" stroke-width="0.712817" stroke-linecap="round" stroke-linejoin="round"/>
<path d="M148.85 94.4261L143.541 95.9802L141.774 101.482H146.485L149.642 101.523L147.246 96.8533L148.85 94.4261Z" fill="#F5841F" stroke="#F5841F" stroke-width="0.712817" stroke-linecap="round" stroke-linejoin="round"/>
<path d="M156.047 97.107L156.392 91.249L157.925 87.076H151.073L152.606 91.249L152.951 97.107L153.083 98.954L153.093 103.502H155.905L155.915 98.954L156.047 97.107Z" fill="#F5841F" stroke="#F5841F" stroke-width="0.712817" stroke-linecap="round" stroke-linejoin="round"/>
<path d="M82.6187 114.219C92.5598 114.219 100.619 106.161 100.619 96.2195C100.619 86.2784 92.5598 78.2195 82.6187 78.2195C72.6775 78.2195 64.6187 86.2784 64.6187 96.2195C64.6187 106.161 72.6775 114.219 82.6187 114.219Z" fill="#18F3FF"/>
<path d="M82.6187 116.719C93.9405 116.719 103.119 107.541 103.119 96.2195C103.119 84.8976 93.9405 75.7195 82.6187 75.7195C71.2968 75.7195 62.1187 84.8976 62.1187 96.2195C62.1187 107.541 71.2968 116.719 82.6187 116.719Z" stroke="url(#paint0_linear_486_3026)"/>
<path fill-rule="evenodd" clip-rule="evenodd" d="M91.5629 90.5104L81.2452 103.411L73.1401 96.6561L74.6694 94.821L80.9011 100.013L89.6991 89.0194L91.5629 90.5104Z" fill="#180C2D"/>
<path fill-rule="evenodd" clip-rule="evenodd" d="M19.0492 84.2695C19.2348 84.3752 19.3014 84.614 19.198 84.8029L18.7299 85.658L18.7321 85.6592C18.3063 86.5417 18.6302 87.6202 19.4837 88.1063L20.1559 88.4891C20.3415 88.5948 20.4081 88.8337 20.3047 89.0226C20.2013 89.2114 19.967 89.2789 19.7814 89.1732L19.1092 88.7904C18.2557 88.3043 17.1855 88.589 16.6723 89.4216L16.6701 89.4204L16.202 90.2755C16.0986 90.4644 15.8643 90.5318 15.6787 90.4261C15.4931 90.3204 15.4264 90.0815 15.5298 89.8927L15.998 89.0376L15.9958 89.0363C16.4216 88.1539 16.0977 87.0753 15.2442 86.5893L14.572 86.2064C14.3864 86.1007 14.3198 85.8619 14.4232 85.673C14.5266 85.4841 14.7609 85.4166 14.9465 85.5223L15.6187 85.9051C16.4722 86.3912 17.5424 86.1066 18.0556 85.2739L18.0577 85.2752L18.5259 84.4201C18.6293 84.2312 18.8636 84.1638 19.0492 84.2695ZM16.0391 92.5991C15.7515 91.5748 14.7013 90.963 13.6983 91.2497C12.6953 91.5364 12.1193 92.6129 12.407 93.6372C12.6946 94.6614 13.7448 95.2732 14.7478 94.9866C15.7508 94.6999 16.3268 93.6233 16.0391 92.5991ZM15.0429 92.2623C14.9467 92.441 14.7275 92.5039 14.5532 92.403C14.3789 92.302 14.3155 92.0753 14.4117 91.8967C14.5078 91.718 14.7271 91.655 14.9014 91.756C15.0757 91.857 15.1391 92.0837 15.0429 92.2623ZM14.5399 93.1968C14.4438 93.3754 14.2245 93.4384 14.0502 93.3374C13.8759 93.2365 13.8126 93.0098 13.9087 92.8311C14.0049 92.6525 14.2241 92.5895 14.3984 92.6905C14.5727 92.7915 14.6361 93.0181 14.5399 93.1968ZM14.0369 94.1314C13.9407 94.31 13.7215 94.373 13.5472 94.272C13.3729 94.171 13.3095 93.9444 13.4057 93.7657C13.5018 93.5871 13.7211 93.5241 13.8954 93.6251C14.0697 93.726 14.133 93.9527 14.0369 94.1314ZM7.26203 102.566L7.26049 102.563L9.85532 101.063L9.88119 101.037L9.88158 101.048L9.88898 101.044L9.8819 101.057L9.99507 104.122L9.99064 104.123L9.99144 104.124L8.18679 104.161L8.18377 104.166L8.18239 104.164L8.18112 104.166L8.17807 104.161H8.17591L8.17654 104.16L8.17476 104.155L7.25965 102.566L7.26203 102.566ZM7.4122 105.542L7.11197 102.832L8.03103 104.427L9.84562 104.391L7.42144 105.556L7.41499 105.568L7.41407 105.559L7.40883 105.562L7.4122 105.542ZM9.90427 99.7225C10.8484 100.624 12.3245 100.584 13.2014 99.6329C14.0782 98.6819 14.024 97.1799 13.0799 96.2785C12.1361 95.3771 10.6599 95.4173 9.78314 96.3685C8.9062 97.3194 8.9606 98.8212 9.90427 99.7225ZM12.182 97.2894C12.446 97.4772 12.6175 97.6926 12.4969 97.9641C12.409 98.163 12.2672 98.23 12.1063 98.2208C12.2836 98.3912 12.3429 98.5899 12.1618 98.851C11.9369 99.1752 11.6317 99.1183 11.2579 98.9267L11.0547 99.2867L10.8394 99.1603L11.0399 98.8051C10.9841 98.7724 10.9272 98.7384 10.8689 98.7025L10.6675 99.0593L10.4524 98.933L10.6559 98.5723L10.5954 98.536C10.5649 98.5177 10.5341 98.4991 10.5028 98.4807L10.2226 98.3162L10.4117 98.0821C10.4117 98.0821 10.5695 98.1781 10.5682 98.174C10.6292 98.2097 10.6702 98.1751 10.6896 98.1496L11.0109 97.5806L11.0336 97.5939C11.0254 97.5874 11.0177 97.5826 11.0117 97.579L11.241 97.1728C11.2576 97.1239 11.258 97.0562 11.1708 97.0049C11.1751 97.0035 11.0144 96.9132 11.0144 96.9132L11.1452 96.6814L11.4421 96.8558L11.4415 96.857C11.4861 96.8831 11.5324 96.9092 11.5796 96.9356L11.7808 96.5791L11.996 96.7055L11.7987 97.055C11.8569 97.0876 11.9154 97.1204 11.972 97.1536L12.1679 96.8064L12.3832 96.9328L12.182 97.2894ZM11.0639 98.4681C11.2388 98.5741 11.621 98.8057 11.7605 98.5584C11.9032 98.3056 11.528 98.097 11.345 97.9952C11.3245 97.9838 11.3065 97.9738 11.2918 97.9652L11.022 98.443C11.0341 98.45 11.0482 98.4586 11.0639 98.4681ZM11.4504 97.7677C11.5961 97.8565 11.9139 98.0502 12.0408 97.8254C12.1706 97.5955 11.8574 97.4226 11.7045 97.3382C11.6873 97.3287 11.6721 97.3203 11.6598 97.3131L11.4152 97.7464C11.4254 97.7524 11.4372 97.7596 11.4504 97.7677ZM6.20088 88.3088C6.59088 88.9755 7.43693 89.1935 8.09059 88.7957C8.74424 88.398 8.95798 87.5351 8.56799 86.8684C8.51697 86.7811 8.45814 86.7016 8.39297 86.6301C9.78951 86.1149 11.2941 85.9086 12.7986 86.042L13.4315 84.8827C8.89441 84.2595 4.2622 86.4335 1.91841 90.7292C-1.15385 96.3599 0.869316 103.504 6.43726 106.686C12.0052 109.867 19.0095 107.882 22.0817 102.251C24.3078 98.1712 23.8587 93.2968 21.3243 89.7109L20.6725 90.905C22.6526 94.0611 22.9221 98.1763 21.0274 101.649C20.1477 103.261 18.9079 104.54 17.4653 105.44C17.4865 105.196 17.4354 104.945 17.3034 104.719C16.9701 104.149 16.247 103.963 15.6883 104.303C15.1296 104.643 14.947 105.38 15.2803 105.95C15.3742 106.11 15.4991 106.241 15.6426 106.337C14.708 106.686 13.7245 106.896 12.7246 106.958L15.1992 102.438C15.361 102.143 15.2572 101.769 14.9673 101.604C14.6774 101.439 14.3112 101.545 14.1493 101.84L11.5114 106.659C11.4598 106.753 11.4352 106.855 11.435 106.956C9.93261 106.858 8.42469 106.423 7.01899 105.619C5.88288 104.97 4.9116 104.137 4.12156 103.177C4.12521 103.171 4.12878 103.165 4.13225 103.158L4.93827 101.686C5.10014 101.39 4.99636 101.017 4.70646 100.852C4.41656 100.687 4.05032 100.792 3.88845 101.088L3.33852 102.093C2.71645 101.105 2.26207 100.024 1.98931 98.8968L5.18985 93.0507C5.35172 92.755 5.24793 92.3814 4.95803 92.2163C4.66813 92.0512 4.3019 92.1571 4.14002 92.4528L1.70111 96.9077C1.60674 95.0231 2.01082 93.0945 2.9727 91.3316C3.74897 89.9089 4.80557 88.7461 6.03452 87.8738C6.06489 88.0233 6.11986 88.1703 6.20088 88.3088ZM12.0339 87.4673C11.744 87.3022 11.3777 87.408 11.2158 87.7037L9.45725 90.916C9.29538 91.2117 9.39916 91.5852 9.68906 91.7503C9.97896 91.9154 10.3452 91.8096 10.5071 91.5139L12.2657 88.3016C12.4275 88.0059 12.3238 87.6324 12.0339 87.4673ZM8.88285 93.2226C8.59295 93.0575 8.22672 93.1633 8.06484 93.459L5.35367 98.4113C5.19179 98.7069 5.29558 99.0805 5.58548 99.2456C5.87538 99.4107 6.24162 99.3048 6.40349 99.0092L9.11466 94.0569C9.27654 93.7612 9.17275 93.3877 8.88285 93.2226ZM20.0788 97.3788C20.246 97.6646 20.6087 97.758 20.8889 97.5875C21.1691 97.417 21.2607 97.0471 21.0936 96.7613C20.9264 96.4755 20.5637 96.382 20.2835 96.5525C20.0032 96.723 19.9116 97.093 20.0788 97.3788ZM19.1461 99.9454C18.8562 99.7803 18.49 99.8862 18.3281 100.182L17.5221 101.654C17.3602 101.95 17.464 102.323 17.7539 102.488C18.0438 102.654 18.41 102.548 18.5719 102.252L19.3779 100.78C19.5398 100.484 19.436 100.11 19.1461 99.9454ZM20.0235 92.3686C19.7336 92.2035 19.3674 92.3093 19.2055 92.605L16.2745 97.9588C16.1126 98.2545 16.2164 98.628 16.5063 98.7931C16.7962 98.9582 17.1625 98.8524 17.3243 98.5567L20.2553 93.2029C20.4172 92.9072 20.3134 92.5337 20.0235 92.3686Z" fill="url(#paint1_linear_486_3026)"/>
<defs>
<linearGradient id="paint0_linear_486_3026" x1="82.6187" y1="75.2195" x2="105.181" y2="96.1616" gradientUnits="userSpaceOnUse">
<stop stop-color="#24F2F2"/>
<stop offset="1" stop-color="#2D8BFE"/>
</linearGradient>
<linearGradient id="paint1_linear_486_3026" x1="6.86072" y1="84.1767" x2="6.36933" y2="106.713" gradientUnits="userSpaceOnUse">
<stop stop-color="#F2AD7D"/>
<stop offset="0.319659" stop-color="#D233E6"/>
<stop offset="0.61745" stop-color="#6050F5"/>
<stop offset="1" stop-color="#18F3FF"/>
</linearGradient>
</defs>
</svg>
