<svg width="74" height="74" viewBox="0 0 74 74" fill="none" xmlns="http://www.w3.org/2000/svg">
<g clip-path="url(#clip0_486_3097)">
<path d="M66.63 0.462402H7.67064C3.93261 0.462402 0.902344 3.56843 0.902344 7.3999V66.5999C0.902344 70.4314 3.93261 73.5374 7.67064 73.5374H66.63C70.368 73.5374 73.3982 70.4314 73.3982 66.5999V7.3999C73.3982 3.56843 70.368 0.462402 66.63 0.462402Z" fill="#030110" stroke="url(#paint0_linear_486_3097)"/>
<path fill-rule="evenodd" clip-rule="evenodd" d="M38.7709 42.7908C33.3528 44.5792 30.1726 36.0087 36.1964 33.987C38.9391 33.0627 41.2528 35.0843 41.7828 37.1664C42.5063 40.0262 40.7647 42.1342 38.7709 42.7908ZM34.7578 38.6611C34.4718 34.8683 39.8898 34.6264 40.1254 38.1168C40.3778 41.8837 35.0186 42.1428 34.7578 38.6611Z" fill="url(#paint1_linear_486_3097)"/>
<path fill-rule="evenodd" clip-rule="evenodd" d="M50.2632 40.8811C51.5252 33.408 47.2261 27.9823 42.2792 25.9174C36.3648 23.4552 29.3903 26.0557 26.4036 31.1962C21.1201 40.2851 26.9252 51.2918 36.9032 51.7757C40.6695 51.9595 42.5285 50.8055 44.9566 49.298C45.1536 49.1757 45.3544 49.051 45.5603 48.9247C48.4881 49.849 50.3726 49.2874 51.6514 47.1276C53.2583 44.3975 51.5336 42.3326 50.2716 40.8725L50.2632 40.8811ZM46.8559 42.3412C48.3703 41.6933 49.8089 42.5572 50.2884 43.7841C51.6682 47.3004 46.5951 49.1924 45.3163 45.9266C44.9966 45.1059 45.0723 44.216 45.4256 43.5249C45.779 42.8337 46.1576 42.635 46.8475 42.3326L46.8559 42.3412ZM44.1553 47.7496L44.1528 47.7507C44.0437 47.4192 43.9198 47.1597 43.8013 46.9113C43.5544 46.394 43.331 45.9258 43.314 44.9591C43.2635 41.9007 45.4593 40.2851 48.5469 40.2505C49.1779 37.2266 48.101 33.9263 46.8391 31.9738C42.1782 24.7857 32.0573 25.3472 27.9096 32.1984C24.965 37.0712 26.0587 43.6372 29.7772 46.903C31.4431 48.3544 33.5548 49.6503 36.5499 49.9009C39.7949 50.1742 41.3578 49.2854 42.8296 48.4484C43.2649 48.2008 43.6922 47.9579 44.1528 47.7507L44.1553 47.7582V47.7496Z" fill="url(#paint2_linear_486_3097)"/>
<path fill-rule="evenodd" clip-rule="evenodd" d="M28.69 60.0958C29.5218 60.4644 30.3764 60.8432 31.4175 61.1324C33.1085 61.5989 34.8752 61.8927 36.7178 61.9618C46.4349 62.2988 55.4117 56.1214 58.6339 46.7302C63.7575 31.7751 53.7879 18.5479 42.0264 16.198C41.3534 14.0381 40.3606 12.0077 37.4497 12.025C35.6745 12.0337 34.076 13.174 33.4451 14.5651C33.2559 14.9816 33.1802 15.2855 33.1224 15.5171C33.003 15.9964 32.9605 16.1667 32.1494 16.3881C32.0354 16.4203 31.9195 16.447 31.8051 16.4732C31.6749 16.5032 31.5469 16.5326 31.4258 16.5694C27.6736 17.5889 23.3746 20.2326 20.9937 23.0664C19.1428 25.2608 17.8724 26.9801 16.6861 29.9349C13.262 38.4622 14.9362 46.4278 19.9925 53.4777C19.9137 53.9061 19.8032 54.2404 19.7001 54.5516C19.4729 55.2383 19.2829 55.8126 19.555 57.0373C20.2112 60.0006 23.4923 61.8408 27.0006 59.4044L26.9922 59.3958C27.5809 59.6043 28.1303 59.8478 28.69 60.0958ZM22.9791 53.4C26.521 52.0349 27.9344 57.3051 24.9141 58.5578C21.5741 59.9401 19.6307 54.6959 22.9791 53.4ZM20.9431 51.7066C19.0418 49.5467 17.561 45.3134 17.0563 42.5746C16.3075 38.5227 16.8964 34.0473 18.3098 30.6692C19.9925 26.6432 21.6246 25.0016 24.0139 22.6431C25.7639 20.9238 29.9704 18.496 33.201 18.0382C34.4967 22.2888 40.3774 22.2888 41.6815 18.0382C47.5623 18.9108 52.9046 23.8353 55.0584 27.5936C61.6458 39.1101 57.1279 52.9939 46.2834 58.0912C39.9821 61.0546 34.2527 60.6486 28.1111 57.8493C28.4813 55.5167 28.4476 53.6937 26.8912 52.4496C25.5788 51.4042 23.0548 50.713 21.4732 52.1559L20.9431 51.698V51.7066ZM36.7598 13.9949C38.2489 13.5369 39.7129 14.591 40.0325 15.8265C40.47 17.5025 39.4521 18.9108 38.2237 19.2823C34.8752 20.3017 33.1674 15.092 36.7598 13.9949Z" fill="url(#paint3_linear_486_3097)"/>
</g>
<defs>
<linearGradient id="paint0_linear_486_3097" x1="73.5487" y1="-9.2501" x2="-2.8407" y2="70.861" gradientUnits="userSpaceOnUse">
<stop stop-color="#140028"/>
<stop offset="0.620002" stop-color="#2D8BFE"/>
<stop offset="1" stop-color="#FCC0A0"/>
</linearGradient>
<linearGradient id="paint1_linear_486_3097" x1="37.4514" y1="12.025" x2="20.1707" y2="62.0938" gradientUnits="userSpaceOnUse">
<stop stop-color="#A34EFC"/>
<stop offset="1" stop-color="#EFD8A9"/>
</linearGradient>
<linearGradient id="paint2_linear_486_3097" x1="37.4514" y1="12.0249" x2="20.1706" y2="62.0937" gradientUnits="userSpaceOnUse">
<stop stop-color="#A34EFC"/>
<stop offset="1" stop-color="#EFD8A9"/>
</linearGradient>
<linearGradient id="paint3_linear_486_3097" x1="37.4511" y1="12.0249" x2="20.1703" y2="62.0936" gradientUnits="userSpaceOnUse">
<stop stop-color="#A34EFC"/>
<stop offset="1" stop-color="#EFD8A9"/>
</linearGradient>
<clipPath id="clip0_486_3097">
<rect width="74" height="74" fill="white"/>
</clipPath>
</defs>
</svg>
