<svg width="24" height="24" viewBox="0 0 24 24" fill="none" xmlns="http://www.w3.org/2000/svg">
<path d="M6.89013 12.16C6.74093 12.1616 6.59463 12.1187 6.46993 12.0368C6.34524 11.9549 6.24782 11.8376 6.19013 11.7C6.15025 11.6085 6.12982 11.5098 6.13013 11.41C6.13031 11.2111 6.20944 11.0205 6.35013 10.88C6.42145 10.8099 6.50659 10.7554 6.60013 10.72C6.73576 10.6631 6.88525 10.648 7.02952 10.6765C7.17379 10.705 7.3063 10.7758 7.41013 10.88C7.55058 11.0206 7.62947 11.2112 7.62947 11.41C7.62947 11.6087 7.55058 11.7993 7.41013 11.94C7.3424 12.0093 7.26154 12.0645 7.17226 12.1023C7.08298 12.1401 6.98707 12.1597 6.89013 12.16Z" fill="#A7B5CA"/>
<path d="M9.7301 15C9.63447 15.02 9.53574 15.02 9.4401 15C9.35085 14.9621 9.26946 14.9078 9.2001 14.84C9.10728 14.7602 9.03811 14.6564 9.0001 14.54C8.98043 14.4443 8.98043 14.3457 9.0001 14.25C9.00241 14.0516 9.08122 13.8617 9.2201 13.72C9.29195 13.6554 9.37279 13.6015 9.4601 13.56C9.56334 13.5162 9.67508 13.4961 9.78712 13.5011C9.89916 13.5062 10.0086 13.5363 10.1075 13.5893C10.2063 13.6423 10.292 13.7168 10.3583 13.8072C10.4246 13.8977 10.4697 14.0019 10.4904 14.1121C10.511 14.2224 10.5067 14.3358 10.4777 14.4442C10.4487 14.5525 10.3958 14.653 10.3229 14.7382C10.2499 14.8234 10.1588 14.8911 10.0562 14.9364C9.95365 14.9817 9.8422 15.0035 9.7301 15Z" fill="#A7B5CA"/>
<path d="M14.24 10.49C14.1434 10.4905 14.0479 10.47 13.96 10.4301C13.8665 10.3947 13.7813 10.3402 13.71 10.2701C13.5693 10.1295 13.4902 9.9389 13.49 9.74005C13.4897 9.64027 13.5101 9.54151 13.55 9.45005C13.5879 9.3608 13.6422 9.27941 13.71 9.21005C13.7897 9.13056 13.8902 9.07512 14 9.05005C14.1356 8.99322 14.2851 8.97808 14.4294 9.00658C14.5737 9.03508 14.7062 9.10592 14.81 9.21005C14.9148 9.31494 14.9861 9.44851 15.015 9.59391C15.0438 9.73931 15.029 9.89001 14.9723 10.027C14.9156 10.1639 14.8195 10.281 14.6963 10.3634C14.5731 10.4459 14.4282 10.4899 14.28 10.49H14.24Z" fill="#A7B5CA"/>
<path d="M11.3999 7.65C11.2011 7.64982 11.0105 7.57069 10.8699 7.43C10.7986 7.35968 10.7439 7.27425 10.7099 7.18C10.6711 7.09171 10.6507 6.99644 10.6499 6.9C10.6489 6.80138 10.6679 6.70357 10.7057 6.61248C10.7435 6.52138 10.7994 6.4389 10.8699 6.37C11.013 6.23425 11.2027 6.15857 11.3999 6.15857C11.5972 6.15857 11.7869 6.23425 11.9299 6.37C12.0706 6.51052 12.1498 6.70115 12.1499 6.9C12.1476 7.09841 12.0688 7.28828 11.9299 7.43C11.7894 7.57069 11.5988 7.64982 11.3999 7.65Z" fill="#A7B5CA"/>
<path d="M12.5401 17.82C12.3382 17.8203 12.1443 17.7413 12.0001 17.6C11.8597 17.4594 11.7808 17.2688 11.7808 17.07C11.7808 16.8713 11.8597 16.6806 12.0001 16.54C12.0687 16.4666 12.1547 16.4116 12.2501 16.38C12.3857 16.3232 12.5352 16.308 12.6795 16.3365C12.8238 16.365 12.9563 16.4359 13.0601 16.54C13.1649 16.6449 13.2362 16.7785 13.2651 16.9239C13.294 17.0693 13.2791 17.22 13.2224 17.3569C13.1657 17.4939 13.0696 17.611 12.9464 17.6934C12.8232 17.7758 12.6783 17.8199 12.5301 17.82H12.5401Z" fill="#A7B5CA"/>
<path d="M17.0601 13.3C16.8612 13.2999 16.6706 13.2207 16.5301 13.08C16.4592 13.0111 16.4016 12.9298 16.3601 12.84C16.3233 12.7479 16.3063 12.6491 16.3101 12.55C16.3101 12.3511 16.3891 12.1604 16.5298 12.0197C16.6704 11.8791 16.8612 11.8 17.0601 11.8C17.259 11.8 17.4498 11.8791 17.5904 12.0197C17.7311 12.1604 17.8101 12.3511 17.8101 12.55C17.8104 12.6498 17.79 12.7486 17.7501 12.84C17.7121 12.9293 17.6579 13.0107 17.5901 13.08C17.4484 13.2189 17.2585 13.2977 17.0601 13.3Z" fill="#A7B5CA"/>
<path d="M12 22.84C11.5076 22.8401 11.0201 22.743 10.5653 22.5542C10.1106 22.3655 9.69758 22.0888 9.35002 21.74L2.25002 14.64C1.54777 13.9369 1.15332 12.9838 1.15332 11.99C1.15332 10.9963 1.54777 10.0431 2.25002 9.34001L9.35002 2.24001C10.0531 1.53776 11.0063 1.14331 12 1.14331C12.9938 1.14331 13.9469 1.53776 14.65 2.24001L21.75 9.34001C22.0989 9.6875 22.3758 10.1005 22.5647 10.5552C22.7536 11.01 22.8509 11.4976 22.8509 11.99C22.8509 12.4824 22.7536 12.97 22.5647 13.4248C22.3758 13.8795 22.0989 14.2925 21.75 14.64L14.65 21.74C14.3025 22.0888 13.8895 22.3655 13.4347 22.5542C12.9799 22.743 12.4924 22.8401 12 22.84ZM12 2.64001C11.7045 2.63917 11.4117 2.69709 11.1388 2.81039C10.8658 2.9237 10.6181 3.09013 10.41 3.30001L3.31002 10.4C2.88867 10.8219 2.652 11.3938 2.652 11.99C2.652 12.5863 2.88867 13.1581 3.31002 13.58L10.41 20.68C10.8319 21.1014 11.4038 21.338 12 21.338C12.5963 21.338 13.1681 21.1014 13.59 20.68L20.69 13.58C21.1114 13.1581 21.348 12.5863 21.348 11.99C21.348 11.3938 21.1114 10.8219 20.69 10.4L13.59 3.30001C13.382 3.09013 13.1342 2.9237 12.8613 2.81039C12.5883 2.69709 12.2956 2.63917 12 2.64001Z" fill="#A7B5CA"/>
</svg>
