<svg width="132" height="40" viewBox="0 0 132 40" fill="none" xmlns="http://www.w3.org/2000/svg">
<g opacity="0.2">
<path d="M119.372 20.0464C119.046 21.0051 118.881 22.0051 118.635 22.9798C118.381 23.9958 118.134 25.0144 117.911 26.0384C117.849 26.3251 117.731 26.4158 117.449 26.4091C116.729 26.3931 116.007 26.3944 115.287 26.4091C114.995 26.4091 114.92 26.3438 114.994 26.0371C115.434 24.2091 115.857 22.3758 116.277 20.5438C116.378 20.1708 116.425 19.7851 116.418 19.3984C116.381 18.6971 116.01 18.3184 115.322 18.2798C114.095 18.2104 114.031 18.2624 113.749 19.4611C113.233 21.6518 112.705 23.8384 112.198 26.0318C112.134 26.3078 112.035 26.4184 111.745 26.4118C111.024 26.3931 110.304 26.3971 109.583 26.4118C109.303 26.4118 109.199 26.3598 109.275 26.0451C110.02 22.9784 110.75 19.8998 111.488 16.8278C111.522 16.6851 111.538 16.5344 111.727 16.4718C113.394 15.9171 115.093 15.6344 116.84 15.9238C118.16 16.1438 119.022 16.9118 119.289 18.2771C119.297 18.3144 119.343 18.3424 119.372 18.3744V20.0464Z" fill="#557086"/>
<path d="M69.8851 25.3253C69.1864 25.659 68.4078 25.7839 67.6411 25.6853C65.9013 25.4653 64.84 24.2559 64.7371 22.4053C64.5496 18.8746 66.6801 16.3186 70.1755 15.8573C71.6572 15.6617 73.1638 15.855 74.55 16.4186C74.7928 16.5146 74.9235 16.6159 74.8496 16.9239C74.146 19.8319 73.4583 22.7439 72.7614 25.6533C72.6877 25.9368 72.5996 26.2163 72.4974 26.4906C71.7502 28.6066 70.2679 29.8119 68.049 30.0373C66.5864 30.1853 65.145 30.0973 63.755 29.5039C63.4012 29.3533 63.3339 29.2199 63.5121 28.8706C63.7452 28.4014 63.9476 27.9172 64.118 27.4213C64.2394 27.0826 64.3596 26.9839 64.7344 27.1546C65.7731 27.6391 66.9362 27.7818 68.0595 27.5626C68.5716 27.4575 69.0323 27.1779 69.3647 26.7706C69.697 26.3633 69.8807 25.853 69.8851 25.3253ZM67.6094 21.7439C67.6371 22.2346 67.6371 22.8759 68.2694 23.1973C68.9611 23.5453 69.6422 23.3679 70.2916 23.0253C70.3731 22.9818 70.444 22.9206 70.4992 22.8462C70.5545 22.7717 70.5927 22.6858 70.6111 22.5946C70.9213 21.2879 71.2288 19.9813 71.5483 18.6786C71.6249 18.3666 71.5192 18.2866 71.2183 18.2599C69.1353 18.0706 67.6239 19.4666 67.6094 21.7439Z" fill="#557086"/>
<path d="M43.1121 22.4268C43.1055 19.2428 45.1674 16.6294 48.1757 16.0148C48.8503 15.8523 49.5514 15.8373 50.2322 15.9708C50.615 16.0588 50.7259 15.9121 50.8025 15.5708C51.0665 14.3801 51.3714 13.2001 51.6314 12.0108C51.6948 11.7214 51.8083 11.5908 52.0934 11.5508C52.8854 11.4414 53.673 11.3192 54.4562 11.1841C54.8166 11.1228 54.707 11.3361 54.6661 11.5081C54.3018 13.0485 53.9339 14.5903 53.5626 16.1334C53.0966 18.0841 52.6254 20.0334 52.1687 21.9868C51.8847 23.245 51.9444 24.5575 52.3416 25.7841C52.4511 26.1401 52.3865 26.2401 52.0235 26.2708C51.4738 26.3203 50.9273 26.4014 50.3867 26.5134C50.0105 26.5908 49.7544 26.5134 49.6633 26.1214C49.5537 25.6374 49.3557 25.7214 49.0218 25.9494C47.5434 26.9468 45.6399 26.9228 44.4229 25.9014C43.4633 25.1014 43.2111 23.9734 43.1135 22.7934C43.1029 22.6748 43.1121 22.5494 43.1121 22.4268ZM49.3491 18.3068C46.4821 18.2334 45.4089 21.9068 46.2973 23.6188C46.5811 24.1654 47.1012 24.2521 47.6424 24.2068C47.9256 24.1881 48.2011 24.1054 48.4485 23.9649C48.696 23.8244 48.909 23.6295 49.0719 23.3948C49.0957 23.3628 49.0851 23.3054 49.0904 23.2614C49.2449 21.7841 49.6527 20.3601 49.992 18.9214C50.124 18.3601 50.1108 18.3428 49.5339 18.3108C49.4719 18.3041 49.4112 18.3081 49.3491 18.3068Z" fill="#557086"/>
<path d="M97.9862 26.6665C95.3806 26.6665 93.9022 25.2731 93.8018 22.7078C93.716 20.5051 94.4249 18.5665 96.1118 17.0798C97.4543 15.8958 99.029 15.5425 100.752 15.9118C102.336 16.2505 103.324 17.3651 103.539 19.1918C103.83 21.6558 103.143 23.8158 101.228 25.4771C100.336 26.2744 99.1771 26.6995 97.9862 26.6665ZM96.6834 21.9891C96.6979 22.4625 96.6979 22.8158 96.793 23.1638C97.0094 23.9478 97.5388 24.3065 98.3387 24.1945C99.0634 24.0918 99.5676 23.6611 99.9438 23.0691C100.597 22.0485 100.858 20.8214 100.676 19.6198C100.544 18.5611 99.92 18.0985 98.8865 18.3011C98.5241 18.3792 98.1931 18.5649 97.9361 18.8345C97.02 19.7331 96.7283 20.8665 96.6834 21.9851V21.9891Z" fill="#557086"/>
<path d="M58.0428 26.6667C55.6668 26.6667 54.2227 25.4534 54.0247 23.0067C53.8096 20.34 54.7217 18.0734 57.0303 16.5534C58.3437 15.6867 59.7958 15.564 61.2742 16C62.4872 16.3614 63.2251 17.2307 63.5881 18.436C64.3326 20.9147 63.2343 24.1774 61.1474 25.684C60.1997 26.3734 59.2902 26.6587 58.0428 26.6667ZM60.9151 20.3534C60.9032 20.144 60.8993 19.928 60.8795 19.7134C60.758 18.4187 59.6915 17.856 58.5629 18.496C58.3088 18.6403 58.0847 18.8327 57.9029 19.0627C56.967 20.2507 56.7017 21.6094 56.9696 23.0627C57.1386 23.988 57.7432 24.3334 58.6619 24.1587C59.0557 24.0853 59.417 23.8895 59.6954 23.5987C60.5772 22.7014 60.8742 21.5774 60.9151 20.348V20.3534Z" fill="#557086"/>
<path d="M79.6175 26.6575C78.815 26.6775 78.0837 26.6162 77.3907 26.3255C75.9691 25.7282 75.2998 24.5922 75.115 23.1042C74.7494 20.1562 76.5023 16.7135 79.8895 15.9229C80.6653 15.7185 81.4795 15.7139 82.2575 15.9095C83.3241 16.2042 84.1055 16.8429 84.3471 17.9655C84.6203 19.2669 84.3062 20.4242 83.2832 21.3189C82.4173 22.0749 81.3573 22.3762 80.2538 22.5509C79.6033 22.6606 78.9451 22.7172 78.2857 22.7202C77.9939 22.7202 77.9543 22.8322 78.0217 23.0815C78.1919 23.7602 78.7292 24.1642 79.5753 24.2189C80.4346 24.282 81.298 24.1789 82.1189 23.9149C82.4239 23.8135 82.4965 23.9029 82.5149 24.1815C82.5493 24.7215 82.5796 25.2615 82.6469 25.7962C82.6852 26.0629 82.5783 26.1482 82.3592 26.2162C81.4747 26.5113 80.549 26.6603 79.6175 26.6575ZM78.7371 20.6855C78.9404 20.6615 79.3113 20.6389 79.6703 20.5682C80.2564 20.4522 80.8478 20.3282 81.3415 19.9549C81.5323 19.8101 81.6733 19.6083 81.7443 19.3781C81.8154 19.1479 81.813 18.9009 81.7375 18.6722C81.5645 18.1989 81.1725 18.1029 80.7343 18.1002C79.5977 18.1002 78.6051 18.8869 78.1708 20.1455C77.9768 20.7149 77.9768 20.7149 78.7371 20.6855Z" fill="#557086"/>
<path d="M89.4845 26.6788C88.8543 26.6922 88.2264 26.598 87.6273 26.4001C86.1291 25.8535 85.2513 24.7708 85.0731 23.1895C84.7813 20.6561 85.4427 18.4388 87.5639 16.8961C89.437 15.5335 91.5173 15.4775 93.6557 16.2428C93.9461 16.3455 93.9382 16.4828 93.8273 16.7201C93.5752 17.2655 93.3323 17.8161 93.1066 18.3721C93.0115 18.6068 92.9046 18.6681 92.6644 18.5601C91.9841 18.2605 91.2305 18.1737 90.5009 18.3108C89.1664 18.5335 88.2384 19.6001 88.0602 21.0815C87.9942 21.5228 87.9831 21.9707 88.0272 22.4148C88.1856 23.6508 88.7677 24.1988 90.0072 24.1948C90.5927 24.2017 91.1744 24.0996 91.7232 23.8935C91.9727 23.7975 92.0585 23.8735 92.0783 24.1135C92.1245 24.6975 92.1628 25.2841 92.2275 25.8668C92.2552 26.1228 92.1087 26.1908 91.9239 26.2428C91.4962 26.3628 91.0725 26.5095 90.6369 26.5841C90.2548 26.6375 89.8701 26.6691 89.4845 26.6788Z" fill="#557086"/>
<path d="M105.342 26.4094C104.975 26.4094 104.607 26.3974 104.239 26.4094C103.952 26.4214 103.872 26.3574 103.948 26.0428C104.446 23.9921 104.92 21.9348 105.4 19.8801C105.664 18.7401 105.944 17.6028 106.2 16.4601C106.266 16.1641 106.365 16.0241 106.707 16.0414C107.396 16.0774 108.087 16.0774 108.777 16.0414C109.183 16.0201 109.187 16.1814 109.112 16.4948C108.43 19.3392 107.752 22.1868 107.078 25.0374C107 25.3668 106.894 25.6934 106.85 26.0268C106.805 26.3601 106.642 26.4268 106.352 26.4094C106.018 26.4001 105.68 26.4094 105.342 26.4094Z" fill="#557086"/>
<path d="M108.141 14.7814C107.175 14.7734 106.557 14.1854 106.577 13.2867C106.598 12.2374 107.526 11.3334 108.586 11.332C109.53 11.332 110.17 11.932 110.17 12.8187C110.165 13.0824 110.109 13.3425 110.004 13.5841C109.899 13.8257 109.748 14.044 109.56 14.2264C109.371 14.4088 109.149 14.5518 108.905 14.647C108.662 14.7423 108.402 14.7879 108.141 14.7814Z" fill="#557086"/>
<path d="M24.4344 8.07617C22.0996 8.07617 19.8173 8.7755 17.876 10.0857C15.9347 11.396 14.4217 13.2582 13.5282 15.4371C12.6348 17.6159 12.401 20.0134 12.8565 22.3264C13.312 24.6395 14.4363 26.7641 16.0872 28.4317C17.7381 30.0993 19.8415 31.235 22.1314 31.6951C24.4213 32.1551 26.7949 31.919 28.9519 31.0165C31.1089 30.114 32.9526 28.5857 34.2497 26.6248C35.5468 24.6639 36.2392 22.3585 36.2392 20.0002C36.2392 16.8377 34.9955 13.8048 32.7816 11.5686C30.5678 9.33245 27.5652 8.07617 24.4344 8.07617ZM24.804 27.1335H20.0744V20.7842H18.4073V19.2268H20.0744V12.8788H24.1414C25.1036 12.8788 31.4581 12.6575 31.4581 20.1162C31.4581 27.6975 24.804 27.1335 24.804 27.1335Z" fill="#557086"/>
<path d="M24.5929 15.4922H22.7449V19.2255H25.7017V20.7789H22.7449V24.5122H24.7038V24.4935C25.2067 24.4935 28.8222 24.5429 28.8156 20.1575C28.809 15.7722 25.2912 15.4922 24.5929 15.4922Z" fill="#557086"/>
</g>
</svg>
