<svg width="134" height="40" viewBox="0 0 134 40" fill="none" xmlns="http://www.w3.org/2000/svg">
<g opacity="0.2">
<path d="M45.9177 17.0466H44.5013V14.6813C44.5024 14.5138 44.467 14.348 44.3977 14.1954C44.3283 14.0428 44.2265 13.907 44.0993 13.7973C43.9672 13.6855 43.8122 13.6038 43.6451 13.5577C43.478 13.5117 43.3029 13.5024 43.1318 13.5306C42.8596 13.5781 42.6132 13.7205 42.4369 13.9324C42.2606 14.1442 42.1659 14.4116 42.1697 14.6866V17.0413H40.8391C40.5306 17.0454 40.2359 17.1693 40.0179 17.3865C39.7999 17.6037 39.6758 17.897 39.6719 18.2039C39.6703 18.3569 39.6994 18.5086 39.7575 18.6503C39.8156 18.7919 39.9015 18.9205 40.0102 19.0287C40.1189 19.1369 40.2482 19.2224 40.3905 19.2801C40.5329 19.3379 40.6854 19.3669 40.8391 19.3653H42.1697V27.1106C42.1701 27.4186 42.2931 27.7139 42.5119 27.9319C42.7306 28.1498 43.0273 28.2726 43.3368 28.2733C43.6453 28.2691 43.94 28.1453 44.158 27.9281C44.376 27.7109 44.5002 27.4176 44.504 27.1106V19.3706H45.9204C46.0742 19.3724 46.2268 19.3436 46.3693 19.2859C46.5118 19.2282 46.6413 19.1427 46.7501 19.0345C46.859 18.9263 46.945 18.7976 47.0032 18.6559C47.0613 18.5142 47.0905 18.3623 47.0888 18.2093C47.0887 18.0564 47.0582 17.9051 46.9993 17.7639C46.9403 17.6228 46.854 17.4946 46.7453 17.3866C46.6365 17.2786 46.5074 17.193 46.3655 17.1347C46.2235 17.0764 46.0713 17.0464 45.9177 17.0466Z" fill="#557086"/>
<path d="M31.356 16.8506H31.3466C28.345 16.8506 25.9036 19.4493 25.9036 22.6439C25.9036 25.8386 28.345 28.4373 31.3466 28.4373C33.3566 28.4373 35.1616 27.4813 36.0487 25.9426L36.0688 25.9039C36.1914 25.6758 36.2348 25.4138 36.1921 25.1586C36.1604 24.9694 36.0815 24.7911 35.9625 24.6401C35.8436 24.4892 35.6885 24.3704 35.5114 24.2946C35.2589 24.1859 34.9761 24.1691 34.7125 24.2471C34.4489 24.3252 34.2213 24.493 34.0695 24.7213C33.3995 25.6773 32.558 26.1026 31.352 26.1026C29.886 26.1026 28.8623 25.0239 28.4522 23.7999H35.644C35.957 23.8003 36.2574 23.6771 36.4792 23.4574C36.701 23.2376 36.8262 22.9394 36.8272 22.6279C36.8138 19.4386 34.363 16.8506 31.356 16.8506ZM28.4522 21.4773C28.8609 20.2533 29.882 19.1733 31.356 19.1733C32.7952 19.1733 33.8538 20.2399 34.2625 21.4773H28.4522Z" fill="#557086"/>
<path d="M55.4519 16.8772C54.5035 16.8771 53.5796 17.1769 52.8134 17.7332V10.1398C52.8131 9.83195 52.69 9.53677 52.4712 9.31905C52.2524 9.10134 51.9557 8.97887 51.6463 8.97852C51.3378 8.98231 51.043 9.10584 50.8247 9.32278C50.6065 9.53972 50.482 9.83291 50.4778 10.1398V27.0665C50.4766 27.2342 50.5119 27.4002 50.5813 27.553C50.6507 27.7058 50.7525 27.8419 50.8798 27.9518C51.012 28.0634 51.167 28.145 51.3341 28.191C51.5011 28.2371 51.6762 28.2464 51.8473 28.2185C52.1198 28.171 52.3663 28.0283 52.5427 27.8162C52.719 27.6041 52.8136 27.3364 52.8094 27.0612V23.1945C52.8094 23.1785 52.8094 23.1012 52.7974 23.0105C52.7974 22.9478 52.784 22.8772 52.7826 22.8492V22.8012C52.7062 21.6292 53.0118 20.5852 53.6215 19.9398C54.0771 19.4558 54.6935 19.2092 55.4546 19.2092C56.9487 19.2092 57.6294 20.6172 57.6294 21.9252V27.0665C57.6276 27.2196 57.6566 27.3715 57.7146 27.5132C57.7726 27.655 57.8584 27.7838 57.9672 27.8921C58.0759 28.0005 58.2052 28.0861 58.3477 28.1439C58.4901 28.2018 58.6427 28.2308 58.7965 28.2292C59.1061 28.2285 59.4027 28.1057 59.6215 27.8878C59.8403 27.6699 59.9633 27.3745 59.9637 27.0665V21.9158C59.9663 19.4732 58.3852 16.8772 55.4519 16.8772Z" fill="#557086"/>
<path d="M110.148 17.1548L110.123 17.1468C109.95 17.095 109.767 17.0844 109.589 17.1159C109.411 17.1474 109.243 17.2201 109.099 17.3281C108.952 17.4362 108.832 17.5769 108.75 17.7388C108.667 17.9008 108.623 18.0797 108.622 18.2615V21.5601C108.622 23.7001 108.324 26.1561 106.01 26.1561C104.516 26.1561 103.835 24.7495 103.835 23.4415V18.2668C103.835 17.9589 103.712 17.6637 103.493 17.446C103.274 17.2283 102.978 17.1058 102.668 17.1055C102.36 17.1096 102.065 17.2333 101.847 17.4502C101.629 17.6671 101.505 17.9601 101.501 18.2668V23.4468C101.501 24.7468 101.903 25.9668 102.637 26.8841C102.991 27.324 103.43 27.6896 103.927 27.96C104.424 28.2304 104.97 28.4001 105.533 28.4593C106.096 28.5186 106.666 28.4662 107.208 28.3052C107.751 28.1443 108.257 27.8779 108.695 27.5215C108.776 27.7466 108.925 27.941 109.122 28.0777C109.319 28.2145 109.554 28.2866 109.794 28.2841C110.104 28.2838 110.401 28.1611 110.62 27.9431C110.838 27.7251 110.961 27.4296 110.961 27.1215V18.2828C110.962 18.0337 110.883 17.7907 110.738 17.5883C110.592 17.3858 110.385 17.2342 110.148 17.1548Z" fill="#557086"/>
<path d="M69.0632 16.8506H69.0538C66.0522 16.8506 63.6094 19.4493 63.6094 22.6439C63.6094 25.8386 66.0522 28.4373 69.0538 28.4373C71.0638 28.4373 72.8688 27.4813 73.7559 25.9426L73.776 25.9039C73.8986 25.6758 73.9419 25.4138 73.8992 25.1586C73.8676 24.9694 73.7886 24.7911 73.6697 24.6401C73.5508 24.4892 73.3956 24.3704 73.2185 24.2946C72.9661 24.1859 72.6833 24.1691 72.4197 24.2471C72.156 24.3252 71.9284 24.493 71.7767 24.7213C71.1067 25.6773 70.2652 26.1026 69.0592 26.1026C67.5932 26.1026 66.5694 25.0239 66.1594 23.7999H73.3498C73.663 23.8003 73.9634 23.6771 74.1855 23.4574C74.4075 23.2378 74.533 22.9395 74.5344 22.6279C74.5277 19.4386 72.0742 16.8506 69.0632 16.8506ZM66.1594 21.4773C66.5694 20.2519 67.5932 19.1733 69.0592 19.1733C70.4983 19.1733 71.5569 20.2399 71.9656 21.4773H66.1594Z" fill="#557086"/>
<path d="M127.005 16.8774C126.305 16.8792 125.616 17.0415 124.989 17.3519C124.363 17.6622 123.817 18.1122 123.394 18.6668C122.997 18.1099 122.47 17.6569 121.858 17.3465C121.247 17.0361 120.569 16.8774 119.883 16.8841C118.902 16.8828 117.947 17.1996 117.163 17.7868C117.094 17.6126 116.983 17.4579 116.84 17.3361C116.708 17.2244 116.553 17.1426 116.386 17.0965C116.219 17.0505 116.043 17.0412 115.872 17.0694C115.6 17.1169 115.354 17.2594 115.177 17.4712C115.001 17.683 114.906 17.9504 114.91 18.2254V27.0668C114.909 27.2345 114.944 27.4005 115.014 27.5533C115.083 27.7062 115.185 27.8422 115.312 27.9521C115.527 28.1326 115.799 28.231 116.08 28.2294C116.146 28.2294 116.211 28.224 116.276 28.2134C116.55 28.1679 116.799 28.0261 116.977 27.8138C117.155 27.6015 117.251 27.3327 117.247 27.0561V23.2534C117.262 23.1504 117.262 23.0458 117.247 22.9428V22.9334C117.199 21.5508 117.492 20.4894 118.097 19.8668C118.53 19.4214 119.115 19.2001 119.886 19.2001C121.602 19.2001 122.061 20.8881 122.061 21.8841V27.0668C122.059 27.2198 122.088 27.3717 122.146 27.5135C122.204 27.6553 122.29 27.7841 122.398 27.8924C122.507 28.0007 122.636 28.0863 122.779 28.1442C122.921 28.2021 123.074 28.2311 123.228 28.2294C123.537 28.2291 123.834 28.1064 124.053 27.8884C124.272 27.6704 124.395 27.3749 124.395 27.0668V23.0668C124.395 21.7334 124.942 19.2001 127.008 19.2001C128.723 19.2001 129.181 20.8881 129.181 21.8841V27.0668C129.179 27.2198 129.208 27.3717 129.266 27.5135C129.324 27.6553 129.41 27.7841 129.519 27.8924C129.628 28.0007 129.757 28.0863 129.9 28.1442C130.042 28.2021 130.195 28.2311 130.348 28.2294C130.658 28.2291 130.955 28.1065 131.174 27.8885C131.393 27.6706 131.517 27.375 131.517 27.0668V21.8841C131.52 19.4574 129.937 16.8774 127.005 16.8774Z" fill="#557086"/>
<path d="M92.3864 16.8506H92.3757C89.3741 16.8506 86.9326 19.4493 86.9326 22.6439C86.9326 25.8386 89.3741 28.4373 92.3757 28.4373C94.3857 28.4373 96.192 27.4813 97.0778 25.9426L97.0992 25.9039C97.2218 25.6758 97.2652 25.4138 97.2225 25.1586C97.1908 24.9694 97.1119 24.7911 96.9929 24.6401C96.874 24.4892 96.7189 24.3704 96.5418 24.2946C96.2893 24.1859 96.0065 24.1691 95.7429 24.2471C95.4793 24.3252 95.2516 24.493 95.0999 24.7213C94.4299 25.6773 93.5884 26.1026 92.3811 26.1026C90.9164 26.1026 89.8927 25.0239 89.4826 23.7999H96.6677C96.9808 23.8003 97.2813 23.6771 97.5034 23.4574C97.7254 23.2378 97.8509 22.9395 97.8523 22.6279C97.8456 19.4386 95.3934 16.8506 92.3864 16.8506ZM89.4826 21.4773C89.8927 20.2519 90.9164 19.1733 92.3811 19.1733C93.8216 19.1733 94.8802 20.2399 95.2889 21.4773H89.4826Z" fill="#557086"/>
<path d="M83.2984 17.0519C82.3202 17.0519 81.405 17.4599 80.6559 18.0426C80.6154 17.7673 80.4771 17.5157 80.266 17.3332C80.1338 17.2216 79.9788 17.14 79.8118 17.0939C79.6447 17.0479 79.4696 17.0386 79.2985 17.0666C79.0261 17.114 78.7796 17.2564 78.6031 17.4682C78.4266 17.68 78.3315 17.9474 78.3351 18.2226V27.0346C78.3338 27.1881 78.3633 27.3403 78.4219 27.4822C78.4806 27.6242 78.5671 27.7531 78.6764 27.8614C78.7857 27.9697 78.9157 28.0552 79.0586 28.1128C79.2016 28.1705 79.3546 28.1992 79.5089 28.1972C79.5758 28.1972 79.6425 28.1918 79.7086 28.1812C79.981 28.1337 80.2276 27.9911 80.4039 27.779C80.5802 27.5669 80.6748 27.2992 80.6707 27.0239V23.1572C80.6707 22.1399 80.9387 19.7332 83.4713 19.3679C83.7625 19.3362 84.0309 19.1964 84.2232 18.9765C84.4154 18.7565 84.5172 18.4726 84.5084 18.1812C84.5084 18.0342 84.4785 17.8887 84.4204 17.7535C84.3624 17.6184 84.2775 17.4962 84.1708 17.3946C83.9365 17.1708 83.6231 17.0478 83.2984 17.0519Z" fill="#557086"/>
<path d="M11.6592 27.8692L2.48022 22.5732L11.6592 35.2186L20.8369 22.5732L11.6592 27.8759V27.8692Z" fill="#557086"/>
<path d="M20.8369 20.8745L11.6592 5.99316L2.48022 20.8745L11.6592 26.1772L20.8369 20.8745Z" fill="#557086"/>
</g>
</svg>
