<svg width="20" height="20" viewBox="0 0 20 20" fill="none" xmlns="http://www.w3.org/2000/svg">
<path d="M10.0002 17.9166C8.4344 17.9166 6.90379 17.4523 5.6019 16.5824C4.30001 15.7125 3.28531 14.4761 2.68612 13.0295C2.08693 11.5829 1.93015 9.99114 2.23562 8.45546C2.54108 6.91977 3.29507 5.50916 4.40224 4.40199C5.5094 3.29483 6.92002 2.54084 8.4557 2.23537C9.99138 1.92991 11.5832 2.08668 13.0297 2.68588C14.4763 3.28507 15.7127 4.29977 16.5826 5.60166C17.4525 6.90355 17.9168 8.43415 17.9168 9.99992C17.9146 12.0989 17.0798 14.1112 15.5957 15.5954C14.1115 17.0796 12.0991 17.9144 10.0002 17.9166ZM10.0002 2.91659C8.59922 2.91659 7.22973 3.33202 6.06488 4.11035C4.90003 4.88867 3.99214 5.99494 3.45602 7.28925C2.9199 8.58356 2.77963 10.0078 3.05294 11.3818C3.32625 12.7558 4.00087 14.018 4.99149 15.0086C5.98212 15.9992 7.24424 16.6738 8.61828 16.9472C9.99231 17.2205 11.4165 17.0802 12.7108 16.5441C14.0051 16.0079 15.1114 15.1001 15.8897 13.9352C16.6681 12.7704 17.0835 11.4009 17.0835 9.99992C17.0813 8.12198 16.3343 6.32159 15.0064 4.99369C13.6785 3.66578 11.8781 2.91879 10.0002 2.91659Z" fill="#A7B5CA"/>
<path d="M12.5003 14.2749C12.4306 14.2743 12.3621 14.2571 12.3003 14.2249L10.0003 13.0082L7.69198 14.2249C7.62286 14.2624 7.54455 14.2795 7.4661 14.2744C7.38766 14.2692 7.31227 14.2419 7.24865 14.1958C7.18503 14.1496 7.13578 14.0863 7.10658 14.0133C7.07738 13.9403 7.06943 13.8606 7.08365 13.7832L7.50031 11.2082L5.65865 9.39158C5.60215 9.33652 5.5621 9.26682 5.54296 9.19029C5.52383 9.11376 5.52638 9.03341 5.55031 8.95824C5.57497 8.88523 5.61901 8.8203 5.67772 8.77039C5.73644 8.72049 5.80762 8.68748 5.88365 8.67491L8.47531 8.33324L9.62531 5.99158C9.66338 5.92583 9.71807 5.87125 9.78389 5.83331C9.84971 5.79536 9.92434 5.77539 10.0003 5.77539C10.0763 5.77539 10.1509 5.79536 10.2167 5.83331C10.2826 5.87125 10.3372 5.92583 10.3753 5.99158L11.5253 8.33324L14.117 8.70824C14.193 8.72081 14.2642 8.75382 14.3229 8.80373C14.3816 8.85363 14.4257 8.91857 14.4503 8.99158C14.4743 9.06674 14.4768 9.14709 14.4577 9.22362C14.4385 9.30016 14.3985 9.36985 14.342 9.42491L12.5003 11.2082L12.942 13.7832C12.9542 13.86 12.9451 13.9387 12.9158 14.0107C12.8864 14.0827 12.8378 14.1453 12.7753 14.1916C12.6955 14.2492 12.5987 14.2786 12.5003 14.2749ZM10.0003 12.1166C10.0675 12.1162 10.1336 12.1334 10.192 12.1666L11.9503 13.0916L11.617 11.1332C11.6048 11.0672 11.6091 10.9993 11.6294 10.9353C11.6498 10.8714 11.6856 10.8134 11.7336 10.7666L13.1586 9.38324L11.192 9.09158C11.1249 9.08261 11.061 9.05744 11.0058 9.01824C10.9506 8.97904 10.9059 8.92698 10.8753 8.86658L10.0003 7.08324L9.16698 8.86658C9.13644 8.92698 9.09165 8.97904 9.03647 9.01824C8.9813 9.05744 8.9174 9.08261 8.85031 9.09158L6.88365 9.38324L8.30865 10.7666C8.35673 10.8134 8.39253 10.8714 8.41288 10.9353C8.43323 10.9993 8.4375 11.0672 8.42531 11.1332L8.09198 13.0916L9.85031 12.1666C9.8963 12.1397 9.94738 12.1226 10.0003 12.1166Z" fill="#A7B5CA"/>
</svg>
