<svg width="148" height="137" viewBox="0 0 148 137" fill="none" xmlns="http://www.w3.org/2000/svg">
<g clip-path="url(#clip0_154_8839)">
<path d="M118.168 89.9894L119.443 89.0488C120.443 88.1523 121.252 87.0636 121.821 85.8479C122.39 84.6321 122.708 83.3142 122.756 81.9731L122.754 81.4386L122.759 79.52L122.837 38.0784L122.843 36.2078C122.433 30.0985 117.545 28.6986 115.754 28.3869L70.411 26.1202C67.9635 26.1684 65.5447 26.6587 63.2712 27.5674L63.2521 27.5341L32.9115 40.6739C32.9115 40.6739 32.8882 40.6873 32.8549 40.7064L31.0832 41.4766C28.7286 42.7276 24.9436 45.6588 24.9338 51.5846L24.8223 101.4C25.2038 103.605 26.836 108.18 33.6553 108.187C33.8434 108.189 34.0309 108.21 34.2145 108.251L84.3182 110.672C86.7655 110.553 90.5891 110.025 93.6452 108.114L95.1002 107.039L95.2461 106.915L118.073 90.062C118.109 90.0324 118.143 90.008 118.168 89.9894Z" fill="#11CCAA"/>
<path style="mix-blend-mode:multiply" d="M122.838 38.0644C122.838 38.0644 122.288 31.9426 116.682 33.6632L98.1581 43.8147C98.1581 43.8147 92.3603 46.4953 91.9668 57.0485L90.9519 99.834C90.9519 99.834 90.9328 107.508 97.4785 104.049L119.349 88.1602C119.349 88.1602 122.608 85.5226 122.776 80.2804L122.77 79.5003L122.745 79.457L122.823 38.0549L122.838 38.0644Z" fill="url(#paint0_radial_154_8839)"/>
<path style="mix-blend-mode:multiply" d="M31.1631 107.225L79.7347 109.199C89.6266 110.153 88.728 100.187 88.728 100.187L88.8036 58.7421C88.8286 47.2236 76.1199 47.4103 76.1199 47.4103L29.9799 46.0306C25.8913 46.1673 25.0795 49.3637 24.9196 51.0972L24.9091 51.5722L24.8224 101.399C24.9424 102.067 25.1333 102.72 25.3919 103.346C25.9543 104.423 26.7767 105.341 27.7846 106.018C28.7924 106.696 29.9538 107.11 31.1631 107.225Z" fill="url(#paint1_radial_154_8839)"/>
<path style="mix-blend-mode:screen" opacity="0.9" d="M47.0606 67.6914C59.8016 81.3043 72.5622 94.9281 85.9126 107.952C89.4871 105.456 88.9995 100.152 88.9995 100.152L89.0751 58.7071C89.1 47.1887 76.3914 47.3754 76.3914 47.3754L30.258 45.9919C29.258 45.9939 28.278 46.2735 27.4274 46.7996C33.9998 53.7224 40.5328 60.7076 47.0606 67.6914Z" fill="#030D0B"/>
<path d="M119.381 88.1378L97.5101 104.026C90.9652 107.472 90.9835 99.8116 90.9835 99.8116L91.9983 57.0262C92.3918 46.4729 98.1896 43.7923 98.1896 43.7923L116.714 33.6408C122.319 31.9202 122.869 38.042 122.869 38.042L122.875 36.1715C122.465 30.0621 117.578 28.6622 115.787 28.3505L70.4435 26.0839C67.996 26.132 65.5772 26.6223 63.3037 27.5311L63.2846 27.4978L32.944 40.6376C32.944 40.6376 32.9207 40.6509 32.8874 40.6701L31.1157 41.4402C28.8243 42.6549 25.1819 45.4644 24.9634 51.0809C25.1067 49.357 25.9185 46.1606 30.0238 46.0143L76.1076 47.4042C76.1076 47.4042 88.8115 47.2246 88.7913 58.7359L88.7214 100.191C88.7214 100.191 89.6363 110.169 79.7281 109.203L31.1632 107.225C29.9538 107.111 28.7925 106.696 27.7846 106.018C26.7768 105.341 25.9544 104.423 25.392 103.347C26.323 105.568 28.5119 108.191 33.6555 108.187C33.8436 108.189 34.031 108.21 34.2146 108.251L84.3184 110.672C86.7657 110.553 90.5893 110.024 93.6454 108.114L95.1004 107.039L95.2463 106.915L118.073 90.0619C118.113 90.0389 118.149 90.0179 118.186 89.9969L119.461 89.0562C120.459 88.1574 121.264 87.0668 121.831 85.8497C122.397 84.6327 122.712 83.3141 122.756 81.973L122.755 81.4385L122.776 80.2805C122.608 85.5227 119.381 88.1378 119.381 88.1378ZM81.9109 45.1186C81.9109 45.1186 40.2388 44.1852 33.3382 43.7207C26.6151 43.2649 35.215 40.2045 35.215 40.2045L36.1475 39.8235C36.1475 39.8235 60.0185 29.1663 63.5718 27.7664C65.8767 26.8213 68.3652 26.4095 70.8511 26.5621L112.009 28.6582C119.855 28.6637 115.548 30.9652 115.548 30.9652L96.4716 41.8812C90.814 45.3839 81.9109 45.1186 81.9109 45.1186Z" fill="url(#paint2_radial_154_8839)"/>
<path d="M58.6702 44.5555C47.8468 44.2697 36.6223 43.9488 33.3381 43.7207C26.6151 43.2648 35.215 40.2044 35.215 40.2044L36.1475 39.8235C36.1475 39.8235 45.6626 35.5736 53.554 32.0972L53.3296 31.7836L32.9007 40.6314C32.9007 40.6314 32.8773 40.6448 32.8441 40.664L31.0723 41.4341C28.781 42.6488 25.1385 45.4583 24.9201 51.0748C25.0634 49.3509 25.8751 46.1545 29.9804 46.0082L58.8229 46.8793C58.8178 46.1023 58.7669 45.3264 58.6702 44.5555Z" fill="url(#paint3_radial_154_8839)"/>
<path style="mix-blend-mode:multiply" d="M115.565 30.9556C115.565 30.9556 119.865 28.6579 112.026 28.6486L70.8678 26.5524C68.3819 26.3999 65.8934 26.8117 63.5885 27.7568C60.0352 29.1567 36.1642 39.8139 36.1642 39.8139L35.2317 40.1948C35.2317 40.1948 26.6319 43.2552 33.3549 43.7111C40.2603 44.1684 81.9277 45.109 81.9277 45.109C81.9277 45.109 90.814 45.3838 96.496 41.8849L115.565 30.9556Z" fill="url(#paint4_radial_154_8839)"/>
<path style="mix-blend-mode:multiply" d="M31.3329 41.926L46.7018 34.6536L32.9007 40.6314C32.9007 40.6314 32.8774 40.6448 32.8441 40.664L31.0724 41.4341C28.7178 42.6851 24.9327 45.6164 24.923 51.5422L24.8696 86.3816C24.8821 85.1931 25.1896 56.6233 25.7159 50.8565C26.2734 44.2886 31.3329 41.926 31.3329 41.926Z" fill="url(#paint5_linear_154_8839)"/>
<path opacity="0.75" d="M89.6992 61.5416C89.5889 57.5343 88.6122 47.317 88.7984 60.891L88.7654 91.303C88.7654 91.303 90.3057 83.4934 89.6992 61.5416Z" fill="url(#paint6_radial_154_8839)"/>
<path d="M93.5823 43.3421C93.5823 43.3421 88.6755 47.2807 72.3092 44.7547C72.3092 44.7547 88.5844 50.1515 93.5823 43.3421Z" fill="url(#paint7_radial_154_8839)"/>
<path d="M94.5021 47.163C94.5021 47.163 90.2857 51.8332 91.8652 68.3102C91.8652 68.3102 87.4162 51.7562 94.5021 47.163Z" fill="url(#paint8_radial_154_8839)"/>
<path style="mix-blend-mode:multiply" d="M92.753 107.817L106.72 98.1198L94.6534 107.101C94.6534 107.101 94.6301 107.114 94.5968 107.134L93.0448 108.286C90.7891 109.702 87.2553 111.082 79.403 110.248L52.9348 108.946C53.9726 109.527 75.0095 109.33 82.0155 109.862C88.6029 110.352 92.753 107.817 92.753 107.817Z" fill="url(#paint9_linear_154_8839)"/>
<path style="mix-blend-mode:multiply" d="M97.7088 44.1659L115.125 34.4914C115.125 34.4914 108.413 38.7018 97.7088 44.1659Z" fill="url(#paint10_linear_154_8839)"/>
<path d="M41.6064 84.2831C41.1747 84.3531 40.7292 84.3712 40.2699 84.3376C39.8106 84.304 39.3638 84.2143 38.9296 84.0685C38.6564 83.9831 38.4554 83.8428 38.3265 83.6476C38.1959 83.4418 38.1223 83.2214 38.1059 82.9864C38.0982 82.7391 38.1483 82.5148 38.2562 82.3137C38.3623 82.1019 38.52 81.9413 38.7292 81.8318C38.9489 81.7205 39.2111 81.7051 39.5159 81.7853C39.8557 81.8816 40.1667 81.9338 40.449 81.9421C40.7313 81.9504 40.9988 81.934 41.2515 81.8931C41.7779 81.8078 42.1978 81.6317 42.5112 81.3648C42.8333 81.0856 43.0437 80.7166 43.1422 80.2576C43.2495 79.7863 43.2503 79.2243 43.1445 78.5715L43.0114 77.7502L43.2483 77.7118C43.2357 78.1677 43.1243 78.5802 42.914 78.9492C42.7142 79.3166 42.4384 79.6152 42.0866 79.8451C41.7454 80.0733 41.3431 80.2249 40.8798 80.3C40.2691 80.399 39.6916 80.3359 39.1473 80.1107C38.6117 79.8734 38.1574 79.5039 37.7844 79.0025C37.4097 78.4905 37.1669 77.8923 37.056 77.2079C36.9331 76.4498 36.988 75.7547 37.2205 75.1227C37.4531 74.4907 37.8325 73.9646 38.3587 73.5443C38.8937 73.1118 39.535 72.835 40.2826 72.7139C41.2618 72.5552 42.1242 72.6423 42.8698 72.9754C43.6258 73.3067 44.2511 73.8645 44.7456 74.6488C45.2384 75.4226 45.5821 76.4097 45.7766 77.6101C45.925 78.5261 45.9423 79.3662 45.8284 80.1302C45.7145 80.8943 45.4774 81.5648 45.1171 82.1419C44.755 82.7085 44.2795 83.1745 43.6904 83.5402C43.1013 83.9058 42.4066 84.1534 41.6064 84.2831ZM41.2954 77.9635C41.5692 77.9191 41.7959 77.8175 41.9754 77.6587C42.1638 77.4877 42.2928 77.2831 42.3622 77.045C42.4405 76.7946 42.4549 76.5167 42.4054 76.2113C42.3542 75.8954 42.252 75.6311 42.0986 75.4182C41.9558 75.2036 41.7697 75.0555 41.5403 74.9738C41.3198 74.8798 41.0726 74.8551 40.7989 74.8994C40.5251 74.9438 40.2984 75.0454 40.1189 75.2041C39.9376 75.3524 39.8078 75.5517 39.7295 75.8021C39.6512 76.0525 39.6377 76.3357 39.6889 76.6516C39.7384 76.9569 39.8398 77.216 39.9931 77.4289C40.1448 77.6312 40.3317 77.7846 40.554 77.8891C40.7745 77.983 41.0217 78.0078 41.2954 77.9635ZM52.0558 82.5897C50.687 82.8115 49.553 82.482 48.6539 81.6012C47.7635 80.7081 47.1691 79.3403 46.8704 77.4976C46.6691 76.2552 46.6634 75.1863 46.8533 74.2911C47.0415 73.3853 47.4165 72.6654 47.9783 72.1313C48.5401 71.5972 49.279 71.256 50.1951 71.1075C51.5744 70.884 52.7058 71.1977 53.5893 72.0487C54.4728 72.8996 55.0647 74.2517 55.365 76.1048C55.5647 77.3368 55.5713 78.4109 55.3848 79.3272C55.1983 80.2435 54.8258 80.9792 54.2674 81.5343C53.7091 82.0895 52.9718 82.4413 52.0558 82.5897ZM51.6821 80.2838C52.1875 80.2019 52.5169 79.8676 52.6704 79.2808C52.8327 78.6818 52.8148 77.7716 52.6169 76.5502C52.4207 75.3393 52.1544 74.4964 51.8181 74.0214C51.4906 73.5342 51.0741 73.3315 50.5687 73.4134C50.0633 73.4953 49.7269 73.82 49.5595 74.3874C49.401 74.9426 49.4198 75.8256 49.616 77.0365C49.814 78.2579 50.0792 79.128 50.4119 79.6468C50.7533 80.1534 51.1767 80.3657 51.6821 80.2838ZM61.526 81.055C60.1572 81.2768 59.0232 80.9473 58.1241 80.0665C57.2337 79.1734 56.6393 77.8056 56.3407 75.9629C56.1393 74.7205 56.1336 73.6516 56.3235 72.7564C56.5117 71.8506 56.8867 71.1307 57.4485 70.5966C58.0103 70.0625 58.7492 69.7213 59.6653 69.5728C61.0446 69.3493 62.176 69.663 63.0595 70.514C63.943 71.3649 64.5349 72.717 64.8352 74.5701C65.0349 75.8021 65.0415 76.8762 64.855 77.7925C64.6685 78.7088 64.296 79.4445 63.7377 79.9996C63.1793 80.5548 62.442 80.9066 61.526 81.055ZM61.1523 78.7491C61.6577 78.6672 61.9871 78.3329 62.1406 77.7461C62.3029 77.1471 62.285 76.2369 62.0871 75.0155C61.8909 73.8046 61.6246 72.9617 61.2883 72.4867C60.9608 71.9995 60.5443 71.7968 60.0389 71.8787C59.5335 71.9606 59.1971 72.2853 59.0297 72.8527C58.8712 73.4079 58.89 74.2909 59.0862 75.5018C59.2842 76.7232 59.5494 77.5933 59.8821 78.1121C60.2235 78.6187 60.6469 78.831 61.1523 78.7491ZM72.8095 79.1941C72.441 79.2538 72.1194 79.2032 71.8448 79.0424C71.5702 78.8816 71.3871 78.6519 71.2955 78.3534C71.2144 78.0532 71.2694 77.7255 71.4604 77.3704L74.092 72.4055L74.3045 73.7164L70.3522 69.9319C70.0571 69.6447 69.9006 69.3459 69.8827 69.0354C69.8754 68.7233 69.9766 68.4475 70.1863 68.2082C70.3961 67.9689 70.6852 67.8194 71.0537 67.7597C71.3591 67.7102 71.6395 67.7404 71.8951 67.8503C72.1506 67.9601 72.4206 68.1595 72.7052 68.4484L75.5883 71.3364L74.6407 71.4899L76.4799 67.8367C76.657 67.4622 76.8502 67.1877 77.0597 67.0133C77.2674 66.8284 77.524 66.7111 77.8294 66.6617C78.2084 66.6002 78.5352 66.6499 78.8098 66.8107C79.0827 66.961 79.2597 67.1863 79.3408 67.4865C79.4324 67.785 79.3791 68.1232 79.181 68.5011L76.6104 73.3427L76.398 72.0318L80.4629 75.9115C80.7668 76.1864 80.9225 76.48 80.9298 76.7921C80.9477 77.1026 80.8518 77.3775 80.642 77.6168C80.4323 77.8561 80.1379 78.0065 79.7588 78.0679C79.464 78.1157 79.1897 78.0899 78.9359 77.9905C78.6803 77.8807 78.4042 77.6769 78.1074 77.3792L75.13 74.4092L76.046 74.2608L74.1747 78.0165C73.9871 78.3927 73.7895 78.6733 73.5817 78.8582C73.3722 79.0326 73.1148 79.1446 72.8095 79.1941Z" fill="white"/>
</g>
<defs>
<radialGradient id="paint0_radial_154_8839" cx="0" cy="0" r="1" gradientUnits="userSpaceOnUse" gradientTransform="translate(52.0584 61.851) rotate(-120.019) scale(102.585 102.673)">
<stop stop-color="#9AE5D7"/>
<stop offset="0.321" stop-color="#11CCAA"/>
</radialGradient>
<radialGradient id="paint1_radial_154_8839" cx="0" cy="0" r="1" gradientUnits="userSpaceOnUse" gradientTransform="translate(100.475 48.9462) rotate(-120.019) scale(138.2 138.318)">
<stop stop-color="#9AE5D7"/>
<stop offset="0.446" stop-color="#11CCAA"/>
</radialGradient>
<radialGradient id="paint2_radial_154_8839" cx="0" cy="0" r="1" gradientUnits="userSpaceOnUse" gradientTransform="translate(46.236 66.8635) rotate(-120.019) scale(100.053 100.139)">
<stop stop-color="white"/>
<stop offset="0.0559998" stop-color="#9AE5D7"/>
<stop offset="0.171" stop-color="#11CCAA"/>
</radialGradient>
<radialGradient id="paint3_radial_154_8839" cx="0" cy="0" r="1" gradientUnits="userSpaceOnUse" gradientTransform="translate(35.674 45.9021) rotate(0.0700058) scale(31.8062 31.7925)">
<stop stop-color="#9AE5D7" stop-opacity="0.62"/>
<stop offset="0.471" stop-color="#9AE5D7"/>
<stop offset="0.64" stop-color="#11CCAA"/>
</radialGradient>
<radialGradient id="paint4_radial_154_8839" cx="0" cy="0" r="1" gradientUnits="userSpaceOnUse" gradientTransform="translate(75.6872 89.437) rotate(-120.019) scale(100.003 100.089)">
<stop stop-color="#9AE5D7"/>
<stop offset="0.561" stop-color="#11CCAA"/>
</radialGradient>
<linearGradient id="paint5_linear_154_8839" x1="17.0094" y1="52.6453" x2="25.594" y2="56.2555" gradientUnits="userSpaceOnUse">
<stop stop-color="#9AE5D7"/>
<stop offset="0.471" stop-color="#11CCAA"/>
</linearGradient>
<radialGradient id="paint6_radial_154_8839" cx="0" cy="0" r="1" gradientUnits="userSpaceOnUse" gradientTransform="translate(83.807 69.6835) rotate(0.0700095) scale(24.1243 24.114)">
<stop offset="0.29" stop-color="#9AE5D7"/>
<stop offset="0.41" stop-color="#82EDD9"/>
<stop offset="0.59" stop-color="#11CCAA"/>
</radialGradient>
<radialGradient id="paint7_radial_154_8839" cx="0" cy="0" r="1" gradientUnits="userSpaceOnUse" gradientTransform="translate(82.1173 40.448) rotate(3.96934) scale(16.9261 18.5645)">
<stop offset="0.01" stop-color="white"/>
<stop offset="0.05" stop-color="#9AE5D7" stop-opacity="0.42"/>
<stop offset="0.13" stop-color="#9AE5D7"/>
<stop offset="0.21" stop-color="#11CCAA" stop-opacity="0.89"/>
<stop offset="0.28" stop-color="#11CCAA"/>
</radialGradient>
<radialGradient id="paint8_radial_154_8839" cx="0" cy="0" r="1" gradientUnits="userSpaceOnUse" gradientTransform="translate(93.7994 59.3823) rotate(-90.6771) scale(16.972 18.6889)">
<stop stop-color="white"/>
<stop offset="0.111111" stop-color="#9AE5D7" stop-opacity="0.5"/>
<stop offset="0.396" stop-color="#9AE5D7"/>
<stop offset="0.696" stop-color="#11CCAA" stop-opacity="0.82"/>
<stop offset="0.981" stop-color="#11CCAA"/>
</radialGradient>
<linearGradient id="paint9_linear_154_8839" x1="84.4729" y1="120.792" x2="81.3697" y2="109.29" gradientUnits="userSpaceOnUse">
<stop stop-color="#9AE5D7"/>
<stop offset="0.521" stop-color="#11CCAA"/>
<stop offset="0.951" stop-color="#075CC0"/>
</linearGradient>
<linearGradient id="paint10_linear_154_8839" x1="108.159" y1="45.7825" x2="106.725" y2="40.4734" gradientUnits="userSpaceOnUse">
<stop stop-color="#9AE5D7"/>
<stop offset="0.686" stop-color="#11CCAA"/>
</linearGradient>
<clipPath id="clip0_154_8839">
<rect width="89" height="119" fill="white" transform="translate(44.3369 136.452) rotate(-119.879)"/>
</clipPath>
</defs>
</svg>
