<svg width="82" height="82" viewBox="0 0 82 82" fill="none" xmlns="http://www.w3.org/2000/svg">
<circle cx="41" cy="41" r="41" fill="#FFB636"/>
<path d="M39.0979 18.8541C39.6966 17.0115 42.3034 17.0115 42.9021 18.8541L46.8374 30.9656C47.1051 31.7896 47.873 32.3475 48.7395 32.3475H61.4742C63.4117 32.3475 64.2172 34.8268 62.6498 35.9656L52.3472 43.4509C51.6462 43.9601 51.3529 44.8629 51.6206 45.6869L55.5559 57.7984C56.1546 59.641 54.0456 61.1732 52.4782 60.0344L42.1756 52.5492C41.4746 52.0399 40.5254 52.0399 39.8244 52.5492L29.5218 60.0344C27.9544 61.1732 25.8454 59.641 26.4441 57.7984L30.3794 45.6869C30.6471 44.8629 30.3538 43.9601 29.6528 43.4509L19.3502 35.9656C17.7828 34.8268 18.5883 32.3475 20.5258 32.3475H33.2605C34.127 32.3475 34.8949 31.7896 35.1626 30.9656L39.0979 18.8541Z" fill="white"/>
</svg>
