<svg width="16" height="16" viewBox="0 0 16 16" fill="none" xmlns="http://www.w3.org/2000/svg">
<path d="M4.66659 14.5C4.18036 14.5 3.71404 14.3068 3.37022 13.963C3.02641 13.6192 2.83325 13.1529 2.83325 12.6666V9.99996C2.83325 9.51373 3.02641 9.04741 3.37022 8.7036C3.71404 8.35978 4.18036 8.16663 4.66659 8.16663C5.15282 8.16663 5.61913 8.35978 5.96295 8.7036C6.30676 9.04741 6.49992 9.51373 6.49992 9.99996V12.6666C6.49992 13.1529 6.30676 13.6192 5.96295 13.963C5.61913 14.3068 5.15282 14.5 4.66659 14.5ZM4.66659 9.16663C4.44557 9.16663 4.23361 9.25442 4.07733 9.4107C3.92105 9.56698 3.83325 9.77895 3.83325 9.99996V12.6666C3.83325 12.8876 3.92105 13.0996 4.07733 13.2559C4.23361 13.4122 4.44557 13.5 4.66659 13.5C4.8876 13.5 5.09956 13.4122 5.25584 13.2559C5.41212 13.0996 5.49992 12.8876 5.49992 12.6666V9.99996C5.49992 9.77895 5.41212 9.56698 5.25584 9.4107C5.09956 9.25442 4.8876 9.16663 4.66659 9.16663Z" fill="#A7B5CA"/>
<path d="M11.3333 14.5C10.8471 14.5 10.3808 14.3068 10.037 13.963C9.69315 13.6192 9.5 13.1529 9.5 12.6666V9.99996C9.5 9.51373 9.69315 9.04741 10.037 8.7036C10.3808 8.35978 10.8471 8.16663 11.3333 8.16663C11.8196 8.16663 12.2859 8.35978 12.6297 8.7036C12.9735 9.04741 13.1667 9.51373 13.1667 9.99996V12.6666C13.1667 13.1529 12.9735 13.6192 12.6297 13.963C12.2859 14.3068 11.8196 14.5 11.3333 14.5ZM11.3333 9.16663C11.1123 9.16663 10.9004 9.25442 10.7441 9.4107C10.5878 9.56698 10.5 9.77895 10.5 9.99996V12.6666C10.5 12.8876 10.5878 13.0996 10.7441 13.2559C10.9004 13.4122 11.1123 13.5 11.3333 13.5C11.5543 13.5 11.7663 13.4122 11.9226 13.2559C12.0789 13.0996 12.1667 12.8876 12.1667 12.6666V9.99996C12.1667 9.77895 12.0789 9.56698 11.9226 9.4107C11.7663 9.25442 11.5543 9.16663 11.3333 9.16663Z" fill="#A7B5CA"/>
<path d="M14.6666 11.8333C14.5345 11.8316 14.4083 11.7784 14.3149 11.685C14.2215 11.5916 14.1683 11.4654 14.1666 11.3333V8.66667C14.1666 7.03116 13.5169 5.46265 12.3604 4.30617C11.2039 3.1497 9.63542 2.5 7.99992 2.5C6.36442 2.5 4.7959 3.1497 3.63943 4.30617C2.48295 5.46265 1.83325 7.03116 1.83325 8.66667V11.3333C1.83325 11.4659 1.78057 11.5931 1.68681 11.6869C1.59304 11.7807 1.46586 11.8333 1.33325 11.8333C1.20064 11.8333 1.07347 11.7807 0.979699 11.6869C0.88593 11.5931 0.833252 11.4659 0.833252 11.3333V8.66667C0.833252 6.76595 1.58831 4.94308 2.93232 3.59907C4.27633 2.25506 6.0992 1.5 7.99992 1.5C9.90064 1.5 11.7235 2.25506 13.0675 3.59907C14.4115 4.94308 15.1666 6.76595 15.1666 8.66667V11.3333C15.1649 11.4654 15.1116 11.5916 15.0182 11.685C14.9248 11.7784 14.7987 11.8316 14.6666 11.8333Z" fill="#A7B5CA"/>
</svg>
