<svg width="142" height="149" viewBox="0 0 142 149" fill="none" xmlns="http://www.w3.org/2000/svg">
<g clip-path="url(#clip0_486_2999)">
<path d="M108.947 41.114H24.9473C21.6336 41.114 18.9473 43.8003 18.9473 47.114V129.114C18.9473 132.428 21.6336 135.114 24.9473 135.114H108.947C112.261 135.114 114.947 132.428 114.947 129.114V47.114C114.947 43.8003 112.261 41.114 108.947 41.114Z" fill="#13001D" stroke="#220046" stroke-width="4"/>
<path d="M123.947 69.614H8.94727C4.80513 69.614 1.44727 72.9719 1.44727 77.114V101.114C1.44727 105.256 4.80513 108.614 8.94727 108.614H123.947C128.089 108.614 131.447 105.256 131.447 101.114V77.114C131.447 72.9719 128.089 69.614 123.947 69.614Z" fill="#14031F" stroke="#18F3FF"/>
<path d="M19.1553 91.202H23.4273V93.314H16.9473V82.114H19.1553V91.202Z" fill="url(#paint0_linear_486_2999)"/>
<path d="M30.5092 85.314H32.5732V93.314H30.5092V92.37C29.8905 93.1487 29.0212 93.538 27.9012 93.538C26.8345 93.538 25.9172 93.1327 25.1492 92.322C24.3919 91.5007 24.0132 90.498 24.0132 89.314C24.0132 88.13 24.3919 87.1327 25.1492 86.322C25.9172 85.5007 26.8345 85.09 27.9012 85.09C29.0212 85.09 29.8905 85.4793 30.5092 86.258V85.314ZM26.7012 90.946C27.1172 91.362 27.6452 91.57 28.2852 91.57C28.9252 91.57 29.4532 91.362 29.8692 90.946C30.2959 90.5193 30.5092 89.9753 30.5092 89.314C30.5092 88.6527 30.2959 88.114 29.8692 87.698C29.4532 87.2713 28.9252 87.058 28.2852 87.058C27.6452 87.058 27.1172 87.2713 26.7012 87.698C26.2852 88.114 26.0772 88.6527 26.0772 89.314C26.0772 89.9753 26.2852 90.5193 26.7012 90.946Z" fill="url(#paint1_linear_486_2999)"/>
<path d="M39.7249 85.314H41.7889V93.314H39.7249V92.418C39.2236 93.1647 38.4289 93.538 37.3409 93.538C36.4662 93.538 35.7409 93.2447 35.1649 92.658C34.5996 92.0713 34.3169 91.2607 34.3169 90.226V85.314H36.3809V89.97C36.3809 90.5033 36.5249 90.914 36.8129 91.202C37.1009 91.4793 37.4849 91.618 37.9649 91.618C38.4982 91.618 38.9249 91.4527 39.2449 91.122C39.5649 90.7913 39.7249 90.2953 39.7249 89.634V85.314Z" fill="url(#paint2_linear_486_2999)"/>
<path d="M48.1272 85.09C49.0019 85.09 49.7219 85.3833 50.2872 85.97C50.8632 86.5567 51.1512 87.3673 51.1512 88.402V93.314H49.0872V88.658C49.0872 88.1247 48.9432 87.7193 48.6552 87.442C48.3672 87.154 47.9832 87.01 47.5032 87.01C46.9699 87.01 46.5432 87.1753 46.2232 87.506C45.9032 87.8367 45.7432 88.3327 45.7432 88.994V93.314H43.6792V85.314H45.7432V86.21C46.2445 85.4633 47.0392 85.09 48.1272 85.09Z" fill="url(#paint3_linear_486_2999)"/>
<path d="M56.7216 93.538C55.5162 93.538 54.5082 93.1327 53.6976 92.322C52.8976 91.5113 52.4976 90.5087 52.4976 89.314C52.4976 88.1193 52.8976 87.1167 53.6976 86.306C54.5082 85.4953 55.5162 85.09 56.7216 85.09C57.5002 85.09 58.2096 85.2767 58.8496 85.65C59.4896 86.0233 59.9749 86.5247 60.3056 87.154L58.5296 88.194C58.3696 87.8633 58.1242 87.602 57.7936 87.41C57.4736 87.218 57.1109 87.122 56.7056 87.122C56.0869 87.122 55.5749 87.33 55.1696 87.746C54.7642 88.1513 54.5616 88.674 54.5616 89.314C54.5616 89.9433 54.7642 90.466 55.1696 90.882C55.5749 91.2873 56.0869 91.49 56.7056 91.49C57.1216 91.49 57.4896 91.3993 57.8096 91.218C58.1402 91.026 58.3856 90.7647 58.5456 90.434L60.3376 91.458C59.9856 92.0873 59.4896 92.594 58.8496 92.978C58.2096 93.3513 57.5002 93.538 56.7216 93.538Z" fill="url(#paint4_linear_486_2999)"/>
<path d="M65.8772 85.09C66.7519 85.09 67.4719 85.3833 68.0372 85.97C68.6132 86.5567 68.9012 87.3673 68.9012 88.402V93.314H66.8372V88.658C66.8372 88.1247 66.6932 87.7193 66.4052 87.442C66.1172 87.154 65.7332 87.01 65.2532 87.01C64.7199 87.01 64.2932 87.1753 63.9732 87.506C63.6532 87.8367 63.4932 88.3327 63.4932 88.994V93.314H61.4292V82.114H63.4932V86.21C63.9945 85.4633 64.7892 85.09 65.8772 85.09Z" fill="url(#paint5_linear_486_2999)"/>
<path d="M80.792 85.314H82.808V92.93C82.808 94.1673 82.3973 95.1113 81.576 95.762C80.7653 96.4127 79.784 96.738 78.632 96.738C77.768 96.738 77.0053 96.5727 76.344 96.242C75.6933 95.9113 75.192 95.426 74.84 94.786L76.6 93.778C77.0053 94.5247 77.704 94.898 78.696 94.898C79.3466 94.898 79.8586 94.7273 80.232 94.386C80.6053 94.0447 80.792 93.5593 80.792 92.93V92.066C80.184 92.8767 79.3306 93.282 78.232 93.282C77.1013 93.282 76.152 92.8873 75.384 92.098C74.6266 91.298 74.248 90.3273 74.248 89.186C74.248 88.0553 74.632 87.09 75.4 86.29C76.168 85.49 77.112 85.09 78.232 85.09C79.3306 85.09 80.184 85.4953 80.792 86.306V85.314ZM76.936 90.77C77.3626 91.1753 77.9013 91.378 78.552 91.378C79.2026 91.378 79.736 91.1753 80.152 90.77C80.5786 90.354 80.792 89.826 80.792 89.186C80.792 88.5567 80.5786 88.0393 80.152 87.634C79.736 87.218 79.2026 87.01 78.552 87.01C77.9013 87.01 77.3626 87.218 76.936 87.634C76.52 88.0393 76.312 88.5567 76.312 89.186C76.312 89.826 76.52 90.354 76.936 90.77Z" fill="url(#paint6_linear_486_2999)"/>
<path d="M90.7592 85.314H92.8232V93.314H90.7592V92.37C90.1405 93.1487 89.2712 93.538 88.1512 93.538C87.0845 93.538 86.1672 93.1327 85.3992 92.322C84.6419 91.5007 84.2632 90.498 84.2632 89.314C84.2632 88.13 84.6419 87.1327 85.3992 86.322C86.1672 85.5007 87.0845 85.09 88.1512 85.09C89.2712 85.09 90.1405 85.4793 90.7592 86.258V85.314ZM86.9512 90.946C87.3672 91.362 87.8952 91.57 88.5352 91.57C89.1752 91.57 89.7032 91.362 90.1192 90.946C90.5459 90.5193 90.7592 89.9753 90.7592 89.314C90.7592 88.6527 90.5459 88.114 90.1192 87.698C89.7032 87.2713 89.1752 87.058 88.5352 87.058C87.8952 87.058 87.3672 87.2713 86.9512 87.698C86.5352 88.114 86.3272 88.6527 86.3272 89.314C86.3272 89.9753 86.5352 90.5193 86.9512 90.946Z" fill="url(#paint7_linear_486_2999)"/>
<path d="M103.543 85.09C104.46 85.09 105.191 85.3887 105.735 85.986C106.29 86.5833 106.567 87.3833 106.567 88.386V93.314H104.503V88.53C104.503 88.05 104.386 87.6767 104.151 87.41C103.916 87.1433 103.586 87.01 103.159 87.01C102.69 87.01 102.322 87.1647 102.055 87.474C101.799 87.7833 101.671 88.2313 101.671 88.818V93.314H99.6068V88.53C99.6068 88.05 99.4895 87.6767 99.2548 87.41C99.0201 87.1433 98.6895 87.01 98.2628 87.01C97.8041 87.01 97.4362 87.1647 97.1588 87.474C96.8922 87.7833 96.7588 88.2313 96.7588 88.818V93.314H94.6948V85.314H96.7588V86.162C97.2388 85.4473 97.9802 85.09 98.9828 85.09C99.9642 85.09 100.69 85.474 101.159 86.242C101.692 85.474 102.487 85.09 103.543 85.09Z" fill="url(#paint8_linear_486_2999)"/>
<path d="M110.064 90.162C110.341 91.1647 111.093 91.666 112.32 91.666C113.109 91.666 113.707 91.3993 114.112 90.866L115.776 91.826C114.987 92.9673 113.824 93.538 112.288 93.538C110.965 93.538 109.904 93.138 109.104 92.338C108.304 91.538 107.904 90.53 107.904 89.314C107.904 88.1087 108.299 87.106 109.088 86.306C109.877 85.4953 110.891 85.09 112.128 85.09C113.301 85.09 114.267 85.4953 115.024 86.306C115.792 87.1167 116.176 88.1193 116.176 89.314C116.176 89.5807 116.149 89.8633 116.096 90.162H110.064ZM110.032 88.562H114.112C113.995 88.018 113.749 87.6127 113.376 87.346C113.013 87.0793 112.597 86.946 112.128 86.946C111.573 86.946 111.115 87.09 110.752 87.378C110.389 87.6553 110.149 88.05 110.032 88.562Z" fill="url(#paint9_linear_486_2999)"/>
<path d="M79.7213 33.5278L78.9906 33.8633L62.1145 48.5637L62.0928 48.8836L73.547 52.6838L79.7213 33.5278Z" stroke="#F2AD7D" stroke-linejoin="round"/>
<path d="M79.7207 33.5275L59.8989 37.0161L62.0921 48.8834L70.2833 41.7483L79.7207 33.5275Z" stroke="#F2AD7D" stroke-linejoin="round"/>
<path d="M60.6086 50.1754L60.4071 50.1814L54.3955 55.418L54.1978 55.7597L72.0646 53.9823L60.6086 50.1754Z" stroke="#F2AD7D" stroke-linejoin="round"/>
<path d="M54.1978 55.7598L60.6087 50.1755L58.413 38.3103L54.1978 55.7598Z" stroke="#F2AD7D" stroke-linejoin="round"/>
<path d="M62.0918 48.8831L73.5459 52.6832L70.2829 41.748L62.0918 48.8831Z" stroke="#F2AD7D" stroke-linejoin="round"/>
<path d="M59.8989 37.0161L62.0921 48.8832L70.2832 41.7481L59.8989 37.0161Z" stroke="#F2AD7D" stroke-linejoin="round"/>
<path d="M35.8204 36.8564C36.4677 36.7327 37.095 37.1583 37.2195 37.8097C37.344 38.4611 36.9179 39.088 36.2706 39.2117L32.1079 40.0075L31.6168 40.1013L25.1058 41.3459L25.0402 41.0026C25.013 40.8602 24.9724 40.7234 24.9202 40.5934C24.9207 40.4755 24.9117 40.3561 24.8926 40.2362C24.889 40.2136 24.885 40.1909 24.8807 40.1683C24.8771 40.1496 24.8733 40.1311 24.8693 40.1127C24.8426 39.9899 24.8061 39.8716 24.7606 39.7585C24.7612 39.6184 24.7484 39.4763 24.7212 39.3339L24.6556 38.9906L31.1665 37.746L31.6576 37.6521L35.8204 36.8564ZM25.2936 42.3281L28.7705 41.6635C27.4446 42.7332 26.463 44.1813 25.9593 45.8105L25.2936 42.3281ZM23.8985 40.356C23.9034 40.3816 23.9074 40.4071 23.9106 40.4326C23.9892 41.0559 23.5716 41.6392 22.9498 41.7581C22.3453 41.8736 21.7583 41.5101 21.5819 40.9311C21.5694 40.8901 21.5589 40.848 21.5507 40.8048C21.5429 40.7641 21.5373 40.7235 21.5337 40.6831C21.4803 40.077 21.8927 39.5187 22.4996 39.4027C23.11 39.286 23.7025 39.6579 23.8724 40.2471C23.8827 40.2826 23.8914 40.3189 23.8985 40.356ZM20.5828 41.0618C20.6093 41.1797 20.6448 41.2934 20.6885 41.4023C20.688 41.5424 20.7007 41.6845 20.728 41.8269L20.7936 42.1702L14.2826 43.4148L13.7915 43.5087L9.62874 44.3044C8.98144 44.4281 8.35415 44.0026 8.22963 43.3512C8.10512 42.6998 8.53121 42.0728 9.17852 41.9491L13.3413 41.1534L13.8324 41.0595L20.3434 39.8149L20.409 40.1582C20.4362 40.3006 20.4767 40.4374 20.5289 40.5674C20.5285 40.6747 20.5359 40.7832 20.5517 40.8923C20.5565 40.9257 20.5621 40.9591 20.5685 40.9926C20.5729 41.0158 20.5777 41.0389 20.5828 41.0618ZM22.3118 38.4205L21.1378 38.6449L19.0785 27.8718C18.954 27.2204 19.3801 26.5935 20.0274 26.4697C20.6747 26.346 21.302 26.7716 21.4265 27.423L23.4856 38.1961L22.3118 38.4205ZM16.6787 39.4973C18.0046 38.4276 18.9862 36.9794 19.4899 35.3502L20.1556 38.8327L16.6787 39.4973ZM24.4678 38.0084L23.8022 34.526C24.8714 35.8545 26.3178 36.8385 27.9447 37.3438L24.4678 38.0084ZM21.647 46.6349C20.5779 45.3064 19.1314 44.3223 17.5044 43.8171L20.9813 43.1524L21.647 46.6349ZM24.0229 53.7378L21.9636 42.9647L23.1375 42.7403L24.3114 42.5159L26.3709 53.289C26.4954 53.9404 26.0693 54.5673 25.422 54.6911C24.7747 54.8148 24.1474 54.3892 24.0229 53.7378Z" stroke="#F88AAF"/>
<mask id="mask0_486_2999" style="mask-type:luminance" maskUnits="userSpaceOnUse" x="8" y="124" width="23" height="22">
<path fill-rule="evenodd" clip-rule="evenodd" d="M12.2866 142.789C16.656 146.889 23.5215 146.671 27.621 142.302C31.7207 137.932 31.503 131.066 27.1337 126.966C22.7656 122.867 15.8999 123.086 11.8007 127.456C7.70069 131.824 7.91899 138.69 12.2866 142.789ZM22.9243 131.608C24.145 132.46 24.9355 133.442 24.3699 134.687C23.9574 135.598 23.2982 135.909 22.5515 135.87C23.3706 136.646 23.6409 137.553 22.7946 138.752C21.7439 140.24 20.3292 139.987 18.5996 139.12L17.6483 140.771L16.6524 140.198L17.591 138.569C17.3328 138.42 17.0697 138.266 16.7998 138.103L15.8573 139.74L14.8626 139.167L15.8148 137.512C15.722 137.458 15.6288 137.403 15.5349 137.348C15.3939 137.265 15.2514 137.181 15.1067 137.097L13.8107 136.351L14.6932 135.276C14.6932 135.276 15.4233 135.711 15.4171 135.692C15.6992 135.854 15.8903 135.695 15.9811 135.578L17.4846 132.967C17.5091 132.981 17.5331 132.995 17.5562 133.008C17.5676 133.015 17.5789 133.021 17.5899 133.027C17.552 132.998 17.5163 132.976 17.4886 132.96L18.5615 131.096C18.6397 130.872 18.6432 130.562 18.2399 130.33C18.2599 130.323 17.5164 129.914 17.5164 129.914L18.1285 128.85L19.5018 129.641L19.499 129.646C19.7055 129.765 19.9196 129.883 20.1377 130.003L21.0798 128.367L22.0751 128.94L21.1518 130.544C21.4207 130.692 21.6913 130.841 21.9532 130.991L22.8702 129.398L23.8661 129.971L22.9243 131.608ZM17.7101 137.026C18.519 137.507 20.287 138.558 20.9396 137.423C21.6076 136.263 19.8719 135.317 19.025 134.856C18.9303 134.804 18.8468 134.759 18.779 134.72L17.5165 136.912C17.5723 136.944 17.6373 136.983 17.7101 137.026ZM19.5194 133.813C20.1933 134.215 21.6632 135.094 22.2572 134.063C22.8643 133.008 21.4156 132.224 20.7081 131.842C20.6285 131.799 20.5583 131.761 20.5015 131.728L19.3567 133.716C19.4035 133.743 19.4582 133.776 19.5194 133.813Z" fill="white"/>
</mask>
<g mask="url(#mask0_486_2999)">
<path d="M24.3699 134.687L23.4595 134.273L23.4588 134.275L24.3699 134.687ZM22.9243 131.608L22.0576 131.109L21.6005 131.903L22.3516 132.427L22.9243 131.608ZM22.5515 135.87L22.6029 134.872L19.895 134.732L21.864 136.596L22.5515 135.87ZM18.5996 139.12L19.0481 138.226L18.2042 137.802L17.733 138.621L18.5996 139.12ZM17.6483 140.771L17.1495 141.638L18.016 142.137L18.5149 141.27L17.6483 140.771ZM16.6524 140.198L15.7859 139.699L15.2865 140.566L16.1536 141.065L16.6524 140.198ZM17.591 138.569L18.4576 139.068L18.9573 138.2L18.0892 137.702L17.591 138.569ZM16.7998 138.103L17.3166 137.247L16.4425 136.719L15.9332 137.604L16.7998 138.103ZM15.8573 139.74L15.3583 140.607L16.225 141.106L16.724 140.239L15.8573 139.74ZM14.8626 139.167L13.9958 138.669L13.4973 139.535L14.3635 140.034L14.8626 139.167ZM15.8148 137.512L16.6816 138.011L17.177 137.15L16.3192 136.649L15.8148 137.512ZM15.1067 137.097L15.6067 136.231L15.6056 136.23L15.1067 137.097ZM13.8107 136.351L13.0376 135.717L12.289 136.629L13.3118 137.218L13.8107 136.351ZM14.6932 135.276L15.2056 134.417L14.4663 133.976L13.9202 134.641L14.6932 135.276ZM15.4171 135.692L15.9145 134.825L13.633 133.517L14.4689 136.01L15.4171 135.692ZM15.9811 135.578L16.7706 136.192L16.8131 136.137L16.8477 136.077L15.9811 135.578ZM17.4846 132.967L17.9761 132.096L17.1127 131.609L16.618 132.468L17.4846 132.967ZM17.5899 133.027L17.0921 133.895L18.2018 132.237L17.5899 133.027ZM17.4886 132.96L16.6219 132.461L16.1258 133.323L16.985 133.824L17.4886 132.96ZM18.5615 131.096L19.4282 131.595L19.4749 131.514L19.5057 131.425L18.5615 131.096ZM18.2399 130.33L17.9308 129.379L15.7921 130.074L17.7407 131.196L18.2399 130.33ZM17.5164 129.914L16.6496 129.415L16.1415 130.298L17.0341 130.79L17.5164 129.914ZM18.1285 128.85L18.6277 127.984L17.7607 127.484L17.2617 128.351L18.1285 128.85ZM19.5018 129.641L20.3809 130.118L20.8453 129.261L20.001 128.775L19.5018 129.641ZM19.499 129.646L18.6198 129.17L18.1551 130.027L19.0007 130.513L19.499 129.646ZM20.1377 130.003L19.6566 130.879L20.5154 131.351L21.0043 130.502L20.1377 130.003ZM21.0798 128.367L21.5787 127.501L20.7122 127.002L20.2132 127.868L21.0798 128.367ZM22.0751 128.94L22.9417 129.439L23.4407 128.573L22.574 128.074L22.0751 128.94ZM21.1518 130.544L20.2852 130.045L19.7761 130.929L20.6703 131.42L21.1518 130.544ZM21.9532 130.991L21.4543 131.858L22.321 132.357L22.8198 131.49L21.9532 130.991ZM22.8702 129.398L23.369 128.532L22.5024 128.033L22.0035 128.899L22.8702 129.398ZM23.8661 129.971L24.7328 130.47L25.2317 129.604L24.365 129.105L23.8661 129.971ZM18.779 134.72L19.2781 133.853L18.4114 133.354L17.9124 134.221L18.779 134.72ZM17.5165 136.912L16.6499 136.413L16.1504 137.281L17.0184 137.779L17.5165 136.912ZM20.5015 131.728L21.0003 130.861L20.1337 130.362L19.6348 131.229L20.5015 131.728ZM19.3567 133.716L18.49 133.217L17.991 134.084L18.8578 134.583L19.3567 133.716ZM26.8918 141.617C23.1702 145.584 16.9375 145.782 12.9708 142.06L11.6023 143.518C16.3744 147.996 23.8728 147.758 28.3503 142.986L26.8918 141.617ZM26.4495 127.696C30.4159 131.417 30.6137 137.651 26.8918 141.617L28.3503 142.986C32.8278 138.214 32.5902 130.715 27.818 126.237L26.4495 127.696ZM12.5298 128.14C16.2512 124.173 22.4842 123.975 26.4495 127.696L27.818 126.237C23.0471 121.76 15.5485 121.999 11.0714 126.772L12.5298 128.14ZM12.9708 142.06C9.00595 138.339 8.80782 132.106 12.5298 128.14L11.0714 126.772C6.59348 131.543 6.83195 139.041 11.6023 143.518L12.9708 142.06ZM25.2803 135.1C25.6999 134.177 25.6173 133.288 25.1929 132.518C24.8025 131.809 24.1497 131.244 23.4969 130.788L22.3516 132.427C22.9195 132.824 23.2723 133.176 23.441 133.482C23.5756 133.727 23.6055 133.952 23.4595 134.273L25.2803 135.1ZM22.5002 136.869C23.0288 136.896 23.5877 136.801 24.1024 136.491C24.6181 136.18 25.0083 135.702 25.281 135.099L23.4588 134.275C23.319 134.584 23.1734 134.716 23.0697 134.778C22.9649 134.842 22.8209 134.883 22.6029 134.872L22.5002 136.869ZM23.6114 139.329C24.1315 138.592 24.3965 137.815 24.2885 137.018C24.1825 136.235 23.7411 135.619 23.239 135.144L21.864 136.596C22.1809 136.896 22.2843 137.122 22.3066 137.287C22.3269 137.437 22.304 137.713 21.9777 138.175L23.6114 139.329ZM18.1511 140.013C19.0467 140.463 20.016 140.839 20.9722 140.819C22.0231 140.798 22.9223 140.305 23.6115 139.328L21.9777 138.175C21.6162 138.687 21.2827 138.812 20.9312 138.82C20.4849 138.829 19.8821 138.644 19.0481 138.226L18.1511 140.013ZM18.5149 141.27L19.4661 139.619L17.733 138.621L16.7818 140.272L18.5149 141.27ZM16.1536 141.065L17.1495 141.638L18.1472 139.905L17.1512 139.331L16.1536 141.065ZM16.7245 138.069L15.7859 139.699L17.5189 140.697L18.4576 139.068L16.7245 138.069ZM16.2831 138.959C16.5599 139.126 16.8293 139.284 17.0929 139.436L18.0892 137.702C17.8364 137.556 17.5796 137.406 17.3166 137.247L16.2831 138.959ZM16.724 140.239L17.6665 138.602L15.9332 137.604L14.9907 139.241L16.724 140.239ZM14.3635 140.034L15.3583 140.607L16.3564 138.874L15.3616 138.301L14.3635 140.034ZM14.948 137.014L13.9958 138.669L15.7294 139.666L16.6816 138.011L14.948 137.014ZM15.0267 138.209C15.1202 138.264 15.2154 138.32 15.3104 138.376L16.3192 136.649C16.2287 136.596 16.1373 136.542 16.0431 136.487L15.0267 138.209ZM14.6068 137.963C14.7466 138.044 14.885 138.125 15.0267 138.209L16.0431 136.487C15.9027 136.404 15.7562 136.317 15.6067 136.231L14.6068 137.963ZM13.3118 137.218L14.6078 137.964L15.6056 136.23L14.3095 135.484L13.3118 137.218ZM13.9202 134.641L13.0376 135.717L14.5837 136.985L15.4662 135.91L13.9202 134.641ZM14.4689 136.01C14.4306 135.896 14.3589 135.61 14.504 135.285C14.6638 134.927 14.9664 134.781 15.1443 134.731C15.3075 134.685 15.442 134.692 15.4953 134.696C15.5609 134.701 15.6125 134.712 15.6415 134.719C15.7363 134.741 15.8067 134.773 15.8074 134.773C15.8262 134.781 15.8395 134.788 15.8433 134.79C15.8461 134.791 15.8482 134.792 15.8493 134.793C15.8505 134.793 15.8511 134.794 15.8512 134.794C15.8512 134.794 15.8499 134.793 15.847 134.791C15.8441 134.79 15.8403 134.788 15.8356 134.785C15.8259 134.78 15.8137 134.773 15.7989 134.765C15.7384 134.731 15.6533 134.681 15.5633 134.628C15.4744 134.576 15.385 134.523 15.3174 134.483C15.2837 134.463 15.2556 134.447 15.236 134.435C15.2262 134.429 15.2186 134.424 15.2134 134.421C15.2108 134.42 15.2088 134.419 15.2075 134.418C15.2068 134.417 15.2059 134.417 15.2056 134.417C15.2055 134.417 15.2057 134.417 15.2056 134.417C15.2056 134.417 15.2056 134.417 14.6932 135.276C14.1809 136.134 14.1809 136.134 14.1809 136.134C14.1808 136.134 14.181 136.134 14.1809 136.134C14.181 136.134 14.1813 136.135 14.1815 136.135C14.1819 136.135 14.1824 136.135 14.1832 136.136C14.1846 136.137 14.1867 136.138 14.1895 136.139C14.195 136.143 14.203 136.147 14.2132 136.154C14.2334 136.166 14.2624 136.183 14.297 136.203C14.3662 136.244 14.4588 136.299 14.5517 136.354C14.6434 136.407 14.7396 136.463 14.8143 136.506C14.8498 136.526 14.8896 136.548 14.9243 136.566C14.937 136.573 14.9718 136.591 15.0126 136.608C15.0182 136.611 15.0924 136.645 15.1896 136.667C15.2191 136.674 15.2713 136.685 15.3373 136.69C15.391 136.694 15.5259 136.701 15.6894 136.655C15.8675 136.605 16.1703 136.459 16.3302 136.101C16.4753 135.775 16.4036 135.489 16.3652 135.375L14.4689 136.01ZM15.1917 134.964C15.2067 134.945 15.278 134.855 15.4299 134.8C15.5143 134.769 15.6119 134.754 15.7122 134.764C15.8106 134.774 15.8797 134.805 15.9145 134.825L14.9196 136.56C15.297 136.776 15.7211 136.821 16.1118 136.68C16.4525 136.556 16.6648 136.328 16.7706 136.192L15.1917 134.964ZM16.618 132.468L15.1145 135.079L16.8477 136.077L18.3512 133.466L16.618 132.468ZM18.0562 132.142C18.0337 132.129 18.0056 132.113 17.9761 132.096L16.993 133.838C17.0126 133.849 17.0324 133.86 17.0561 133.874L18.0562 132.142ZM18.0876 132.16C18.0779 132.155 18.0679 132.149 18.0562 132.142L17.0561 133.874C17.0673 133.881 17.0798 133.888 17.0921 133.895L18.0876 132.16ZM16.985 133.824C16.9925 133.828 16.9874 133.826 16.9779 133.818L18.2018 132.237C18.1165 132.171 18.0402 132.124 17.9922 132.096L16.985 133.824ZM17.6949 130.597L16.6219 132.461L18.3553 133.459L19.4282 131.595L17.6949 130.597ZM17.7407 131.196C17.7579 131.206 17.7387 131.198 17.7078 131.162C17.6749 131.123 17.6424 131.067 17.6223 131C17.5831 130.867 17.6144 130.775 17.6173 130.767L19.5057 131.425C19.5868 131.193 19.659 130.834 19.5402 130.432C19.4143 130.007 19.1186 129.682 18.7391 129.463L17.7407 131.196ZM17.5164 129.914C17.0341 130.79 17.0341 130.79 17.0341 130.79C17.0344 130.79 17.0353 130.791 17.036 130.791C17.0373 130.792 17.0393 130.793 17.0419 130.794C17.0472 130.797 17.0549 130.801 17.0649 130.807C17.0847 130.818 17.1132 130.834 17.1473 130.853C17.2157 130.89 17.3061 130.941 17.3954 130.991C17.486 131.042 17.5703 131.09 17.6288 131.124C17.643 131.133 17.6544 131.139 17.663 131.145C17.6723 131.15 17.6755 131.152 17.6745 131.152C17.6739 131.151 17.6698 131.149 17.6634 131.144C17.6585 131.141 17.6435 131.131 17.6239 131.116C17.614 131.108 17.5971 131.095 17.5769 131.077C17.5605 131.062 17.5211 131.027 17.4773 130.975C17.455 130.949 17.4189 130.904 17.3822 130.843C17.3497 130.788 17.2866 130.672 17.2567 130.51C17.2241 130.332 17.2266 130.057 17.3986 129.789C17.5632 129.533 17.7938 129.423 17.9308 129.379L18.5489 131.281C18.6862 131.236 18.9171 131.126 19.0818 130.87C19.2539 130.601 19.2564 130.326 19.2238 130.149C19.1724 129.869 19.0135 129.695 19.0019 129.681C18.9277 129.593 18.8529 129.538 18.8462 129.533C18.8053 129.501 18.7673 129.477 18.7546 129.468C18.7188 129.445 18.6773 129.421 18.6418 129.4C18.5665 129.356 18.4687 129.3 18.3759 129.248C18.2818 129.195 18.1876 129.142 18.1172 129.103C18.0819 129.084 18.0525 129.068 18.0318 129.056C18.0214 129.05 18.0132 129.046 18.0076 129.043C18.0048 129.041 18.0026 129.04 18.0011 129.039C18.0004 129.039 17.9998 129.038 17.9994 129.038C17.9992 129.038 17.9995 129.038 17.9994 129.038C17.9994 129.038 17.9987 129.038 17.5164 129.914ZM17.2617 128.351L16.6496 129.415L18.3832 130.413L18.9952 129.349L17.2617 128.351ZM20.001 128.775L18.6277 127.984L17.6293 129.717L19.0026 130.508L20.001 128.775ZM20.3782 130.123L20.3809 130.118L18.6226 129.165L18.6198 129.17L20.3782 130.123ZM20.6189 129.126C20.4004 129.006 20.1943 128.893 19.9974 128.78L19.0007 130.513C19.2168 130.638 19.4388 130.76 19.6566 130.879L20.6189 129.126ZM20.2132 127.868L19.2712 129.504L21.0043 130.502L21.9463 128.867L20.2132 127.868ZM22.574 128.074L21.5787 127.501L20.5808 129.234L21.5761 129.807L22.574 128.074ZM22.0184 131.043L22.9417 129.439L21.2085 128.441L20.2852 130.045L22.0184 131.043ZM22.452 130.125C22.1803 129.968 21.9012 129.815 21.6333 129.667L20.6703 131.42C20.9402 131.569 21.2024 131.713 21.4543 131.858L22.452 130.125ZM22.0035 128.899L21.0865 130.492L22.8198 131.49L23.7368 129.897L22.0035 128.899ZM24.365 129.105L23.369 128.532L22.3713 130.265L23.3673 130.838L24.365 129.105ZM23.7909 132.106L24.7328 130.47L22.9995 129.473L22.0576 131.109L23.7909 132.106ZM20.073 136.924C20.0611 136.945 20.0803 136.926 20.0789 136.926C20.0305 136.936 19.8997 136.939 19.6617 136.87C19.1806 136.73 18.6454 136.419 18.221 136.166L17.1992 137.886C17.5837 138.114 18.337 138.568 19.1053 138.791C19.4919 138.903 19.976 138.986 20.4679 138.888C21.0068 138.781 21.4922 138.468 21.8065 137.921L20.073 136.924ZM18.5467 135.734C18.9932 135.977 19.5145 136.268 19.8571 136.598C20.0245 136.759 20.0765 136.863 20.088 136.899C20.0913 136.91 20.0882 136.904 20.0896 136.891C20.091 136.879 20.0937 136.888 20.073 136.924L21.8062 137.922C22.1137 137.388 22.161 136.821 21.9947 136.295C21.8422 135.814 21.5326 135.435 21.2437 135.157C20.6737 134.608 19.9037 134.196 19.5033 133.978L18.5467 135.734ZM18.2798 135.586C18.3603 135.633 18.4556 135.685 18.5467 135.734L19.5033 133.978C19.4051 133.924 19.3333 133.885 19.2781 133.853L18.2798 135.586ZM18.3831 137.411L19.6455 135.219L17.9124 134.221L16.6499 136.413L18.3831 137.411ZM18.221 136.166C18.1502 136.124 18.0782 136.082 18.0146 136.045L17.0184 137.779C17.0664 137.807 17.1244 137.841 17.1992 137.886L18.221 136.166ZM21.3907 133.564C21.3781 133.586 21.4021 133.552 21.4375 133.544C21.4385 133.544 21.4192 133.548 21.3722 133.545C21.3249 133.542 21.2603 133.532 21.1774 133.51C20.8086 133.411 20.3909 133.168 20.0325 132.954L19.0063 134.671C19.3218 134.86 19.976 135.258 20.6591 135.441C21.0068 135.535 21.4516 135.599 21.9097 135.487C22.4088 135.366 22.8392 135.056 23.1237 134.562L21.3907 133.564ZM20.2323 132.721C20.611 132.926 21.0142 133.152 21.2677 133.407C21.3877 133.527 21.4063 133.589 21.4053 133.585C21.3944 133.545 21.4165 133.519 21.3907 133.564L23.1237 134.562C23.4015 134.079 23.4701 133.56 23.3362 133.064C23.2123 132.605 22.9383 132.249 22.6836 131.994C22.1876 131.497 21.5127 131.14 21.1839 130.962L20.2323 132.721ZM20.0026 132.595C20.0734 132.635 20.1567 132.68 20.2323 132.721L21.1839 130.962C21.1004 130.917 21.0432 130.886 21.0003 130.861L20.0026 132.595ZM20.2233 134.215L21.3681 132.227L19.6348 131.229L18.49 133.217L20.2233 134.215ZM20.0325 132.954C19.9735 132.919 19.911 132.882 19.8555 132.85L18.8578 134.583C18.896 134.605 18.9428 134.633 19.0063 134.671L20.0325 132.954Z" fill="#18F3FF"/>
</g>
<path d="M129.062 22.807C131.748 22.0457 134.543 23.6062 135.304 26.2924L140.357 44.1254C141.119 46.8116 139.558 49.6063 136.872 50.3675L119.039 55.4211C116.353 56.1823 113.558 54.6218 112.797 51.9356L107.743 34.1027C106.982 31.4165 108.543 28.6218 111.229 27.8605L129.062 22.807ZM126.43 34.0708C128.04 34.9697 130.074 34.3934 130.972 32.7836C131.871 31.1738 131.295 29.1401 129.685 28.2412C128.075 27.3423 126.042 27.9186 125.143 29.5284C124.244 31.1383 124.82 33.1719 126.43 34.0708ZM122.432 41.2303C124.042 42.1291 126.076 41.5528 126.975 39.943C127.874 38.3332 127.297 36.2995 125.688 35.4006C124.078 34.5017 122.044 35.0781 121.145 36.6879C120.246 38.2977 120.823 40.3314 122.432 41.2303ZM118.434 48.3903C120.044 49.2891 122.078 48.7128 122.977 47.103C123.875 45.4932 123.299 43.4595 121.689 42.5606C120.08 41.6618 118.046 42.2381 117.147 43.8479C116.248 45.4577 116.824 47.4914 118.434 48.3903Z" stroke="url(#paint10_linear_486_2999)"/>
<path fill-rule="evenodd" clip-rule="evenodd" d="M122.923 118.847L105.693 136.099C103.591 133.774 104.97 133.314 107.285 130.999C108.581 129.703 119.852 118.312 120.338 117.995C121.111 117.491 122.162 118.149 122.925 118.845L122.923 118.847ZM131.611 124.536C129.922 124.887 128.201 125.112 126.998 127.431C125.75 129.83 126.853 131.464 127.072 132.365C126.737 132.441 125.998 132.381 125.599 132.405C122.3 132.602 119.419 135.474 119.229 138.846C119.205 139.268 119.269 139.882 119.196 140.237C118.296 140.025 116.685 138.918 114.261 140.168C111.907 141.379 111.721 143.136 111.371 144.781C110.351 143.069 108.441 140.337 107.2 138.454C106.055 136.719 105.968 137.012 106.55 136.429C109.331 133.644 112.13 130.868 114.915 128.082C117.676 125.322 120.515 122.287 123.34 119.64C123.851 119.16 123.818 119.381 124.425 119.796L131.618 124.543L131.611 124.536ZM115.116 149.432C114.504 151.021 112.186 149.871 112.869 148.447C113.552 147.024 115.745 147.798 115.116 149.432ZM136.874 127.692C136.168 129.187 134.041 128.154 134.617 126.717C135.24 125.166 137.615 126.121 136.874 127.692ZM123.612 145.711C122.822 147.126 120.736 145.977 121.419 144.584C122.166 143.056 124.438 144.229 123.612 145.711ZM133.008 136.333C132.102 137.811 130.031 136.316 130.881 135.05C131.825 133.646 133.789 135.061 133.008 136.333ZM130.122 134.555C129.922 135.483 129.473 136.387 130.634 137.333C131.43 137.983 132.651 137.963 133.432 137.15C135.144 135.371 132.894 132.658 130.792 133.988C128.625 132.562 128.313 132.946 127.701 131.678C125.753 127.65 130.529 123.699 133.983 126.15C132.729 128.279 135.697 130.471 137.362 128.507C138.849 126.752 136.735 124.112 134.573 125.48C130.756 123.025 127.04 120.479 123.24 118.008C120.432 116.183 120.454 116.634 117.551 119.537C113.797 123.291 110.045 127.042 106.292 130.796C105.515 131.573 104.12 132.691 103.857 133.646C103.542 134.791 104.178 135.378 104.892 136.476C107.349 140.25 109.874 143.948 112.313 147.74C110.934 149.923 113.618 152.014 115.344 150.525C117.276 148.856 115.112 145.897 112.98 147.153C110.536 143.696 114.478 138.924 118.508 140.871C119.468 141.335 119.421 141.408 119.765 142.23C120.062 142.937 120.383 143.29 120.811 143.964C119.457 146.193 122.345 148.345 124.061 146.521C124.789 145.749 124.797 144.504 124.094 143.725C123.146 142.678 122.336 143.091 121.383 143.294C119.428 140.951 119.553 137.313 121.847 135.019C124.15 132.72 127.777 132.611 130.12 134.557L130.122 134.555Z" fill="#A34EFC"/>
<path fill-rule="evenodd" clip-rule="evenodd" d="M117.957 115.882C117.138 116.071 111.378 122.197 110.204 123.371C109.206 124.369 102.879 130.401 102.716 131.122C103.127 131.636 103.256 131.502 103.705 131.058L116.933 117.816C118.116 116.634 118.653 116.426 117.955 115.879L117.957 115.882Z" fill="#A34EFC"/>
</g>
<defs>
<linearGradient id="paint0_linear_486_2999" x1="66.5616" y1="82.114" x2="69.0017" y2="97.482" gradientUnits="userSpaceOnUse">
<stop stop-color="#50FFFE"/>
<stop offset="1" stop-color="#30B7EF"/>
</linearGradient>
<linearGradient id="paint1_linear_486_2999" x1="66.5614" y1="82.114" x2="69.0015" y2="97.482" gradientUnits="userSpaceOnUse">
<stop stop-color="#50FFFE"/>
<stop offset="1" stop-color="#30B7EF"/>
</linearGradient>
<linearGradient id="paint2_linear_486_2999" x1="66.5615" y1="82.114" x2="69.0016" y2="97.482" gradientUnits="userSpaceOnUse">
<stop stop-color="#50FFFE"/>
<stop offset="1" stop-color="#30B7EF"/>
</linearGradient>
<linearGradient id="paint3_linear_486_2999" x1="66.5614" y1="82.114" x2="69.0015" y2="97.482" gradientUnits="userSpaceOnUse">
<stop stop-color="#50FFFE"/>
<stop offset="1" stop-color="#30B7EF"/>
</linearGradient>
<linearGradient id="paint4_linear_486_2999" x1="66.5614" y1="82.114" x2="69.0015" y2="97.482" gradientUnits="userSpaceOnUse">
<stop stop-color="#50FFFE"/>
<stop offset="1" stop-color="#30B7EF"/>
</linearGradient>
<linearGradient id="paint5_linear_486_2999" x1="66.5614" y1="82.114" x2="69.0015" y2="97.482" gradientUnits="userSpaceOnUse">
<stop stop-color="#50FFFE"/>
<stop offset="1" stop-color="#30B7EF"/>
</linearGradient>
<linearGradient id="paint6_linear_486_2999" x1="66.5618" y1="82.114" x2="69.002" y2="97.482" gradientUnits="userSpaceOnUse">
<stop stop-color="#50FFFE"/>
<stop offset="1" stop-color="#30B7EF"/>
</linearGradient>
<linearGradient id="paint7_linear_486_2999" x1="66.5614" y1="82.114" x2="69.0015" y2="97.482" gradientUnits="userSpaceOnUse">
<stop stop-color="#50FFFE"/>
<stop offset="1" stop-color="#30B7EF"/>
</linearGradient>
<linearGradient id="paint8_linear_486_2999" x1="66.5614" y1="82.114" x2="69.0015" y2="97.482" gradientUnits="userSpaceOnUse">
<stop stop-color="#50FFFE"/>
<stop offset="1" stop-color="#30B7EF"/>
</linearGradient>
<linearGradient id="paint9_linear_486_2999" x1="66.5614" y1="82.114" x2="69.0015" y2="97.482" gradientUnits="userSpaceOnUse">
<stop stop-color="#50FFFE"/>
<stop offset="1" stop-color="#30B7EF"/>
</linearGradient>
<linearGradient id="paint10_linear_486_2999" x1="124.05" y1="22.114" x2="142.315" y2="39.0672" gradientUnits="userSpaceOnUse">
<stop stop-color="#24F2F2"/>
<stop offset="1" stop-color="#2D8BFE"/>
</linearGradient>
<clipPath id="clip0_486_2999">
<rect width="142" height="149" fill="white"/>
</clipPath>
</defs>
</svg>
