<svg width="477" height="595" viewBox="0 0 477 595" fill="none" xmlns="http://www.w3.org/2000/svg">
<g clip-path="url(#clip0_486_2883)">
<path d="M922.08 -88.0999L1.30449 629.445" stroke="#8045E7" stroke-width="2"/>
<path d="M923.853 -77.302L3.07793 640.243" stroke="#8045E7" stroke-width="2"/>
<path d="M925.626 -66.5042L4.85137 651.04" stroke="#8045E7" stroke-width="2"/>
<path d="M927.4 -55.7063L6.62481 661.838" stroke="#8045E7" stroke-width="2"/>
<path d="M929.173 -44.9084L8.39824 672.636" stroke="#8045E7" stroke-width="2"/>
<path d="M930.947 -34.1106L10.1717 683.434" stroke="#8045E7" stroke-width="2"/>
<path d="M932.72 -23.3127L11.9451 694.232" stroke="#8045E7" stroke-width="2"/>
<path d="M934.494 -12.5149L13.7186 705.03" stroke="#8045E7" stroke-width="2"/>
<path d="M936.267 -1.7168L15.492 715.828" stroke="#8045E7" stroke-width="2"/>
<path d="M938.041 9.08105L17.2654 726.626" stroke="#8045E7" stroke-width="2"/>
<path d="M939.814 19.8789L19.0389 737.423" stroke="#8045E7" stroke-width="2"/>
<path d="M941.587 30.6768L20.8123 748.221" stroke="#8045E7" stroke-width="2"/>
<path d="M943.361 41.4746L22.5857 759.019" stroke="#8045E7" stroke-width="2"/>
<path d="M945.134 52.2725L24.3592 769.817" stroke="#8045E7" stroke-width="2"/>
<path d="M946.908 63.0706L26.1326 780.615" stroke="#8045E7" stroke-width="2"/>
<path d="M948.681 73.8684L27.9061 791.413" stroke="#8045E7" stroke-width="2"/>
<path d="M950.455 84.6663L29.6795 802.211" stroke="#8045E7" stroke-width="2"/>
<path d="M952.228 95.4641L31.4529 813.009" stroke="#8045E7" stroke-width="2"/>
<path d="M954.001 106.262L33.2264 823.807" stroke="#8045E7" stroke-width="2"/>
<path d="M955.775 117.06L34.9998 834.604" stroke="#8045E7" stroke-width="2"/>
<path d="M957.548 127.857L36.7732 845.402" stroke="#8045E7" stroke-width="2"/>
<path d="M959.322 138.656L38.5467 856.2" stroke="#8045E7" stroke-width="2"/>
</g>
<defs>
<clipPath id="clip0_486_2883">
<rect width="548" height="623" fill="white" transform="matrix(-1 0 0 1 548 0)"/>
</clipPath>
</defs>
</svg>
