<svg width="485" height="595" viewBox="0 0 485 595" fill="none" xmlns="http://www.w3.org/2000/svg">
<g clip-path="url(#clip0_486_2906)">
<path d="M-437.08 -88.0999L483.696 629.445" stroke="#8045E7" stroke-width="2"/>
<path d="M-438.853 -77.302L481.922 640.243" stroke="#8045E7" stroke-width="2"/>
<path d="M-440.626 -66.5042L480.149 651.04" stroke="#8045E7" stroke-width="2"/>
<path d="M-442.4 -55.7063L478.375 661.838" stroke="#8045E7" stroke-width="2"/>
<path d="M-444.173 -44.9084L476.602 672.636" stroke="#8045E7" stroke-width="2"/>
<path d="M-445.947 -34.1106L474.828 683.434" stroke="#8045E7" stroke-width="2"/>
<path d="M-447.72 -23.3127L473.055 694.232" stroke="#8045E7" stroke-width="2"/>
<path d="M-449.494 -12.5149L471.281 705.03" stroke="#8045E7" stroke-width="2"/>
<path d="M-451.267 -1.7168L469.508 715.828" stroke="#8045E7" stroke-width="2"/>
<path d="M-453.041 9.08105L467.735 726.626" stroke="#8045E7" stroke-width="2"/>
<path d="M-454.814 19.8789L465.961 737.423" stroke="#8045E7" stroke-width="2"/>
<path d="M-456.587 30.6768L464.188 748.221" stroke="#8045E7" stroke-width="2"/>
<path d="M-458.361 41.4746L462.414 759.019" stroke="#8045E7" stroke-width="2"/>
<path d="M-460.134 52.2725L460.641 769.817" stroke="#8045E7" stroke-width="2"/>
<path d="M-461.908 63.0706L458.867 780.615" stroke="#8045E7" stroke-width="2"/>
<path d="M-463.681 73.8684L457.094 791.413" stroke="#8045E7" stroke-width="2"/>
<path d="M-465.455 84.6663L455.321 802.211" stroke="#8045E7" stroke-width="2"/>
<path d="M-467.228 95.4641L453.547 813.009" stroke="#8045E7" stroke-width="2"/>
<path d="M-469.001 106.262L451.774 823.807" stroke="#8045E7" stroke-width="2"/>
<path d="M-470.775 117.06L450 834.604" stroke="#8045E7" stroke-width="2"/>
<path d="M-472.548 127.857L448.227 845.402" stroke="#8045E7" stroke-width="2"/>
<path d="M-474.322 138.656L446.453 856.2" stroke="#8045E7" stroke-width="2"/>
</g>
<defs>
<clipPath id="clip0_486_2906">
<rect width="548" height="623" fill="white" transform="translate(-63)"/>
</clipPath>
</defs>
</svg>
