<svg width="132" height="40" viewBox="0 0 132 40" fill="none" xmlns="http://www.w3.org/2000/svg">
<g opacity="0.2">
<path d="M24.49 8.04004C26.8318 8.03978 29.1212 8.74099 31.0685 10.055C33.0158 11.369 34.5336 13.2368 35.43 15.4222C36.3264 17.6076 36.561 20.0124 36.1043 22.3325C35.6476 24.6526 34.52 26.7838 32.8642 28.4566C31.2083 30.1293 29.0986 31.2685 26.8017 31.7301C24.5049 32.1917 22.1241 31.955 19.9605 31.0498C17.7968 30.1446 15.9475 28.6116 14.6464 26.6448C13.3453 24.678 12.6509 22.3656 12.6509 20C12.6509 16.8283 13.8982 13.7864 16.1184 11.5435C18.3386 9.30062 21.3499 8.04039 24.49 8.04004ZM22.6129 12.644L20.7715 19.6734L19.503 20.1694L18.8932 22.476L20.1617 21.992L19.1057 26.0134H30.4313L31.2088 23.0294H24.3936L25.1711 20.1054L26.4145 19.6334L27.0244 17.3267L25.7796 17.8107L27.1313 12.64H22.6129V12.644Z" fill="#557086"/>
<path d="M41.4651 27.3027L44.5631 12.3613H47.5991L45.0264 24.8H52.5504L52.0356 27.2973L41.4651 27.3027Z" fill="#557086"/>
<path d="M56.232 16.4787H59.1228L56.8788 27.3027H53.988L56.232 16.4787ZM57.0795 12.3613H59.9756L59.4304 15.0107H56.529L57.0795 12.3613Z" fill="#557086"/>
<path d="M60.4558 18.6494L60.8993 16.4787H62.3117L62.6655 14.7454L65.9853 12.728L65.2078 16.4787H66.974L66.5278 18.6494H64.7524L63.8139 23.1827C63.6467 24.0058 63.5627 24.4747 63.5618 24.5894C63.5567 24.6873 63.5732 24.7852 63.6099 24.876C63.6467 24.9668 63.7028 25.0483 63.7743 25.1147C63.9155 25.24 64.1703 25.3027 64.5412 25.3027C64.6732 25.3027 64.9887 25.28 65.4995 25.232L65.0454 27.4027C64.5405 27.5052 64.0267 27.5565 63.5116 27.556C62.489 27.556 61.7459 27.3569 61.2821 26.9587C60.8184 26.5605 60.5869 26.0089 60.5878 25.304C60.5878 24.9716 60.7123 24.204 60.9614 23.0014L61.859 18.6494H60.4558Z" fill="#557086"/>
<path d="M77.0418 22.7999H69.7818C69.7818 22.9159 69.7712 23.0039 69.7712 23.0666C69.7712 23.7866 69.9749 24.3675 70.3824 24.8092C70.5684 25.0217 70.7976 25.1912 71.0543 25.3062C71.311 25.4213 71.5892 25.4791 71.87 25.4759C72.8318 25.4759 73.5798 24.9728 74.114 23.9666L76.7091 24.3999C76.2049 25.4532 75.5308 26.243 74.6869 26.7692C73.8331 27.2988 72.8481 27.5729 71.8462 27.5599C70.4057 27.5599 69.2353 27.0995 68.335 26.1786C67.4348 25.2577 66.9842 24.0399 66.9834 22.5252C66.963 21.1095 67.3903 19.7241 68.203 18.5706C69.3136 17.0079 70.8976 16.2266 72.955 16.2266C74.2654 16.2266 75.3077 16.6359 76.0821 17.4546C76.8565 18.2732 77.2433 19.4199 77.2424 20.8946C77.25 21.5354 77.1826 22.175 77.0418 22.7999ZM74.6011 21.0132C74.6077 20.8799 74.6103 20.7866 74.6103 20.7186C74.6103 19.9186 74.4321 19.3172 74.0757 18.9146C73.8952 18.7145 73.6733 18.5569 73.4258 18.453C73.1783 18.3491 72.9113 18.3014 72.6435 18.3132C72.3438 18.3143 72.0473 18.3752 71.7709 18.4923C71.4945 18.6095 71.2438 18.7806 71.0331 18.9959C70.5588 19.4501 70.238 20.1226 70.0708 21.0132H74.6011Z" fill="#557086"/>
<path d="M85.3671 23.2254L88.176 23.6841C87.7132 24.9481 87.0272 25.9094 86.1182 26.5681C85.1973 27.231 84.09 27.5778 82.9594 27.5574C81.5945 27.5574 80.5117 27.1463 79.7109 26.3241C78.9101 25.5019 78.5114 24.3716 78.515 22.9334C78.5099 21.7816 78.7584 20.643 79.2423 19.6001C79.7098 18.5726 80.4729 17.7111 81.4322 17.1281C82.3966 16.5299 83.5081 16.2176 84.6398 16.2268C85.9043 16.2268 86.9132 16.5596 87.6665 17.2254C88.4198 17.8912 88.844 18.7676 88.939 19.8548L86.1842 20.1508C86.1173 19.5454 85.9338 19.101 85.6337 18.8174C85.3133 18.5239 84.8911 18.3701 84.4589 18.3894C83.8794 18.397 83.323 18.6202 82.896 19.0161C82.412 19.4374 82.0402 20.0676 81.7806 20.9068C81.5342 21.6692 81.4034 22.4648 81.3926 23.2668C81.3926 23.9059 81.5474 24.3983 81.8572 24.7441C82.001 24.9114 82.1795 25.0447 82.38 25.1346C82.5805 25.2245 82.7982 25.2687 83.0175 25.2641C83.5089 25.2534 83.982 25.0738 84.3586 24.7548C84.7916 24.4152 85.1277 23.9054 85.3671 23.2254Z" fill="#557086"/>
<path d="M90.0238 22.8082C90.0238 20.8029 90.5835 19.2029 91.7028 18.0082C92.8222 16.8136 94.2936 16.2176 96.1169 16.2202C97.7009 16.2202 98.9356 16.6598 99.8208 17.5389C100.706 18.418 101.15 19.602 101.153 21.0909C101.182 22.7637 100.588 24.3867 99.4882 25.6376C98.3706 26.9176 96.8821 27.5576 95.0227 27.5576C94.0923 27.5759 93.1714 27.3659 92.3391 26.9456C91.5903 26.5686 90.979 25.9618 90.5927 25.2122C90.2131 24.4693 90.0179 23.6443 90.0238 22.8082ZM98.2765 20.7189C98.2765 20.0256 98.0762 19.47 97.6758 19.0522C97.4755 18.8443 97.2341 18.681 96.9674 18.5731C96.7007 18.4652 96.4146 18.4149 96.1275 18.4256C95.522 18.4183 94.9331 18.6254 94.463 19.0109C93.9746 19.4038 93.5949 19.9713 93.3238 20.7136C93.0715 21.3689 92.9348 22.0639 92.9199 22.7669C92.9199 23.542 93.1285 24.1571 93.5456 24.6122C93.7438 24.8337 93.9869 25.0093 94.2585 25.1271C94.53 25.2449 94.8236 25.3021 95.119 25.2949C95.911 25.2949 96.5772 24.9518 97.1175 24.2656C97.8875 23.2931 98.272 22.1109 98.2712 20.7189H98.2765Z" fill="#557086"/>
<path d="M104.457 16.4787H107.353L105.109 27.3027H102.217L104.457 16.4787ZM105.304 12.3613H108.2L107.655 15.0107H104.759L105.304 12.3613Z" fill="#557086"/>
<path d="M110.238 16.4788H112.983L112.7 17.8842C113.272 17.3614 113.921 16.9302 114.622 16.6055C115.217 16.351 115.858 16.2213 116.504 16.2242C117.384 16.2242 118.079 16.4788 118.587 16.9882C119.096 17.4975 119.35 18.1735 119.349 19.0162C119.349 19.3957 119.238 20.1162 119.016 21.1775L117.756 27.3028H114.86L116.131 21.1562C116.32 20.2388 116.414 19.6922 116.413 19.5162C116.422 19.3542 116.397 19.1922 116.341 19.0403C116.285 18.8884 116.198 18.7499 116.086 18.6335C115.962 18.5221 115.817 18.4365 115.661 18.3816C115.504 18.3267 115.338 18.3036 115.172 18.3135C114.748 18.3135 114.278 18.4935 113.76 18.8535C113.239 19.2162 112.819 19.7073 112.539 20.2802C112.323 20.7015 112.081 21.5611 111.812 22.8588L110.894 27.3028H107.998L110.238 16.4788Z" fill="#557086"/>
</g>
</svg>
