<svg width="65" height="65" viewBox="0 0 65 65" fill="none" xmlns="http://www.w3.org/2000/svg">
<path d="M32.7199 62.5276C32.7199 63.4118 32.0026 64.1327 31.1196 64.0886C27.4616 63.9055 23.8579 63.0959 20.4668 61.6913C16.5822 60.0822 13.0524 57.7237 10.0792 54.7505C7.10602 51.7773 4.74754 48.2476 3.13845 44.3629C1.52936 40.4782 0.701171 36.3146 0.701172 32.1099C0.701173 27.9051 1.52936 23.7415 3.13845 19.8568C4.74755 15.9722 7.10603 12.4424 10.0792 9.46924C13.0525 6.49603 16.5822 4.13755 20.4669 2.52846C23.858 1.12382 27.4616 0.31425 31.1196 0.1312C32.0027 0.0870107 32.7199 0.807949 32.7199 1.69212V1.69212C32.7199 2.57629 32.0025 3.28842 31.1197 3.33751C27.8824 3.51755 24.6947 4.2429 21.6922 5.4866C18.1959 6.93478 15.0192 9.05741 12.3433 11.7333C9.66741 14.4092 7.54478 17.5859 6.0966 21.0821C4.64841 24.5784 3.90304 28.3256 3.90304 32.1099C3.90304 35.8942 4.64841 39.6414 6.09659 43.1376C7.54477 46.6338 9.6674 49.8106 12.3433 52.4864C15.0192 55.1623 18.1959 57.285 21.6921 58.7331C24.6947 59.9769 27.8824 60.7022 31.1197 60.8822C32.0025 60.9313 32.7199 61.6435 32.7199 62.5276V62.5276Z" fill="#EFEFEF"/>
<path d="M32.7199 16.5008C32.7199 15.543 33.4983 14.7575 34.4514 14.8531C36.135 15.0221 37.788 15.4368 39.357 16.0867C41.4612 16.9583 43.3731 18.2358 44.9836 19.8463C46.5941 21.4568 47.8716 23.3687 48.7432 25.4729C49.6148 27.5771 50.0634 29.8324 50.0634 32.1099C50.0634 34.3875 49.6148 36.6428 48.7432 38.747C47.8716 40.8512 46.5941 42.7631 44.9836 44.3736C43.3731 45.9841 41.4612 47.2616 39.357 48.1332C37.788 48.7831 36.135 49.1978 34.4514 49.3668C33.4983 49.4624 32.7199 48.6769 32.7199 47.719V47.719C32.7199 46.7612 33.4994 45.9959 34.4498 45.8764C35.6775 45.7222 36.8816 45.404 38.0296 44.9286C39.7129 44.2313 41.2425 43.2093 42.5309 41.9209C43.8193 40.6325 44.8413 39.1029 45.5385 37.4196C46.2358 35.7362 46.5947 33.932 46.5947 32.1099C46.5947 30.2879 46.2358 28.4837 45.5385 26.8003C44.8413 25.1169 43.8193 23.5874 42.5309 22.299C41.2425 21.0106 39.7129 19.9886 38.0296 19.2913C36.8816 18.8158 35.6775 18.4977 34.4498 18.3434C33.4994 18.224 32.7199 17.4587 32.7199 16.5008V16.5008Z" fill="#EFEFEF"/>
</svg>
