<svg width="65" height="65" viewBox="0 0 65 65" fill="none" xmlns="http://www.w3.org/2000/svg">
<path d="M2.66312 32.5491C1.33686 32.5491 0.252347 33.6258 0.351715 34.9483C0.764031 40.436 2.58545 45.7396 5.65784 50.3377C9.1761 55.6032 14.1767 59.7071 20.0274 62.1305C25.878 64.5539 32.3159 65.188 38.5269 63.9525C44.738 62.7171 50.4431 59.6676 54.921 55.1897C59.3989 50.7118 62.4484 45.0066 63.6839 38.7956C64.9193 32.5846 64.2852 26.1467 61.8618 20.2961C59.4384 14.4454 55.3345 9.44478 50.069 5.92652C45.4709 2.85413 40.1673 1.03271 34.6796 0.620392C33.3571 0.521024 32.2804 1.60554 32.2804 2.9318V2.9318C32.2804 4.25805 33.3577 5.3222 34.6788 5.43906C39.2154 5.84038 43.5927 7.37544 47.4008 9.9199C51.8764 12.9104 55.3647 17.161 57.4246 22.134C59.4845 27.1071 60.0235 32.5793 58.9734 37.8586C57.9232 43.138 55.3312 47.9874 51.5249 51.7936C47.7187 55.5998 42.8693 58.1919 37.59 59.242C32.3106 60.2922 26.8384 59.7532 21.8653 57.6933C16.8923 55.6334 12.6417 52.1451 9.65122 47.6694C7.10676 43.8614 5.57171 39.4841 5.17039 34.9474C5.05352 33.6264 3.98938 32.5491 2.66312 32.5491V32.5491Z" fill="url(#paint0_angular_349_3775)"/>
<defs>
<radialGradient id="paint0_angular_349_3775" cx="0" cy="0" r="1" gradientUnits="userSpaceOnUse" gradientTransform="translate(32.2804 32.5491) rotate(164.055) scale(29.1374 27.2362)">
<stop stop-color="white"/>
<stop offset="0.255208" stop-color="#1A1A1A" stop-opacity="0"/>
</radialGradient>
</defs>
</svg>
