<svg width="65" height="65" viewBox="0 0 65 65" fill="none" xmlns="http://www.w3.org/2000/svg">
<rect x="29.6123" y="0.310791" width="5.33645" height="16.0093" rx="2.66822" fill="#EFEFEF"/>
<rect x="0.261719" y="34.9977" width="5.33645" height="16.0093" rx="2.66822" transform="rotate(-90 0.261719 34.9977)" fill="#6D6D6D"/>
<rect x="34.9487" y="64.3481" width="5.33645" height="16.0093" rx="2.66822" transform="rotate(180 34.9487 64.3481)" fill="#989898"/>
<rect x="64.2993" y="29.6613" width="5.33645" height="16.0093" rx="2.66822" transform="rotate(90 64.2993 29.6613)" fill="#C4C4C4"/>
<rect x="7.75293" y="11.5756" width="5.33645" height="16.0093" rx="2.66822" transform="rotate(-45 7.75293 11.5756)" fill="#414141"/>
<rect x="11.5259" y="56.8568" width="5.33645" height="16.0093" rx="2.66822" transform="rotate(-135 11.5259 56.8568)" fill="#828282"/>
<rect x="56.8076" y="53.0835" width="5.33645" height="16.0093" rx="2.66822" transform="rotate(135 56.8076 53.0835)" fill="#AEAEAE"/>
<rect x="53.0342" y="7.80212" width="5.33645" height="16.0093" rx="2.66822" transform="rotate(45 53.0342 7.80212)" fill="#D9D9D9"/>
</svg>
