<svg width="134" height="40" viewBox="0 0 134 40" fill="none" xmlns="http://www.w3.org/2000/svg">
<g opacity="0.2">
<path d="M53.2815 16.4174C52.8184 16.2884 52.3394 16.2251 51.8585 16.2294C50.15 16.2294 48.345 17.552 48.345 19.252V27.2814H44.459V13.0147H48.1587V14.432C49.0163 13.3934 50.6283 12.732 52.3355 12.732C52.9037 12.732 53.1931 12.828 53.6648 12.828L53.2896 16.4147L53.2815 16.4174ZM57.6499 5.46671C57.9748 5.46441 58.2969 5.52636 58.5974 5.64895C58.898 5.77154 59.1711 5.95234 59.4009 6.18084C59.6307 6.40935 59.8125 6.681 59.9359 6.98002C60.0593 7.27905 60.1217 7.59948 60.1196 7.92271C60.1196 9.34005 58.9779 10.3787 57.5535 10.3787C56.129 10.3787 54.9887 9.33338 54.9887 7.91738C55.029 7.24624 55.3284 6.61656 55.8244 6.15988C56.3203 5.7032 56.9743 5.45485 57.6499 5.46671ZM59.546 27.2867H55.6533V13.02H59.546V27.2867ZM70.936 12.74C69.4252 12.7464 67.958 13.2441 66.7579 14.1574V13.0174H62.963V34.3627H66.8557V26.2427C67.9662 27.1106 69.3405 27.5766 70.7525 27.564C72.8402 27.564 74.9292 26.62 76.1607 25.108C77.301 23.7854 77.9657 22.0867 77.9657 20.104C77.9657 15.948 74.8328 12.7347 70.9401 12.7347M70.4684 24.068C68.0952 24.068 66.4832 22.468 66.4832 20.104C66.4832 17.74 68.0912 16.1387 70.4684 16.1387C72.5561 16.1387 74.1681 17.9347 74.1681 20.104C74.1681 22.3707 72.4596 24.068 70.4684 24.068ZM97.5149 6.31338H101.401V27.2814H97.5149V6.31338ZM117.071 25.012C115.646 26.612 113.371 27.564 111.186 27.564C106.912 27.564 103.682 24.6387 103.682 20.104C103.682 16.1387 106.434 12.644 110.707 12.644C114.692 12.644 117.541 15.948 117.541 19.9174C117.557 20.2981 117.525 20.6794 117.445 21.052H107.389C107.577 23.0347 109.194 24.452 111.282 24.452C112.89 24.452 114.222 23.508 114.892 22.852L117.071 25.012ZM113.462 18.308C113.366 17.0827 112.231 15.756 110.613 15.756C108.996 15.756 107.673 16.9814 107.577 18.308H113.462ZM88.2127 12.7347C86.7022 12.7408 85.2353 13.2386 84.0359 14.152V13.0174H80.3348V34.3627H84.2208V26.2427C85.3625 27.0947 86.5939 27.564 88.1148 27.564C90.2026 27.564 92.2916 26.62 93.5231 25.108C94.6634 23.7854 95.3281 22.0867 95.3281 20.104C95.2316 15.948 92.0987 12.7347 88.206 12.7347M87.7343 24.068C85.3625 24.068 83.7505 22.468 83.7505 20.104C83.7505 17.74 85.3585 16.1387 87.7343 16.1387C89.8233 16.1387 91.4354 17.9347 91.4354 20.104C91.4354 22.3707 89.7269 24.068 87.7343 24.068Z" fill="#557086"/>
<path d="M31.4524 7.82141C30.6724 8.27553 30.0254 8.92469 29.5755 9.70449C29.1256 10.4843 28.8885 11.3676 28.8876 12.2667C28.8876 13.2107 29.2668 14.1587 29.7439 15.0067C30.1244 15.7627 30.312 17.0841 28.9841 17.7454C28.0354 18.3094 26.7986 17.9321 26.2304 16.9881C25.6636 16.2321 24.9989 15.4747 24.1427 14.9107C23.3689 14.4476 22.4829 14.2028 21.5799 14.2028C20.6769 14.2028 19.791 14.4476 19.0172 14.9107C18.2369 15.3633 17.5895 16.0115 17.1396 16.7907C16.6897 17.5698 16.4529 18.4528 16.4529 19.3514C16.4529 20.2501 16.6897 21.133 17.1396 21.9122C17.5895 22.6914 18.2369 23.3395 19.0172 23.7921C19.791 24.2553 20.6769 24.5 21.5799 24.5C22.4829 24.5 23.3689 24.2553 24.1427 23.7921C24.9884 23.2965 25.677 22.5744 26.1299 21.7081C26.5091 21.0414 27.5543 20.1947 28.8823 20.9507C29.8296 21.5161 30.1137 22.7467 29.642 23.6907C29.16 24.525 28.8986 25.4673 28.8823 26.4294C28.8831 27.3277 29.1203 28.2101 29.5702 28.9888C30.0202 29.7675 30.6673 30.4155 31.447 30.8681C32.2208 31.3307 33.1064 31.5752 34.0091 31.5752C34.9118 31.5752 35.7975 31.3307 36.5712 30.8681C37.3519 30.4163 37.9997 29.7687 38.45 28.9898C38.9003 28.2109 39.1373 27.328 39.1373 26.4294C39.1373 25.5308 38.9003 24.648 38.45 23.8691C37.9997 23.0902 37.3519 22.4425 36.5712 21.9907C35.7149 21.5161 34.7675 21.3241 33.7223 21.3241C32.8661 21.3241 31.7311 20.7587 31.7311 19.3414C31.7247 19.0795 31.7718 18.819 31.8696 18.5757C31.9674 18.3324 32.1138 18.1114 32.3 17.9262C32.4862 17.7409 32.7083 17.5952 32.9528 17.4979C33.1973 17.4006 33.4591 17.3537 33.7223 17.3601C34.6711 17.3601 35.7149 17.1734 36.5712 16.6934C37.3519 16.2417 37.9997 15.594 38.45 14.8151C38.9003 14.0362 39.1373 13.1533 39.1373 12.2547C39.1373 11.3562 38.9003 10.4733 38.45 9.6944C37.9997 8.9155 37.3519 8.26782 36.5712 7.81608C35.8114 7.34141 34.864 7.14941 34.0064 7.14941C33.1488 7.14941 32.2028 7.33608 31.447 7.80541" fill="#557086"/>
</g>
</svg>
