<svg width="20" height="20" viewBox="0 0 20 20" fill="none" xmlns="http://www.w3.org/2000/svg">
<path d="M15.8732 3.33933C14.5543 3.39168 11.8331 3.72943 9.74461 5.51164C9.62618 5.6127 9.56697 5.66323 9.50755 5.69154C9.48652 5.70156 9.46896 5.70856 9.4468 5.71575C9.3842 5.73606 9.31361 5.73974 9.17243 5.74708L5.90334 5.91723C4.73964 5.9778 3.82715 6.93901 3.82715 8.10429C3.82715 9.27748 4.75165 10.2423 5.92378 10.2923L6.72967 10.3267L6.72971 10.3267C6.74931 10.3276 6.75911 10.328 6.76859 10.3287C6.88037 10.3378 6.98587 10.3841 7.06813 10.4604C7.0751 10.4668 7.08204 10.4738 7.09592 10.4876L7.09594 10.4877L9.51022 12.9019C9.52411 12.9158 9.53106 12.9228 9.53753 12.9298C9.61375 13.012 9.66011 13.1175 9.66915 13.2293C9.66992 13.2388 9.67034 13.2486 9.67117 13.2682L9.70557 14.0741C9.7556 15.2462 10.7204 16.1707 11.8936 16.1707C13.0589 16.1707 14.0201 15.2583 14.0807 14.0946L14.2508 10.8255V10.8254C14.2582 10.6843 14.2618 10.6137 14.2821 10.5511C14.2893 10.5289 14.2963 10.5114 14.3064 10.4903C14.3347 10.4309 14.3852 10.3717 14.4862 10.2533L14.4863 10.2533C16.2685 8.16477 16.6062 5.44359 16.6586 4.1247C16.6704 3.82599 16.6763 3.67663 16.5768 3.53727C16.5489 3.49822 16.4997 3.44902 16.4606 3.42112C16.3213 3.32155 16.1719 3.32747 15.8732 3.33933Z" stroke="#A7B5CA" stroke-width="1.5" stroke-linejoin="round"/>
<path d="M3.33449 15.9596C3.32989 16.2027 3.32759 16.3243 3.42504 16.4595C3.45015 16.4943 3.50345 16.5476 3.53829 16.5727C3.67349 16.6702 3.79506 16.6679 4.03821 16.6633C4.75592 16.6497 5.8956 16.4893 6.68252 15.7024C6.72448 15.6605 6.76561 15.6165 6.80576 15.571C7.35027 14.9535 7.11619 14.0459 6.53405 13.4637V13.4637C5.95192 12.8816 5.04423 12.6475 4.42676 13.192C4.38123 13.2322 4.33732 13.2733 4.29536 13.3152C3.50843 14.1022 3.34808 15.2418 3.33449 15.9596Z" stroke="#A7B5CA" stroke-width="1.5" stroke-linejoin="round"/>
<path d="M10.0658 9.93154C10.4722 10.3379 11.1311 10.3379 11.5374 9.93154V9.93154C11.9438 9.52516 11.9438 8.8663 11.5374 8.45993V8.45993C11.1311 8.05355 10.4722 8.05355 10.0658 8.45993V8.45993C9.65946 8.8663 9.65946 9.52516 10.0658 9.93154V9.93154Z" stroke="#A7B5CA" stroke-width="1.5" stroke-linejoin="round"/>
</svg>
