<svg width="174" height="149" viewBox="0 0 174 149" fill="none" xmlns="http://www.w3.org/2000/svg">
<g clip-path="url(#clip0_486_2929)">
<path d="M130.005 42.325H46.0054C42.6917 42.325 40.0054 45.0113 40.0054 48.325V130.325C40.0054 133.639 42.6917 136.325 46.0054 136.325H130.005C133.319 136.325 136.005 133.639 136.005 130.325V48.325C136.005 45.0113 133.319 42.325 130.005 42.325Z" fill="#13001D" stroke="#220046" stroke-width="4"/>
<path fill-rule="evenodd" clip-rule="evenodd" d="M41.8855 80.6093C42.908 80.6835 44.1532 80.6627 45.2974 80.6766C46.4012 80.6896 47.5119 80.7542 48.5762 80.8522L46.0135 84.0044L41.8855 80.6093ZM26.6606 99.419L30.8255 102.799L28.2529 105.892L26.6606 99.419ZM35.0251 97.587C32.9759 95.795 33.6573 95.117 30.88 95.584C30.2584 95.689 26.5148 96.721 27.5863 94.304C28.3905 92.489 30.0504 91.322 29.5217 89.5007C29.2215 88.4672 27.625 86.2839 28.4289 85.2908C29.2434 84.2845 31.8862 85.4567 32.8996 85.4891C34.6737 85.5459 35.5094 83.7162 37.0693 82.5877C39.2342 81.022 38.9876 85.0361 39.0167 85.6673C39.1407 88.3676 39.7737 87.6326 41.8498 89.1747L35.0251 97.587ZM52.847 81.5084C51.7818 81.0113 50.9553 79.6806 49.8375 79.504C48.6792 79.3212 42.2345 79.3923 41.1986 79.1423L46.1857 72.9216C48.2704 70.3461 47.7733 76.1456 48.6791 77.4114C50.0508 79.3282 53.5921 77.167 54.902 78.5823C54.663 79.4933 53.6222 80.5506 52.847 81.5084ZM27.3838 112.582C26.5418 112.08 26.6733 111.504 26.5297 110.803C26.0553 108.488 26.3685 106.596 23.9318 106.601L20.2874 106.738C17.952 106.263 22.0965 104.388 19.9568 103.534C18.1952 104.739 17.437 107.379 19.6548 107.992C20.8789 108.331 23.5047 107.576 24.5943 108.122C25.2649 109.276 25.0383 112.344 25.954 113.272C27.9029 115.248 29.8344 111.971 30.8681 110.694L38.824 116.999C39.9439 116.246 47.3998 106.649 48.9597 104.722C50.0181 103.414 58.7125 93.093 58.6063 92.379C58.5227 91.817 57.9326 91.819 57.5043 92.171L38.7481 115.306L28.8783 107.234L50.0236 81.1095L59.9165 89.1529C58.1147 91.389 60.5284 91.556 61.6591 88.7846L53.7836 82.3829C54.736 81.2062 57.7692 78.3677 55.154 76.9644C54.0784 76.387 51.1932 77.1796 49.9606 76.7823C49.4079 76.0916 49.2459 73.7582 49.0548 72.8262C48.7619 71.3996 47.3534 70.4185 45.9998 71.3043C45.3839 71.7074 39.4588 79.1046 39.0106 79.8954C39.7892 81.0975 43.7166 83.7431 45.1438 85.0998L42.7056 88.0182C39.7365 86.6211 40.3055 86.1367 40.2059 83.8671C40.1737 83.1336 40.2059 82.1849 39.3518 81.4655C37.4623 79.8751 35.7808 82.0049 34.5998 83.1369C33.5192 84.1726 33.5322 84.2989 32.294 84.044C30.5548 83.6863 28.7964 82.7982 27.4326 84.4831C26.0692 86.1676 27.3071 87.7049 28.0185 89.3293C28.5448 90.531 28.3541 90.582 27.5274 91.92C26.7312 93.209 24.9454 95.396 27.0938 96.865C29.6074 98.582 30.9315 94.515 34.1147 98.718L31.6962 101.653C30.1002 100.563 26.7029 97.278 25.3595 96.765C24.5681 97.465 23.5787 98.821 22.8236 99.753C21.3907 101.52 20.6966 101.897 21.7754 102.576C22.9169 102.2 24.0108 100.14 25.086 99.069C25.5377 100.022 26.8096 106.327 27.232 107.435C27.6348 108.491 29.1106 109.022 29.8183 109.96C29.0444 110.916 28.2239 112.158 27.3851 112.581L27.3838 112.582Z" fill="#24F2F2"/>
<g filter="url(#filter0_d_486_2929)">
<path fill-rule="evenodd" clip-rule="evenodd" d="M54.4748 7.23461C53.3519 7.43541 52.3753 7.82691 51.3986 8.46771C50.8467 8.82981 38.8421 20.5853 38.1131 21.4776C37.5413 22.1775 36.9084 23.4197 36.6722 24.3064L36.4952 24.9705V33.4862C36.4952 43.0592 36.4524 42.3433 37.1021 43.6569C37.6944 44.8546 38.7086 45.8412 39.9832 46.4597C41.0719 46.9879 41.4239 47.058 43.1938 47.0987C44.6877 47.1332 44.7469 47.1287 44.9576 46.9649C45.2317 46.7518 45.2563 46.3562 45.009 46.1353C44.8614 46.0034 44.665 45.9811 43.2848 45.9393C41.8926 45.8971 41.6663 45.871 41.1538 45.6935C39.4353 45.0986 38.2367 43.8289 37.798 42.1383C37.6517 41.5743 37.6447 41.2126 37.6465 34.2355C37.6478 29.5929 37.6778 26.7986 37.7287 26.581C38.0419 25.2418 39.2597 24.1346 40.657 23.9185C40.946 23.8738 42.6518 23.838 44.5414 23.8369C48.1556 23.8348 48.4846 23.8069 49.4536 23.4212C50.9756 22.8154 52.317 21.5109 52.9485 20.0225C53.3846 18.9946 53.42 18.6134 53.42 14.9452C53.42 12.9919 53.4538 11.4177 53.501 11.1727C53.7682 9.78371 54.8986 8.65811 56.318 8.36771C56.5931 8.31151 58.3008 8.29151 61.4759 8.30741L66.2227 8.33111L66.7961 8.53701C68.5356 9.16151 69.7141 10.4126 70.1519 12.0996C70.28 12.5932 70.3052 12.9651 70.3052 14.3578V16.025H68.6198H66.9344L65.6158 14.7164L64.2971 13.4078L64.2607 12.8536C64.1928 11.8232 63.633 10.9862 62.7132 10.5399C62.2262 10.3037 62.1217 10.2827 61.4283 10.2828C60.7513 10.2829 60.6263 10.3065 60.2155 10.5114C59.0889 11.0734 58.4419 12.3046 58.6575 13.4761C58.8234 14.3779 59.3662 15.1216 60.1407 15.5084C60.5565 15.7161 61.4475 15.9076 61.6469 15.8321C61.7331 15.7995 62.2749 16.2794 63.4463 17.4259C64.6088 18.5637 65.2302 19.1145 65.4743 19.2237C65.8001 19.3694 65.9925 19.3812 68.0658 19.3827L70.3052 19.3844V19.7751V20.1657H68.8424C67.924 20.1657 67.3064 20.1985 67.1831 20.254C66.7808 20.4345 66.7451 21.0542 67.1253 21.2547C67.2203 21.3049 67.8801 21.3376 68.7938 21.3376H70.3052V21.8845V22.4314H66.6106H62.9159L62.3377 22.984L61.7594 23.5365L61.3869 23.1693L61.0143 22.8022L61.6367 22.1814C61.9789 21.84 62.3553 21.5104 62.473 21.4491C62.6336 21.3655 63.0154 21.3376 63.9991 21.3376C65.2054 21.3376 65.3238 21.325 65.4696 21.1813C65.7089 20.9455 65.681 20.5306 65.4117 20.3218C65.205 20.1616 65.1293 20.1552 63.7271 20.1794C62.474 20.201 62.2183 20.2263 61.9815 20.3516C61.8289 20.4323 61.276 20.9113 60.7528 21.416L59.8015 22.3335L59.2236 22.3782C58.1902 22.458 57.3894 22.9662 56.9025 23.8512C56.6419 24.3249 56.6306 24.3796 56.6306 25.1658C56.6306 25.8812 56.6549 26.0311 56.8204 26.3377C57.115 26.8835 57.3574 27.1603 57.8042 27.4618C59.6024 28.6749 62.0865 27.4888 62.2038 25.3611L62.234 24.8142L62.8391 24.2087L63.4444 23.6033H66.8749H70.3052V23.9939V24.3845H69.51C68.9753 24.3845 68.6181 24.4239 68.42 24.5046C68.2315 24.5813 67.5247 25.2123 66.4605 26.2536L64.7958 27.8826L64.2056 27.9272C63.1184 28.0094 62.2207 28.6249 61.7582 29.6053C61.5838 29.9749 61.549 30.1592 61.549 30.7128C61.549 31.2743 61.583 31.4493 61.7692 31.8456C62.0555 32.4551 62.5944 32.9892 63.2016 33.2652C63.6125 33.4521 63.788 33.4855 64.3598 33.4855C64.9345 33.4855 65.1063 33.4525 65.5278 33.2609C66.4776 32.8293 67.1043 31.9199 67.1874 30.8526L67.2317 30.2831L68.51 29.0135C69.6453 27.8858 69.8173 27.744 70.0487 27.744H70.3093L70.2874 34.8339L70.2656 41.9239L70.0893 42.4317C69.8286 43.1829 69.3797 43.8871 68.7957 44.4611C68.1985 45.048 67.6287 45.4021 66.8041 45.699L66.2227 45.9083L56.455 45.9474C47.3199 45.9839 46.6785 45.9952 46.5498 46.1221C46.343 46.326 46.3691 46.7925 46.5977 46.9749C46.7777 47.1186 47.0655 47.1222 56.5425 47.1007C67.4223 47.076 66.5708 47.1191 67.8407 46.5287C69.3097 45.8459 70.4263 44.7069 71.0217 43.2839C71.5204 42.092 71.4944 42.9844 71.4944 27.1189C71.4944 11.2231 71.5201 12.0985 71.0174 10.9324C70.6785 10.1459 70.271 9.56521 69.5973 8.90891C68.6882 8.02301 67.617 7.46641 66.368 7.23091C65.5436 7.07541 55.3474 7.07871 54.4748 7.23461ZM53.2923 8.85691C53.2605 8.91071 53.1331 9.10231 53.009 9.28291C52.8849 9.46341 52.7097 9.77981 52.6194 9.98601C52.2726 10.7782 52.2309 11.3045 52.2309 14.8866C52.2309 18.7011 52.2036 18.9318 51.6204 20.0329C51.0558 21.0991 49.7799 22.1287 48.5447 22.515C48.3159 22.5866 47.1348 22.6277 44.3036 22.6627L40.3796 22.7111L39.7471 22.9283C39.3993 23.0476 38.9036 23.2843 38.6456 23.4541C38.3876 23.6239 38.1604 23.7469 38.1407 23.7276C38.0789 23.6666 38.582 22.8041 38.9879 22.2751C39.4943 21.6152 51.5165 9.79871 52.0228 9.46311C52.3485 9.24741 53.2453 8.76351 53.3256 8.76031C53.3391 8.75971 53.3241 8.80331 53.2923 8.85691ZM62.2267 11.5974C63.3744 12.1945 63.3759 13.8876 62.2292 14.4554C61.5444 14.7944 60.8392 14.6918 60.3021 14.1748C59.4715 13.3756 59.7288 11.9949 60.793 11.54C61.2152 11.3595 61.8159 11.3836 62.2267 11.5974ZM68.3882 17.1969H70.3052V17.7047V18.2126H68.1458H65.9864L64.5399 16.7885L63.0933 15.3644L63.4659 14.9916L63.8385 14.6187L65.1548 15.9078L66.471 17.1969H68.3882ZM60.1338 23.723C60.3855 23.8467 60.6219 24.042 60.7637 24.2437C60.9657 24.531 60.9906 24.633 60.9906 25.1714C60.9906 25.7307 60.9722 25.7989 60.7454 26.0765C60.0481 26.9305 59.0671 27.0304 58.2922 26.3265C57.8775 25.9498 57.751 25.6142 57.7955 25.0083C57.8402 24.3991 58.1099 24.0013 58.6623 23.7301C59.1944 23.4687 59.6119 23.4668 60.1338 23.723ZM70.3052 26.0642V26.5721H69.8153H69.3252L68.0305 27.8396L66.7359 29.107L66.3604 28.7366L65.9849 28.3662L67.4162 26.9613L68.8475 25.5564H69.5764H70.3052V26.0642ZM64.8658 29.1682C65.5917 29.382 66.1065 30.2137 65.9895 30.9835C65.9273 31.3919 65.556 31.9205 65.1788 32.1376C64.5378 32.5066 63.6504 32.3628 63.1413 31.8075C62.5331 31.1439 62.5614 30.2167 63.2095 29.577C63.6816 29.111 64.2202 28.9781 64.8658 29.1682ZM41.1673 41.1041C40.8116 41.2453 40.7278 41.6636 40.9896 41.9915L41.1538 42.1973H62.3889C64.5279 42.1973 65.6923 42.169 65.7957 42.1144C66.1759 41.9139 66.1402 41.2943 65.7379 41.1137C65.4995 41.0066 41.4351 40.9978 41.1673 41.1041Z" fill="url(#paint0_linear_486_2929)"/>
<path fill-rule="evenodd" clip-rule="evenodd" d="M40.9874 37.8774C40.6317 38.0186 40.548 38.4368 40.8097 38.7647L40.974 38.9706H62.209C64.348 38.9706 65.5124 38.9422 65.6159 38.8877C65.9961 38.6871 65.9603 38.0675 65.5581 37.887C65.3196 37.7799 41.2552 37.771 40.9874 37.8774Z" fill="url(#paint1_linear_486_2929)"/>
</g>
<path d="M55.5 52C60 55.5 62.2022 59.3351 64.5 65" stroke="url(#paint2_linear_486_2929)"/>
<path d="M68.9392 47.2615C67.3036 52.7227 67.7342 57.1241 69.1483 63.0715" stroke="url(#paint3_linear_486_2929)"/>
<path fill-rule="evenodd" clip-rule="evenodd" d="M44.4572 105.154C45.3396 105.187 45.5502 104.373 45.275 103.811C44.9669 103.183 42.9267 100.875 42.3681 100.186C41.6044 99.244 40.3764 97.252 39.3289 96.955L38.7278 97.689C39.5112 99.168 42.258 101.713 42.8044 103.025C41.789 102.962 40.4879 102.255 39.46 101.86C38.8587 101.629 38.3308 101.424 37.7905 101.212C36.2627 100.613 36.5888 100.606 36.0904 100.92C34.8537 101.699 38.6429 105.219 39.4083 107.51C38.179 106.87 36.9388 106.245 35.7441 105.627C34.6481 105.061 32.9798 103.79 32.7173 105.291C33.1567 106.207 35.8162 107.201 36.8958 107.749C38.0331 108.327 39.8905 109.682 41.0247 109.664C43.4315 109.169 38.7616 104.803 38.2654 102.859L44.4572 105.154Z" fill="#24F2F2"/>
<path fill-rule="evenodd" clip-rule="evenodd" d="M52.2089 96.036C51.6392 95.072 48.2826 92.648 47.1266 91.689C48.2335 91.531 50.3467 91.774 51.6058 91.818C52.4664 91.849 53.1353 91.873 53.8633 91.923C58.4119 92.232 54.0907 89.3102 52.7609 88.2558C52.0693 87.7073 49.8792 85.8103 49.2695 85.5216C48.6151 85.2119 48.0361 85.6995 48.2665 86.2736C48.4558 86.7447 52.4937 89.7317 53.3479 90.5C51.5059 90.576 48.5714 90.307 46.4898 90.239C45.5811 90.21 44.9004 89.846 44.27 90.872C44.6506 91.646 50.6915 96.535 51.61 96.855L52.2089 96.036Z" fill="#24F2F2"/>
<path fill-rule="evenodd" clip-rule="evenodd" d="M49.0381 99.643C48.9641 99.34 43.6471 95.075 42.7402 94.376C41.9662 93.781 41.1188 93.909 41.3255 94.767C41.4498 95.284 46.5907 99.334 47.5928 100.096C48.4041 100.712 49.2581 100.543 49.0381 99.643Z" fill="#24F2F2"/>
<path fill-rule="evenodd" clip-rule="evenodd" d="M21.6275 92.345C20.9769 91.423 20.1545 91.853 19.2468 91.979C18.7442 92.049 16.9668 91.995 17.0644 92.985C17.1536 93.889 18.8525 93.314 19.3387 93.247C20.257 93.121 21.0737 93.357 21.6275 92.345Z" fill="#24F2F2"/>
<path fill-rule="evenodd" clip-rule="evenodd" d="M33.9115 77.1684C34.7869 76.4154 34.3871 75.6682 34.3199 74.7414C34.2847 74.2547 34.4913 72.4711 33.5871 72.5724C32.5968 72.6831 33.0241 74.41 33.0614 74.9157C33.1296 75.8319 32.8755 76.7268 33.9115 77.1684Z" fill="#24F2F2"/>
<path fill-rule="evenodd" clip-rule="evenodd" d="M19.0238 97.14C19.2002 98.348 22.1053 96.808 22.0798 96.191C22.0344 95.101 20.5 95.824 19.6602 96.242C18.5923 96.774 19.0234 97.139 19.0234 97.139L19.0238 97.14Z" fill="#24F2F2"/>
<path fill-rule="evenodd" clip-rule="evenodd" d="M37.3452 74.3183C37.2847 74.5446 37.03 76.183 37.0445 76.2665C37.1978 77.136 38.0682 76.9635 38.3243 76.2153C38.3545 76.128 38.6847 74.3572 38.6786 74.2539C38.6262 73.379 37.65 73.1799 37.3452 74.3183Z" fill="#24F2F2"/>
<path fill-rule="evenodd" clip-rule="evenodd" d="M28.8746 75.5036C28.897 78.3856 31.6438 79.0869 30.1388 75.4324C29.8889 74.8252 29.4308 74.4677 29.0152 74.9651C28.4929 75.5896 28.8732 75.3169 28.8746 75.5036Z" fill="#24F2F2"/>
<path fill-rule="evenodd" clip-rule="evenodd" d="M18.3816 88.4C18.4417 89.1954 21.5866 89.6357 21.5222 88.4724C21.4812 87.7351 20.5292 87.8184 19.9388 87.7467C19.3558 87.6758 18.3081 87.4242 18.3816 88.4Z" fill="#24F2F2"/>
<path d="M141.218 32.4054C141.218 38.8328 136.008 44.0433 129.58 44.0433C123.153 44.0433 117.942 38.8328 117.942 32.4054C117.942 25.9779 123.153 20.7675 129.58 20.7675C136.008 20.7675 141.218 25.9779 141.218 32.4054Z" stroke="#F3BA2F"/>
<path d="M126.536 30.9457L129.507 28.0504L132.48 30.9472L134.209 29.2625L129.507 24.681L124.807 29.261L126.536 30.9457ZM121.856 32.1354L123.585 30.4507L125.315 32.1354L123.585 33.8201L121.856 32.1354ZM126.536 33.3252L129.507 36.2205L132.48 33.3237L134.209 35.0076L129.507 39.5898L124.807 35.0099L124.804 35.0076L126.536 33.3252ZM133.7 32.1354L135.429 30.4507L137.158 32.1354L135.429 33.8201L133.7 32.1354ZM131.261 32.1339L131.262 32.1354L129.507 33.8455L127.754 32.1384L127.751 32.1354L127.754 32.1332L128.061 31.8335L128.21 31.6882L129.507 30.4254L131.261 32.1339Z" stroke="#F3BA2F"/>
<g filter="url(#filter1_f_486_2929)">
<path d="M129.58 46.9858C137.633 46.9858 144.161 40.4579 144.161 32.4053C144.161 24.3527 137.633 17.8248 129.58 17.8248C121.527 17.8248 115 24.3527 115 32.4053C115 40.4579 121.527 46.9858 129.58 46.9858Z" stroke="#F3BA2F"/>
</g>
<path d="M129.58 46.9858C137.633 46.9858 144.161 40.4579 144.161 32.4053C144.161 24.3527 137.633 17.8248 129.58 17.8248C121.527 17.8248 115 24.3527 115 32.4053C115 40.4579 121.527 46.9858 129.58 46.9858Z" stroke="#F3BA2F"/>
<path d="M94.0521 53.6988C101.134 53.6988 106.874 47.9581 106.874 40.8767C106.874 33.7952 101.134 28.0546 94.0521 28.0546C86.9706 28.0546 81.23 33.7952 81.23 40.8767C81.23 47.9581 86.9706 53.6988 94.0521 53.6988Z" stroke="url(#paint4_linear_486_2929)"/>
<g filter="url(#filter2_f_486_2929)">
<path d="M94.0522 56.9283C102.917 56.9283 110.104 49.7417 110.104 40.8766C110.104 32.0115 102.917 24.8249 94.0522 24.8249C85.1871 24.8249 78.0005 32.0115 78.0005 40.8766C78.0005 49.7417 85.1871 56.9283 94.0522 56.9283Z" stroke="#24F2F2"/>
</g>
<path d="M94.0522 56.9283C102.917 56.9283 110.104 49.7417 110.104 40.8766C110.104 32.0115 102.917 24.8249 94.0522 24.8249C85.1871 24.8249 78.0005 32.0115 78.0005 40.8766C78.0005 49.7417 85.1871 56.9283 94.0522 56.9283Z" stroke="url(#paint5_linear_486_2929)"/>
<path d="M95.2892 36.2888C95.2892 35.746 95.0132 35.2338 94.5062 34.9547L90.9962 32.9145C90.5202 32.6321 89.9282 32.6442 89.4452 32.906L89.4362 32.9113L85.8602 34.9536C85.3502 35.2323 85.0742 35.7456 85.0742 36.2888V40.4094C85.0742 40.9525 85.3502 41.4656 85.8592 41.7445L89.4322 43.7847C89.9072 44.0661 90.4992 44.0537 90.9812 43.7921L90.9912 43.7863L93.4202 42.3922L93.4222 42.3907L95.0702 41.4318L95.0722 41.4303L97.4982 40.0377L97.5052 40.0334C97.6512 39.9465 97.8652 39.9344 98.0652 40.0413L99.9542 41.1199C100.13 41.2262 100.236 41.4117 100.236 41.587V43.7864C100.236 43.985 100.141 44.1517 99.9682 44.2457L99.9612 44.2496L99.9542 44.2538L98.0552 45.3693L98.0522 45.371C97.9062 45.4579 97.6922 45.47 97.4922 45.3632L95.6032 44.2846C95.4272 44.1781 95.3212 43.9925 95.3212 43.8175V42.3923V41.5227L94.5692 41.9602L92.9192 42.9205L92.6712 43.0652V43.3527V44.7779C92.6712 45.3209 92.9472 45.8341 93.4562 46.113L97.0292 48.1532C97.5042 48.4346 98.0952 48.4222 98.5772 48.1606L98.5872 48.1553L102.167 46.1106L102.175 46.1058C102.621 45.8402 102.948 45.3452 102.948 44.7779V40.657C102.948 40.1143 102.672 39.6012 102.164 39.3225L98.5602 37.2513C98.0852 36.9695 97.4932 36.9818 97.0112 37.2435L97.0032 37.2475L96.9962 37.2517L94.5722 38.6747L92.9252 39.6018L92.9182 39.6062L90.4892 41.0314L90.4862 41.0333C90.3412 41.12 90.1272 41.1322 89.9272 41.0259L88.0072 39.9163C87.8302 39.8099 87.7242 39.624 87.7242 39.4487V37.2489C87.7242 37.0504 87.8192 36.8837 87.9922 36.7897L88.0012 36.7845L89.9002 35.7002L89.9082 35.6953C90.0542 35.6084 90.2682 35.5964 90.4682 35.7032L92.3572 36.7818C92.5332 36.8881 92.6392 37.0736 92.6392 37.2489V38.6741V39.5436L93.3912 39.1062L95.0412 38.1458L95.2892 38.0012V37.7137V36.2888Z" stroke="url(#paint6_linear_486_2929)"/>
<path d="M104.941 68.7835C105.412 69.0299 105.921 69.5128 106.302 69.9784C106.497 70.2164 106.673 70.4672 106.803 70.7044C106.923 70.9225 107.043 71.1979 107.043 71.4649C107.043 71.6952 106.9 71.8311 106.836 71.8803C106.768 71.9326 106.7 71.9596 106.663 71.9727C106.584 72.0009 106.496 72.0179 106.418 72.03C106.255 72.0555 106.019 72.0762 105.71 72.0944C105.087 72.131 104.105 72.1601 102.66 72.1841C99.765 72.2322 94.982 72.2599 87.427 72.2822L68.4207 72.3383L67.5213 72.7634C67.2356 72.8985 66.9606 73.014 66.7449 73.091C66.6393 73.1288 66.5351 73.1619 66.4457 73.1821C66.4034 73.1917 66.3444 73.2031 66.2811 73.2057C66.25 73.2069 66.1987 73.207 66.1389 73.1949C66.0867 73.1844 65.9691 73.1533 65.8661 73.0477C65.8658 73.0474 65.8655 73.0471 65.8653 73.0469L66.2239 72.6985C66.039 72.5089 66.445 71.0557 66.859 70.4259L104.941 68.7835ZM104.941 68.7835C104.429 68.5162 104.013 68.417 101.693 68.3644C99.348 68.3111 94.962 68.3096 86.414 68.3113L68.9195 68.3148L68.7849 68.3149L68.6685 68.3825L67.859 68.8525L104.941 68.7835ZM112.345 85.3634L111.861 85.3792L109.91 85.4427L109.901 85.443L105.628 85.5046L104.565 86.0398M112.345 85.3634L66.0193 77.4462M112.345 85.3634V84.8794V81.6444C112.345 79.5508 112.251 78.1483 111.871 77.1486C111.467 76.0838 110.757 75.5146 109.714 75.0213M112.345 85.3634L109.5 75.4733M104.565 86.0398L104.34 85.5932M104.565 86.0398C99.988 88.343 99.092 94.414 102.799 97.886C103.798 98.823 104.345 99.245 105.232 99.483C106.173 99.735 107.506 99.784 110.106 99.826H110.118L111.865 99.897L112.346 99.917L112.345 100.398L112.336 103.467C112.33 105.491 112.25 106.827 111.918 107.775C111.561 108.791 110.929 109.332 109.995 109.821C109.504 110.078 108.983 110.168 106.33 110.219C103.629 110.27 98.615 110.274 89.006 110.274C79.3971 110.274 74.3831 110.27 71.6815 110.219C69.0284 110.168 68.5077 110.078 68.0169 109.821C67.5712 109.588 67.0034 109.184 66.741 108.887C66.4983 108.612 66.2704 108.342 66.1076 107.846C65.9555 107.383 65.8654 106.741 65.8056 105.717C65.6854 103.662 65.6803 99.881 65.6756 92.472C65.6717 86.357 65.6797 82.81 65.7232 80.7077C65.7449 79.6578 65.7756 78.9568 65.8195 78.4718C65.8628 77.9925 65.9218 77.6853 66.0193 77.4462M66.0193 77.4462C66.4863 76.3002 67.1951 75.543 68.298 75.0213M66.0193 77.4462L68.298 75.0213M109.714 75.0213L109.5 75.4733M109.714 75.0213C109.208 74.7822 108.636 74.6929 105.985 74.643C103.29 74.5923 98.354 74.5875 89.006 74.5875C79.6581 74.5875 74.7221 74.5923 72.0271 74.643C69.3753 74.6929 68.8035 74.7822 68.298 75.0213M109.5 75.4733L68.298 75.0213M112.345 97.524H111.845H110.798C108.616 97.524 107.275 97.495 106.332 97.28C105.844 97.168 105.449 97.004 105.089 96.764C104.734 96.528 104.434 96.23 104.125 95.88L104.5 95.549C103.56 94.483 103.365 93.95 103.365 92.454C103.365 91.486 103.48 91.067 103.963 90.287L112.345 97.524ZM112.345 97.524V97.024V92.635V88.246V87.74L111.839 87.746L110.504 87.7619C110.503 87.7619 110.503 87.7619 110.502 87.7619L112.345 97.524ZM110.788 72.9155C110.362 72.7358 109.984 72.5761 109.734 72.2611C109.488 71.952 109.405 71.5413 109.308 71.0637C108.905 69.072 107.285 67.1649 105.119 66.2185C104.784 66.0721 104.47 65.968 102.077 65.9113C99.705 65.8551 95.37 65.8429 87.068 65.8277C82.302 65.819 77.8611 65.8304 74.5451 65.8558C72.8869 65.8685 71.5113 65.8846 70.5177 65.9035C70.0206 65.9129 69.621 65.923 69.3302 65.9336C69.1846 65.9389 69.0687 65.9442 68.9825 65.9495C68.9394 65.9521 68.9059 65.9546 68.8811 65.9569C68.8581 65.959 68.8498 65.9601 68.8498 65.9601C66.7991 66.3219 64.9243 67.8008 64.005 69.811L63.5059 70.9025V89.291V107.68L64.005 108.771C64.9598 110.859 66.7754 112.253 69.0301 112.631C69.0812 112.64 69.2531 112.653 69.5777 112.667C69.8879 112.681 70.308 112.693 70.8301 112.705C71.8739 112.73 73.3169 112.751 75.0863 112.769C78.6244 112.804 83.462 112.825 89.006 112.825C94.55 112.825 99.387 112.804 102.925 112.769C104.695 112.751 106.138 112.73 107.182 112.705C107.704 112.693 108.124 112.681 108.434 112.667C108.759 112.653 108.931 112.64 108.982 112.631C111.236 112.253 113.052 110.859 114.007 108.771L114.506 107.68V92.531V77.3804L113.963 76.1753C113.314 74.7352 112.039 73.4439 110.788 72.9155ZM110.788 72.9155L110.982 72.455M107.377 93.556C107.053 93.224 106.934 92.927 106.928 92.683C106.923 92.444 107.023 92.167 107.319 91.863C107.616 91.559 107.881 91.462 108.101 91.468C108.326 91.474 108.611 91.59 108.936 91.923C109.083 92.073 109.202 92.241 109.282 92.397C109.365 92.56 109.39 92.68 109.39 92.74C109.39 92.912 109.244 93.236 108.934 93.554C108.79 93.701 108.634 93.823 108.486 93.905C108.333 93.99 108.221 94.016 108.157 94.016C108.106 94.016 107.995 93.993 107.837 93.908C107.686 93.827 107.524 93.706 107.377 93.556Z" stroke="url(#paint7_linear_486_2929)"/>
<path fill-rule="evenodd" clip-rule="evenodd" d="M134.232 65.4086C135.094 66.6355 134.563 67.0344 134.23 69.3001C134.039 70.5966 133.753 71.9445 133.527 73.2032C133.078 72.9836 132.9 72.7369 132.545 72.9776C131.557 73.6462 133.984 74.4718 134.561 75.3402L133.704 76.7739C133.109 76.3589 133.211 76.3387 132.687 76.3934C131.253 78.1621 137.617 77.5953 133.629 81.8455L118.129 70.9783L119.016 69.6029C120.014 68.1844 120.691 68.8141 121.972 69.7202L130.315 75.5938C130.914 76.0263 131.413 76.5206 131.713 75.555C131.203 74.5999 124.351 70.454 122.909 69.1298C123.204 68.71 123.617 67.8511 124.086 67.9537C124.113 67.9597 124.163 67.9599 124.197 67.9698C124.231 67.98 124.269 67.9882 124.308 68.0029C125.001 68.2669 130.18 72.4206 131.262 72.6882C131.941 71.9454 131.412 71.7745 130.305 70.9956L134.233 65.4086H134.232ZM133.446 64.8231L129.502 70.4314L126.213 68.1185C127.109 67.4745 130.116 65.9207 131.461 65.1147C132.315 64.6022 132.418 64.5085 133.446 64.8231ZM128.856 63.1507C129.269 62.8654 130.384 62.5283 130.978 62.3284L137.073 60.1498C137.259 60.1147 137.212 60.1275 137.348 60.1262L137.347 69.1796C136.809 68.3191 135.112 64.5704 134.643 64.1565C133.982 63.571 129.98 63.5446 128.856 63.1507ZM132.324 51.3249C134.162 52.117 137.175 54.1711 138.12 53.7685C139.608 53.1344 141.532 51.7073 143.016 51.1934L137.812 58.4647L132.324 51.3249ZM143.783 51.8707C143.889 52.7774 143.093 54.1815 143.8 54.815C144.555 54.7508 144.437 54.4171 144.54 53.7148C144.798 51.9503 145.576 49.7294 143.974 49.6475C143.436 49.6201 139.41 51.936 138.545 52.4245C137.409 53.066 137.811 52.9737 135.438 51.7725C133.655 50.8703 129.678 48.1885 130.381 51.5789C130.601 52.6412 130.676 54.2524 131.335 54.1586C132.15 53.8473 131.453 52.743 131.534 51.9976L136.977 59.0619C136.459 59.3988 131.357 61.1518 130.366 61.5007C129.66 61.7498 128.922 62.0639 128.258 62.2084C129.228 61.1 130.508 59.8997 131.589 58.8384C132.459 57.9832 132.599 57.7902 132.409 56.8563C132.301 56.3309 132.317 55.4277 131.635 55.296C130.878 55.6066 131.217 56.2591 131.333 56.7619C131.516 57.5644 131.59 57.4714 130.831 58.2139L126.731 62.4107C125.601 64.3901 129.596 64.1238 130.56 64.4891L125.354 67.5149C123.639 66.3092 123.209 66.9995 122.104 68.5711C119.412 67.0939 119.071 67.8208 117.331 70.2957C116.693 70.185 116.486 69.8415 116.181 70.663C116.695 71.3347 133.792 83.3565 134.589 83.608C135.303 83.0081 134.922 83.0192 134.507 82.4158C135.875 80.049 137.126 79.1826 134.489 77.3271C135.661 75.6607 136.159 75.1323 134.408 73.8662L135.513 67.9038C136.127 68.7885 137.563 73.1363 139.008 70.4441C139.274 69.9477 140.269 68.069 140.153 67.6932C139.702 66.2394 138.516 69.155 138.441 69.2866L138.409 60.0317L146.906 62.8596L143.747 63.4504C142.553 63.6367 141.279 63.5556 140.788 64.3955C139.579 66.4595 140.429 66.8181 141.053 66.0836L141.807 64.6505L146.378 64.0099C147.865 63.7982 150.446 63.4252 148.289 61.4131C147.889 61.0399 145.98 58.7939 145.701 59.9607C145.719 60.6884 146.813 61.3142 147.284 61.9127L138.672 59.0458L143.783 51.8707Z" fill="#F88AAF"/>
<path fill-rule="evenodd" clip-rule="evenodd" d="M143.589 56.9844C143.918 56.9154 144.105 56.8969 144.434 56.7691C144.563 57.0286 144.495 56.8463 144.567 57.0784L144.66 57.7529L143.714 57.8621L143.589 56.9844ZM145.223 55.7457C144.701 55.5542 144.716 55.6484 144.208 55.8481C142.886 56.3671 141.91 55.3029 142.658 57.5078C142.842 58.052 142.452 59.2238 143.535 59.0332C143.938 58.9623 143.965 58.7967 144.53 58.7885C144.844 58.7839 145.135 58.8526 145.449 58.841C146.158 58.0853 145.689 57.8474 145.547 57.1939C145.414 56.582 145.735 56.3252 145.223 55.7457Z" fill="#F88AAF"/>
<path d="M108.701 18.107C112.515 18.107 115.607 15.0152 115.607 11.2012C115.607 7.38724 112.515 4.29541 108.701 4.29541C104.887 4.29541 101.795 7.38724 101.795 11.2012C101.795 15.0152 104.887 18.107 108.701 18.107Z" stroke="#0073E1"/>
<g filter="url(#filter3_f_486_2929)">
<path d="M108.701 19.9024C113.507 19.9024 117.402 16.0068 117.402 11.2013C117.402 6.39576 113.507 2.50012 108.701 2.50012C103.896 2.50012 100 6.39576 100 11.2013C100 16.0068 103.896 19.9024 108.701 19.9024Z" stroke="#0073E1"/>
</g>
<path d="M108.701 19.9024C113.507 19.9024 117.402 16.0068 117.402 11.2013C117.402 6.39576 113.507 2.50012 108.701 2.50012C103.896 2.50012 100 6.39576 100 11.2013C100 16.0068 103.896 19.9024 108.701 19.9024Z" stroke="#0073E1"/>
<path d="M106.904 7.72528H110.033ZM106.904 7.72528L106.645 9.16928L109.467 9.17348C110.856 9.17348 111.269 9.67658 111.256 10.5115C111.25 10.9395 111.062 11.6634 110.983 11.8967C110.77 12.5228 110.329 13.2356 108.679 13.2334L105.936 13.2317L105.677 14.6773H108.798C109.898 14.6773 110.367 14.5491 110.862 14.3214C111.96 13.8162 112.614 12.7342 112.877 11.3221C113.267 9.22068 112.781 7.72528 110.033 7.72528M106.904 7.72528H110.033ZM108.622 11.0677C108.725 10.6453 108.757 10.4759 108.757 10.4759H105.555C104.736 10.4759 104.619 11.0077 104.541 11.3293C104.439 11.75 104.407 11.9216 104.407 11.9216H107.61C108.428 11.9216 108.545 11.3898 108.623 11.0677H108.622Z" stroke="#0073E1"/>
</g>
<defs>
<filter id="filter0_d_486_2929" x="30.4946" y="1.11597" width="47" height="52" filterUnits="userSpaceOnUse" color-interpolation-filters="sRGB">
<feFlood flood-opacity="0" result="BackgroundImageFix"/>
<feColorMatrix in="SourceAlpha" type="matrix" values="0 0 0 0 0 0 0 0 0 0 0 0 0 0 0 0 0 0 127 0" result="hardAlpha"/>
<feOffset/>
<feGaussianBlur stdDeviation="3"/>
<feComposite in2="hardAlpha" operator="out"/>
<feColorMatrix type="matrix" values="0 0 0 0 0.786877 0 0 0 0 0.583333 0 0 0 0 1 0 0 0 1 0"/>
<feBlend mode="normal" in2="BackgroundImageFix" result="effect1_dropShadow_486_2929"/>
<feBlend mode="normal" in="SourceGraphic" in2="effect1_dropShadow_486_2929" result="shape"/>
</filter>
<filter id="filter1_f_486_2929" x="110.5" y="13.3248" width="38.1611" height="38.161" filterUnits="userSpaceOnUse" color-interpolation-filters="sRGB">
<feFlood flood-opacity="0" result="BackgroundImageFix"/>
<feBlend mode="normal" in="SourceGraphic" in2="BackgroundImageFix" result="shape"/>
<feGaussianBlur stdDeviation="2" result="effect1_foregroundBlur_486_2929"/>
</filter>
<filter id="filter2_f_486_2929" x="73.5005" y="20.3249" width="41.1035" height="41.1034" filterUnits="userSpaceOnUse" color-interpolation-filters="sRGB">
<feFlood flood-opacity="0" result="BackgroundImageFix"/>
<feBlend mode="normal" in="SourceGraphic" in2="BackgroundImageFix" result="shape"/>
<feGaussianBlur stdDeviation="2" result="effect1_foregroundBlur_486_2929"/>
</filter>
<filter id="filter3_f_486_2929" x="95.5" y="-1.99988" width="26.4023" height="26.4023" filterUnits="userSpaceOnUse" color-interpolation-filters="sRGB">
<feFlood flood-opacity="0" result="BackgroundImageFix"/>
<feBlend mode="normal" in="SourceGraphic" in2="BackgroundImageFix" result="shape"/>
<feGaussianBlur stdDeviation="2" result="effect1_foregroundBlur_486_2929"/>
</filter>
<linearGradient id="paint0_linear_486_2929" x1="67.342" y1="43.5866" x2="33.5859" y2="33.8863" gradientUnits="userSpaceOnUse">
<stop stop-color="#FFC399"/>
<stop offset="1" stop-color="#C48BFF"/>
</linearGradient>
<linearGradient id="paint1_linear_486_2929" x1="67.3421" y1="43.5866" x2="33.586" y2="33.8863" gradientUnits="userSpaceOnUse">
<stop stop-color="#FFC399"/>
<stop offset="1" stop-color="#C48BFF"/>
</linearGradient>
<linearGradient id="paint2_linear_486_2929" x1="64.5359" y1="63.2783" x2="63.537" y2="63.9353" gradientUnits="userSpaceOnUse">
<stop stop-color="#FFC399"/>
<stop offset="1" stop-color="#C48BFF"/>
</linearGradient>
<linearGradient id="paint3_linear_486_2929" x1="68.1205" y1="61.6898" x2="69.3152" y2="61.6456" gradientUnits="userSpaceOnUse">
<stop stop-color="#FFC399"/>
<stop offset="1" stop-color="#C48BFF"/>
</linearGradient>
<linearGradient id="paint4_linear_486_2929" x1="94.0521" y1="27.5546" x2="108.365" y2="40.84" gradientUnits="userSpaceOnUse">
<stop stop-color="#67FFFF"/>
<stop offset="1" stop-color="#78B4FF"/>
</linearGradient>
<linearGradient id="paint5_linear_486_2929" x1="94.0522" y1="24.3248" x2="111.835" y2="40.831" gradientUnits="userSpaceOnUse">
<stop stop-color="#67FFFF"/>
<stop offset="1" stop-color="#78B4FF"/>
</linearGradient>
<linearGradient id="paint6_linear_486_2929" x1="94.0112" y1="33.2062" x2="101.888" y2="41.625" gradientUnits="userSpaceOnUse">
<stop stop-color="#67FFFF"/>
<stop offset="1" stop-color="#78B4FF"/>
</linearGradient>
<linearGradient id="paint7_linear_486_2929" x1="89.006" y1="65.3248" x2="114.862" y2="91.325" gradientUnits="userSpaceOnUse">
<stop stop-color="#24F2F2"/>
<stop offset="1" stop-color="#2D8BFE"/>
</linearGradient>
<clipPath id="clip0_486_2929">
<rect width="174" height="149" fill="white"/>
</clipPath>
</defs>
</svg>
