<svg width="164" height="134" viewBox="0 0 164 134" fill="none" xmlns="http://www.w3.org/2000/svg">
<g clip-path="url(#clip0_486_2964)">
<path d="M118.295 36.2375H43.0162C40.0465 36.2375 37.6392 38.6533 37.6392 41.6334V115.378C37.6392 118.359 40.0465 120.774 43.0162 120.774H118.295C121.265 120.774 123.672 118.359 123.672 115.378V41.6334C123.672 38.6533 121.265 36.2375 118.295 36.2375Z" fill="#13001D" stroke="#220046" stroke-width="4"/>
<path d="M28.1831 77.2972C27.4566 78.2469 26.4385 78.7218 25.129 78.7218C23.8194 78.7218 22.7965 78.2469 22.0605 77.2972C21.3339 76.338 20.9707 75.0621 20.9707 73.4697C20.9707 71.8773 21.3339 70.6062 22.0605 69.6565C22.7965 68.6973 23.8194 68.2176 25.129 68.2176C26.4385 68.2176 27.4566 68.6973 28.1831 69.6565C28.9191 70.6062 29.2872 71.8773 29.2872 73.4697C29.2872 75.0621 28.9191 76.338 28.1831 77.2972ZM23.5373 73.4697C23.5373 75.302 24.0679 76.218 25.129 76.218C26.19 76.218 26.7206 75.302 26.7206 73.4697C26.7206 71.6375 26.19 70.7213 25.129 70.7213C24.0679 70.7213 23.5373 71.6375 23.5373 73.4697Z" fill="#A34EFC"/>
<path opacity="0.2" d="M23.3007 95.1435C23.3007 95.8885 23.9026 96.4925 24.645 96.4925C25.3874 96.4925 25.9893 95.8885 25.9893 95.1435V83.4522C25.9893 82.7072 25.3874 82.1032 24.645 82.1032C23.9026 82.1032 23.3007 82.7072 23.3007 83.4522V95.1435Z" fill="white"/>
<path opacity="0.2" d="M138.011 94.2442C138.011 94.9892 138.613 95.5932 139.355 95.5932C140.097 95.5932 140.699 94.9892 140.699 94.2442V82.5529C140.699 81.8079 140.097 81.2039 139.355 81.2039C138.613 81.2039 138.011 81.8079 138.011 82.5529V94.2442Z" fill="white"/>
<path d="M135 70.9121C135.985 70.9121 136.802 71.1999 137.452 71.7754C138.111 72.351 138.441 73.1664 138.441 74.2216C138.441 75.3152 138.087 76.1642 137.38 76.7685C136.673 77.3632 135.793 77.6606 134.742 77.6606C133.862 77.6606 133.097 77.4736 132.447 77.0995C131.798 76.7157 131.324 76.145 131.028 75.3871L133.265 74.1065C133.475 74.8068 133.967 75.1569 134.742 75.1569C135.105 75.1569 135.382 75.0753 135.573 74.9123C135.774 74.7396 135.874 74.5094 135.874 74.2216C135.874 73.9242 135.774 73.694 135.573 73.5309C135.382 73.3679 135.119 73.2863 134.785 73.2863H131.573L131.989 67.3723H137.896V69.8329H134.354L134.283 70.9121H135ZM146.397 76.2361C145.67 77.1858 144.652 77.6606 143.343 77.6606C142.034 77.6606 141.01 77.1858 140.275 76.2361C139.548 75.2768 139.185 74.001 139.185 72.4086C139.185 70.8161 139.548 69.5451 140.275 68.5954C141.01 67.6361 142.034 67.1565 143.343 67.1565C144.652 67.1565 145.67 67.6361 146.397 68.5954C147.133 69.5451 147.501 70.8161 147.501 72.4086C147.501 74.001 147.133 75.2768 146.397 76.2361ZM141.751 72.4086C141.751 74.2408 142.282 75.1569 143.343 75.1569C144.404 75.1569 144.935 74.2408 144.935 72.4086C144.935 70.5764 144.404 69.6602 143.343 69.6602C142.282 69.6602 141.751 70.5764 141.751 72.4086Z" fill="#A34EFC"/>
<path opacity="0.2" d="M79.7596 102.908C79.7596 103.338 80.1071 103.687 80.5358 103.687C80.9645 103.687 81.312 103.338 81.312 102.908V75.6876C81.312 75.2574 80.9645 74.9087 80.5358 74.9087C80.1071 74.9087 79.7596 75.2574 79.7596 75.6876V102.908Z" fill="white"/>
<path d="M68.5608 72.2106V69.4047L73.5507 64.1167C74.0526 63.5699 74.4182 63.131 74.6476 62.8C74.877 62.4547 74.9918 62.1166 74.9918 61.7856C74.9918 61.4115 74.8699 61.1093 74.6261 60.8791C74.3967 60.6488 74.0741 60.5337 73.6583 60.5337C72.7692 60.5337 72.0953 61.0589 71.6365 62.1094L68.3242 60.2531C68.8117 59.1164 69.5287 58.253 70.475 57.6631C71.4214 57.0731 72.4681 56.7781 73.6152 56.7781C75.0491 56.7781 76.2751 57.2098 77.2931 58.0732C78.3255 58.9221 78.8417 60.0877 78.8417 61.5698C78.8417 62.4475 78.6338 63.2605 78.218 64.0087C77.8165 64.7426 77.2214 65.5196 76.4328 66.3398L74.3895 68.4766H79.0998V72.2106H68.5608ZM86.0299 62.4115C87.5068 62.4115 88.7327 62.8432 89.7078 63.7066C90.6972 64.5699 91.1919 65.793 91.1919 67.3758C91.1919 69.0162 90.6614 70.2897 89.6002 71.1962C88.5392 72.0883 87.22 72.5344 85.6427 72.5344C84.3235 72.5344 83.1764 72.2538 82.2014 71.6926C81.2264 71.117 80.5166 70.2609 80.0721 69.1241L83.4274 67.2032C83.7428 68.2536 84.4813 68.7788 85.6427 68.7788C86.1876 68.7788 86.6034 68.6565 86.8902 68.4119C87.1913 68.1528 87.3419 67.8075 87.3419 67.3758C87.3419 66.9298 87.1913 66.5844 86.8902 66.3398C86.6034 66.0952 86.2091 65.9729 85.7072 65.9729H80.8894L81.5131 57.1019H90.3746V60.7927H85.062L84.9544 62.4115H86.0299Z" fill="#A34EFC"/>
<g opacity="0.2" filter="url(#filter0_d_486_2964)">
<path d="M142.492 89.2979H21.5083" stroke="url(#paint0_linear_486_2964)" stroke-width="8" stroke-linecap="round"/>
</g>
<path d="M76.1751 89.2979H23.3008" stroke="url(#paint1_linear_486_2964)" stroke-width="4" stroke-linecap="round"/>
<g filter="url(#filter1_d_486_2964)">
<path d="M80.6557 96.4925C84.6153 96.4925 87.8251 93.2714 87.8251 89.2979C87.8251 85.3244 84.6153 82.1032 80.6557 82.1032C76.6962 82.1032 73.4863 85.3244 73.4863 89.2979C73.4863 93.2714 76.6962 96.4925 80.6557 96.4925Z" fill="url(#paint2_linear_486_2964)"/>
<path d="M80.6559 96.0429C84.368 96.0429 87.3772 93.023 87.3772 89.2979C87.3772 85.5727 84.368 82.5529 80.6559 82.5529C76.9438 82.5529 73.9346 85.5727 73.9346 89.2979C73.9346 93.023 76.9438 96.0429 80.6559 96.0429Z" stroke="url(#paint3_linear_486_2964)"/>
</g>
<g filter="url(#filter2_d_486_2964)">
<path d="M80.6554 91.6962C81.9753 91.6962 83.0452 90.6225 83.0452 89.298C83.0452 87.9735 81.9753 86.8997 80.6554 86.8997C79.3356 86.8997 78.2656 87.9735 78.2656 89.298C78.2656 90.6225 79.3356 91.6962 80.6554 91.6962Z" fill="#1ECACA"/>
</g>
<path d="M120.519 112.133L48.4258 105.876C44.7275 105.555 41.4702 108.304 41.1504 112.015L40.503 119.526C40.1832 123.238 42.9219 126.506 46.6202 126.827L118.713 133.084C122.412 133.405 125.669 130.657 125.989 126.946L126.636 119.435C126.956 115.723 124.217 112.454 120.519 112.133Z" fill="#271134"/>
<path d="M120.519 112.133L48.4258 105.876C44.7275 105.555 41.4702 108.304 41.1504 112.015L40.503 119.526C40.1832 123.238 42.9219 126.506 46.6202 126.827L118.713 133.084C122.412 133.405 125.669 130.657 125.989 126.946L126.636 119.435C126.956 115.723 124.217 112.454 120.519 112.133Z" stroke="#180C2D"/>
<path d="M48.3709 111.107L48.1477 111.088L48.1284 111.312L47.8762 114.237L47.8569 114.461L48.0801 114.481L52.3028 114.847L48.1756 123.16L48.0288 123.456L48.3569 123.485L51.6098 123.767L51.7614 123.781L51.8294 123.644L56.3252 114.628L56.3443 114.59L56.348 114.547L56.5638 112.044L56.5831 111.82L56.3598 111.8L48.3709 111.107ZM60.8741 116.384L60.9994 115.568L64.9536 115.911L65.1769 115.931L65.1961 115.707L65.4453 112.815L65.4647 112.591L65.2415 112.571L58.2975 111.968L58.0895 111.95L58.0568 112.157L56.969 119.067L56.9314 119.305L57.171 119.326L60.9464 119.653C61.3045 119.684 61.5487 119.793 61.7086 119.955L61.7124 119.959C61.8756 120.117 61.9539 120.328 61.9287 120.621C61.9046 120.899 61.7929 121.097 61.5977 121.238C61.4156 121.368 61.1418 121.434 60.7449 121.399C60.323 121.363 60.0077 121.239 59.7805 121.046C59.5543 120.855 59.3954 120.576 59.3153 120.192L59.2576 119.916L59.0022 120.034L56.2432 121.311L56.0672 121.392L56.1222 121.579C56.4068 122.544 56.933 123.307 57.7023 123.856L57.7043 123.857C58.4678 124.39 59.3868 124.698 60.4527 124.791C61.7333 124.901 62.8513 124.633 63.7921 123.972L63.7935 123.97C64.7492 123.287 65.2766 122.259 65.392 120.921C65.5032 119.631 65.186 118.569 64.4153 117.77C63.6668 116.982 62.6818 116.54 61.4783 116.436L60.8741 116.384ZM66.9107 112.716L66.6875 112.697L66.6682 112.921L66.416 115.846L66.3967 116.071L66.62 116.09L70.8426 116.457L66.7155 124.77L66.5686 125.066L66.8967 125.094L70.1496 125.376L70.3012 125.39L70.3693 125.253L74.865 116.237L74.8841 116.199L74.8879 116.156L75.1036 113.653L75.1229 113.429L74.8997 113.409L66.9107 112.716ZM76.016 113.506L75.7929 113.487L75.7735 113.711L75.5213 116.637L75.502 116.861L75.7253 116.88L79.9479 117.246L75.8208 125.56L75.6739 125.856L76.002 125.884L79.255 126.167L79.4065 126.18L79.4746 126.044L83.9704 117.027L83.9895 116.989L83.9932 116.946L84.2089 114.443L84.2282 114.219L84.005 114.199L76.016 113.506ZM85.1213 114.297L84.8982 114.277L84.8788 114.501L84.6266 117.427L84.6074 117.651L84.8306 117.671L89.0532 118.037L84.9261 126.35L84.7792 126.646L85.1073 126.675L88.3603 126.957L88.5118 126.97L88.5799 126.833L93.0759 117.817L93.0947 117.779L93.0983 117.737L93.3142 115.233L93.334 115.009L93.1099 114.99L85.1213 114.297ZM94.2265 115.087L94.0034 115.067L93.9846 115.291L93.7319 118.218L93.713 118.442L93.9362 118.46L98.1581 118.827L94.0312 127.141L93.8842 127.437L94.2122 127.465L97.4653 127.747L97.6168 127.76L97.6849 127.624L102.181 118.608L102.2 118.569L102.203 118.527L102.419 116.023L102.439 115.799L102.216 115.78L94.2265 115.087Z" fill="url(#paint4_linear_486_2964)" stroke="#000E17" stroke-width="0.5"/>
<path d="M114.068 128.4C117.352 128.4 120.014 125.729 120.014 122.434C120.014 119.139 117.352 116.467 114.068 116.467C110.784 116.467 108.123 119.139 108.123 122.434C108.123 125.729 110.784 128.4 114.068 128.4Z" stroke="url(#paint5_linear_486_2964)" stroke-width="0.5"/>
<g filter="url(#filter3_f_486_2964)">
<path d="M114.069 129.9C118.178 129.9 121.51 126.557 121.51 122.433C121.51 118.309 118.178 114.966 114.069 114.966C109.959 114.966 106.627 118.309 106.627 122.433C106.627 126.557 109.959 129.9 114.069 129.9Z" stroke="#CCAEFF" stroke-width="0.5"/>
</g>
<path d="M114.069 129.9C118.178 129.9 121.51 126.557 121.51 122.433C121.51 118.309 118.178 114.966 114.069 114.966C109.959 114.966 106.627 118.309 106.627 122.433C106.627 126.557 109.959 129.9 114.069 129.9Z" stroke="url(#paint6_linear_486_2964)" stroke-width="0.5"/>
<path d="M114.634 120.301C114.634 120.051 114.508 119.816 114.275 119.688L112.649 118.739C112.431 118.61 112.16 118.615 111.938 118.736L111.934 118.738L110.278 119.687C110.045 119.815 109.918 120.051 109.918 120.301V122.216C109.918 122.466 110.045 122.702 110.278 122.83L111.933 123.778C112.15 123.908 112.421 123.902 112.643 123.782L112.647 123.779L113.772 123.131L114.536 122.685L114.537 122.684L115.66 122.037L115.664 122.035C115.734 121.993 115.836 121.988 115.931 122.038L116.806 122.54C116.889 122.59 116.94 122.679 116.94 122.763V123.785C116.94 123.881 116.894 123.961 116.812 124.006L116.806 124.009L115.926 124.527L115.925 124.528C115.855 124.571 115.753 124.576 115.658 124.525L114.783 124.024C114.7 123.972 114.648 123.884 114.648 123.8V123.138V122.747L114.312 122.944L113.548 123.39L113.436 123.454V123.584V124.246C113.436 124.496 113.563 124.732 113.796 124.86L115.451 125.808C115.668 125.938 115.94 125.932 116.16 125.812L116.165 125.809L117.823 124.859L117.826 124.857C118.031 124.735 118.181 124.507 118.181 124.246V122.331C118.181 122.081 118.054 121.846 117.821 121.718L116.152 120.755C115.934 120.625 115.664 120.631 115.442 120.751L115.435 120.755L114.312 121.417L113.551 121.847L113.547 121.849L112.422 122.512L112.421 122.513C112.351 122.554 112.249 122.56 112.154 122.509L111.265 121.993C111.181 121.943 111.13 121.854 111.13 121.77V120.747C111.13 120.652 111.176 120.572 111.258 120.527L111.263 120.525L112.142 120.021L112.145 120.019C112.215 119.977 112.318 119.971 112.413 120.023L113.287 120.524C113.371 120.574 113.422 120.663 113.422 120.747V121.409V121.801L113.759 121.604L114.522 121.158L114.634 121.093V120.963V120.301Z" stroke="url(#paint7_linear_486_2964)" stroke-width="0.5"/>
<g filter="url(#filter4_d_486_2964)">
<path fill-rule="evenodd" clip-rule="evenodd" d="M80.0475 14.6015C76.9462 15.5573 75.742 19.526 77.7236 22.2605L78.057 22.7205L73.209 31.8384L68.3609 40.9562L67.6234 40.9379C67.1637 40.9265 66.7032 40.9727 66.4008 41.0605C64.2529 41.6841 62.8643 44.0629 63.2358 46.4825C63.6471 49.1605 66.1659 50.9912 68.528 50.3288C70.0464 49.9031 71.1503 48.7757 71.6546 47.1357L71.8345 46.5507H81.1029H90.371L90.5511 47.1357C90.7985 47.9385 91.1328 48.5362 91.6418 49.0829C93.3974 50.971 96.2329 50.8789 97.8962 48.8798C98.7395 47.8661 99.1598 46.3796 98.9832 45.0311C98.7368 43.146 97.449 41.5378 95.8054 41.0605C95.5025 40.9727 95.0419 40.9265 94.5821 40.9379L93.8455 40.9562L88.9955 31.8355L84.1457 22.7147L84.5047 22.2125C86.3491 19.6319 85.3453 15.8265 82.5303 14.7264C81.8875 14.4751 80.6583 14.4133 80.0475 14.6015ZM82.0162 16.0836C84.1607 16.8188 84.8351 19.7333 83.2824 21.5565C83.0777 21.7969 82.6971 22.1121 82.4368 22.2569C82.0029 22.4983 81.8916 22.5203 81.1029 22.5203C80.3143 22.5203 80.2031 22.4983 79.7691 22.2569C78.8242 21.7314 78.1646 20.6489 78.0898 19.5011C78.0381 18.7077 78.1792 18.0978 78.5666 17.4396C79.3116 16.1735 80.6936 15.6303 82.0162 16.0836ZM79.628 23.7549C80.0097 23.9239 80.2354 23.9543 81.1029 23.9543C81.9686 23.9543 82.1966 23.9237 82.5751 23.7561C82.8213 23.647 83.0496 23.5877 83.0824 23.6241C83.1151 23.6604 85.265 27.6796 87.86 32.5554L92.5783 41.4207L92.3516 41.5992C92.2261 41.6974 91.8811 42.0426 91.5844 42.3666C90.9992 43.0038 90.5986 43.7866 90.4391 44.6019L90.3486 45.0657H81.1029H71.857L71.7664 44.6019C71.6073 43.7866 71.2064 43.0038 70.6218 42.3666C70.3247 42.0426 69.9795 41.6974 69.8548 41.5992L69.6278 41.4207L74.0582 33.0955C78.9305 23.9396 79.1361 23.5553 79.1605 23.5554C79.1698 23.5554 79.3801 23.6451 79.628 23.7549ZM79.2826 33.5891C77.2969 33.9451 75.7517 34.8459 74.2416 36.5279C73.01 37.8997 72.8511 38.2605 73.2738 38.7246C73.5979 39.0808 73.8963 39.0214 74.3132 38.5181C75.1588 37.4972 75.9284 36.7316 76.5715 36.2711C76.9512 35.9992 77.2778 35.7943 77.2972 35.8156C77.3166 35.8368 77.259 36.0214 77.1691 36.2256C75.803 39.331 77.9325 42.9956 81.1029 42.9956C84.2957 42.9956 86.3494 39.4402 85.0379 36.1837C84.9519 35.9702 84.9015 35.7955 84.9258 35.7955C84.9501 35.7955 85.2891 36.0224 85.6793 36.2997C86.1525 36.6363 86.7049 37.1598 87.3409 37.8747C88.3695 39.0309 88.5109 39.1103 88.9174 38.759C89.081 38.6178 89.1333 38.4923 89.1329 38.2415C89.1325 37.9571 89.0461 37.8045 88.5176 37.155C86.9408 35.2175 85.3836 34.1615 83.3973 33.6825C82.5345 33.4743 80.2164 33.4218 79.2826 33.5891ZM82.3465 35.1853C82.9935 35.511 83.5103 36.0648 83.8276 36.7726C84.0716 37.3171 84.0938 37.4386 84.0938 38.2255C84.0938 39.0125 84.0716 39.134 83.8276 39.6786C83.5119 40.3829 82.9975 40.9359 82.3465 41.2712C81.9452 41.4778 81.7746 41.5106 81.1029 41.5106C80.4313 41.5106 80.2607 41.4778 79.8595 41.2712C79.2083 40.9359 78.6941 40.3829 78.3784 39.6786C78.1344 39.1343 78.112 39.0123 78.112 38.2274C78.112 37.4897 78.1421 37.3003 78.3279 36.8647C78.7084 35.9738 79.3756 35.3254 80.225 35.0208C80.7739 34.824 81.7844 34.9024 82.3465 35.1853ZM68.8357 42.6677C71.1193 43.8948 71.115 47.4491 68.8284 48.6854C68.3336 48.9531 68.2131 48.9808 67.5432 48.9808C66.8861 48.9808 66.7447 48.9498 66.2713 48.7023C64.5474 47.8008 63.9618 45.5067 65.0232 43.8129C65.4036 43.2061 65.779 42.8712 66.4018 42.5832C66.8209 42.3895 66.9854 42.3633 67.628 42.3884C68.2393 42.4123 68.4521 42.4614 68.8357 42.6677ZM95.7292 42.5532C96.3377 42.803 96.8109 43.2127 97.1828 43.8095C98.2412 45.5112 97.6587 47.7965 95.9345 48.7006C95.4613 48.9489 95.3197 48.98 94.6628 48.9803C93.9924 48.9808 93.8724 48.9532 93.3786 48.6861C92.2816 48.0931 91.6561 47.0075 91.6552 45.6957C91.6543 44.2315 92.4412 42.9978 93.6752 42.5294C94.2613 42.3068 95.1548 42.3171 95.7292 42.5532Z" fill="url(#paint8_linear_486_2964)"/>
</g>
<g filter="url(#filter5_d_486_2964)">
<path fill-rule="evenodd" clip-rule="evenodd" d="M26.4152 14.5985C25.4089 14.7791 24.5336 15.1312 23.6583 15.7074C23.1637 16.0331 12.4056 26.6052 11.7522 27.4077C11.2398 28.037 10.6726 29.1543 10.4609 29.9516L10.3023 30.5488V38.2074C10.3023 46.8166 10.264 46.1728 10.8462 47.3541C11.377 48.4313 12.2859 49.3186 13.4281 49.8747C14.4039 50.3498 14.7193 50.4129 16.3054 50.4495C17.6443 50.4804 17.6972 50.4764 17.8861 50.329C18.1318 50.1374 18.1538 49.7817 17.9322 49.583C17.7999 49.4643 17.6238 49.4443 16.387 49.4067C15.1393 49.3687 14.9366 49.3453 14.4773 49.1857C12.9371 48.6507 11.8631 47.5088 11.4699 45.9883C11.3387 45.4812 11.3324 45.1559 11.3341 38.8811C11.3352 34.7059 11.3621 32.1929 11.4077 31.9973C11.6885 30.7929 12.7798 29.7971 14.032 29.6028C14.2911 29.5626 15.8198 29.5304 17.5131 29.5294C20.752 29.5275 21.047 29.5025 21.9153 29.1556C23.2792 28.6107 24.4814 27.4375 25.0473 26.099C25.4381 25.1745 25.4699 24.8318 25.4699 21.5329C25.4699 19.7762 25.5001 18.3604 25.5424 18.1401C25.7819 16.8909 26.795 15.8787 28.0671 15.6175C28.3135 15.5669 29.8439 15.5489 32.6894 15.5633L36.9433 15.5846L37.4572 15.7698C39.0162 16.3314 40.0722 17.4565 40.4646 18.9738C40.5794 19.4177 40.602 19.7521 40.602 21.0045V22.504H39.0916H37.5811L36.3994 21.327L35.2177 20.1502L35.185 19.6518C35.1242 18.7252 34.6225 17.9724 33.7982 17.5711C33.3617 17.3586 33.2681 17.3398 32.6467 17.3398C32.04 17.3399 31.928 17.3611 31.5598 17.5454C30.5502 18.0509 29.9704 19.158 30.1636 20.2117C30.3122 21.0226 30.7988 21.6915 31.4929 22.0394C31.8655 22.2261 32.6639 22.3983 32.8427 22.3305C32.9198 22.3012 33.4054 22.7327 34.4552 23.7638C35.4971 24.7871 36.0539 25.2825 36.2727 25.3806C36.5647 25.5116 36.737 25.5222 38.5951 25.5237L40.602 25.5252V25.8765V26.2278H39.2911C38.4681 26.2278 37.9146 26.2573 37.804 26.3072C37.4436 26.4696 37.4115 27.0268 37.7522 27.2072C37.8374 27.2523 38.4287 27.2817 39.2476 27.2817H40.602V27.7735V28.2654H37.2909H33.9799L33.4618 28.7623L32.9435 29.2593L32.6097 28.9291L32.2758 28.5988L32.8335 28.0406C33.1402 27.7335 33.4775 27.4372 33.583 27.382C33.7269 27.3068 34.0691 27.2817 34.9506 27.2817C36.0316 27.2817 36.1377 27.2704 36.2684 27.1412C36.4829 26.929 36.4579 26.5559 36.2165 26.3682C36.0314 26.2241 35.9634 26.2183 34.7069 26.2401C33.5838 26.2596 33.3548 26.2823 33.1425 26.3949C33.0058 26.4675 32.5103 26.8983 32.0413 27.3522L31.1889 28.1773L30.671 28.2175C29.7449 28.2894 29.0271 28.7464 28.5908 29.5423C28.3573 29.9683 28.3471 30.0175 28.3471 30.7245C28.3471 31.3679 28.3689 31.5028 28.5172 31.7784C28.7813 32.2693 28.9985 32.5182 29.3989 32.7893C31.0104 33.8804 33.2366 32.8136 33.3417 30.9002L33.3687 30.4084L33.9111 29.8638L34.4535 29.3193H37.5278H40.602V29.6706V30.0219H39.8893C39.4101 30.0219 39.09 30.0573 38.9125 30.1299C38.7436 30.1989 38.1102 30.7663 37.1564 31.7029L35.6646 33.1678L35.1357 33.2079C34.1613 33.2818 33.3569 33.8354 32.9423 34.7171C32.786 35.0495 32.7549 35.2153 32.7549 35.7131C32.7549 36.218 32.7853 36.3754 32.9522 36.7318C33.2088 37.28 33.6917 37.7603 34.2359 38.0086C34.6042 38.1766 34.7615 38.2067 35.2738 38.2067C35.7889 38.2067 35.9428 38.177 36.3206 38.0047C37.1717 37.6165 37.7334 36.7986 37.8079 35.8389L37.8476 35.3266L38.9931 34.1849C40.0106 33.1708 40.1648 33.0431 40.3722 33.0431H40.6056L40.586 39.4194L40.5665 45.7955L40.4085 46.2522C40.1748 46.9278 39.7725 47.5612 39.2492 48.0774C38.714 48.6051 38.2034 48.9237 37.4644 49.1907L36.9433 49.3789L28.1897 49.414C20.0031 49.4469 19.4283 49.457 19.313 49.5711C19.1276 49.7545 19.1511 50.174 19.3559 50.338C19.5172 50.4673 19.7751 50.4705 28.2683 50.4512C38.0185 50.429 37.2553 50.4678 38.3934 49.9369C39.7099 49.3227 40.7105 48.2984 41.2441 47.0186C41.6911 45.9467 41.6677 46.7493 41.6677 32.4811C41.6677 18.1854 41.6907 18.9727 41.2403 17.924C40.9365 17.2167 40.5713 16.6945 39.9676 16.1042C39.1529 15.3075 38.1928 14.8069 37.0735 14.5951C36.3347 14.4553 27.1971 14.4583 26.4152 14.5985ZM25.3555 16.0575C25.327 16.1058 25.2127 16.2782 25.1015 16.4406C24.9904 16.6029 24.8333 16.8875 24.7524 17.0729C24.4417 17.7854 24.4043 18.2587 24.4043 21.4801C24.4043 24.9106 24.3797 25.1181 23.8571 26.1083C23.3511 27.0672 22.2077 27.9932 21.1007 28.3406C20.8958 28.405 19.8373 28.4419 17.3 28.4734L13.7834 28.517L13.2165 28.7122C12.9049 28.8196 12.4606 29.0324 12.2294 29.1852C11.9982 29.3378 11.7946 29.4485 11.777 29.4312C11.7215 29.3763 12.1724 28.6006 12.5362 28.1249C12.99 27.5313 23.764 16.9044 24.2178 16.6026C24.5096 16.4087 25.3133 15.9735 25.3853 15.9706C25.3974 15.9701 25.3839 16.0092 25.3555 16.0575ZM33.3623 18.522C34.3907 19.059 34.3921 20.5817 33.3644 21.0923C32.7508 21.3973 32.1188 21.3049 31.6374 20.8401C30.8931 20.1212 31.1236 18.8795 32.0774 18.4705C32.4557 18.3082 32.994 18.3298 33.3623 18.522ZM38.884 23.5579H40.602V24.0146V24.4713H38.6668H36.7316L35.4352 23.1905L34.1388 21.9098L34.4728 21.5745L34.8067 21.2393L35.9863 22.3986L37.1659 23.5579H38.884ZM31.4866 29.427C31.7123 29.5383 31.924 29.7139 32.0511 29.8953C32.2321 30.1537 32.2545 30.2453 32.2545 30.7296C32.2545 31.2326 32.2379 31.2939 32.0348 31.5436C31.4098 32.3116 30.5307 32.4015 29.8362 31.7684C29.4646 31.4296 29.3513 31.1277 29.3912 30.5828C29.4312 30.0351 29.6729 29.6773 30.1679 29.4333C30.6447 29.1983 31.0189 29.1965 31.4866 29.427ZM40.602 31.5325V31.9892H40.1629H39.7237L38.5634 33.1291L37.4032 34.269L37.0667 33.9359L36.7302 33.6028L38.0129 32.3392L39.2956 31.0759H39.9488H40.602V31.5325ZM35.7274 34.324C36.3779 34.5162 36.8393 35.2642 36.7343 35.9565C36.6786 36.3239 36.3458 36.7993 36.0078 36.9945C35.4333 37.3264 34.6381 37.197 34.1819 36.6976C33.6368 36.1009 33.6622 35.267 34.243 34.6917C34.6661 34.2726 35.1488 34.1531 35.7274 34.324ZM14.4893 45.0583C14.1705 45.1853 14.0954 45.5614 14.33 45.8563L14.4773 46.0415H33.5076C35.4245 46.0415 36.468 46.016 36.5606 45.9669C36.9014 45.7865 36.8694 45.2293 36.5089 45.067C36.2952 44.9706 14.7293 44.9627 14.4893 45.0583Z" fill="url(#paint9_linear_486_2964)"/>
<path fill-rule="evenodd" clip-rule="evenodd" d="M14.3281 42.1564C14.0094 42.2835 13.9343 42.6596 14.1688 42.9545L14.316 43.1396H33.3463C35.2633 43.1396 36.3067 43.1141 36.3995 43.065C36.7402 42.8847 36.7081 42.3275 36.3477 42.165C36.1339 42.0687 14.5681 42.0608 14.3281 42.1564Z" fill="url(#paint10_linear_486_2964)"/>
</g>
<g filter="url(#filter6_d_486_2964)">
<path fill-rule="evenodd" clip-rule="evenodd" d="M135.68 15.7074C136.556 15.1312 137.43 14.7791 138.437 14.5985C139.219 14.4583 148.356 14.4553 149.096 14.5951C150.215 14.8069 151.175 15.3075 151.989 16.1042C152.593 16.6945 152.958 17.2167 153.262 17.924C153.284 17.9753 153.305 18.0222 153.325 18.0667C153.353 18.13 153.379 18.1885 153.403 18.2477C153.69 18.9564 153.69 19.7825 153.689 30.4909V34.5036C153.69 45.1339 153.69 45.9651 153.407 46.6839C153.384 46.7448 153.358 46.8049 153.329 46.8702C153.309 46.9165 153.288 46.9652 153.266 47.0186C152.732 48.2984 151.731 49.3227 150.415 49.9369C150.34 49.9717 150.273 50.0042 150.211 50.0344C150.115 50.0816 150.029 50.1232 149.942 50.1599C149.291 50.4329 148.528 50.4345 142.082 50.4474C141.528 50.4486 140.932 50.4497 140.29 50.4512C131.797 50.4705 131.539 50.4673 131.377 50.338C131.173 50.174 131.15 49.7545 131.334 49.5711C131.45 49.457 132.024 49.4469 140.212 49.414L148.965 49.3789L149.486 49.1907C150.225 48.9237 150.736 48.6051 151.271 48.0774C151.794 47.5612 152.196 46.9278 152.43 46.2522L152.588 45.7955L152.627 33.0431H152.585V31.9892H152.624V31.0759H152.585V30.0219H152.624V29.3193H152.585V28.2654H152.624V27.2817H152.585V26.2278H152.624V25.5252H152.585V24.4713H152.624V23.5579H152.585V22.504H152.624V21.0045C152.624 20.2641 152.616 19.8445 152.585 19.5334C152.581 18.914 152.383 18.3407 152.048 17.872C151.51 16.9092 150.633 16.1853 149.479 15.7698L148.965 15.5846L144.711 15.5633C141.865 15.5489 140.336 15.5669 140.089 15.6175C138.817 15.8787 137.804 16.8909 137.564 18.1401C137.522 18.3604 137.492 19.7762 137.492 21.5329C137.492 24.8318 137.46 25.1745 137.069 26.0991C136.504 27.4375 135.301 28.6107 133.937 29.1556C133.068 29.5025 132.774 29.5275 129.535 29.5294C127.841 29.5304 126.313 29.5626 126.054 29.6028C124.801 29.7971 123.71 30.7929 123.429 31.9973C123.384 32.1929 123.357 34.7059 123.356 38.8811C123.354 45.1559 123.36 45.4812 123.492 45.9883C123.884 47.5088 124.959 48.6507 126.499 49.1857C126.958 49.3453 127.161 49.3687 128.408 49.4067C129.646 49.4443 129.822 49.4643 129.954 49.583C130.176 49.7817 130.153 50.1374 129.908 50.329C129.719 50.4764 129.666 50.4804 128.327 50.4495C126.741 50.4129 126.425 50.3498 125.45 49.8747C124.307 49.3186 123.399 48.4313 122.868 47.3541C122.831 47.2809 122.798 47.2148 122.767 47.1529C122.705 47.0312 122.651 46.9262 122.606 46.8182C122.322 46.1511 122.322 45.3624 122.323 39.7038C122.324 39.2388 122.324 38.7408 122.324 38.2074V30.5488L122.483 29.9516C122.694 29.1543 123.262 28.037 123.774 27.4077C124.428 26.6052 135.185 16.0331 135.68 15.7074ZM137.124 16.4406C137.235 16.2782 137.349 16.1058 137.377 16.0575C137.406 16.0092 137.419 15.9701 137.407 15.9706C137.335 15.9735 136.531 16.4087 136.239 16.6026C135.786 16.9044 125.012 27.5313 124.558 28.1249C124.194 28.6006 123.743 29.3763 123.798 29.4312C123.816 29.4485 124.02 29.3378 124.251 29.1852C124.482 29.0324 124.927 28.8196 125.239 28.7122L125.805 28.517L129.322 28.4734C131.859 28.4419 132.917 28.405 133.122 28.3406C134.229 27.9932 135.373 27.0672 135.879 26.1083C136.401 25.1181 136.426 24.9106 136.426 21.4801C136.426 18.2587 136.463 17.7854 136.774 17.0729C136.855 16.8875 137.012 16.6029 137.124 16.4406Z" fill="url(#paint11_linear_486_2964)"/>
<path d="M141.039 23.2333C140.804 22.9385 140.88 22.5624 141.199 22.4354C141.439 22.3397 149.213 22.3477 149.427 22.444C149.787 22.6063 149.82 23.1636 149.479 23.344C149.386 23.393 148.343 23.4185 146.426 23.4185H141.186L141.039 23.2333Z" fill="url(#paint12_linear_486_2964)"/>
<path d="M141.037 19.5334C140.718 19.6605 140.643 20.0366 140.878 20.3315L141.025 20.5166L146.265 20.5167C148.182 20.5167 149.225 20.4911 149.318 20.4421C149.659 20.2617 149.626 19.7045 149.266 19.5421C149.052 19.4457 141.278 19.4378 141.037 19.5334Z" fill="url(#paint13_linear_486_2964)"/>
<path d="M142.134 35.5273C142.045 35.5632 141.12 36.4149 139.58 37.876L137.164 40.1683L136.147 39.2092C135.588 38.6818 135.077 38.2242 135.011 38.1924C134.605 37.9969 134.148 38.1375 133.946 38.5197C133.828 38.7439 133.821 38.9507 133.926 39.1562C133.976 39.2549 134.488 39.7665 135.376 40.606C136.458 41.629 136.78 41.9132 136.901 41.9501C137.102 42.0113 137.407 41.9754 137.568 41.8715C137.758 41.7489 142.949 36.8247 143.093 36.6296C143.203 36.481 143.219 36.4312 143.219 36.2112C143.219 35.9941 143.203 35.9407 143.1 35.8019C142.881 35.5057 142.472 35.3894 142.134 35.5273Z" fill="url(#paint14_linear_486_2964)"/>
<path fill-rule="evenodd" clip-rule="evenodd" d="M138.535 47.0436C143.112 47.0436 146.821 43.3191 146.821 38.7248C146.821 34.1304 143.112 30.406 138.535 30.406C133.959 30.406 130.249 34.1304 130.249 38.7248C130.249 43.3191 133.959 47.0436 138.535 47.0436ZM138.535 45.5969C142.316 45.5969 145.38 42.5201 145.38 38.7248C145.38 34.9295 142.316 31.8528 138.535 31.8528C134.755 31.8528 131.69 34.9295 131.69 38.7248C131.69 42.5201 134.755 45.5969 138.535 45.5969Z" fill="url(#paint15_linear_486_2964)"/>
</g>
</g>
<defs>
<filter id="filter0_d_486_2964" x="-2.4917" y="69.2979" width="168.983" height="48" filterUnits="userSpaceOnUse" color-interpolation-filters="sRGB">
<feFlood flood-opacity="0" result="BackgroundImageFix"/>
<feColorMatrix in="SourceAlpha" type="matrix" values="0 0 0 0 0 0 0 0 0 0 0 0 0 0 0 0 0 0 127 0" result="hardAlpha"/>
<feOffset dy="4"/>
<feGaussianBlur stdDeviation="10"/>
<feComposite in2="hardAlpha" operator="out"/>
<feColorMatrix type="matrix" values="0 0 0 0 0.298039 0 0 0 0 0.984314 0 0 0 0 0.992157 0 0 0 0.3 0"/>
<feBlend mode="normal" in2="BackgroundImageFix" result="effect1_dropShadow_486_2964"/>
<feBlend mode="normal" in="SourceGraphic" in2="effect1_dropShadow_486_2964" result="shape"/>
</filter>
<filter id="filter1_d_486_2964" x="53.4346" y="66.0529" width="54.4424" height="54.4899" filterUnits="userSpaceOnUse" color-interpolation-filters="sRGB">
<feFlood flood-opacity="0" result="BackgroundImageFix"/>
<feColorMatrix in="SourceAlpha" type="matrix" values="0 0 0 0 0 0 0 0 0 0 0 0 0 0 0 0 0 0 127 0" result="hardAlpha"/>
<feOffset dy="4"/>
<feGaussianBlur stdDeviation="10"/>
<feComposite in2="hardAlpha" operator="out"/>
<feColorMatrix type="matrix" values="0 0 0 0 0.145098 0 0 0 0 0.94902 0 0 0 0 0.94902 0 0 0 0.5 0"/>
<feBlend mode="normal" in2="BackgroundImageFix" result="effect1_dropShadow_486_2964"/>
<feBlend mode="normal" in="SourceGraphic" in2="effect1_dropShadow_486_2964" result="shape"/>
</filter>
<filter id="filter2_d_486_2964" x="58.2656" y="70.8997" width="44.7798" height="44.7964" filterUnits="userSpaceOnUse" color-interpolation-filters="sRGB">
<feFlood flood-opacity="0" result="BackgroundImageFix"/>
<feColorMatrix in="SourceAlpha" type="matrix" values="0 0 0 0 0 0 0 0 0 0 0 0 0 0 0 0 0 0 127 0" result="hardAlpha"/>
<feOffset dy="4"/>
<feGaussianBlur stdDeviation="10"/>
<feComposite in2="hardAlpha" operator="out"/>
<feColorMatrix type="matrix" values="0 0 0 0 0.145098 0 0 0 0 0.94902 0 0 0 0 0.94902 0 0 0 0.2 0"/>
<feBlend mode="normal" in2="BackgroundImageFix" result="effect1_dropShadow_486_2964"/>
<feBlend mode="normal" in="SourceGraphic" in2="effect1_dropShadow_486_2964" result="shape"/>
</filter>
<filter id="filter3_f_486_2964" x="102.377" y="110.716" width="23.3823" height="23.4346" filterUnits="userSpaceOnUse" color-interpolation-filters="sRGB">
<feFlood flood-opacity="0" result="BackgroundImageFix"/>
<feBlend mode="normal" in="SourceGraphic" in2="BackgroundImageFix" result="shape"/>
<feGaussianBlur stdDeviation="2" result="effect1_foregroundBlur_486_2964"/>
</filter>
<filter id="filter4_d_486_2964" x="57.1758" y="8.49179" width="47.8472" height="47.9731" filterUnits="userSpaceOnUse" color-interpolation-filters="sRGB">
<feFlood flood-opacity="0" result="BackgroundImageFix"/>
<feColorMatrix in="SourceAlpha" type="matrix" values="0 0 0 0 0 0 0 0 0 0 0 0 0 0 0 0 0 0 127 0" result="hardAlpha"/>
<feOffset/>
<feGaussianBlur stdDeviation="3"/>
<feComposite in2="hardAlpha" operator="out"/>
<feColorMatrix type="matrix" values="0 0 0 0 0.786877 0 0 0 0 0.583333 0 0 0 0 1 0 0 0 1 0"/>
<feBlend mode="normal" in2="BackgroundImageFix" result="effect1_dropShadow_486_2964"/>
<feBlend mode="normal" in="SourceGraphic" in2="effect1_dropShadow_486_2964" result="shape"/>
</filter>
<filter id="filter5_d_486_2964" x="4.30176" y="8.49179" width="43.3662" height="47.9731" filterUnits="userSpaceOnUse" color-interpolation-filters="sRGB">
<feFlood flood-opacity="0" result="BackgroundImageFix"/>
<feColorMatrix in="SourceAlpha" type="matrix" values="0 0 0 0 0 0 0 0 0 0 0 0 0 0 0 0 0 0 127 0" result="hardAlpha"/>
<feOffset/>
<feGaussianBlur stdDeviation="3"/>
<feComposite in2="hardAlpha" operator="out"/>
<feColorMatrix type="matrix" values="0 0 0 0 0.786877 0 0 0 0 0.583333 0 0 0 0 1 0 0 0 1 0"/>
<feBlend mode="normal" in2="BackgroundImageFix" result="effect1_dropShadow_486_2964"/>
<feBlend mode="normal" in="SourceGraphic" in2="effect1_dropShadow_486_2964" result="shape"/>
</filter>
<filter id="filter6_d_486_2964" x="116.323" y="8.49179" width="43.3662" height="47.9731" filterUnits="userSpaceOnUse" color-interpolation-filters="sRGB">
<feFlood flood-opacity="0" result="BackgroundImageFix"/>
<feColorMatrix in="SourceAlpha" type="matrix" values="0 0 0 0 0 0 0 0 0 0 0 0 0 0 0 0 0 0 127 0" result="hardAlpha"/>
<feOffset/>
<feGaussianBlur stdDeviation="3"/>
<feComposite in2="hardAlpha" operator="out"/>
<feColorMatrix type="matrix" values="0 0 0 0 0.786877 0 0 0 0 0.583333 0 0 0 0 1 0 0 0 1 0"/>
<feBlend mode="normal" in2="BackgroundImageFix" result="effect1_dropShadow_486_2964"/>
<feBlend mode="normal" in="SourceGraphic" in2="effect1_dropShadow_486_2964" result="shape"/>
</filter>
<linearGradient id="paint0_linear_486_2964" x1="-nan" y1="-nan" x2="-nan" y2="-nan" gradientUnits="userSpaceOnUse">
<stop stop-color="#24F2F2"/>
<stop offset="1" stop-color="#2D8BFE"/>
</linearGradient>
<linearGradient id="paint1_linear_486_2964" x1="-nan" y1="-nan" x2="-nan" y2="-nan" gradientUnits="userSpaceOnUse">
<stop stop-color="#50FFFE"/>
<stop offset="1" stop-color="#30B7EF"/>
</linearGradient>
<linearGradient id="paint2_linear_486_2964" x1="74.0838" y1="88.9981" x2="87.5264" y2="88.9981" gradientUnits="userSpaceOnUse">
<stop stop-color="#36F8F8"/>
<stop offset="1" stop-color="#39F8F8"/>
</linearGradient>
<linearGradient id="paint3_linear_486_2964" x1="80.6559" y1="82.1033" x2="80.6559" y2="101.289" gradientUnits="userSpaceOnUse">
<stop offset="0.326305" stop-color="white"/>
<stop offset="1" stop-color="white" stop-opacity="0"/>
</linearGradient>
<linearGradient id="paint4_linear_486_2964" x1="75.1479" y1="111.331" x2="80.2436" y2="127.133" gradientUnits="userSpaceOnUse">
<stop stop-color="#24F2F2"/>
<stop offset="1" stop-color="#2D8BFE"/>
</linearGradient>
<linearGradient id="paint5_linear_486_2964" x1="118.774" y1="127.532" x2="107.137" y2="123.723" gradientUnits="userSpaceOnUse">
<stop stop-color="#FFC399"/>
<stop offset="1" stop-color="#C48BFF"/>
</linearGradient>
<linearGradient id="paint6_linear_486_2964" x1="119.914" y1="128.768" x2="105.456" y2="124.037" gradientUnits="userSpaceOnUse">
<stop stop-color="#FFC399"/>
<stop offset="1" stop-color="#C48BFF"/>
</linearGradient>
<linearGradient id="paint7_linear_486_2964" x1="117.03" y1="125.078" x2="109.885" y2="122.386" gradientUnits="userSpaceOnUse">
<stop stop-color="#FFC399"/>
<stop offset="1" stop-color="#C48BFF"/>
</linearGradient>
<linearGradient id="paint8_linear_486_2964" x1="94.7694" y1="47.2908" x2="60.9625" y2="36.227" gradientUnits="userSpaceOnUse">
<stop stop-color="#FFC399"/>
<stop offset="1" stop-color="#C48BFF"/>
</linearGradient>
<linearGradient id="paint9_linear_486_2964" x1="37.9465" y1="47.2908" x2="7.67886" y2="38.6236" gradientUnits="userSpaceOnUse">
<stop stop-color="#FFC399"/>
<stop offset="1" stop-color="#C48BFF"/>
</linearGradient>
<linearGradient id="paint10_linear_486_2964" x1="37.9465" y1="47.2909" x2="7.67891" y2="38.6237" gradientUnits="userSpaceOnUse">
<stop stop-color="#FFC399"/>
<stop offset="1" stop-color="#C48BFF"/>
</linearGradient>
<linearGradient id="paint11_linear_486_2964" x1="149.969" y1="47.2908" x2="119.7" y2="38.6236" gradientUnits="userSpaceOnUse">
<stop stop-color="#FFC399"/>
<stop offset="1" stop-color="#C48BFF"/>
</linearGradient>
<linearGradient id="paint12_linear_486_2964" x1="149.969" y1="47.2909" x2="119.7" y2="38.6237" gradientUnits="userSpaceOnUse">
<stop stop-color="#FFC399"/>
<stop offset="1" stop-color="#C48BFF"/>
</linearGradient>
<linearGradient id="paint13_linear_486_2964" x1="149.969" y1="47.2909" x2="119.7" y2="38.6236" gradientUnits="userSpaceOnUse">
<stop stop-color="#FFC399"/>
<stop offset="1" stop-color="#C48BFF"/>
</linearGradient>
<linearGradient id="paint14_linear_486_2964" x1="149.969" y1="47.2909" x2="119.7" y2="38.6236" gradientUnits="userSpaceOnUse">
<stop stop-color="#FFC399"/>
<stop offset="1" stop-color="#C48BFF"/>
</linearGradient>
<linearGradient id="paint15_linear_486_2964" x1="149.968" y1="47.2908" x2="119.7" y2="38.6236" gradientUnits="userSpaceOnUse">
<stop stop-color="#FFC399"/>
<stop offset="1" stop-color="#C48BFF"/>
</linearGradient>
<clipPath id="clip0_486_2964">
<rect width="164" height="134" fill="white"/>
</clipPath>
</defs>
</svg>
