<svg width="16" height="16" viewBox="0 0 16 16" fill="none" xmlns="http://www.w3.org/2000/svg">
<path fill-rule="evenodd" clip-rule="evenodd" d="M3.77194 2.30263C4.10928 2.18263 4.45194 2.16663 4.73528 2.16663H5.14328C5.83194 2.16663 6.50328 2.37996 7.06528 2.77796L7.39994 3.01463C7.57546 3.1386 7.78506 3.20516 7.99994 3.20516C8.21482 3.20516 8.42443 3.1386 8.59994 3.01463L8.93461 2.77796C9.49678 2.3806 10.1682 2.16704 10.8566 2.16663H11.2646C11.5486 2.16663 11.8913 2.18263 12.2279 2.30263C13.1899 2.64396 13.9506 3.42796 14.4519 4.69663C14.9479 5.95263 15.2026 7.70996 15.1626 10.0766C15.1539 10.5766 15.0919 11.1366 14.8993 11.6406C14.7053 12.152 14.3646 12.634 13.7926 12.9073C13.4356 13.0787 13.0446 13.1673 12.6486 13.1666C12.1897 13.1722 11.7394 13.0423 11.3539 12.7933C11.0393 12.5866 10.7639 12.32 10.5286 12.092L10.4439 12.0106C10.1746 11.7506 9.94728 11.5486 9.69528 11.4173C9.37734 11.2527 9.0246 11.1668 8.66661 11.1666H7.33328C6.975 11.1669 6.62202 11.2531 6.30394 11.418C6.05194 11.5486 5.82461 11.7513 5.55528 12.0113L5.47061 12.0926C5.23528 12.32 4.95994 12.5873 4.64528 12.794C4.25975 13.0428 3.80942 13.1724 3.35061 13.1666C2.95458 13.1671 2.56354 13.0782 2.20661 12.9066C1.63394 12.6333 1.29394 12.152 1.09994 11.6406C0.907275 11.1366 0.845275 10.5766 0.836609 10.0766C0.796609 7.70996 1.05128 5.95263 1.54728 4.69663C2.04861 3.42796 2.80994 2.64329 3.77194 2.30263ZM4.73528 3.16663C4.47928 3.16663 4.27728 3.18463 4.10661 3.24463C3.47994 3.46729 2.90061 3.99463 2.47794 5.06463C2.05061 6.14663 1.79794 7.75529 1.83728 10.06C1.84461 10.5013 1.90061 10.932 2.03461 11.2846C2.16661 11.6313 2.36128 11.8726 2.63861 12.0046C2.8608 12.112 3.10451 12.1674 3.35128 12.1666C3.67461 12.1666 3.91661 12.076 4.09794 11.9573C4.32794 11.806 4.53328 11.6086 4.77928 11.3706L4.86194 11.2906C5.12928 11.0333 5.44861 10.7346 5.84394 10.5306C6.30432 10.2918 6.8153 10.167 7.33394 10.1666H8.66661C9.18528 10.1666 9.69594 10.2913 10.1566 10.53C10.5513 10.7346 10.8713 11.0333 11.1386 11.29L11.2213 11.37C11.4679 11.6086 11.6726 11.806 11.9033 11.9566C12.0839 12.076 12.3259 12.1666 12.6499 12.1666C12.9213 12.1666 13.1579 12.1026 13.3619 12.0053C13.6393 11.872 13.8339 11.6313 13.9659 11.2853C14.0999 10.932 14.1559 10.5013 14.1633 10.06C14.2019 7.75529 13.9499 6.14663 13.5226 5.06396C13.0999 3.99463 12.5206 3.46729 11.8939 3.24463C11.7233 3.18463 11.5206 3.16663 11.2653 3.16663H10.8573C10.3759 3.16663 9.90594 3.31596 9.51261 3.59396L9.17794 3.83129C8.83358 4.07465 8.42228 4.20531 8.00061 4.20531C7.57894 4.20531 7.16763 4.07465 6.82328 3.83129L6.48861 3.59396C6.09523 3.31616 5.62552 3.16689 5.14394 3.16663H4.73528ZM4.99994 5.49996C5.13255 5.49996 5.25973 5.55264 5.3535 5.64641C5.44726 5.74017 5.49994 5.86735 5.49994 5.99996V6.49996H5.99994C6.13255 6.49996 6.25973 6.55264 6.3535 6.64641C6.44726 6.74017 6.49994 6.86735 6.49994 6.99996C6.49994 7.13257 6.44726 7.25974 6.3535 7.35351C6.25973 7.44728 6.13255 7.49996 5.99994 7.49996H5.49994V7.99996C5.49994 8.13257 5.44726 8.25974 5.3535 8.35351C5.25973 8.44728 5.13255 8.49996 4.99994 8.49996C4.86733 8.49996 4.74016 8.44728 4.64639 8.35351C4.55262 8.25974 4.49994 8.13257 4.49994 7.99996V7.49996H3.99994C3.86733 7.49996 3.74016 7.44728 3.64639 7.35351C3.55262 7.25974 3.49994 7.13257 3.49994 6.99996C3.49994 6.86735 3.55262 6.74017 3.64639 6.64641C3.74016 6.55264 3.86733 6.49996 3.99994 6.49996H4.49994V5.99996C4.49994 5.86735 4.55262 5.74017 4.64639 5.64641C4.74016 5.55264 4.86733 5.49996 4.99994 5.49996Z" fill="#A7B5CA"/>
<path d="M12.6667 6.83337C12.6667 6.96598 12.6141 7.09316 12.5203 7.18693C12.4265 7.2807 12.2994 7.33337 12.1667 7.33337C12.0341 7.33337 11.907 7.2807 11.8132 7.18693C11.7194 7.09316 11.6667 6.96598 11.6667 6.83337C11.6667 6.70077 11.7194 6.57359 11.8132 6.47982C11.907 6.38605 12.0341 6.33337 12.1667 6.33337C12.2994 6.33337 12.4265 6.38605 12.5203 6.47982C12.6141 6.57359 12.6667 6.70077 12.6667 6.83337ZM10.6667 6.83337C10.6667 6.96598 10.6141 7.09316 10.5203 7.18693C10.4265 7.2807 10.2994 7.33337 10.1667 7.33337C10.0341 7.33337 9.90696 7.2807 9.81319 7.18693C9.71943 7.09316 9.66675 6.96598 9.66675 6.83337C9.66675 6.70077 9.71943 6.57359 9.81319 6.47982C9.90696 6.38605 10.0341 6.33337 10.1667 6.33337C10.2994 6.33337 10.4265 6.38605 10.5203 6.47982C10.6141 6.57359 10.6667 6.70077 10.6667 6.83337ZM11.1667 5.33337C11.2994 5.33337 11.4265 5.38605 11.5203 5.47982C11.6141 5.57359 11.6667 5.70077 11.6667 5.83337C11.6667 5.96598 11.6141 6.09316 11.5203 6.18693C11.4265 6.2807 11.2994 6.33337 11.1667 6.33337C11.0341 6.33337 10.907 6.2807 10.8132 6.18693C10.7194 6.09316 10.6667 5.96598 10.6667 5.83337C10.6667 5.70077 10.7194 5.57359 10.8132 5.47982C10.907 5.38605 11.0341 5.33337 11.1667 5.33337ZM11.1667 7.33337C11.2324 7.33337 11.2974 7.34631 11.3581 7.37143C11.4188 7.39656 11.4739 7.43339 11.5203 7.47982C11.5667 7.52625 11.6036 7.58137 11.6287 7.64203C11.6538 7.70269 11.6667 7.76771 11.6667 7.83337C11.6667 7.89903 11.6538 7.96405 11.6287 8.02472C11.6036 8.08538 11.5667 8.1405 11.5203 8.18693C11.4739 8.23336 11.4188 8.27019 11.3581 8.29531C11.2974 8.32044 11.2324 8.33337 11.1667 8.33337C11.0341 8.33337 10.907 8.2807 10.8132 8.18693C10.7194 8.09316 10.6667 7.96598 10.6667 7.83337C10.6667 7.70077 10.7194 7.57359 10.8132 7.47982C10.907 7.38605 11.0341 7.33337 11.1667 7.33337Z" fill="#A7B5CA"/>
</svg>
