<svg width="92" height="118" viewBox="0 0 92 118" fill="none" xmlns="http://www.w3.org/2000/svg">
<g filter="url(#filter0_d_486_2092)">
<path d="M47.7361 1.73529C21.8516 1.73529 0.868164 22.712 0.868164 48.5882C0.868164 74.4644 21.8516 95.4412 47.7361 95.4412V1.73529Z" stroke="#A34EFC"/>
<path d="M41.4126 50.0054L46.8683 46.9334V52.3302L40.5478 56.008L40.5431 56.0106L31.064 61.4499C29.9728 62.0383 28.7225 62.0168 27.7934 61.4627L27.7792 61.4544L13.7834 53.4642L13.7671 53.455C12.722 52.8879 12.1514 51.858 12.1514 50.7063V34.6049C12.1514 33.4518 12.7221 32.4222 13.7667 31.856L13.7834 31.8466L27.7704 23.8615C28.8622 23.2729 30.1131 23.2944 31.0421 23.8483L31.0504 23.8532L44.8013 31.8433L44.8119 31.8496L44.8228 31.8555C45.8673 32.4231 46.4379 33.4521 46.4379 34.6049V39.6737L41.7238 42.4165V38.3564C41.7238 36.5637 40.6818 34.9643 39.232 34.0999L39.2179 34.0917L31.7946 29.8543L31.7781 29.8451C30.1974 28.9876 28.2911 28.966 26.7891 29.8582L19.3803 34.0872C17.7514 34.9752 16.8654 36.605 16.8654 38.3564V46.9529C16.8654 48.7456 17.9092 50.3449 19.3583 51.2092L19.3687 51.2153L26.9146 55.5738L26.9347 55.5853C28.5173 56.4437 30.4259 56.4644 31.9288 55.5693C31.9296 55.5688 31.9305 55.5683 31.9314 55.5677L41.4126 50.0054ZM43.4782 70.535L43.4623 70.5262C42.4185 69.9591 41.8478 68.9288 41.8478 67.7771V62.7068L46.5614 59.9639V64.0244C46.5614 64.6041 46.6715 65.1655 46.8683 65.6864V72.4704L43.4782 70.535Z" stroke="#A34EFC"/>
<path fill-rule="evenodd" clip-rule="evenodd" d="M47.7363 81.5588C64.9926 81.5588 78.9816 67.5743 78.9816 50.3236C78.9816 33.0728 64.9926 19.0883 47.7363 19.0883V20.8236C64.0339 20.8236 77.2458 34.0312 77.2458 50.3236C77.2458 66.6159 64.0339 79.8236 47.7363 79.8236V81.5588Z" fill="#18F3FF"/>
<path fill-rule="evenodd" clip-rule="evenodd" d="M47.7363 71.1471C59.2405 71.1471 68.5665 61.824 68.5665 50.3235C68.5665 38.823 59.2405 29.5 47.7363 29.5V31.2353C58.2818 31.2353 66.8307 39.7814 66.8307 50.3235C66.8307 60.8656 58.2818 69.4118 47.7363 69.4118V71.1471Z" fill="#18F3FF"/>
<path fill-rule="evenodd" clip-rule="evenodd" d="M53.0035 12.0382L48.1914 19.7937L49.6665 20.7083L53.902 13.8823H66.8306V12.147H53.179L53.0035 12.0382Z" fill="#18F3FF"/>
<path d="M71.17 18.2206C74.046 18.2206 76.3775 15.8898 76.3775 13.0147C76.3775 10.1396 74.046 7.80884 71.17 7.80884C68.2939 7.80884 65.9624 10.1396 65.9624 13.0147C65.9624 15.8898 68.2939 18.2206 71.17 18.2206Z" stroke="#18F3FF"/>
<path fill-rule="evenodd" clip-rule="evenodd" d="M52.5484 88.4936L47.7363 80.7382L49.2115 79.8235L53.4469 86.6495H66.3755V88.3848H52.7239L52.5484 88.4936Z" fill="#18F3FF"/>
<path d="M70.7149 82.3113C73.5909 82.3113 75.9224 84.642 75.9224 87.5171C75.9224 90.3923 73.5909 92.723 70.7149 92.723C67.8388 92.723 65.5073 90.3923 65.5073 87.5171C65.5073 84.642 67.8388 82.3113 70.7149 82.3113Z" stroke="#18F3FF"/>
</g>
<defs>
<filter id="filter0_d_486_2092" x="0.368164" y="1.23529" width="85.6133" height="106.706" filterUnits="userSpaceOnUse" color-interpolation-filters="sRGB">
<feFlood flood-opacity="0" result="BackgroundImageFix"/>
<feColorMatrix in="SourceAlpha" type="matrix" values="0 0 0 0 0 0 0 0 0 0 0 0 0 0 0 0 0 0 127 0" result="hardAlpha"/>
<feOffset dx="5" dy="10"/>
<feGaussianBlur stdDeviation="1"/>
<feComposite in2="hardAlpha" operator="out"/>
<feColorMatrix type="matrix" values="0 0 0 0 0 0 0 0 0 0 0 0 0 0 0 0 0 0 0.75 0"/>
<feBlend mode="normal" in2="BackgroundImageFix" result="effect1_dropShadow_486_2092"/>
<feBlend mode="normal" in="SourceGraphic" in2="effect1_dropShadow_486_2092" result="shape"/>
</filter>
</defs>
</svg>
