<svg width="74" height="74" viewBox="0 0 74 74" fill="none" xmlns="http://www.w3.org/2000/svg">
<g clip-path="url(#clip0_486_3105)">
<path d="M66.63 0.462402H7.67064C3.93261 0.462402 0.902344 3.56843 0.902344 7.3999V66.5999C0.902344 70.4314 3.93261 73.5374 7.67064 73.5374H66.63C70.368 73.5374 73.3982 70.4314 73.3982 66.5999V7.3999C73.3982 3.56843 70.368 0.462402 66.63 0.462402Z" fill="#030110" stroke="url(#paint0_linear_486_3105)"/>
<path fill-rule="evenodd" clip-rule="evenodd" d="M22.3969 26.4591L27.8743 20.8295H27.8823C27.8409 20.6397 27.7636 20.4239 27.677 20.1819C27.3297 19.2119 26.8325 17.823 27.8982 16.0193C30.617 11.4223 38.2232 14.7738 35.361 20.8049L40.7985 26.4344C41.1486 26.3631 41.3924 26.2589 41.6321 26.1565C42.0256 25.9883 42.4077 25.825 43.2303 25.8199C44.1179 25.8143 44.4875 25.9711 44.9377 26.1622C45.1506 26.2525 45.3815 26.3506 45.694 26.4427L51.1395 20.8622C51.0739 20.6506 51.0007 20.4446 50.9278 20.2393C50.6194 19.3715 50.3152 18.5153 50.6053 17.2894C51.4823 13.5938 55.8674 12.9546 57.9883 15.2081C61.2014 18.6251 57.8766 24.6399 52.479 22.1733L46.9935 27.8685C47.0317 27.9839 47.0696 28.097 47.1066 28.2078C47.6364 29.7877 48.0196 30.9307 46.9616 32.6458C46.2361 33.8258 45.0242 34.8174 43.0708 34.7682C40.2006 34.6944 37.713 31.7772 39.5149 27.8848C39.1663 27.3445 38.2487 26.4442 37.5112 25.7206C37.2535 25.4677 37.0176 25.2364 36.8359 25.0496C36.6248 24.8348 36.3785 24.5935 36.1189 24.3393C35.3984 23.6337 34.5765 22.8288 34.1252 22.2143C33.7746 22.2813 33.5039 22.394 33.2329 22.5069C32.8072 22.6842 32.3812 22.8616 31.6455 22.8616C30.8189 22.8616 30.4155 22.6884 29.9754 22.4993C29.7321 22.3948 29.4775 22.2855 29.134 22.1979C28.9539 22.5638 27.6409 23.8688 26.3431 25.1586C25.2284 26.2665 24.125 27.3631 23.7602 27.8439C23.833 28.0593 23.9094 28.2597 23.9834 28.4534C24.3146 29.321 24.5949 30.0554 24.2625 31.4085C23.9915 32.5311 23.3536 33.3752 22.6998 33.8668C18.3307 37.1692 13.483 31.22 16.6324 27.4669C17.1107 26.9016 17.9878 26.1312 19.0721 25.91C20.3528 25.6441 20.9496 25.8863 21.7276 26.2019C21.9328 26.2852 22.1506 26.3736 22.3969 26.4591ZM40.8384 30.8512C40.2563 27.2785 45.104 26.7294 45.662 29.7778C46.2999 33.244 41.3247 33.8176 40.8384 30.8512ZM22.3888 31.007C21.472 34.1208 16.6084 32.8835 17.6848 29.4992C18.6655 26.4017 23.3297 27.8029 22.3888 31.007ZM34.0055 17.6336C33.7025 16.5273 32.4827 15.5522 31.0555 15.9292L31.0634 15.921C27.7627 16.7978 29.1819 21.7637 32.379 20.7967C33.5192 20.4525 34.4121 19.1332 34.0055 17.6336ZM54.3207 15.9046C57.5258 15.1179 58.4587 20.01 55.5326 20.813C52.3035 21.6981 51.0278 16.7158 54.3207 15.9046Z" fill="url(#paint1_linear_486_3105)"/>
<path fill-rule="evenodd" clip-rule="evenodd" d="M24.3982 58.065L27.2445 58.0814L27.2525 58.0978V38.6851C27.2525 38.1103 27.2444 37.6141 27.2374 37.1858C27.1944 34.5486 27.1934 34.4836 29.3813 34.4978C30.6662 34.5067 31.7041 34.489 32.5424 34.4749C34.5704 34.4405 35.4297 34.4259 35.7901 34.8541C36.055 35.1689 36.0502 35.723 36.042 36.6844C36.0404 36.8664 36.0387 37.0632 36.0387 37.2757V40.406C36.0387 40.5655 36.0449 40.7686 36.0517 40.9948C36.078 41.861 36.1145 43.0662 35.8553 43.4625C35.3929 44.1754 34.2927 43.9378 34.1332 42.8971C33.9852 41.9551 34.0364 39.885 34.0777 38.2113C34.0942 37.5411 34.1093 36.9343 34.1093 36.4891H29.1899V58.0978H34.1093V54.0251C34.1093 53.6849 34.0958 53.3838 34.0836 53.1105C34.0402 52.1398 34.0124 51.5193 34.6594 50.7391C36.1731 50.644 36.125 51.6416 36.0643 52.9006C36.0518 53.1601 36.0387 53.431 36.0387 53.7055C36.0387 55.1642 36.0387 56.6309 36.0467 58.0896H38.8691V48.3873C38.8691 47.5335 38.8467 46.8235 38.8281 46.2336C38.7842 44.843 38.7613 44.1185 39.1026 43.7449C39.4735 43.3387 40.2749 43.3469 41.9474 43.364C42.3303 43.368 42.7589 43.3723 43.2384 43.3723C43.6419 43.3723 44.0098 43.3698 44.3449 43.3674C46.1519 43.355 47.0093 43.349 47.4022 43.7847C47.7569 44.1779 47.7333 44.9309 47.6886 46.3634C47.6699 46.9631 47.6474 47.6818 47.6474 48.543V58.0978L50.4938 58.0322V36.9561C50.4938 36.7887 50.4898 36.6243 50.486 36.4649C50.4604 35.4074 50.4401 34.5679 51.618 34.4896C52.2959 34.4398 53.1117 34.4572 53.8891 34.4738C54.2638 34.4818 54.6296 34.4896 54.9667 34.4896C55.568 34.4896 56.0848 34.4811 56.5288 34.4737C57.9763 34.4497 58.651 34.4385 58.9633 34.7784C59.2359 35.0751 59.2325 35.6393 59.2262 36.696C59.2254 36.8244 59.2245 36.9603 59.2242 37.1036V58.0814C59.3753 58.0814 59.5439 58.0724 59.7203 58.063C60.3352 58.0304 61.046 57.9925 61.4487 58.3108C62.0147 58.7533 61.8792 59.4908 61.3769 59.8268C60.7549 60.2373 46.8907 60.1173 40.4157 60.0612H40.4143C39.005 60.049 37.9459 60.0398 37.45 60.0398C36.9489 60.0398 35.8775 60.0494 34.4527 60.0621C27.9642 60.12 14.1506 60.2433 13.523 59.8268C12.9569 59.4499 12.9171 58.6222 13.5389 58.2452C13.9408 58.0012 14.5938 58.0343 15.1711 58.0637C15.3497 58.0726 15.5213 58.0814 15.6757 58.0814C15.6757 56.7436 15.6766 55.4048 15.6775 54.0658C15.6792 51.3863 15.681 48.7045 15.6757 46.0274C15.6689 43.2856 15.7559 43.2881 17.7242 43.3441C18.0501 43.3534 18.4276 43.3642 18.8649 43.3642H23.29C23.9247 43.4131 23.9751 43.4945 24.1956 43.8508L24.1988 43.8558C24.5685 44.3824 24.4686 52.1984 24.4185 56.1184C24.407 57.0167 24.3982 57.7105 24.3982 58.065ZM56.7844 36.4727H52.3594L52.3515 58.0814L56.7844 58.0896L57.3426 58.024V36.5136L56.7844 36.4727ZM45.71 45.339H40.7906V58.0814H45.71V45.339ZM22.5245 58.0814L22.5006 45.4619C22.4135 45.3856 22.3914 45.3439 22.3794 45.3211C22.3748 45.3126 22.3717 45.3067 22.367 45.3026C22.3569 45.2938 22.3394 45.2938 22.2836 45.2938C22.2223 45.2938 22.1144 45.2937 21.9186 45.2816L17.5733 45.3308C17.358 46.0513 17.4132 48.7558 17.4496 50.5454C17.4559 50.851 17.4616 51.1298 17.4653 51.3676C17.4617 51.135 17.4565 50.8637 17.4508 50.5669C17.4162 48.7773 17.3636 46.0613 17.5732 45.3391L21.9185 45.2899C22.1143 45.3019 22.2222 45.3019 22.2836 45.302C22.3393 45.302 22.3568 45.302 22.3669 45.3109C22.3716 45.3149 22.3747 45.3209 22.3793 45.3294C22.3913 45.3521 22.4134 45.3938 22.5005 45.4702H17.6131V58.0895L22.5245 58.0814ZM17.4598 52.4336C17.4499 52.9429 17.4355 53.6911 17.4299 54.4793C17.4354 53.6842 17.45 52.929 17.4599 52.4182C17.4646 52.1753 17.4682 51.9875 17.4693 51.8772C17.4683 51.9879 17.4646 52.1815 17.4598 52.4336Z" fill="url(#paint2_linear_486_3105)"/>
<path d="M34.6591 48.2071C36.1979 48.3137 36.3094 47.2812 35.5122 46.3552C33.9495 46.1913 33.798 47.2402 34.6591 48.2071Z" fill="url(#paint3_linear_486_3105)"/>
</g>
<defs>
<linearGradient id="paint0_linear_486_3105" x1="37.1503" y1="-9.63904e-05" x2="59.819" y2="74.0591" gradientUnits="userSpaceOnUse">
<stop stop-color="#A34EFC"/>
<stop offset="0.620002" stop-color="#2D8BFE"/>
<stop offset="1" stop-color="#AE6EEA"/>
</linearGradient>
<linearGradient id="paint1_linear_486_3105" x1="37.4513" y1="13.875" x2="62.3591" y2="38.2352" gradientUnits="userSpaceOnUse">
<stop stop-color="#A34EFC"/>
<stop offset="1" stop-color="#D855E8"/>
</linearGradient>
<linearGradient id="paint2_linear_486_3105" x1="37.4513" y1="13.875" x2="62.3592" y2="38.2352" gradientUnits="userSpaceOnUse">
<stop stop-color="#A34EFC"/>
<stop offset="1" stop-color="#D855E8"/>
</linearGradient>
<linearGradient id="paint3_linear_486_3105" x1="37.451" y1="13.8751" x2="62.3589" y2="38.2353" gradientUnits="userSpaceOnUse">
<stop stop-color="#A34EFC"/>
<stop offset="1" stop-color="#D855E8"/>
</linearGradient>
<clipPath id="clip0_486_3105">
<rect width="74" height="74" fill="white"/>
</clipPath>
</defs>
</svg>
