<svg width="74" height="72" viewBox="0 0 74 72" fill="none" xmlns="http://www.w3.org/2000/svg">
<g clip-path="url(#clip0_486_3112)">
<path opacity="0.975" fill-rule="evenodd" clip-rule="evenodd" d="M5.51759 -0.108154C18.2837 -0.108154 31.0498 -0.108154 43.8158 -0.108154C43.1094 0.223111 42.3882 0.511398 41.6521 0.756711C29.5269 0.653057 17.41 0.761165 5.30122 1.08103C2.94774 1.99119 1.54131 3.68488 1.08192 6.16212C0.973768 8.3952 0.937707 10.6294 0.973731 12.8648C0.658095 12.8502 0.369597 12.9223 0.108234 13.081C0.0721997 10.4854 0.108262 7.89085 0.216421 5.29725C1.01331 2.51918 2.78037 0.717374 5.51759 -0.108154Z" fill="#23F0F1"/>
<path fill-rule="evenodd" clip-rule="evenodd" d="M43.8156 -0.108154C51.8935 -0.108154 59.9716 -0.108154 68.0495 -0.108154C68.9308 0.15216 69.724 0.584592 70.4296 1.18914C69.9969 1.26121 69.5641 1.33329 69.1314 1.40536C68.6069 1.29066 68.1021 1.11048 67.6168 0.864819C58.962 0.756713 50.307 0.720676 41.6519 0.756711C42.388 0.511398 43.1091 0.223111 43.8156 -0.108154Z" fill="#25E3F3"/>
<path fill-rule="evenodd" clip-rule="evenodd" d="M41.6519 0.756803C50.3071 0.720768 58.962 0.756805 67.6168 0.864911C68.1021 1.11057 68.6069 1.29075 69.1314 1.40545C71.0234 2.44552 72.1775 4.03112 72.5934 6.16221C72.5934 8.18022 72.5934 10.1983 72.5934 12.2163C72.5934 14.0901 72.5934 15.964 72.5934 17.8379C72.5934 19.928 72.5934 22.018 72.5934 24.1082C72.5934 25.9821 72.5934 27.8558 72.5934 29.7298C72.5934 34.2703 72.5934 38.8109 72.5934 43.3514C72.5934 45.8018 72.5934 48.2524 72.5934 50.7028C72.5934 52.7207 72.5934 54.7389 72.5934 56.7568C72.5934 57.6937 72.5934 58.6308 72.5934 59.5676C72.5934 60.7929 72.5934 62.018 72.5934 63.2433C72.9179 67.1017 71.259 69.6604 67.6168 70.919C62.4965 71.0271 57.3756 71.0632 52.2542 71.0271C47.1333 71.0271 42.0126 71.0271 36.8916 71.0271C34.2951 71.0271 31.6987 71.0271 29.1022 71.0271C26.5777 71.0271 24.0535 71.0271 21.5291 71.0271C18.4998 71.0271 15.4706 71.0271 12.4413 71.0271C10.3497 71.0271 8.25812 71.0271 6.16649 71.0271C3.99877 70.4472 2.41203 69.1499 1.40626 67.1352C1.05309 65.7203 0.908843 64.2788 0.973508 62.8109C0.973508 60.0721 0.973508 57.3335 0.973508 54.5946C0.973508 50.6308 0.973508 46.6666 0.973508 42.7028C0.973508 40.6126 0.973508 38.5226 0.973508 36.4325C0.973508 32.5406 0.973508 28.6487 0.973508 24.7568C0.973508 20.7928 0.973508 16.8289 0.973508 12.8649C0.937484 10.6295 0.973545 8.39529 1.0817 6.16221C1.54109 3.68498 2.94751 1.99129 5.30099 1.08113C17.4098 0.761257 29.5267 0.653149 41.6519 0.756803Z" fill="#030211"/>
<path opacity="0.912" fill-rule="evenodd" clip-rule="evenodd" d="M70.4296 1.18921C72.1967 2.26553 73.2065 3.85111 73.4588 5.94597C73.1431 5.93139 72.8547 6.00346 72.5933 6.16218C72.1775 4.03109 71.0233 2.44549 69.1313 1.40543C69.5641 1.33335 69.9968 1.26128 70.4296 1.18921Z" fill="#25CDEE"/>
<path opacity="0.855" fill-rule="evenodd" clip-rule="evenodd" d="M73.4592 5.94593C73.6696 7.94593 73.7416 9.96394 73.6756 12C73.3257 12.1163 72.965 12.1884 72.5938 12.2162C72.5938 10.1982 72.5938 8.18016 72.5938 6.16215C72.8551 6.00342 73.1436 5.93136 73.4592 5.94593Z" fill="#27C6F7"/>
<path fill-rule="evenodd" clip-rule="evenodd" d="M38.839 16.973C38.7538 17.4508 38.4653 17.7391 37.9735 17.8379C36.9161 16.6959 35.6179 15.9392 34.0788 15.5676C31.0374 15.3669 28.0082 15.4389 24.9911 15.7838C21.6206 17.2194 19.8896 19.778 19.7981 23.4595C20.1587 23.4595 20.5193 23.4595 20.88 23.4595C21.5296 20.756 23.1885 18.9903 25.8566 18.1622C28.5251 18.018 31.1939 18.018 33.8624 18.1622C34.6946 18.397 35.416 18.7934 36.0262 19.3514C35.7209 19.7922 35.2881 20.0085 34.7279 20C34.2374 19.8004 33.7326 19.6203 33.2133 19.4595C30.8332 19.3153 28.4531 19.3153 26.0729 19.4595C22.8384 20.9144 21.5763 23.4009 22.2864 26.9189C23.465 27.1672 24.655 27.1672 25.8566 26.9189C26.0165 26.8906 26.1608 26.9267 26.2893 27.0271C25.6666 27.3981 25.1616 27.8666 24.7747 28.4325C23.9092 28.4325 23.0437 28.4325 22.1782 28.4325C21.9015 30.4119 22.3342 32.2139 23.4765 33.8379C23.3321 34.4145 22.9717 34.7747 22.3946 34.9189C21.9608 34.3025 21.5641 33.6539 21.2045 32.973C19.6511 33.8 18.6774 33.3676 18.2835 31.6757C15.8657 31.2402 14.8199 29.7987 15.146 27.3514C15.6277 25.8604 16.6375 24.9955 18.1753 24.7568C17.8556 19.3146 20.2718 15.7471 25.4238 14.0541C28.534 13.8615 31.6355 13.9336 34.7279 14.2703C36.402 14.744 37.7723 15.6449 38.839 16.973Z" fill="#23E2EA"/>
<path opacity="0.85" fill-rule="evenodd" clip-rule="evenodd" d="M73.6756 12C73.6756 13.8739 73.6756 15.7477 73.6756 17.6216C73.3257 17.7379 72.965 17.81 72.5938 17.8378C72.5938 15.964 72.5938 14.0901 72.5938 12.2162C72.965 12.1884 73.3257 12.1163 73.6756 12Z" fill="#28BAF8"/>
<path fill-rule="evenodd" clip-rule="evenodd" d="M37.9738 17.8378C39.478 19.4052 40.1271 21.279 39.9211 23.4594C39.5604 23.4594 39.2 23.4594 38.8393 23.4594C38.4803 21.6651 37.5428 20.2957 36.0264 19.3513C35.4162 18.7933 34.6948 18.3969 33.8627 18.1621C31.1941 18.018 28.5254 18.018 25.8568 18.1621C23.1887 18.9902 21.5298 20.756 20.8802 23.4594C20.5196 23.4594 20.159 23.4594 19.7983 23.4594C19.8899 19.778 21.6209 17.2194 24.9913 15.7838C28.0084 15.4389 31.0377 15.3668 34.079 15.5676C35.6181 15.9391 36.9164 16.6959 37.9738 17.8378Z" fill="#060A16"/>
<path fill-rule="evenodd" clip-rule="evenodd" d="M0.973895 12.8649C0.973895 16.8288 0.973895 20.7928 0.973895 24.7568C0.685397 24.7568 0.396897 24.7568 0.108398 24.7568C0.108398 20.8649 0.108398 16.973 0.108398 13.0811C0.369761 12.9224 0.65826 12.8503 0.973895 12.8649Z" fill="#25E1F3"/>
<path fill-rule="evenodd" clip-rule="evenodd" d="M34.728 20C36.1005 20.9078 37.0382 22.1691 37.5409 23.7838C36.2452 25.5844 34.5863 26.0168 32.5643 25.0811C31.7072 24.2618 30.9138 23.4328 30.1842 22.5946C29.9803 22.6179 29.8001 22.6899 29.6432 22.8108C28.8571 24.6406 27.5948 26.0099 25.8567 26.9189C24.6551 27.1671 23.4651 27.1671 22.2865 26.9189C21.5764 23.4008 22.8385 20.9143 26.073 19.4594C28.4532 19.3153 30.8333 19.3153 33.2134 19.4594C33.7327 19.6202 34.2375 19.8004 34.728 20Z" fill="#040412"/>
<path opacity="0.85" fill-rule="evenodd" clip-rule="evenodd" d="M73.6756 17.6216C73.6756 19.7117 73.6756 21.8017 73.6756 23.8919C73.3257 24.0082 72.965 24.0802 72.5938 24.1081C72.5938 22.0179 72.5938 19.9279 72.5938 17.8378C72.965 17.81 73.3257 17.7379 73.6756 17.6216Z" fill="#2AADF9"/>
<path fill-rule="evenodd" clip-rule="evenodd" d="M38.8392 16.9729C40.0154 18.1703 40.7366 19.6118 41.003 21.2972C41.0389 22.3089 41.0028 23.3178 40.8948 24.3243C40.6198 24.6233 40.2952 24.8395 39.9211 24.9729C39.5751 24.915 39.2867 24.9872 39.0556 25.1891C38.8764 26.5195 38.7683 27.889 38.731 29.2972C38.4813 29.566 38.1927 29.7822 37.8655 29.9459C37.8283 28.5377 37.7201 27.1681 37.541 25.8378C34.8155 27.5716 32.3995 27.2112 30.2924 24.7567C29.615 25.6503 28.8577 26.4791 28.0205 27.2432C27.0057 27.8332 25.9238 28.2298 24.7749 28.4324C25.1618 27.8665 25.6668 27.398 26.2895 27.027C26.161 26.9266 26.0167 26.8905 25.8568 26.9188C27.5949 26.0099 28.8572 24.6406 29.6433 22.8107C29.8002 22.6899 29.9804 22.6179 30.1843 22.5945C30.9139 23.4328 31.7073 24.2618 32.5644 25.081C34.5864 26.0168 36.2453 25.5844 37.541 23.7837C37.0383 22.169 36.1006 20.9077 34.7281 19.9999C35.2883 20.0084 35.7211 19.7921 36.0264 19.3513C37.5427 20.2956 38.4803 21.665 38.8392 23.4594C39.1999 23.4594 39.5604 23.4594 39.9211 23.4594C40.1271 21.279 39.478 19.4051 37.9737 17.8378C38.4656 17.739 38.754 17.4507 38.8392 16.9729Z" fill="#23D8EA"/>
<path fill-rule="evenodd" clip-rule="evenodd" d="M41.0028 21.2974C41.2168 22.4811 41.2888 23.7064 41.2191 24.973C41.9771 24.8928 42.6262 25.109 43.1665 25.6217C42.9878 26.0031 42.6994 26.2915 42.301 26.4866C41.9853 26.501 41.6969 26.429 41.4355 26.2703C41.2213 27.599 41.1493 28.9683 41.2191 30.3784C40.9307 30.6883 40.6062 30.9767 40.2455 31.2433C40.2087 29.1873 40.1005 27.1694 39.9209 25.1893C39.9209 25.1173 39.9209 25.045 39.9209 24.973C40.295 24.8396 40.6196 24.6234 40.8946 24.3244C41.0026 23.3179 41.0387 22.309 41.0028 21.2974Z" fill="#25D1F0"/>
<path fill-rule="evenodd" clip-rule="evenodd" d="M37.5407 25.8379C37.5407 27.3514 37.5407 28.8649 37.5407 30.3785C36.3844 30.4143 35.2305 30.3782 34.0787 30.2703C33.4356 29.359 32.5702 29.0708 31.4822 29.4055C30.1327 30.4029 30.0604 31.484 31.2658 32.6487C32.486 33.2511 33.4237 32.9627 34.0787 31.7839C34.6512 31.6764 35.2283 31.6403 35.8097 31.6758C36.2425 31.6758 36.6752 31.6758 37.108 31.6758C36.2029 34.6902 34.1832 36.4561 31.0495 36.9731C30.2593 37.0809 29.466 37.1168 28.6694 37.0812C26.5156 36.6548 24.7846 35.5737 23.4764 33.8379C22.3341 32.2139 21.9014 30.412 22.1781 28.4325C23.0436 28.4325 23.9091 28.4325 24.7746 28.4325C25.9236 28.2299 27.0054 27.8334 28.0202 27.2433C28.8574 26.4792 29.6147 25.6505 30.2922 24.7568C32.3992 27.2113 34.8153 27.5718 37.5407 25.8379Z" fill="#040513"/>
<path fill-rule="evenodd" clip-rule="evenodd" d="M20.0148 24.9729C20.3009 24.9362 20.5533 25.0082 20.7721 25.1892C20.9164 27.4233 20.9164 29.6577 20.7721 31.8919C20.4836 32.1801 20.1951 32.1801 19.9066 31.8919C19.7317 29.569 19.7678 27.2627 20.0148 24.9729Z" fill="#0E1B25"/>
<path fill-rule="evenodd" clip-rule="evenodd" d="M39.921 24.973C39.921 25.045 39.921 25.1172 39.921 25.1892C39.9569 27.4246 39.921 29.6588 39.8128 31.8919C39.5964 32.1801 39.38 32.1801 39.1636 31.8919C39.0555 29.6588 39.0195 27.4246 39.0555 25.1892C39.2865 24.9872 39.575 24.915 39.921 24.973Z" fill="#030311"/>
<path fill-rule="evenodd" clip-rule="evenodd" d="M18.2837 26.2703C18.3536 27.6086 18.2814 28.9059 18.0673 30.1622C16.5065 29.4672 16.1819 28.3862 17.0936 26.9189C17.4155 26.56 17.8122 26.3438 18.2837 26.2703Z" fill="#080D18"/>
<path fill-rule="evenodd" clip-rule="evenodd" d="M18.2838 26.2703C18.5688 27.606 18.5688 28.9756 18.2838 30.3784C18.1525 30.3516 18.0804 30.2796 18.0674 30.1622C18.2815 28.9059 18.3536 27.6086 18.2838 26.2703Z" fill="#105F6B"/>
<path opacity="0.85" fill-rule="evenodd" clip-rule="evenodd" d="M73.6756 23.8918C73.6756 25.7658 73.6756 27.6395 73.6756 29.5135C73.3257 29.6298 72.965 29.7018 72.5938 29.7297C72.5938 27.8557 72.5938 25.982 72.5938 24.1081C72.965 24.0802 73.3257 24.0082 73.6756 23.8918Z" fill="#2BA1FB"/>
<path fill-rule="evenodd" clip-rule="evenodd" d="M0.108398 24.7568C0.396897 24.7568 0.685397 24.7568 0.973895 24.7568C0.973895 28.6487 0.973895 32.5406 0.973895 36.4325C0.712533 36.5912 0.424034 36.6632 0.108398 36.6487C0.108398 32.6848 0.108398 28.7207 0.108398 24.7568Z" fill="#28C8F6"/>
<path fill-rule="evenodd" clip-rule="evenodd" d="M39.0554 25.1892C39.0195 27.4247 39.0554 29.6588 39.1636 31.8919C39.38 32.1801 39.5964 32.1801 39.8127 31.8919C39.9209 29.6588 39.9569 27.4247 39.9209 25.1892C40.1005 27.1693 40.2087 29.1873 40.2455 31.2433C40.6062 30.9767 40.9307 30.6882 41.2192 30.3784C41.4985 30.4296 41.7149 30.3576 41.8683 30.1622C43.4046 29.0967 43.5487 27.8716 42.301 26.4865C42.6994 26.2915 42.9878 26.003 43.1665 25.6216C44.6403 27.0385 44.8205 28.624 43.7075 30.3784C42.9662 31.0195 42.1368 31.5239 41.2192 31.8919C40.5796 33.3669 39.5698 33.7274 38.1899 32.973C37.3508 34.6409 36.1608 36.0102 34.6198 37.0811C34.634 37.6865 34.8866 38.1909 35.3771 38.5946C35.2918 39.0725 35.0034 39.3607 34.5116 39.4595C34.0557 38.9109 33.5507 38.4065 32.997 37.946C31.2192 38.3771 29.4162 38.4852 27.5876 38.2703C27.3199 38.2201 27.1036 38.112 26.9385 37.946C27.6638 37.9395 28.2406 37.6513 28.6695 37.0811C29.4662 37.1168 30.2594 37.0809 31.0496 36.973C34.1833 36.456 36.203 34.6902 37.1081 31.6757C36.6753 31.6757 36.2426 31.6757 35.8098 31.6757C36.3304 31.154 36.9073 30.7215 37.5408 30.3784C37.5408 28.8649 37.5408 27.3514 37.5408 25.8379C37.72 27.1682 37.8282 28.5377 37.8654 29.946C38.1925 29.7823 38.4812 29.5661 38.7309 29.2973C38.7681 27.8891 38.8763 26.5196 39.0554 25.1892Z" fill="#24C1E6"/>
<path fill-rule="evenodd" clip-rule="evenodd" d="M41.4355 26.2703C41.3014 27.6597 41.4457 28.957 41.8683 30.1622C41.7149 30.3576 41.4985 30.4296 41.2192 30.3784C41.1493 28.9682 41.2213 27.5989 41.4355 26.2703Z" fill="#19839E"/>
<path fill-rule="evenodd" clip-rule="evenodd" d="M41.4357 26.2703C41.6971 26.429 41.9855 26.501 42.3012 26.4865C43.5488 27.8716 43.4047 29.0966 41.8684 30.1622C41.4458 28.957 41.3015 27.6597 41.4357 26.2703Z" fill="#060916"/>
<path fill-rule="evenodd" clip-rule="evenodd" d="M37.5409 30.3784C36.9074 30.7215 36.3305 31.1539 35.8099 31.6757C35.2285 31.6402 34.6515 31.6763 34.0789 31.7838C33.424 32.9626 32.4862 33.251 31.2661 32.6486C30.0606 31.4839 30.1329 30.4028 31.4824 29.4054C32.5704 29.0707 33.4359 29.3589 34.0789 30.2702C35.2307 30.3781 36.3846 30.4142 37.5409 30.3784Z" fill="#24CFEA"/>
<path fill-rule="evenodd" clip-rule="evenodd" d="M32.1314 30.5945C32.8791 30.8185 32.9514 31.1789 32.3477 31.6756C31.8708 31.3984 31.7986 31.0379 32.1314 30.5945Z" fill="#0F1E29"/>
<path opacity="0.85" fill-rule="evenodd" clip-rule="evenodd" d="M73.6756 29.5134C73.6756 34.054 73.6756 38.5945 73.6756 43.135C73.3043 43.1629 72.9436 43.2349 72.5938 43.3513C72.5938 38.8107 72.5938 34.2702 72.5938 29.7296C72.965 29.7018 73.3257 29.6298 73.6756 29.5134Z" fill="#3492FA"/>
<path fill-rule="evenodd" clip-rule="evenodd" d="M23.4765 33.8379C24.7847 35.5737 26.5157 36.6548 28.6695 37.0811C28.2406 37.6513 27.6637 37.9395 26.9385 37.946C26.182 38.338 25.5329 38.9146 24.9911 39.6757C25.4909 40.463 26.068 41.1836 26.7221 41.8379C26.3478 41.9516 26.0591 42.1678 25.8566 42.4865C25.1791 41.9181 24.53 41.3056 23.9092 40.6487C19.5981 40.8826 17.0737 43.1529 16.3361 47.4595C16.1579 48.2837 16.0497 49.1486 16.0116 50.0541C15.6844 50.2178 15.3959 50.434 15.1461 50.7028C15.038 49.4074 15.0019 48.1101 15.0379 46.8109C16.0675 42.2868 18.8804 39.6561 23.4765 38.919C23.8731 38.5226 24.2699 38.1261 24.6665 37.7298C24.8109 37.5136 24.8109 37.2973 24.6665 37.0811C23.8008 36.4682 23.0435 35.7475 22.3946 34.919C22.9717 34.7748 23.3322 34.4145 23.4765 33.8379Z" fill="#25D0EC"/>
<path fill-rule="evenodd" clip-rule="evenodd" d="M26.9386 37.946C27.1037 38.1121 27.32 38.2202 27.5877 38.2704C29.4163 38.4853 31.2193 38.3772 32.9971 37.946C33.5508 38.4066 34.0558 38.911 34.5117 39.4596C34.5357 39.593 34.6077 39.7011 34.7281 39.7839C33.1022 41.4446 31.4433 43.0663 29.7514 44.6487C28.7373 43.7071 27.7275 42.7703 26.7222 41.8379C26.0681 41.1837 25.491 40.463 24.9912 39.6758C25.533 38.9147 26.1821 38.338 26.9386 37.946Z" fill="#060715"/>
<path fill-rule="evenodd" clip-rule="evenodd" d="M43.816 37.9459C43.4711 38.2666 43.1106 38.5909 42.7341 38.9189C41.0369 38.9559 39.3779 39.064 37.7575 39.2432C37.278 39.3952 36.8814 39.6834 36.5675 40.1081C36.4595 41.3312 36.4234 42.5565 36.4593 43.7838C36.1747 43.9948 35.8863 44.211 35.5938 44.4324C35.4495 43.3513 35.3053 42.2702 35.161 41.1892C35.0297 41.216 34.9576 41.288 34.9447 41.4054C33.3562 43.1727 31.6614 44.8305 29.8599 46.3783C28.4307 45.2028 27.0963 43.9055 25.8569 42.4865C26.0595 42.1678 26.3481 41.9515 26.7224 41.8378C27.7277 42.7701 28.7375 43.707 29.7517 44.6486C31.4435 43.0661 33.1024 41.4445 34.7283 39.7838C34.608 39.7009 34.5359 39.5928 34.5119 39.4594C35.0037 39.3606 35.2922 39.0724 35.3774 38.5946C35.518 38.6603 35.6624 38.7323 35.8102 38.8108C36.1408 38.5165 36.5015 38.2642 36.892 38.054C39.1988 37.9459 41.5069 37.9098 43.816 37.9459Z" fill="#27BFF2"/>
<path fill-rule="evenodd" clip-rule="evenodd" d="M43.8158 37.946C45.042 37.946 46.268 37.946 47.4942 37.946C46.926 38.663 46.2046 39.0955 45.3304 39.2433C42.806 39.2433 40.2818 39.2433 37.7573 39.2433C39.3778 39.0641 41.0367 38.956 42.7339 38.919C43.1104 38.591 43.4709 38.2667 43.8158 37.946Z" fill="#28B5F4"/>
<path fill-rule="evenodd" clip-rule="evenodd" d="M47.4943 37.946C50.1629 37.946 52.8316 37.946 55.5002 37.946C54.9581 38.5636 54.309 38.996 53.5528 39.2433C50.812 39.2433 48.0714 39.2433 45.3306 39.2433C46.2047 39.0955 46.9261 38.663 47.4943 37.946Z" fill="#29ABF7"/>
<path fill-rule="evenodd" clip-rule="evenodd" d="M55.5001 37.9459C57.1547 37.6906 58.2725 38.3392 58.8539 39.8919C59.0309 41.9628 58.9948 44.0169 58.7457 46.054C58.3257 46.2147 57.9291 46.1786 57.5557 45.9459C57.4836 43.928 57.4113 41.9098 57.3393 39.8919C57.1439 39.6322 56.8916 39.4519 56.582 39.3513C55.5748 39.2435 54.5651 39.2073 53.5527 39.2432C54.309 38.9959 54.9581 38.5635 55.5001 37.9459Z" fill="#2894EC"/>
<path fill-rule="evenodd" clip-rule="evenodd" d="M0.973895 36.4324C0.973895 38.5225 0.973895 40.6125 0.973895 42.7026C0.685397 42.7746 0.396897 42.8469 0.108398 42.9189C0.108398 40.8287 0.108398 38.7388 0.108398 36.6486C0.424034 36.6631 0.712533 36.5911 0.973895 36.4324Z" fill="#29B4F9"/>
<path fill-rule="evenodd" clip-rule="evenodd" d="M45.7632 42.9189C49.3122 43.0281 50.5745 44.7579 49.5498 48.1081C48.1784 49.6859 46.5556 50.0102 44.6813 49.0811C43.041 47.3397 42.9689 45.538 44.465 43.6757C44.883 43.3602 45.3157 43.1081 45.7632 42.9189Z" fill="#299DF0"/>
<path fill-rule="evenodd" clip-rule="evenodd" d="M45.763 44.4324C47.8528 44.1065 48.7544 44.9714 48.4677 47.0269C47.9586 48.092 47.1292 48.4886 45.9794 48.2161C44.8473 47.6468 44.4507 46.7461 44.7893 45.5134C45.0185 45.0466 45.343 44.6862 45.763 44.4324Z" fill="#060615"/>
<path fill-rule="evenodd" clip-rule="evenodd" d="M22.6111 54.5946C22.1746 54.8171 21.7419 55.0333 21.3128 55.2433C21.2768 53.0078 21.3129 50.7736 21.421 48.5406C21.7049 48.074 22.0654 48.002 22.5029 48.3243C22.6111 50.4132 22.647 52.5034 22.6111 54.5946Z" fill="#27C0F4"/>
<path opacity="0.875" fill-rule="evenodd" clip-rule="evenodd" d="M73.6756 43.1353C73.6756 45.5136 73.6756 47.892 73.6756 50.2704C73.3149 50.4146 72.9544 50.5586 72.5938 50.7028C72.5938 48.2524 72.5938 45.8018 72.5938 43.3515C72.9436 43.2351 73.3043 43.1631 73.6756 43.1353Z" fill="#729CDE"/>
<path fill-rule="evenodd" clip-rule="evenodd" d="M36.0265 58.054C37.0685 57.8754 38.1504 57.7673 39.2721 57.7297C39.5932 57.3894 39.9539 57.1011 40.354 56.8648C37.3256 56.7567 34.2963 56.7206 31.2662 56.7567C31.0516 56.7939 30.9075 56.7217 30.8335 56.5405C39.7048 56.5405 48.5762 56.5405 57.4475 56.5405C57.4475 55.9638 57.4475 55.3874 57.4475 54.8108C54.0576 54.8108 50.6679 54.8108 47.2779 54.8108C47.9193 54.6469 48.4961 54.3225 49.0089 53.8378C47.9593 53.8002 46.9495 53.6921 45.9797 53.5135C49.8024 53.5135 53.6248 53.5135 57.4475 53.5135C57.4116 52.2862 57.4477 51.0609 57.5557 49.8378C58.0462 49.5275 58.479 49.5995 58.854 50.054C58.9983 52.5766 58.9983 55.099 58.854 57.6216C58.7458 57.7297 58.6376 57.8378 58.5294 57.9459C51.0288 58.054 43.5277 58.0901 36.0265 58.054Z" fill="#2A87EF"/>
<path fill-rule="evenodd" clip-rule="evenodd" d="M0.973895 42.7026C0.973895 46.6665 0.973895 50.6306 0.973895 54.5945C0.65826 54.58 0.369761 54.652 0.108398 54.8107C0.108398 50.8469 0.108398 46.8827 0.108398 42.9189C0.396897 42.8469 0.685397 42.7746 0.973895 42.7026Z" fill="#2B9FFB"/>
<path fill-rule="evenodd" clip-rule="evenodd" d="M34.9444 41.4054C34.9574 41.288 35.0294 41.216 35.1608 41.1892C35.3051 42.2703 35.4492 43.3514 35.5935 44.4325C35.886 44.211 36.1745 43.9948 36.459 43.7838C36.459 47.027 36.459 50.2703 36.459 53.5135C37.9016 53.5135 39.3439 53.5135 40.7865 53.5135C40.2523 53.6902 39.6754 53.7983 39.0555 53.8379C38.8391 54.0541 38.6227 54.2703 38.4064 54.4865C38.8136 54.5293 39.1741 54.6374 39.4882 54.8108C36.6745 54.7747 33.8616 54.8108 31.0496 54.9189C30.8473 55.4338 30.7753 55.9743 30.8333 56.5406C30.9073 56.7218 31.0514 56.794 31.266 56.7568C30.8774 57.2757 30.3724 57.6361 29.7514 57.8379C29.5026 56.7966 29.4666 55.7155 29.6432 54.5946C29.8957 54.1983 30.2203 53.874 30.6169 53.6216C32.1298 53.5135 33.6444 53.4776 35.1608 53.5135C35.2322 49.4398 35.1601 45.4039 34.9444 41.4054Z" fill="#29A9F5"/>
<path fill-rule="evenodd" clip-rule="evenodd" d="M40.7864 53.5134C42.5174 53.5134 44.2484 53.5134 45.9793 53.5134C46.9491 53.692 47.959 53.8001 49.0086 53.8378C48.4958 54.3225 47.9189 54.6468 47.2776 54.8107C44.6811 54.8107 42.0846 54.8107 39.4881 54.8107C39.1739 54.6373 38.8135 54.5292 38.4062 54.4864C38.6226 54.2702 38.839 54.054 39.0554 53.8378C39.6753 53.7982 40.2521 53.6901 40.7864 53.5134Z" fill="#2A98F7"/>
<path fill-rule="evenodd" clip-rule="evenodd" d="M15.0379 46.8108C15.0019 48.11 15.038 49.4073 15.1461 50.7027C15.3959 50.4339 15.6844 50.2177 16.0116 50.054C16.0497 49.1485 16.1579 48.2837 16.3362 47.4594C16.3362 50.4865 16.3362 53.5135 16.3362 56.5405C16.0285 56.8486 15.6678 57.0648 15.2543 57.1892C15.1207 57.1652 15.0125 57.0932 14.9297 56.973C14.7506 53.5483 14.7866 50.1611 15.0379 46.8108Z" fill="#24B5E1"/>
<path fill-rule="evenodd" clip-rule="evenodd" d="M22.6111 54.5945C22.6111 55.2431 22.6111 55.8918 22.6111 56.5404C24.1275 56.5045 25.6421 56.5404 27.155 56.6485C27.4434 57.081 27.4434 57.5134 27.155 57.9458C23.4046 58.09 19.654 58.09 15.9035 57.9458C15.5653 57.7817 15.349 57.5294 15.2544 57.1891C15.668 57.0648 16.0286 56.8485 16.3363 56.5404C17.9551 56.7549 19.614 56.8269 21.3129 56.7566C21.3129 56.2522 21.3129 55.7476 21.3129 55.2431C21.7419 55.0332 22.1747 54.817 22.6111 54.5945Z" fill="#27ACEB"/>
<path fill-rule="evenodd" clip-rule="evenodd" d="M39.4883 54.8109C42.0848 54.8109 44.6813 54.8109 47.2778 54.8109C50.6677 54.8109 54.0575 54.8109 57.4474 54.8109C57.4474 55.3876 57.4474 55.964 57.4474 56.5406C48.576 56.5406 39.7047 56.5406 30.8334 56.5406C30.7754 55.9744 30.8474 55.4338 31.0497 54.919C33.8617 54.8109 36.6746 54.7748 39.4883 54.8109Z" fill="#030212"/>
<path opacity="0.85" fill-rule="evenodd" clip-rule="evenodd" d="M73.6756 50.2703C73.6756 52.3604 73.6756 54.4504 73.6756 56.5405C73.342 56.7137 72.9815 56.7857 72.5938 56.7568C72.5938 54.7388 72.5938 52.7206 72.5938 50.7027C72.9544 50.5585 73.3149 50.4145 73.6756 50.2703Z" fill="#9FA8CA"/>
<path fill-rule="evenodd" clip-rule="evenodd" d="M31.2661 56.7567C34.2962 56.7206 37.3254 56.7567 40.3538 56.8648C39.9537 57.1011 39.593 57.3894 39.2719 57.7297C38.1502 57.7673 37.0684 57.8754 36.0263 58.054C33.8955 58.1247 31.804 58.0527 29.7515 57.8378C30.3725 57.6361 30.8775 57.2756 31.2661 56.7567Z" fill="#2A9FF9"/>
<path fill-rule="evenodd" clip-rule="evenodd" d="M0.973895 54.5946C0.973895 57.3334 0.973895 60.072 0.973895 62.8108C0.712533 62.9695 0.424034 63.0415 0.108398 63.027C0.108398 60.2882 0.108398 57.5496 0.108398 54.8108C0.369761 54.6521 0.65826 54.5801 0.973895 54.5946Z" fill="#318EFB"/>
<path opacity="0.839" fill-rule="evenodd" clip-rule="evenodd" d="M73.6756 56.5405C73.6756 57.4774 73.6756 58.4145 73.6756 59.3513C73.3043 59.3792 72.9436 59.4512 72.5938 59.5676C72.5938 58.6307 72.5938 57.6936 72.5938 56.7567C72.9815 56.7857 73.342 56.7137 73.6756 56.5405Z" fill="#B9AFBE"/>
<path opacity="0.842" fill-rule="evenodd" clip-rule="evenodd" d="M73.6756 59.3513C73.6756 60.5766 73.6756 61.8017 73.6756 63.027C73.2879 62.998 72.9274 63.07 72.5938 63.2432C72.5938 62.0179 72.5938 60.7928 72.5938 59.5675C72.9436 59.4512 73.3043 59.3792 73.6756 59.3513Z" fill="#D0B4B3"/>
<path opacity="0.902" fill-rule="evenodd" clip-rule="evenodd" d="M0.973512 62.8108C0.908847 64.2787 1.05309 65.7202 1.40626 67.1351C1.1449 67.2938 0.8564 67.3658 0.540764 67.3513C0.146021 65.9498 0.00177146 64.5083 0.108015 63.027C0.423651 63.0415 0.71215 62.9695 0.973512 62.8108Z" fill="#5692E5"/>
<path opacity="0.937" fill-rule="evenodd" clip-rule="evenodd" d="M73.6756 63.027C74.0246 67.4566 72.1493 70.4116 68.0499 71.8919C62.0635 71.8919 56.0772 71.8919 50.0908 71.8919C50.812 71.6036 51.5334 71.3152 52.2546 71.027C57.3759 71.0631 62.4969 71.027 67.6171 70.9189C71.2594 69.6603 72.9183 67.1016 72.5937 63.2432C72.9274 63.07 73.2879 62.998 73.6756 63.027Z" fill="#F4BCA0"/>
<path opacity="0.897" fill-rule="evenodd" clip-rule="evenodd" d="M1.40651 67.1353C2.41229 69.15 3.99902 70.4473 6.16675 71.0271C5.78575 71.2029 5.42512 71.4191 5.08488 71.6758C2.86436 70.9703 1.34974 69.529 0.541016 67.3515C0.856652 67.366 1.14515 67.294 1.40651 67.1353Z" fill="#7B9DD7"/>
<path opacity="0.949" fill-rule="evenodd" clip-rule="evenodd" d="M6.16683 71.0271C8.25846 71.0271 10.3501 71.0271 12.4417 71.0271C11.7352 71.3583 11.014 71.6466 10.2779 71.892C8.69121 71.892 7.10445 71.892 5.51771 71.892C5.44377 71.7108 5.29952 71.6386 5.08496 71.6757C5.42521 71.4191 5.78584 71.2029 6.16683 71.0271Z" fill="#8EA3D1"/>
<path fill-rule="evenodd" clip-rule="evenodd" d="M12.4416 71.0271C15.4708 71.0271 18.5001 71.0271 21.5293 71.0271C20.8229 71.3583 20.1016 71.6466 19.3656 71.892C16.3363 71.892 13.3071 71.892 10.2778 71.892C11.0139 71.6466 11.7351 71.3583 12.4416 71.0271Z" fill="#A0A8C9"/>
<path fill-rule="evenodd" clip-rule="evenodd" d="M21.5295 71.0271C24.0539 71.0271 26.5781 71.0271 29.1026 71.0271C28.3665 71.2725 27.6453 71.5607 26.9388 71.892C24.4144 71.892 21.8902 71.892 19.3657 71.892C20.1018 71.6466 20.823 71.3583 21.5295 71.0271Z" fill="#B1ACC2"/>
<path fill-rule="evenodd" clip-rule="evenodd" d="M29.1022 71.0271C31.6987 71.0271 34.2952 71.0271 36.8917 71.0271C36.1852 71.3583 35.4641 71.6466 34.728 71.892C32.1315 71.892 29.535 71.892 26.9385 71.892C27.6449 71.5607 28.3661 71.2725 29.1022 71.0271Z" fill="#C1B1BA"/>
<path fill-rule="evenodd" clip-rule="evenodd" d="M36.8918 71.0271C42.0127 71.0271 47.1334 71.0271 52.2543 71.0271C51.5332 71.3153 50.8118 71.6037 50.0906 71.892C44.9697 71.892 39.849 71.892 34.728 71.892C35.4641 71.6466 36.1853 71.3583 36.8918 71.0271Z" fill="#DCB7AE"/>
</g>
<defs>
<clipPath id="clip0_486_3112">
<rect width="74" height="72" fill="white"/>
</clipPath>
</defs>
</svg>
