<svg width="16" height="16" viewBox="0 0 16 16" fill="none" xmlns="http://www.w3.org/2000/svg">
<path d="M14.2781 0.000976984H8.35298C8.24462 0.000867106 8.13732 0.0222348 8.03727 0.0638451C7.93722 0.105455 7.84642 0.166483 7.77009 0.2434L0.502751 7.50896C0.18077 7.83233 0 8.27009 0 8.72642C0 9.18276 0.18077 9.62051 0.502751 9.94389L6.06066 15.4964C6.2202 15.6567 6.40998 15.7836 6.61897 15.8699C6.82796 15.9562 7.05201 16.0001 7.27812 15.9991C7.50422 16.0001 7.72827 15.9562 7.93726 15.8699C8.14626 15.7836 8.33603 15.6567 8.49558 15.4964L15.7576 8.23088C15.9127 8.07584 15.9999 7.86554 16 7.64622V1.72289C15.9995 1.26636 15.818 0.828656 15.4951 0.505836C15.1723 0.183016 14.7346 0.00144886 14.2781 0.000976984ZM15.0624 7.4537C15.062 7.5481 15.0242 7.63849 14.9572 7.70504L7.82714 14.8351C7.67961 14.9812 7.48039 15.0632 7.27277 15.0632C7.06516 15.0632 6.86593 14.9812 6.71841 14.8351L1.16585 9.28079C1.01934 9.13349 0.937091 8.93418 0.937091 8.72642C0.937091 8.51867 1.01934 8.31936 1.16585 8.17206L8.29594 1.04197C8.33009 1.00806 8.37076 0.981423 8.41549 0.963654C8.46021 0.945886 8.50808 0.937358 8.55619 0.938584H13.9198C14.2228 0.938584 14.5135 1.05896 14.7277 1.27324C14.942 1.48752 15.0624 1.77814 15.0624 2.08118V7.4537Z" fill="#A7B5CA"/>
<path d="M11.8679 2.65857C11.5263 2.65776 11.195 2.77544 10.9305 2.99155C10.666 3.20765 10.4847 3.50881 10.4174 3.84367C10.3501 4.17854 10.401 4.52638 10.5615 4.8279C10.7219 5.12942 10.982 5.36595 11.2974 5.49717C11.6127 5.62839 11.9638 5.64617 12.2908 5.54748C12.6178 5.44879 12.9004 5.23974 13.0905 4.95597C13.2807 4.67221 13.3665 4.33129 13.3333 3.99134C13.3002 3.65139 13.1502 3.33345 12.9089 3.09173C12.7726 2.95428 12.6104 2.84522 12.4318 2.77087C12.2531 2.69652 12.0614 2.65835 11.8679 2.65857ZM12.2458 4.51061C12.171 4.58531 12.0757 4.63616 11.9721 4.65676C11.8684 4.67735 11.7609 4.66676 11.6633 4.62633C11.5656 4.58589 11.4822 4.51742 11.4234 4.42957C11.3646 4.34171 11.3332 4.23842 11.3331 4.13272C11.333 4.04474 11.3547 3.95811 11.3961 3.88049C11.4375 3.80288 11.4974 3.73668 11.5706 3.68777C11.6437 3.63885 11.7277 3.60873 11.8153 3.60008C11.9028 3.59143 11.9912 3.60452 12.0725 3.63817C12.1537 3.67183 12.2255 3.72502 12.2813 3.79303C12.3371 3.86104 12.3752 3.94176 12.3924 4.02805C12.4095 4.11434 12.4051 4.20353 12.3795 4.2877C12.354 4.37188 12.308 4.44845 12.2458 4.51061Z" fill="#A7B5CA"/>
</svg>
