<svg width="132" height="40" viewBox="0 0 132 40" fill="none" xmlns="http://www.w3.org/2000/svg">
<g opacity="0.2">
<path d="M18.5711 5.54004C18.8219 5.65871 19.0991 5.66137 19.3631 5.71604C20.0587 5.85871 20.757 5.98271 21.454 6.11604C22.114 6.23871 22.7819 6.35471 23.4445 6.47871C24.2695 6.63204 25.0932 6.79071 25.9182 6.94404C26.5782 7.06804 27.2382 7.18404 27.9074 7.30804C28.7324 7.46137 29.5548 7.62004 30.3798 7.77204C31.321 7.94537 32.2634 8.10937 33.2033 8.28271C34.1431 8.45604 35.0816 8.64271 36.0202 8.81604C37.0181 9.00137 38.0173 9.17871 39.0152 9.36137C39.2977 9.41204 39.5789 9.47871 39.864 9.51471C40.091 9.54271 40.2019 9.72404 40.3418 9.85604C41.0296 10.5014 41.7001 11.1627 42.3799 11.8174C43.3761 12.7774 44.374 13.736 45.3737 14.6934C45.5928 14.9027 45.6034 14.9027 45.4146 15.136C44.8312 15.8574 44.2411 16.5734 43.6564 17.2934C43.1429 17.924 42.632 18.56 42.1186 19.192C41.6051 19.824 41.0718 20.4707 40.5504 21.112C40.029 21.7534 39.5261 22.3787 39.0126 23.0107C38.5994 23.5187 38.1836 24.024 37.7705 24.5307L36.4214 26.192C35.9014 26.8338 35.38 27.4756 34.8572 28.1174L33.3155 30.0107C32.7875 30.6578 32.2626 31.304 31.7407 31.9494L30.1924 33.8667C30.0802 34 29.9653 34.1334 29.8373 34.2894C29.6327 33.7694 29.4413 33.2654 29.2354 32.7614C27.9391 29.4636 26.642 26.1676 25.344 22.8734C23.0991 17.1747 20.8551 11.4765 18.612 5.77871C18.5816 5.70137 18.5618 5.62004 18.5381 5.54004H18.5711ZM34.0679 16.0627C34.1188 16.0801 34.174 16.0801 34.225 16.0627C34.7041 15.976 35.1833 15.8867 35.6624 15.796L41.481 14.7294L42.9462 14.4627C42.9132 14.4254 42.9 14.4067 42.8842 14.392C41.8678 13.4174 40.8474 12.4454 39.8376 11.4587C39.7056 11.3334 39.6449 11.3387 39.5129 11.4494C37.7643 12.9285 36.0122 14.4045 34.2566 15.8774C34.1906 15.9334 34.1035 15.9694 34.0718 16.0614L34.0441 16.0734C34.0441 16.0734 34.0547 16.0827 34.06 16.0827C34.0652 16.0827 34.0798 16.076 34.0679 16.0627ZM21.5516 8.99604L21.5186 9.02004L29.7752 30C29.8225 29.8254 29.8543 29.647 29.8703 29.4667C30.0463 28.0196 30.2223 26.5725 30.3983 25.1254C30.5576 23.792 30.7164 22.4587 30.8748 21.1254C31.0235 19.8747 31.1749 18.6245 31.3289 17.3747C31.3398 17.3175 31.3339 17.2584 31.3118 17.2046C31.2898 17.1507 31.2526 17.1047 31.2048 17.072C28.0896 14.4649 24.9748 11.8569 21.8605 9.24804C21.7589 9.16271 21.6546 9.07871 21.5516 8.99471V8.99604ZM42.7033 16.0734C42.6712 16.0712 42.639 16.0712 42.607 16.0734L40.2046 16.5134C37.8022 16.9534 35.3993 17.3916 32.996 17.828C32.8271 17.8587 32.765 17.9147 32.7466 18.0947C32.633 19.1387 32.505 20.18 32.3796 21.2227C32.2423 22.3836 32.1033 23.5454 31.9625 24.708C31.827 25.8485 31.6888 26.9903 31.548 28.1334C31.4728 28.7614 31.3988 29.3894 31.3183 30.0694C35.1318 25.3854 38.9096 20.7374 42.7033 16.072V16.0734ZM22.6499 7.86671L22.6367 7.90937L23.4155 8.56271C26.2394 10.9272 29.0624 13.292 31.8846 15.6574C32.01 15.7627 32.072 15.732 32.175 15.6454C33.6481 14.4009 35.123 13.1592 36.5996 11.92L38.0213 10.72L22.6499 7.86671Z" fill="#557086"/>
<path d="M113.465 28.3918C113.386 28.3918 113.346 28.3265 113.307 28.2812C113.027 27.9532 112.73 27.6412 112.45 27.3145C112.318 27.1532 112.165 26.9985 112.024 26.8412C111.736 26.5198 111.441 26.2052 111.168 25.8732C111.049 25.7278 110.917 25.5905 110.789 25.4505C110.483 25.1158 110.178 24.7838 109.886 24.4318C109.773 24.2985 109.646 24.1652 109.53 24.0318C109.146 23.5905 108.738 23.1665 108.351 22.7318C108.036 22.3825 107.716 22.0345 107.411 21.6732C107.059 21.2545 106.685 20.8545 106.325 20.4412C106.073 20.1532 105.81 19.8718 105.556 19.5852C105.171 19.1532 104.786 18.7225 104.406 18.2892C104.162 18.0105 103.909 17.7345 103.661 17.4585C103.374 17.1385 103.081 16.8238 102.806 16.4918C102.674 16.3385 102.534 16.1958 102.399 16.0465C102.303 15.9605 102.22 15.8603 102.154 15.7492C102.124 15.8084 102.115 15.876 102.127 15.9412C102.127 19.6745 102.127 23.411 102.127 27.1505C102.127 27.3838 102.127 27.3838 101.889 27.3838C101.485 27.3838 101.079 27.3838 100.674 27.3838C100.554 27.3838 100.53 27.3465 100.53 27.2318C100.53 22.0301 100.53 16.8301 100.53 11.6318C100.53 11.5932 100.53 11.5532 100.53 11.4785C100.794 11.7732 101.038 12.0398 101.279 12.3078C101.647 12.7212 102.011 13.1372 102.38 13.5518C103.099 14.3625 103.82 15.1727 104.542 15.9825C104.997 16.4945 105.457 17.0025 105.913 17.5145C106.518 18.1945 107.12 18.8785 107.726 19.5585C108.078 19.9585 108.436 20.3452 108.788 20.7412C109.398 21.4252 110.004 22.1132 110.614 22.7972C111.01 23.2345 111.406 23.6678 111.832 24.1452V23.8865C111.832 20.1532 111.832 16.423 111.832 12.6958C111.832 12.5358 111.866 12.4852 112.034 12.4892C112.509 12.5012 112.986 12.4892 113.461 12.4892L113.465 28.3918Z" fill="#557086"/>
<path d="M80.0523 27.3895C79.4795 27.3895 78.9079 27.3895 78.3363 27.3895C78.2307 27.3895 78.1925 27.3348 78.1515 27.2561C77.9245 26.8161 77.6957 26.3766 77.4651 25.9375C77.1285 25.2921 76.7933 24.6455 76.454 24.0001C76.0699 23.2668 75.6805 22.5335 75.303 21.8001C75.281 21.7435 75.2411 21.6959 75.1895 21.6646C75.138 21.6332 75.0776 21.6199 75.0179 21.6268C73.917 21.6339 72.817 21.6339 71.7179 21.6268C71.5779 21.6268 71.5396 21.6628 71.5396 21.8068C71.5396 23.6028 71.5396 25.3988 71.5396 27.1948C71.5396 27.3548 71.5014 27.3935 71.3456 27.3895C70.9298 27.3775 70.5127 27.3815 70.0956 27.3895C69.99 27.3895 69.9556 27.3668 69.9556 27.2561C69.9556 24.8899 69.9556 22.5232 69.9556 20.1561C69.9556 20.0081 70.0203 20.0108 70.1259 20.0108C71.9106 20.0108 73.6965 20.0108 75.4825 20.0108C76.3814 20.0108 77.1061 19.6348 77.6909 18.9841C78.0464 18.587 78.2763 18.0916 78.3509 17.5615C78.4134 17.1751 78.3994 16.7801 78.3098 16.3992C78.2202 16.0183 78.0566 15.6592 77.8287 15.3426C77.6007 15.026 77.3128 14.7583 76.9817 14.5548C76.6505 14.3514 76.2828 14.2163 75.8996 14.1575C75.7081 14.1307 75.5148 14.1187 75.3214 14.1215C73.1672 14.1215 71.0116 14.1215 68.8534 14.1215C68.7069 14.1215 68.67 14.1535 68.67 14.3055C68.67 18.5819 68.67 22.8588 68.67 27.1361C68.67 27.3961 68.67 27.3961 68.406 27.3961C68.0192 27.3961 67.6324 27.3961 67.2457 27.3961C67.1229 27.3961 67.0847 27.3681 67.086 27.2388C67.086 26.6081 67.086 25.9775 67.086 25.3468C67.086 21.1361 67.086 16.925 67.086 12.7135C67.086 12.5495 67.1124 12.4948 67.2919 12.4961C70.0296 12.4961 72.7673 12.4961 75.5063 12.5041C76.1379 12.4945 76.7641 12.6232 77.3418 12.8815C77.9194 13.1397 78.4348 13.5214 78.8525 14.0001C79.4648 14.6688 79.854 15.5148 79.9652 16.4188C80.1055 17.4517 79.8946 18.5021 79.3671 19.3983C78.8396 20.2944 78.0266 20.9833 77.0612 21.3521C76.9556 21.3921 76.9292 21.4095 76.9899 21.5201C77.7107 22.8801 78.4278 24.2415 79.1415 25.6041C79.4293 26.1535 79.7166 26.7023 80.0035 27.2508C80.0323 27.2915 80.0493 27.3395 80.0523 27.3895Z" fill="#557086"/>
<path d="M90.0718 27.3828C86.0102 27.3535 83.1708 24.1188 82.8276 20.8268C82.594 18.5708 83.2039 16.5601 84.7285 14.8908C86.2531 13.2215 88.1882 12.4321 90.4414 12.5001C92.3828 12.5677 94.2194 13.4068 95.5515 14.835C96.8836 16.2631 97.6036 18.1648 97.5549 20.1264C97.5062 22.088 96.6927 23.9508 95.2914 25.3097C93.89 26.6686 92.0142 27.4137 90.0718 27.3828ZM95.9471 19.9441C95.9267 18.411 95.3101 16.9474 94.2304 15.8696C93.1507 14.7918 91.6946 14.1863 90.1766 14.1839C88.6586 14.1814 87.2006 14.7822 86.1175 15.8565C85.0344 16.9308 84.4131 18.3924 84.3879 19.9255C84.38 23.1255 86.9751 25.7668 90.114 25.7668C90.8763 25.774 91.6324 25.6288 92.3388 25.3396C93.0453 25.0504 93.6881 24.6229 94.2303 24.0817C94.7725 23.5405 95.2033 22.8963 95.4979 22.1862C95.7926 21.4761 95.9452 20.7141 95.9471 19.9441Z" fill="#557086"/>
<path d="M57.3962 12.4961C59.4911 12.4961 61.5846 12.4961 63.6794 12.4961C63.8312 12.4961 63.8642 12.5361 63.8603 12.6828C63.8497 13.1028 63.8537 13.5241 63.8603 13.9441C63.8603 14.0628 63.8405 14.1081 63.7085 14.1081C59.495 14.1081 55.2825 14.1081 51.0708 14.1081C50.948 14.1081 50.9243 14.0681 50.9256 13.9548C50.9322 13.5348 50.9348 13.1135 50.9256 12.6935C50.9256 12.5428 50.9507 12.4948 51.1144 12.4961C53.2079 12.4988 55.308 12.4961 57.3962 12.4961Z" fill="#557086"/>
<path d="M56.7494 22.1334C56.7494 23.8223 56.7494 25.5112 56.7494 27.2001C56.7494 27.3508 56.7151 27.3894 56.566 27.3854C56.1502 27.3748 55.733 27.3774 55.3159 27.3854C55.2011 27.3854 55.1536 27.3694 55.1536 27.2334C55.1536 23.845 55.1536 20.4574 55.1536 17.0708C55.1536 16.9508 55.1866 16.9201 55.3014 16.9214C55.7304 16.9214 56.1594 16.9308 56.5871 16.9214C56.731 16.9214 56.7481 16.9681 56.7468 17.0934C56.7468 18.7752 56.7477 20.4552 56.7494 22.1334Z" fill="#557086"/>
<path d="M59.6121 22.1572C59.6121 23.8372 59.6121 25.518 59.6121 27.1998C59.6121 27.3478 59.5804 27.3905 59.4299 27.3865C59.0141 27.3745 58.597 27.3785 58.1812 27.3865C58.0584 27.3865 58.0215 27.3625 58.0215 27.2318C58.0215 23.8452 58.0215 20.4589 58.0215 17.0732C58.0215 16.9585 58.0466 16.9198 58.1667 16.9225C58.5891 16.9225 59.0115 16.9305 59.4339 16.9225C59.5659 16.9225 59.6108 16.9532 59.6108 17.0972C59.609 18.7834 59.6094 20.47 59.6121 22.1572Z" fill="#557086"/>
<path d="M103.443 19.3174C103.96 19.8974 104.466 20.4667 104.974 21.032C104.995 21.0564 105.011 21.0848 105.021 21.1155C105.031 21.1462 105.034 21.1786 105.031 21.2107C105.031 23.2214 105.031 25.2325 105.031 27.244C105.031 27.3654 104.994 27.3934 104.879 27.392C104.44 27.3854 104 27.392 103.559 27.392C103.475 27.392 103.418 27.392 103.418 27.276C103.418 24.6396 103.418 22.0045 103.418 19.3707C103.423 19.3517 103.432 19.3337 103.443 19.3174Z" fill="#557086"/>
<path d="M34.0674 16.0625C34.079 16.0755 34.0751 16.0846 34.0597 16.0872C34.0442 16.0898 34.0493 16.0872 34.0442 16.0781L34.0713 16.0664L34.0674 16.0625Z" fill="#557086"/>
<path d="M90.1691 21.0096C89.8932 20.9997 89.6319 20.8821 89.4402 20.6816C89.2485 20.481 89.1414 20.213 89.1414 19.9342C89.1414 19.6554 89.2485 19.3875 89.4402 19.1869C89.6319 18.9863 89.8932 18.8687 90.1691 18.8589C90.445 18.8687 90.7063 18.9863 90.898 19.1869C91.0897 19.3875 91.1969 19.6554 91.1969 19.9342C91.1969 20.213 91.0897 20.481 90.898 20.6816C90.7063 20.8821 90.445 20.9997 90.1691 21.0096Z" fill="#557086"/>
</g>
</svg>
