<svg width="74" height="72" viewBox="0 0 74 72" fill="none" xmlns="http://www.w3.org/2000/svg">
<g clip-path="url(#clip0_486_3229)">
<path opacity="0.975" fill-rule="evenodd" clip-rule="evenodd" d="M5.5176 -0.108154C21.4572 -0.108154 37.3967 -0.108154 53.3363 -0.108154C52.6151 0.180134 51.8937 0.468423 51.1726 0.756711C35.874 0.652107 20.5837 0.760215 5.30123 1.08103C2.94775 1.99119 1.54132 3.68488 1.08193 6.16212C0.973753 10.4137 0.93769 14.666 0.973742 18.9189C0.685244 18.9909 0.396743 19.063 0.108245 19.1351C0.0721914 14.5219 0.108254 9.90929 0.216432 5.29725C1.01332 2.51918 2.78038 0.717374 5.5176 -0.108154Z" fill="#24EFF1"/>
<path opacity="0.94" fill-rule="evenodd" clip-rule="evenodd" d="M53.3361 -0.108154C58.2407 -0.108154 63.145 -0.108154 68.0496 -0.108154C68.9308 0.15216 69.7241 0.584592 70.4297 1.18914C69.9969 1.26121 69.5642 1.33329 69.1314 1.40536C68.6069 1.29066 68.1021 1.11048 67.6168 0.864819C62.1358 0.756717 56.6544 0.72068 51.1724 0.756711C51.8935 0.468423 52.6149 0.180134 53.3361 -0.108154Z" fill="#25DFF3"/>
<path fill-rule="evenodd" clip-rule="evenodd" d="M51.1723 0.756842C56.6544 0.720811 62.1358 0.756848 67.6168 0.86495C68.1021 1.11061 68.6069 1.29079 69.1314 1.40549C71.0234 2.44555 72.1775 4.03116 72.5934 6.16225C72.5934 8.18026 72.5934 10.1983 72.5934 12.2163C72.5934 14.0902 72.5934 15.964 72.5934 17.8379C72.5934 19.928 72.5934 22.018 72.5934 24.1082C72.5934 25.9821 72.5934 27.8559 72.5934 29.7298C72.5934 34.2704 72.5934 38.8109 72.5934 43.3514C72.5934 45.8018 72.5934 48.2524 72.5934 50.7028C72.5934 52.7207 72.5934 54.7389 72.5934 56.7568C72.5934 57.9821 72.5934 59.2072 72.5934 60.4325C72.6293 62.3078 72.5934 64.1817 72.4852 66.0541C72.314 66.3233 72.2059 66.6115 72.1606 66.919C71.2941 68.9733 69.7794 70.3067 67.6168 70.919C62.4965 71.0271 57.3756 71.0632 52.2542 71.0271C49.225 71.0271 46.1957 71.0271 43.1665 71.0271C40.0652 71.0271 36.9637 71.0271 33.8624 71.0271C30.8332 71.0271 27.8039 71.0271 24.7747 71.0271C21.8898 71.0271 19.0047 71.0271 16.1197 71.0271C12.802 71.0271 9.48422 71.0271 6.16649 71.0271C3.99877 70.4472 2.41203 69.1499 1.40626 67.1352C1.05309 65.7203 0.908843 64.2788 0.973508 62.8109C0.973508 60.0721 0.973508 57.3335 0.973508 54.5947C0.973508 50.6308 0.973508 46.6667 0.973508 42.7028C0.973508 38.7389 0.973508 34.7748 0.973508 30.8109C0.973508 26.847 0.973508 22.8829 0.973508 18.919C0.937456 14.6661 0.973519 10.4139 1.0817 6.16225C1.54109 3.68501 2.94751 1.99133 5.30099 1.08117C20.5835 0.760346 35.8738 0.652238 51.1723 0.756842Z" fill="#030211"/>
<path opacity="0.912" fill-rule="evenodd" clip-rule="evenodd" d="M70.4296 1.18921C72.1967 2.26553 73.2065 3.85111 73.4588 5.94597C73.1431 5.93139 72.8547 6.00346 72.5933 6.16218C72.1775 4.03109 71.0233 2.44549 69.1313 1.40543C69.5641 1.33335 69.9968 1.26128 70.4296 1.18921Z" fill="#25CDEE"/>
<path opacity="0.855" fill-rule="evenodd" clip-rule="evenodd" d="M73.4592 5.94593C73.6696 7.94593 73.7416 9.96394 73.6756 12C73.3257 12.1163 72.965 12.1884 72.5938 12.2162C72.5938 10.1982 72.5938 8.18016 72.5938 6.16215C72.8551 6.00342 73.1436 5.93136 73.4592 5.94593Z" fill="#27C6F7"/>
<path fill-rule="evenodd" clip-rule="evenodd" d="M41.0029 20.2163C40.5738 20.4261 40.141 20.6423 39.7046 20.8649C39.0845 18.8255 38.3992 16.8075 37.6491 14.8109C37.2025 14.5749 36.7336 14.5388 36.2426 14.7028C34.4208 19.6601 32.7257 24.669 31.1578 29.7298C30.7902 29.9257 30.3934 29.9977 29.9678 29.946C31.2812 24.7713 32.8319 19.6541 34.6198 14.5946C35.8813 12.7469 37.3238 12.6027 38.9473 14.1622C39.6983 16.1612 40.3834 18.1792 41.0029 20.2163Z" fill="#23DDE8"/>
<path opacity="0.85" fill-rule="evenodd" clip-rule="evenodd" d="M73.6756 12C73.6756 13.8739 73.6756 15.7477 73.6756 17.6216C73.3257 17.7379 72.965 17.81 72.5938 17.8378C72.5938 15.964 72.5938 14.0901 72.5938 12.2162C72.965 12.1884 73.3257 12.1163 73.6756 12Z" fill="#28BAF8"/>
<path opacity="0.85" fill-rule="evenodd" clip-rule="evenodd" d="M73.6756 17.6216C73.6756 19.7117 73.6756 21.8017 73.6756 23.8919C73.3257 24.0082 72.965 24.0802 72.5938 24.1081C72.5938 22.0179 72.5938 19.9279 72.5938 17.8378C72.965 17.81 73.3257 17.7379 73.6756 17.6216Z" fill="#2AADF9"/>
<path fill-rule="evenodd" clip-rule="evenodd" d="M41.0028 20.2163C41.6223 22.0738 42.1994 23.9478 42.7338 25.8379C42.4091 26.1086 42.0484 26.3248 41.652 26.4866C41.0085 24.6301 40.3593 22.7562 39.7046 20.865C40.141 20.6424 40.5738 20.4262 41.0028 20.2163Z" fill="#24D0EA"/>
<path opacity="0.85" fill-rule="evenodd" clip-rule="evenodd" d="M73.6756 23.8918C73.6756 25.7658 73.6756 27.6395 73.6756 29.5135C73.3257 29.6298 72.965 29.7018 72.5938 29.7297C72.5938 27.8557 72.5938 25.982 72.5938 24.1081C72.965 24.0802 73.3257 24.0082 73.6756 23.8918Z" fill="#2BA1FB"/>
<path fill-rule="evenodd" clip-rule="evenodd" d="M0.973895 18.9189C0.973895 22.8828 0.973895 26.8469 0.973895 30.8108C0.65826 30.7964 0.369761 30.8684 0.108398 31.0271C0.108398 27.0632 0.108398 23.0991 0.108398 19.1352C0.396897 19.0631 0.685397 18.991 0.973895 18.9189Z" fill="#27D1F5"/>
<path fill-rule="evenodd" clip-rule="evenodd" d="M22.8275 24.108C23.2365 24.0641 23.561 24.2081 23.8012 24.5405C24.0587 27.1039 25.4651 28.5093 28.0205 28.7567C28.5976 29.1891 28.5976 29.6215 28.0205 30.054C25.326 30.1519 23.9196 31.5573 23.8012 34.2702C23.3107 34.5805 22.8779 34.5085 22.503 34.054C22.3264 31.5712 20.992 30.2378 18.5 30.054C18.0453 29.6793 17.9732 29.2468 18.2837 28.7567C19.4579 28.6717 20.5037 28.2752 21.4211 27.5675C22.0847 26.476 22.5534 25.323 22.8275 24.108Z" fill="#23DBE8"/>
<path fill-rule="evenodd" clip-rule="evenodd" d="M23.044 27.5676C23.5791 28.282 24.2282 28.8948 24.9914 29.4055C24.3109 29.8331 23.7338 30.3737 23.2604 31.0271C22.6428 30.4459 21.9937 29.9054 21.313 29.4055C22.0807 28.9629 22.6578 28.3503 23.044 27.5676Z" fill="#070B17"/>
<path fill-rule="evenodd" clip-rule="evenodd" d="M42.7337 25.8379C43.1375 26.7603 43.4982 27.6971 43.8156 28.6487C45.1469 28.8277 46.5175 28.9358 47.9267 28.973C47.4684 29.1998 47.1079 29.5242 46.8448 29.946C45.5466 29.946 44.2483 29.946 42.9501 29.946C42.3109 28.8978 41.8782 27.7447 41.6519 26.4865C42.0483 26.3248 42.4089 26.1086 42.7337 25.8379Z" fill="#26C9F2"/>
<path fill-rule="evenodd" clip-rule="evenodd" d="M21.0963 36.4323C20.9601 36.9722 20.5995 37.2604 20.0144 37.2972C17.8606 35.831 15.7329 34.3175 13.6314 32.7567C12.4896 30.6438 13.0666 29.2743 15.3624 28.6486C16.2146 28.5629 16.5031 28.9234 16.2279 29.7296C15.8328 30.07 15.364 30.2501 14.8215 30.2702C14.4266 30.5872 14.3184 30.9835 14.4969 31.4594C16.645 33.1977 18.8448 34.8555 21.0963 36.4323Z" fill="#23DEE8"/>
<path fill-rule="evenodd" clip-rule="evenodd" d="M43.8159 28.6487C47.6386 28.6487 51.4611 28.6487 55.2838 28.6487C55.1206 29.2089 54.7599 29.6052 54.2019 29.8379C51.7508 29.946 49.2984 29.9821 46.8452 29.946C47.1083 29.5241 47.4687 29.1998 47.927 28.973C46.5178 28.9358 45.1473 28.8277 43.8159 28.6487Z" fill="#27BEF4"/>
<path fill-rule="evenodd" clip-rule="evenodd" d="M55.2835 28.6486C56.7456 28.5671 58.1881 28.6752 59.611 28.9729C60.9586 30.2804 61.0309 31.6497 59.8274 33.081C55.8 35.8804 51.833 38.7632 47.9268 41.7297C48.2064 42.3154 48.4227 42.9279 48.5759 43.5675C48.2165 44.5904 47.7476 44.6624 47.1695 43.7837C46.7683 42.8739 46.552 41.937 46.5204 40.9729C50.8368 37.8849 55.0923 34.7139 59.2865 31.4594C59.465 30.9835 59.3568 30.5872 58.9619 30.2702C53.5878 30.2339 48.2507 30.1258 42.9502 29.9459C44.2484 29.9459 45.5467 29.9459 46.8449 29.9459C49.2982 29.982 51.7506 29.9459 54.2017 29.8378C54.7597 29.6051 55.1204 29.2088 55.2835 28.6486Z" fill="#26A2E7"/>
<path opacity="0.85" fill-rule="evenodd" clip-rule="evenodd" d="M73.6756 29.5134C73.6756 34.054 73.6756 38.5945 73.6756 43.135C73.3043 43.1629 72.9436 43.2349 72.5938 43.3513C72.5938 38.8107 72.5938 34.2702 72.5938 29.7296C72.965 29.7018 73.3257 29.6298 73.6756 29.5134Z" fill="#3492FA"/>
<path fill-rule="evenodd" clip-rule="evenodd" d="M44.8977 34.2703C44.59 34.5785 44.2293 34.7947 43.8158 34.919C43.0758 34.5467 42.2826 34.4025 41.4357 34.4866C41.2916 35.3912 41.1473 36.3283 41.003 37.2974C40.3359 37.7049 39.9754 38.2816 39.9211 39.0271C39.8525 37.0989 39.9245 35.189 40.1375 33.2974C41.3636 33.1532 42.5896 33.1532 43.8158 33.2974C44.2832 33.5127 44.6439 33.837 44.8977 34.2703Z" fill="#27C2F4"/>
<path fill-rule="evenodd" clip-rule="evenodd" d="M44.8978 34.2703C46.0274 36.2532 45.5224 37.7306 43.3831 38.7027C42.6654 38.8104 41.9442 38.8465 41.2194 38.8108C41.2553 39.8225 41.2192 40.8313 41.1112 41.8378C40.6919 42.1319 40.3314 42.0599 40.0293 41.6216C39.9214 40.7598 39.8852 39.8949 39.9211 39.027C39.9755 38.2815 40.3359 37.7049 41.003 37.2973C41.1473 36.3282 41.2917 35.3911 41.4358 34.4865C41.4358 35.4233 41.4358 36.3604 41.4358 37.2973C42.8048 37.6225 43.7423 37.1539 44.2486 35.8919C44.1309 35.5492 43.9866 35.2249 43.8159 34.9189C44.2294 34.7946 44.5901 34.5784 44.8978 34.2703Z" fill="#26B2EA"/>
<path fill-rule="evenodd" clip-rule="evenodd" d="M41.4355 34.4864C42.2824 34.4023 43.0757 34.5465 43.8157 34.9188C43.9864 35.2248 44.1307 35.5491 44.2484 35.8918C43.7421 37.1538 42.8045 37.6224 41.4355 37.2972C41.4355 36.3603 41.4355 35.4232 41.4355 34.4864Z" fill="#050514"/>
<path fill-rule="evenodd" clip-rule="evenodd" d="M28.237 33.1893C28.6238 33.1277 28.9845 33.1997 29.3188 33.4055C30.0679 35.327 30.7532 37.273 31.3744 39.2433C32.136 37.3214 32.8572 35.3754 33.5381 33.4055C34.4757 32.9731 34.8364 33.2613 34.62 34.2704C33.7997 36.8747 32.8981 39.4332 31.9153 41.946C31.4391 42.1244 31.0425 42.0163 30.7253 41.6217C29.945 39.1387 29.0795 36.6881 28.1288 34.2704C27.9903 33.8887 28.0264 33.5283 28.237 33.1893Z" fill="#25C6ED"/>
<path fill-rule="evenodd" clip-rule="evenodd" d="M36.6757 33.1891C37.0314 33.1428 37.3559 33.215 37.6493 33.4053C37.7937 36.2161 37.7937 39.0269 37.6493 41.8377C37.23 42.1318 36.8695 42.0598 36.5675 41.6215C36.3916 38.7945 36.4277 35.9837 36.6757 33.1891Z" fill="#27C4F5"/>
<path fill-rule="evenodd" clip-rule="evenodd" d="M21.0965 36.4324C22.3948 37.3692 23.693 38.3063 24.9913 39.2432C24.8658 39.7295 24.5773 40.0897 24.1258 40.3243C22.7087 39.3656 21.3383 38.3565 20.0146 37.2972C20.5997 37.2605 20.9604 36.9723 21.0965 36.4324Z" fill="#24D0EA"/>
<path fill-rule="evenodd" clip-rule="evenodd" d="M0.973895 30.8109C0.973895 34.7748 0.973895 38.7389 0.973895 42.7028C0.685397 42.7748 0.396897 42.847 0.108398 42.919C0.108398 38.9551 0.108398 34.991 0.108398 31.0271C0.369761 30.8684 0.65826 30.7964 0.973895 30.8109Z" fill="#29B8F8"/>
<path fill-rule="evenodd" clip-rule="evenodd" d="M24.9914 39.2432C25.9326 39.8244 26.7261 40.5452 27.3715 41.4053C26.4037 44.4509 25.3938 47.478 24.3423 50.4864C23.8584 50.6786 23.4257 50.9668 23.044 51.3513C22.9127 51.3245 22.8406 51.2525 22.8276 51.1351C23.6853 47.9513 24.6952 44.8161 25.8569 41.7297C25.2391 41.2905 24.6621 40.8222 24.1259 40.3242C24.5775 40.0897 24.8659 39.7294 24.9914 39.2432Z" fill="#25C1EB"/>
<path fill-rule="evenodd" clip-rule="evenodd" d="M49.8743 44.6488C50.3 44.5971 50.6968 44.6691 51.0644 44.865C50.9939 45.7234 50.9939 46.5882 51.0644 47.4596C51.4251 48.1082 51.9299 48.6127 52.579 48.9731C52.7355 49.5407 52.5191 49.9011 51.9299 50.0542C50.2898 49.417 49.0997 49.8855 48.3597 51.4596C48.0713 51.6038 47.7827 51.6038 47.4942 51.4596C47.4111 50.5774 47.375 49.6767 47.386 48.7569C47.0253 48.1082 46.5205 47.6038 45.8714 47.2434C45.7271 46.9551 45.7271 46.6667 45.8714 46.3785C46.68 46.3151 47.5094 46.2792 48.3597 46.2704C49.2075 46.0362 49.7125 45.4957 49.8743 44.6488Z" fill="#2998F1"/>
<path fill-rule="evenodd" clip-rule="evenodd" d="M48.7924 47.4594C49.5824 47.3864 49.9429 47.7466 49.8743 48.5405C48.8636 48.8672 48.5031 48.5068 48.7924 47.4594Z" fill="#0B0D1D"/>
<path fill-rule="evenodd" clip-rule="evenodd" d="M40.3537 50.4866C39.7686 50.5233 39.4079 50.8116 39.2718 51.3515C38.4825 50.7802 37.689 50.2036 36.8917 49.6217C32.9666 52.4267 29.0719 55.2736 25.2075 58.1623C24.1299 58.9138 23.1201 58.8777 22.1782 58.0542C22.4866 57.7467 22.7029 57.3863 22.8273 56.9731C23.3116 57.1973 23.8164 57.2332 24.342 57.0812C28.3202 54.0427 32.3593 51.0877 36.4589 48.2163C36.7474 48.0721 37.036 48.0721 37.3244 48.2163C38.3738 48.9435 39.3837 49.7002 40.3537 50.4866Z" fill="#27A8EF"/>
<path opacity="0.875" fill-rule="evenodd" clip-rule="evenodd" d="M73.6756 43.1353C73.6756 45.5136 73.6756 47.892 73.6756 50.2704C73.3149 50.4146 72.9544 50.5586 72.5938 50.7028C72.5938 48.2524 72.5938 45.8018 72.5938 43.3515C72.9436 43.2351 73.3043 43.1631 73.6756 43.1353Z" fill="#729CDE"/>
<path fill-rule="evenodd" clip-rule="evenodd" d="M24.3422 50.4866C23.8681 52.2323 23.3272 53.962 22.7194 55.6758C22.5727 56.1294 22.6088 56.5618 22.8276 56.9731C22.7031 57.3862 22.4868 57.7467 22.1784 58.0541C21.4857 57.6053 21.1972 56.9566 21.3129 56.1082C21.606 54.3664 22.1109 52.7088 22.8276 51.1352C22.8405 51.2526 22.9126 51.3246 23.0439 51.3514C23.4256 50.967 23.8584 50.6788 24.3422 50.4866Z" fill="#26B4EE"/>
<path fill-rule="evenodd" clip-rule="evenodd" d="M0.973895 42.7026C0.973895 46.6665 0.973895 50.6306 0.973895 54.5945C0.65826 54.58 0.369761 54.652 0.108398 54.8107C0.108398 50.8469 0.108398 46.8827 0.108398 42.9189C0.396897 42.8469 0.685397 42.7746 0.973895 42.7026Z" fill="#2B9FFB"/>
<path fill-rule="evenodd" clip-rule="evenodd" d="M40.3538 50.4866C42.0063 51.5629 43.593 52.7162 45.1141 53.946C44.6175 54.0835 44.257 54.3718 44.0322 54.8109C42.3798 53.7346 40.7931 52.5813 39.272 51.3514C39.4081 50.8115 39.7688 50.5233 40.3538 50.4866Z" fill="#2998EF"/>
<path fill-rule="evenodd" clip-rule="evenodd" d="M44.0322 54.8107C44.257 54.3716 44.6175 54.0834 45.1141 53.9459C46.5885 54.9359 48.031 55.9811 49.4416 57.081C50.3731 57.4138 50.9501 57.1255 51.1726 56.2161C50.8119 54.9908 50.4514 53.7658 50.0907 52.5405C50.1485 51.8564 50.509 51.6401 51.1726 51.8918C51.8053 53.2838 52.3101 54.7251 52.6872 56.2161C52.2921 58.126 51.138 58.9188 49.2252 58.5945C47.5154 57.2793 45.7844 56.0179 44.0322 54.8107Z" fill="#2A8BF0"/>
<path opacity="0.85" fill-rule="evenodd" clip-rule="evenodd" d="M73.6756 50.2703C73.6756 52.3604 73.6756 54.4504 73.6756 56.5405C73.342 56.7137 72.9815 56.7857 72.5938 56.7568C72.5938 54.7388 72.5938 52.7206 72.5938 50.7027C72.9544 50.5585 73.3149 50.4145 73.6756 50.2703Z" fill="#9FA8CA"/>
<path fill-rule="evenodd" clip-rule="evenodd" d="M0.973895 54.5946C0.973895 57.3334 0.973895 60.072 0.973895 62.8108C0.712533 62.9695 0.424034 63.0415 0.108398 63.027C0.108398 60.2882 0.108398 57.5496 0.108398 54.8108C0.369761 54.6521 0.65826 54.5801 0.973895 54.5946Z" fill="#318EFB"/>
<path opacity="0.857" fill-rule="evenodd" clip-rule="evenodd" d="M73.6756 56.5405C73.6756 57.7658 73.6756 58.9909 73.6756 60.2162C73.3257 60.3325 72.965 60.4045 72.5938 60.4324C72.5938 59.2071 72.5938 57.982 72.5938 56.7567C72.9815 56.7857 73.342 56.7137 73.6756 56.5405Z" fill="#BEB0BC"/>
<path opacity="0.844" fill-rule="evenodd" clip-rule="evenodd" d="M73.6753 60.2163C73.7112 62.0196 73.6753 63.8213 73.5671 65.6217C73.5242 66.0286 73.416 66.3888 73.2425 66.7028C72.8926 66.8191 72.5319 66.8911 72.1606 66.919C72.2059 66.6116 72.3141 66.3233 72.4852 66.0541C72.5934 64.1817 72.6293 62.3078 72.5934 60.4325C72.9647 60.4046 73.3254 60.3326 73.6753 60.2163Z" fill="#E1B8A9"/>
<path opacity="0.902" fill-rule="evenodd" clip-rule="evenodd" d="M0.973512 62.8108C0.908847 64.2787 1.05309 65.7202 1.40626 67.1351C1.1449 67.2938 0.8564 67.3658 0.540764 67.3513C0.146021 65.9498 0.00177146 64.5083 0.108015 63.027C0.423651 63.0415 0.71215 62.9695 0.973512 62.8108Z" fill="#5692E5"/>
<path opacity="0.937" fill-rule="evenodd" clip-rule="evenodd" d="M73.2429 66.7026C72.4425 69.3764 70.7115 71.1061 68.0499 71.8918C62.0635 71.8918 56.0772 71.8918 50.0908 71.8918C50.812 71.6036 51.5334 71.3152 52.2546 71.027C57.3759 71.0631 62.4969 71.027 67.6171 70.9189C69.7798 70.3065 71.2944 68.9731 72.161 66.9189C72.5323 66.891 72.893 66.819 73.2429 66.7026Z" fill="#F6BDA0"/>
<path opacity="0.897" fill-rule="evenodd" clip-rule="evenodd" d="M1.40651 67.1353C2.41229 69.15 3.99902 70.4473 6.16675 71.0271C5.78575 71.2029 5.42512 71.4191 5.08487 71.6758C2.86436 70.9703 1.34974 69.529 0.541016 67.3515C0.856652 67.366 1.14515 67.294 1.40651 67.1353Z" fill="#7B9DD7"/>
<path fill-rule="evenodd" clip-rule="evenodd" d="M6.16683 71.0271C9.48456 71.0271 12.8023 71.0271 16.12 71.0271C15.384 71.2725 14.6627 71.5607 13.9563 71.892C11.1434 71.892 8.33057 71.892 5.51771 71.892C5.44377 71.7108 5.29952 71.6386 5.08496 71.6757C5.42521 71.4191 5.78584 71.2029 6.16683 71.0271Z" fill="#95A5CE"/>
<path fill-rule="evenodd" clip-rule="evenodd" d="M16.1198 71.0271C19.0048 71.0271 21.8899 71.0271 24.7748 71.0271C24.0387 71.2725 23.3175 71.5607 22.611 71.892C19.726 71.892 16.841 71.892 13.9561 71.892C14.6625 71.5607 15.3837 71.2725 16.1198 71.0271Z" fill="#A8AAC5"/>
<path fill-rule="evenodd" clip-rule="evenodd" d="M24.7751 71.0271C27.8043 71.0271 30.8335 71.0271 33.8628 71.0271C33.1267 71.2725 32.4055 71.5607 31.699 71.892C28.6698 71.892 25.6406 71.892 22.6113 71.892C23.3178 71.5607 24.039 71.2725 24.7751 71.0271Z" fill="#B9AFBE"/>
<path fill-rule="evenodd" clip-rule="evenodd" d="M33.8625 71.0271C36.9638 71.0271 40.0653 71.0271 43.1666 71.0271C42.1862 71.1577 41.2484 71.4459 40.3537 71.892C37.4688 71.892 34.5836 71.892 31.6987 71.892C32.4052 71.5607 33.1264 71.2725 33.8625 71.0271Z" fill="#CBB3B5"/>
<path fill-rule="evenodd" clip-rule="evenodd" d="M43.1669 71.0271C46.1961 71.0271 49.2253 71.0271 52.2546 71.0271C51.5334 71.3153 50.812 71.6037 50.0908 71.892C46.8452 71.892 43.5996 71.892 40.354 71.892C41.2487 71.4459 42.1865 71.1577 43.1669 71.0271Z" fill="#DDB8AD"/>
</g>
<defs>
<clipPath id="clip0_486_3229">
<rect width="74" height="72" fill="white"/>
</clipPath>
</defs>
</svg>
